<svg width="50" height="50" viewBox="0 0 50 50" fill="none" xmlns="http://www.w3.org/2000/svg">
<rect width="50" height="50" rx="10" fill="white"/>
<g clip-path="url(#clip0_529_266)">
<path d="M10.1649 12.288C10.1649 11.1157 11.1455 10.165 12.355 10.165H37.6114C38.8209 10.165 39.8016 11.1157 39.8016 12.288V37.6788C39.8016 38.8514 38.8209 39.8018 37.6114 39.8018H12.355C11.1455 39.8018 10.1649 38.8514 10.1649 37.6788V12.288Z" fill="#006699"/>
<path d="M16.9105 19.7645C18.4714 19.7645 19.4431 18.7367 19.4431 17.4525C19.4141 16.1392 18.4717 15.1401 16.9401 15.1401C15.4089 15.1401 14.4078 16.1392 14.4078 17.4525C14.4078 18.7367 15.3793 19.7645 16.8815 19.7645H16.9105Z" fill="white"/>
<path d="M19.1487 34.9739V21.5913H14.6722V34.9739H19.1487Z" fill="white"/>
<path d="M21.6257 34.974H26.1022V27.5006C26.1022 27.1005 26.1312 26.7011 26.2494 26.4153C26.5731 25.6161 27.3094 24.7886 28.5462 24.7886C30.166 24.7886 30.8141 26.0158 30.8141 27.8148V34.974H35.2899V27.3008C35.2899 23.1901 33.0816 21.2776 30.1364 21.2776C27.7217 21.2776 26.6613 22.6188 26.0722 23.5323H26.1022V21.5914H21.6257C21.6843 22.8473 21.6257 34.974 21.6257 34.974Z" fill="white"/>
</g>
<defs>
<clipPath id="clip0_529_266">
<rect width="30" height="30" fill="white" transform="translate(10 10)"/>
</clipPath>
</defs>
</svg>
