<svg width="116" height="24" viewBox="0 0 116 24" fill="none" xmlns="http://www.w3.org/2000/svg">
<path fill-rule="evenodd" clip-rule="evenodd" d="M15.212 6.07893C15.5825 5.89388 16.033 6.04428 16.218 6.41486C17.3587 8.69908 18 11.2757 18 13.9999C18 16.7242 17.3587 19.3008 16.218 21.585C16.033 21.9556 15.5825 22.106 15.212 21.9209C14.8414 21.7359 14.691 21.2854 14.876 20.9149C15.9151 18.834 16.5 16.4864 16.5 13.9999C16.5 11.5135 15.9151 9.16579 14.876 7.08498C14.691 6.7144 14.8414 6.26398 15.212 6.07893ZM4.78803 6.07893C5.15861 6.26398 5.30901 6.7144 5.12397 7.08498C4.08491 9.16579 3.5 11.5135 3.5 13.9999C3.5 16.4864 4.08491 18.834 5.12397 20.9149C5.30901 21.2854 5.15861 21.7359 4.78803 21.9209C4.41745 22.106 3.96703 21.9556 3.78198 21.585C2.64135 19.3008 2 16.7242 2 13.9999C2 11.2757 2.64135 8.69908 3.78198 6.41486C3.96703 6.04428 4.41745 5.89388 4.78803 6.07893ZM7.07277 9.63335C7.86037 9.10829 8.93143 9.43503 9.29184 10.3103L10.1483 12.3902L11.2942 10.6192C11.9758 9.5658 13.3873 9.27343 14.4313 9.96941L14.666 10.1259C15.0107 10.3556 15.1038 10.8213 14.874 11.1659C14.6443 11.5106 14.1786 11.6037 13.834 11.374L13.5993 11.2175C13.2513 10.9855 12.7808 11.0829 12.5536 11.4341L10.8431 14.0776L12.0952 17.1184L12.834 16.6259C13.1786 16.3961 13.6443 16.4892 13.874 16.8339C14.1038 17.1785 14.0107 17.6442 13.666 17.874L12.9272 18.3665C12.1396 18.8916 11.0686 18.5648 10.7082 17.6895L9.85173 15.6096L8.70579 17.3806C8.02418 18.434 6.61265 18.7264 5.56869 18.0304L5.33397 17.874C4.98933 17.6442 4.8962 17.1785 5.12596 16.8339C5.35573 16.4892 5.82138 16.3961 6.16603 16.6259L6.40074 16.7824C6.74873 17.0143 7.21923 16.9169 7.44644 16.5658L9.15693 13.9223L7.90482 10.8814L7.16603 11.374C6.82138 11.6037 6.35573 11.5106 6.12596 11.1659C5.8962 10.8213 5.98933 10.3556 6.33397 10.1259L7.07277 9.63335Z" fill="white"/>
<path d="M48.7446 3C47.6195 5.77929 47 8.8173 47 12C47 15.1827 47.6195 18.2207 48.7446 21M63.5 3C64.4673 5.77929 65 8.8173 65 12C65 15.1827 64.4673 18.2207 63.5 21M52.25 8.88462L53.6945 7.99569C54.1061 7.74241 54.6463 7.93879 54.7991 8.39726L57.2009 15.6027C57.3537 16.0612 57.8939 16.2576 58.3055 16.0043L59.75 15.1154M51.5 15.8654L51.7133 15.9556C52.4598 16.2715 53.3254 16.012 53.775 15.3376L58.225 8.66243C58.6746 7.98804 59.5402 7.72854 60.2867 8.04435L60.5 8.13462" stroke="white" stroke-width="1.5" stroke-linecap="round" stroke-linejoin="round"/>
<path fill-rule="evenodd" clip-rule="evenodd" d="M111.253 2.29164C111.645 2.15548 112.072 2.36223 112.208 2.75343C113.203 5.61217 113.75 8.73352 113.75 12C113.75 15.2664 113.203 18.3877 112.208 21.2465C112.072 21.6377 111.645 21.8444 111.253 21.7083C110.862 21.5721 110.656 21.1446 110.792 20.7534C111.731 18.0536 112.25 15.0989 112.25 12C112.25 8.901 111.731 5.94634 110.792 3.24649C110.656 2.85529 110.862 2.42779 111.253 2.29164ZM97.026 2.30476C97.4099 2.46018 97.5952 2.89742 97.4398 3.28137C96.3503 5.97278 95.75 8.91534 95.75 12C95.75 15.0846 96.3503 18.0271 97.4398 20.7185C97.5952 21.1025 97.4099 21.5397 97.026 21.6952C96.642 21.8506 96.2048 21.6653 96.0493 21.2814C94.8887 18.4142 94.25 15.2807 94.25 12C94.25 8.71918 94.8887 5.58573 96.0493 2.71855C96.2048 2.3346 96.642 2.14934 97.026 2.30476ZM101.301 7.35691C102.125 6.85034 103.205 7.24311 103.511 8.16005L104.227 10.308L105.601 8.24636C106.25 7.27224 107.501 6.89742 108.579 7.35359L108.792 7.44385C109.174 7.60524 109.352 8.04533 109.191 8.4268C109.029 8.80828 108.589 8.98669 108.208 8.8253L107.994 8.73504C107.58 8.55959 107.099 8.70375 106.849 9.07841L104.828 12.1108L105.912 15.3655L107.357 14.4766C107.71 14.2595 108.172 14.3695 108.389 14.7223C108.606 15.075 108.496 15.537 108.143 15.7541L106.699 16.643C105.875 17.1496 104.795 16.7568 104.489 15.8399L103.773 13.6919L102.399 15.7536C101.75 16.7277 100.499 17.1025 99.4211 16.6463L99.2078 16.5561C98.8263 16.3947 98.6479 15.9546 98.8093 15.5731C98.9707 15.1916 99.4107 15.0132 99.7922 15.1746L100.006 15.2649C100.42 15.4403 100.901 15.2962 101.151 14.9215L103.172 11.8891L102.088 8.63439L100.643 9.52332C100.29 9.74041 99.8283 9.63042 99.6113 9.27765C99.3942 8.92488 99.5042 8.46292 99.8569 8.24583L101.301 7.35691Z" fill="white"/>
</svg>
