<svg width="116" height="24" viewBox="0 0 116 24" fill="none" xmlns="http://www.w3.org/2000/svg">
<path fill-rule="evenodd" clip-rule="evenodd" d="M8.75 5C7.23122 5 6 6.23122 6 7.75V8.1927C5.20472 8.26972 4.41602 8.36947 3.63458 8.49129C3.22531 8.5551 2.94525 8.9386 3.00906 9.34787C3.07286 9.75714 3.45637 10.0372 3.86564 9.97339L4.01355 9.95062L4.85504 20.4693C4.96938 21.8985 6.16254 23 7.59629 23H12.4035C13.8372 23 15.0304 21.8985 15.1447 20.4693L15.9862 9.95055L16.1346 9.97339C16.5438 10.0372 16.9274 9.75714 16.9912 9.34787C17.055 8.9386 16.7749 8.5551 16.3656 8.49129C15.5841 8.36946 14.7954 8.2697 14 8.19268V7.75C14 6.23122 12.7688 5 11.25 5H8.75ZM10.0001 8C10.8395 8 11.673 8.02523 12.5 8.07499V7.75C12.5 7.05964 11.9404 6.5 11.25 6.5H8.75C8.05964 6.5 7.5 7.05964 7.5 7.75V8.075C8.32707 8.02524 9.16068 8 10.0001 8ZM8.57948 11.72C8.56292 11.3061 8.21398 10.984 7.8001 11.0006C7.38622 11.0172 7.06412 11.3661 7.08068 11.78L7.38069 19.28C7.39725 19.6939 7.74619 20.016 8.16007 19.9994C8.57395 19.9828 8.89605 19.6339 8.87949 19.22L8.57948 11.72ZM12.9195 11.78C12.936 11.3661 12.614 11.0172 12.2001 11.0006C11.7862 10.984 11.4372 11.3061 11.4207 11.72L11.1207 19.22C11.1041 19.6339 11.4262 19.9828 11.8401 19.9994C12.254 20.016 12.6029 19.6939 12.6195 19.28L12.9195 11.78Z" fill="white"/>
<path d="M58.7404 9L58.3942 18M53.6058 18L53.2596 9M63.2276 5.79057C63.5696 5.84221 63.9104 5.89747 64.25 5.95629M63.2276 5.79057L62.1598 19.6726C62.0696 20.8448 61.0921 21.75 59.9164 21.75H52.0836C50.9079 21.75 49.9304 20.8448 49.8402 19.6726L48.7724 5.79057M63.2276 5.79057C62.0812 5.61744 60.9215 5.48485 59.75 5.39432M47.75 5.95629C48.0896 5.89747 48.4304 5.84221 48.7724 5.79057M48.7724 5.79057C49.9188 5.61744 51.0785 5.48485 52.25 5.39432M59.75 5.39432V4.47819C59.75 3.29882 58.8393 2.31423 57.6606 2.27652C57.1092 2.25889 56.5556 2.25 56 2.25C55.4444 2.25 54.8908 2.25889 54.3394 2.27652C53.1607 2.31423 52.25 3.29882 52.25 4.47819V5.39432M59.75 5.39432C58.5126 5.2987 57.262 5.25 56 5.25C54.738 5.25 53.4874 5.2987 52.25 5.39432" stroke="white" stroke-width="1.5" stroke-linecap="round" stroke-linejoin="round"/>
<path fill-rule="evenodd" clip-rule="evenodd" d="M108.5 4.47819V4.70498C109.455 4.79237 110.402 4.90731 111.34 5.04898C111.687 5.10143 112.033 5.15755 112.378 5.2173C112.786 5.28799 113.06 5.67617 112.989 6.0843C112.918 6.49244 112.53 6.76598 112.122 6.69529C112.053 6.68323 111.983 6.67132 111.913 6.65957L110.908 19.7301C110.787 21.2931 109.484 22.5 107.917 22.5H100.084C98.5161 22.5 97.2128 21.2931 97.0925 19.7301L96.0871 6.65957C96.0174 6.67132 95.9477 6.68323 95.8781 6.69529C95.47 6.76598 95.0818 6.49244 95.0111 6.0843C94.9404 5.67617 95.214 5.28799 95.6221 5.2173C95.967 5.15755 96.3131 5.10143 96.6605 5.04898C97.5986 4.90731 98.5454 4.79237 99.5001 4.70498V4.47819C99.5001 2.91371 100.713 1.57818 102.316 1.52691C102.875 1.50901 103.436 1.5 104 1.5C104.564 1.5 105.125 1.50901 105.685 1.52691C107.288 1.57818 108.5 2.91371 108.5 4.47819ZM102.364 3.02614C102.907 3.00876 103.452 3 104 3C104.548 3 105.093 3.00876 105.637 3.02614C106.391 3.05028 107 3.68393 107 4.47819V4.59082C106.008 4.53056 105.007 4.5 104 4.5C102.993 4.5 101.992 4.53056 101 4.59082V4.47819C101 3.68393 101.609 3.05028 102.364 3.02614ZM102.009 8.97118C101.993 8.55727 101.644 8.23463 101.23 8.25055C100.817 8.26647 100.494 8.61492 100.51 9.02882L100.856 18.0288C100.872 18.4427 101.22 18.7654 101.634 18.7494C102.048 18.7335 102.371 18.3851 102.355 17.9712L102.009 8.97118ZM107.489 9.02882C107.505 8.61492 107.183 8.26647 106.769 8.25055C106.355 8.23463 106.007 8.55727 105.991 8.97118L105.644 17.9712C105.629 18.3851 105.951 18.7335 106.365 18.7494C106.779 18.7654 107.127 18.4427 107.143 18.0288L107.489 9.02882Z" fill="white"/>
</svg>
