<svg width="116" height="24" viewBox="0 0 116 24" fill="none" xmlns="http://www.w3.org/2000/svg">
<path fill-rule="evenodd" clip-rule="evenodd" d="M3.42976 6.52374C5.56943 6.17905 7.76407 6 10 6C12.2359 6 14.4306 6.17905 16.5702 6.52374C18.0066 6.75513 19 8.01325 19 9.42588V14.5741C19 15.9867 18.0066 17.2449 16.5702 17.4763C15.4024 17.6644 14.2181 17.8032 13.0196 17.8905C12.7399 17.9108 12.4988 18.0703 12.3775 18.3035L10.6654 21.596C10.5363 21.8443 10.2798 22 10 22C9.7202 22 9.46367 21.8443 9.33459 21.596L7.62247 18.3035C7.5012 18.0703 7.2601 17.9108 6.9804 17.8905C5.78193 17.8032 4.59764 17.6644 3.42976 17.4763C1.99338 17.2449 1 15.9867 1 14.5741V9.42588C1 8.01325 1.99339 6.75513 3.42976 6.52374Z" fill="white"/>
<path d="M46.25 12.7593C46.25 14.3604 47.3734 15.754 48.9575 15.987C50.0255 16.144 51.1049 16.2659 52.1946 16.3513C52.6614 16.388 53.0883 16.6324 53.348 17.022L56 21L58.652 17.0221C58.9117 16.6325 59.3386 16.388 59.8053 16.3514C60.895 16.2659 61.9745 16.1441 63.0425 15.9871C64.6266 15.7542 65.75 14.3606 65.75 12.7595V6.74056C65.75 5.13946 64.6266 3.74583 63.0425 3.51293C60.744 3.17501 58.3926 3 56.0003 3C53.6078 3 51.2561 3.17504 48.9575 3.51302C47.3734 3.74593 46.25 5.13956 46.25 6.74064V12.7593Z" stroke="white" stroke-width="1.5" stroke-linecap="round" stroke-linejoin="round"/>
<path fill-rule="evenodd" clip-rule="evenodd" d="M96.8484 2.771C99.183 2.42773 101.571 2.25 104 2.25C106.429 2.25 108.817 2.4277 111.152 2.77091C113.13 3.06177 114.5 4.79445 114.5 6.74056V12.7595C114.5 14.7056 113.13 16.4382 111.152 16.7291C110.005 16.8976 108.846 17.0262 107.676 17.1135C107.551 17.1228 107.443 17.1875 107.379 17.2835L104.624 21.416C104.485 21.6247 104.251 21.75 104 21.75C103.749 21.75 103.515 21.6247 103.376 21.416L100.621 17.2835C100.557 17.1874 100.449 17.1227 100.324 17.1134C99.1536 17.0261 97.9945 16.8975 96.8484 16.729C94.87 16.4381 93.5 14.7054 93.5 12.7593V6.74064C93.5 4.79455 94.87 3.06188 96.8484 2.771Z" fill="white"/>
</svg>
