<svg width="116" height="24" viewBox="0 0 116 24" fill="none" xmlns="http://www.w3.org/2000/svg">
<path fill-rule="evenodd" clip-rule="evenodd" d="M14.7803 9.21967C14.4874 8.92678 14.0126 8.92678 13.7197 9.21967L6.5 16.4393V10.75C6.5 10.3358 6.16421 10 5.75 10C5.33579 10 5 10.3358 5 10.75V18.25C5 18.6642 5.33579 19 5.75 19H13.25C13.6642 19 14 18.6642 14 18.25C14 17.8358 13.6642 17.5 13.25 17.5H7.56066L14.7803 10.2803C15.0732 9.98744 15.0732 9.51256 14.7803 9.21967Z" fill="white"/>
<path d="M63.5 4.5L48.5 19.5M48.5 19.5L59.75 19.5M48.5 19.5L48.5 8.25" stroke="white" stroke-width="1.5" stroke-linecap="round" stroke-linejoin="round"/>
<path fill-rule="evenodd" clip-rule="evenodd" d="M112.03 3.96967C112.323 4.26256 112.323 4.73744 112.03 5.03033L98.3107 18.75L107.75 18.75C108.164 18.75 108.5 19.0858 108.5 19.5C108.5 19.9142 108.164 20.25 107.75 20.25L96.5 20.25C96.0858 20.25 95.75 19.9142 95.75 19.5L95.75 8.25C95.75 7.83579 96.0858 7.5 96.5 7.5C96.9142 7.5 97.25 7.83579 97.25 8.25L97.25 17.6893L110.97 3.96967C111.263 3.67678 111.737 3.67678 112.03 3.96967Z" fill="white"/>
</svg>
