<svg width="116" height="24" viewBox="0 0 116 24" fill="none" xmlns="http://www.w3.org/2000/svg">
<path fill-rule="evenodd" clip-rule="evenodd" d="M5.23017 19.7906C4.93159 19.5035 4.92228 19.0287 5.20938 18.7302L9.45938 14.2302C9.60078 14.0831 9.79599 14 10 14C10.204 14 10.3992 14.0831 10.5406 14.2302L14.7906 18.7302C15.0777 19.0287 15.0684 19.5035 14.7698 19.7906C14.4713 20.0777 13.9965 20.0684 13.7094 19.7698L10 15.8321L6.29063 19.7698C6.00353 20.0684 5.52875 20.0777 5.23017 19.7906ZM5.23017 13.7906C4.93159 13.5035 4.92228 13.0287 5.20938 12.7302L9.45938 8.23017C9.60078 8.08311 9.79599 8 10 8C10.204 8 10.3992 8.08311 10.5406 8.23017L14.7906 12.7302C15.0777 13.0287 15.0684 13.5035 14.7698 13.7906C14.4713 14.0777 13.9965 14.0684 13.7094 13.7698L10 9.83208L6.29063 13.7698C6.00353 14.0684 5.52875 14.0777 5.23017 13.7906Z" fill="white"/>
<path d="M48.5 12.75L56 5.25L63.5 12.75M48.5 18.75L56 11.25L63.5 18.75" stroke="white" stroke-width="1.5" stroke-linecap="round" stroke-linejoin="round"/>
<path fill-rule="evenodd" clip-rule="evenodd" d="M103.47 4.71967C103.763 4.42678 104.237 4.42678 104.53 4.71967L112.03 12.2197C112.323 12.5126 112.323 12.9874 112.03 13.2803C111.737 13.5732 111.263 13.5732 110.97 13.2803L104 6.31066L97.0303 13.2803C96.7374 13.5732 96.2626 13.5732 95.9697 13.2803C95.6768 12.9874 95.6768 12.5126 95.9697 12.2197L103.47 4.71967ZM104 12.3107L97.0303 19.2803C96.7374 19.5732 96.2626 19.5732 95.9697 19.2803C95.6768 18.9874 95.6768 18.5126 95.9697 18.2197L103.47 10.7197C103.763 10.4268 104.237 10.4268 104.53 10.7197L112.03 18.2197C112.323 18.5126 112.323 18.9874 112.03 19.2803C111.737 19.5732 111.263 19.5732 110.97 19.2803L104 12.3107Z" fill="white"/>
</svg>
