<svg width="116" height="24" viewBox="0 0 116 24" fill="none" xmlns="http://www.w3.org/2000/svg">
<path d="M6.28033 9.21967C5.98744 8.92678 5.51256 8.92678 5.21967 9.21967C4.92678 9.51256 4.92678 9.98744 5.21967 10.2803L8.93934 14L5.21967 17.7197C4.92678 18.0126 4.92678 18.4874 5.21967 18.7803C5.51256 19.0732 5.98744 19.0732 6.28033 18.7803L10 15.0607L13.7197 18.7803C14.0126 19.0732 14.4874 19.0732 14.7803 18.7803C15.0732 18.4874 15.0732 18.0126 14.7803 17.7197L11.0607 14L14.7803 10.2803C15.0732 9.98744 15.0732 9.51256 14.7803 9.21967C14.4874 8.92678 14.0126 8.92678 13.7197 9.21967L10 12.9393L6.28033 9.21967Z" fill="white"/>
<path d="M50 18L62 6M50 6L62 18" stroke="white" stroke-width="1.5" stroke-linecap="round" stroke-linejoin="round"/>
<path fill-rule="evenodd" clip-rule="evenodd" d="M97.4697 5.46967C97.7626 5.17678 98.2374 5.17678 98.5303 5.46967L104 10.9393L109.47 5.46967C109.763 5.17678 110.237 5.17678 110.53 5.46967C110.823 5.76256 110.823 6.23744 110.53 6.53033L105.061 12L110.53 17.4697C110.823 17.7626 110.823 18.2374 110.53 18.5303C110.237 18.8232 109.763 18.8232 109.47 18.5303L104 13.0607L98.5303 18.5303C98.2374 18.8232 97.7626 18.8232 97.4697 18.5303C97.1768 18.2374 97.1768 17.7626 97.4697 17.4697L102.939 12L97.4697 6.53033C97.1768 6.23744 97.1768 5.76256 97.4697 5.46967Z" fill="white"/>
</svg>
