<svg width="116" height="24" viewBox="0 0 116 24" fill="none" xmlns="http://www.w3.org/2000/svg">
<path fill-rule="evenodd" clip-rule="evenodd" d="M14.7803 18.7803C14.4874 19.0732 14.0126 19.0732 13.7197 18.7803L6.5 11.5607V17.25C6.5 17.6642 6.16421 18 5.75 18C5.33579 18 5 17.6642 5 17.25V9.75C5 9.33579 5.33579 9 5.75 9H13.25C13.6642 9 14 9.33579 14 9.75C14 10.1642 13.6642 10.5 13.25 10.5H7.56066L14.7803 17.7197C15.0732 18.0126 15.0732 18.4874 14.7803 18.7803Z" fill="white"/>
<path d="M63.5 19.5L48.5 4.5M48.5 4.5L48.5 15.75M48.5 4.5L59.75 4.5" stroke="white" stroke-width="1.5" stroke-linecap="round" stroke-linejoin="round"/>
<path fill-rule="evenodd" clip-rule="evenodd" d="M97.25 6.31066L97.25 15.75C97.25 16.1642 96.9142 16.5 96.5 16.5C96.0858 16.5 95.75 16.1642 95.75 15.75L95.75 4.5C95.75 4.30109 95.829 4.11032 95.9697 3.96967C96.1103 3.82902 96.3011 3.75 96.5 3.75L107.75 3.75C108.164 3.75 108.5 4.08579 108.5 4.5C108.5 4.91421 108.164 5.25 107.75 5.25L98.3107 5.25L112.03 18.9697C112.323 19.2626 112.323 19.7374 112.03 20.0303C111.737 20.3232 111.263 20.3232 110.97 20.0303L97.25 6.31066Z" fill="white"/>
</svg>
