<svg width="116" height="24" viewBox="0 0 116 24" fill="none" xmlns="http://www.w3.org/2000/svg">
<path fill-rule="evenodd" clip-rule="evenodd" d="M10 22C14.4183 22 18 18.4183 18 14C18 9.58172 14.4183 6 10 6C5.58172 6 2 9.58172 2 14C2 18.4183 5.58172 22 10 22ZM10.75 10.75C10.75 10.3358 10.4142 10 10 10C9.58579 10 9.25 10.3358 9.25 10.75V15.3401L7.29959 13.2397C7.01774 12.9361 6.54319 12.9186 6.23966 13.2004C5.93613 13.4823 5.91855 13.9568 6.20041 14.2603L9.45041 17.7603C9.59231 17.9132 9.79145 18 10 18C10.2086 18 10.4077 17.9132 10.5496 17.7603L13.7996 14.2603C14.0814 13.9568 14.0639 13.4823 13.7603 13.2004C13.4568 12.9186 12.9823 12.9361 12.7004 13.2397L10.75 15.3401V10.75Z" fill="white"/>
<path d="M53 12.75L56 15.75M56 15.75L59 12.75M56 15.75L56 8.25M65 12C65 16.9706 60.9706 21 56 21C51.0294 21 47 16.9706 47 12C47 7.02944 51.0294 3 56 3C60.9706 3 65 7.02944 65 12Z" stroke="white" stroke-width="1.5" stroke-linecap="round" stroke-linejoin="round"/>
<path fill-rule="evenodd" clip-rule="evenodd" d="M104 2.25C98.6152 2.25 94.25 6.61522 94.25 12C94.25 17.3848 98.6152 21.75 104 21.75C109.385 21.75 113.75 17.3848 113.75 12C113.75 6.61522 109.385 2.25 104 2.25ZM103.47 16.2803C103.61 16.421 103.801 16.5 104 16.5C104.199 16.5 104.39 16.421 104.53 16.2803L107.53 13.2803C107.823 12.9874 107.823 12.5126 107.53 12.2197C107.237 11.9268 106.763 11.9268 106.47 12.2197L104.75 13.9393L104.75 8.25C104.75 7.83579 104.414 7.5 104 7.5C103.586 7.5 103.25 7.83579 103.25 8.25L103.25 13.9393L101.53 12.2197C101.237 11.9268 100.763 11.9268 100.47 12.2197C100.177 12.5126 100.177 12.9874 100.47 13.2803L103.47 16.2803Z" fill="white"/>
</svg>
