<svg width="188" height="56" viewBox="0 0 188 56" fill="none" xmlns="http://www.w3.org/2000/svg">
<rect x="0.5" y="0.5" width="55" height="55" rx="7.5" fill="#0F0F0F"/>
<rect x="0.5" y="0.5" width="55" height="55" rx="7.5" stroke="#262626"/>
<path d="M28 21V35M35 28L21 28" stroke="white" stroke-width="2" stroke-linecap="round" stroke-linejoin="round"/>
<rect x="66.5" y="0.5" width="55" height="55" rx="7.5" fill="#0F0F0F"/>
<rect x="66.5" y="0.5" width="55" height="55" rx="7.5" stroke="#262626"/>
<path d="M87.738 25.9584C88.6787 25.9584 89.5276 25.4382 90.1081 24.698C91.0101 23.5479 92.147 22.5907 93.4465 21.8986C94.289 21.4499 95.02 20.7834 95.3745 19.8971C95.6226 19.277 95.75 18.6152 95.75 17.9473V17.2084C95.75 16.7251 96.1418 16.3334 96.625 16.3334C98.0747 16.3334 99.25 17.5086 99.25 18.9584C99.25 20.3019 98.9472 21.5748 98.4061 22.7124C98.0962 23.3638 98.5309 24.2084 99.2522 24.2084M99.2522 24.2084H102.899C104.097 24.2084 105.169 25.018 105.296 26.209C105.348 26.7016 105.375 27.2019 105.375 27.7084C105.375 31.0306 104.218 34.0825 102.285 36.4831C101.832 37.0446 101.133 37.3334 100.412 37.3334H95.727C95.1627 37.3334 94.6021 37.2424 94.0668 37.064L90.4332 35.8528C89.8979 35.6743 89.3373 35.5834 88.773 35.5834H86.8882M99.2522 24.2084H96.625M86.8882 35.5834C86.9849 35.822 87.09 36.0564 87.2033 36.2859C87.4333 36.7521 87.1122 37.3334 86.5925 37.3334H85.5334C84.4965 37.3334 83.5349 36.729 83.2323 35.7373C82.8374 34.4431 82.625 33.0693 82.625 31.6459C82.625 29.8347 82.9689 28.1038 83.5951 26.515C83.951 25.6119 84.8619 25.0834 85.8326 25.0834H87.0608C87.6114 25.0834 87.9302 25.7319 87.6444 26.2025C86.6802 27.7898 86.125 29.653 86.125 31.6459C86.125 33.0383 86.396 34.3674 86.8882 35.5834Z" stroke="white" stroke-width="2" stroke-linecap="round" stroke-linejoin="round"/>
<rect x="132.5" y="0.5" width="55" height="55" rx="7.5" fill="#0F0F0F"/>
<rect x="132.5" y="0.5" width="55" height="55" rx="7.5" stroke="#262626"/>
<path d="M168.3 20.5754C172.4 24.6759 172.4 31.3241 168.3 35.4246M165.206 23.669C167.598 26.061 167.598 29.9391 165.206 32.3311M153.875 23.625L159.381 18.1188C159.933 17.5675 160.875 17.9579 160.875 18.7375V37.2626C160.875 38.0421 159.933 38.4325 159.381 37.8813L153.875 32.375H151.261C150.235 32.375 149.274 31.7842 149.001 30.7951C148.756 29.9052 148.625 28.9679 148.625 28C148.625 27.0322 148.756 26.0949 149.001 25.205C149.274 24.2159 150.235 23.625 151.261 23.625H153.875Z" stroke="white" stroke-width="2" stroke-linecap="round" stroke-linejoin="round"/>
</svg>
