<svg width="116" height="24" viewBox="0 0 116 24" fill="none" xmlns="http://www.w3.org/2000/svg">
<path d="M11.9834 5.90718C12.0546 5.57461 11.8932 5.23571 11.59 5.08152C11.2868 4.92734 10.9179 4.99646 10.6911 5.24994L2.19108 14.7499C1.99385 14.9704 1.9446 15.2861 2.06533 15.5562C2.18607 15.8262 2.45423 16 2.75001 16H9.32227L8.01666 22.0929C7.9454 22.4255 8.10685 22.7644 8.41002 22.9185C8.71318 23.0727 9.08215 23.0036 9.30894 22.7501L17.8089 13.2501C18.0062 13.0297 18.0554 12.7139 17.9347 12.4439C17.814 12.1739 17.5458 12 17.25 12H10.6778L11.9834 5.90718Z" fill="white"/>
<path d="M47.75 13.5L58.25 2.25L56 10.5H64.25L53.75 21.75L56 13.5H47.75Z" stroke="white" stroke-width="1.5" stroke-linecap="round" stroke-linejoin="round"/>
<path fill-rule="evenodd" clip-rule="evenodd" d="M106.615 1.59495C106.916 1.76289 107.064 2.11463 106.974 2.44736L104.982 9.75003H112.25C112.549 9.75003 112.819 9.92721 112.938 10.2011C113.057 10.475 113.002 10.7934 112.798 11.0118L102.298 22.2618C102.063 22.5139 101.686 22.573 101.385 22.4051C101.084 22.2372 100.936 21.8854 101.026 21.5527L103.018 14.25H95.75C95.4513 14.25 95.1812 14.0728 95.0621 13.7989C94.9431 13.525 94.9979 13.2066 95.2017 12.9883L105.702 1.73829C105.937 1.48615 106.314 1.42701 106.615 1.59495Z" fill="white"/>
</svg>
