<svg width="116" height="24" viewBox="0 0 116 24" fill="none" xmlns="http://www.w3.org/2000/svg">
<path fill-rule="evenodd" clip-rule="evenodd" d="M5.5 21C3.01472 21 1 18.9853 1 16.5C1 14.5184 2.28084 12.836 4.05979 12.2354C4.02046 11.9961 4 11.7504 4 11.5C4 9.01472 6.01472 7 8.5 7C10.1404 7 11.5758 7.87771 12.3621 9.18913C12.7189 9.06655 13.1017 9 13.5 9C15.433 9 17 10.567 17 12.5C17 12.8333 16.9534 13.1558 16.8664 13.4612C18.1353 14.1318 19 15.4649 19 17C19 19.2091 17.2091 21 15 21H5.5ZM9.25 18.25C9.25 18.6642 9.58579 19 10 19C10.4142 19 10.75 18.6642 10.75 18.25V13.6599L12.7004 15.7603C12.9823 16.0639 13.4568 16.0814 13.7603 15.7996C14.0639 15.5177 14.0814 15.0432 13.7996 14.7397L10.5496 11.2397C10.4077 11.0868 10.2086 11 10 11C9.79145 11 9.59231 11.0868 9.45041 11.2397L6.20041 14.7397C5.91855 15.0432 5.93613 15.5177 6.23966 15.7996C6.54319 16.0814 7.01774 16.0639 7.2996 15.7603L9.25 13.6599V18.25Z" fill="white"/>
<path d="M56 16.5L56 9.75M56 9.75L59 12.75M56 9.75L53 12.75M50.75 19.5C48.2647 19.5 46.25 17.4853 46.25 15C46.25 13.0071 47.5456 11.3167 49.3404 10.7252C49.281 10.4092 49.25 10.0832 49.25 9.75C49.25 6.85051 51.6005 4.5 54.5 4.5C56.9312 4.5 58.9765 6.1526 59.5737 8.39575C59.8654 8.30113 60.1767 8.25 60.5 8.25C62.1569 8.25 63.5 9.59315 63.5 11.25C63.5 11.5981 63.4407 11.9324 63.3316 12.2433C64.7453 12.7805 65.75 14.1479 65.75 15.75C65.75 17.8211 64.0711 19.5 62 19.5H50.75Z" stroke="white" stroke-width="1.5" stroke-linecap="round" stroke-linejoin="round"/>
<path fill-rule="evenodd" clip-rule="evenodd" d="M102.5 3.75C99.1863 3.75 96.5 6.43629 96.5 9.75C96.5 9.91685 96.5068 10.0822 96.5202 10.2459C94.7363 11.084 93.5 12.8968 93.5 15C93.5 17.8995 95.8505 20.25 98.75 20.25H110C112.485 20.25 114.5 18.2353 114.5 15.75C114.5 14.0653 113.574 12.5981 112.206 11.827C112.235 11.6386 112.25 11.4459 112.25 11.25C112.25 9.17893 110.571 7.5 108.5 7.5C108.356 7.5 108.214 7.50816 108.073 7.52408C107.189 5.31282 105.028 3.75 102.5 3.75ZM104.53 9.21967C104.237 8.92678 103.763 8.92678 103.47 9.21967L100.47 12.2197C100.177 12.5126 100.177 12.9874 100.47 13.2803C100.763 13.5732 101.237 13.5732 101.53 13.2803L103.25 11.5607L103.25 16.5C103.25 16.9142 103.586 17.25 104 17.25C104.414 17.25 104.75 16.9142 104.75 16.5V11.5607L106.47 13.2803C106.763 13.5732 107.237 13.5732 107.53 13.2803C107.823 12.9874 107.823 12.5126 107.53 12.2197L104.53 9.21967Z" fill="white"/>
</svg>
