<svg width="116" height="24" viewBox="0 0 116 24" fill="none" xmlns="http://www.w3.org/2000/svg">
<path fill-rule="evenodd" clip-rule="evenodd" d="M10.75 10L8.75 10V14.25C8.75 14.6642 8.41421 15 8 15C7.58579 15 7.25 14.6642 7.25 14.25V10L8.74999 10V7.70447L9.69252 8.75172C9.96962 9.05961 10.4438 9.08456 10.7517 8.80747C11.0596 8.53038 11.0846 8.05616 10.8075 7.74828L8.55747 5.24828C8.41523 5.09024 8.21261 5 7.99999 5C7.78738 5 7.58476 5.09024 7.44252 5.24828L5.19252 7.74828C4.91543 8.05616 4.94039 8.53038 5.24827 8.80747C5.55615 9.08456 6.03037 9.05961 6.30746 8.75172L7.24999 7.70447V10H5.25C4.00736 10 3 11.0074 3 12.25V16.75C3 17.9926 4.00736 19 5.25 19H10.75C11.9926 19 13 17.9926 13 16.75V12.25C13 11.0074 11.9926 10 10.75 10ZM7 20.75V20.5H10.75C12.8211 20.5 14.5 18.8211 14.5 16.75V14H14.75C15.9926 14 17 15.0074 17 16.25V20.75C17 21.9926 15.9926 23 14.75 23H9.25C8.00736 23 7 21.9926 7 20.75Z" fill="white"/>
<path d="M51.5 7.5H50.75C49.5074 7.5 48.5 8.50736 48.5 9.75V17.25C48.5 18.4926 49.5074 19.5 50.75 19.5H58.25C59.4926 19.5 60.5 18.4926 60.5 17.25V9.75C60.5 8.50736 59.4926 7.5 58.25 7.5H57.5M57.5 4.5L54.5 1.5M54.5 1.5L51.5 4.5M54.5 1.5L54.5 12.75M60.5 10.5H61.25C62.4926 10.5 63.5 11.5074 63.5 12.75V20.25C63.5 21.4926 62.4926 22.5 61.25 22.5H53.75C52.5074 22.5 51.5 21.4926 51.5 20.25V19.5" stroke="white" stroke-width="1.5" stroke-linecap="round" stroke-linejoin="round"/>
<path d="M101.97 0.96967C102.263 0.676777 102.737 0.676777 103.03 0.96967L106.03 3.96967C106.323 4.26256 106.323 4.73744 106.03 5.03033C105.737 5.32322 105.263 5.32322 104.97 5.03033L103.25 3.31066V6.75H101.75V3.31066L100.03 5.03033C99.7374 5.32322 99.2626 5.32322 98.9697 5.03033C98.6768 4.73744 98.6768 4.26256 98.9697 3.96967L101.97 0.96967Z" fill="white"/>
<path d="M101.75 6.75V12.75C101.75 13.1642 102.086 13.5 102.5 13.5C102.914 13.5 103.25 13.1642 103.25 12.75V6.75H106.25C107.907 6.75 109.25 8.09315 109.25 9.75V17.25C109.25 18.9069 107.907 20.25 106.25 20.25H98.75C97.0931 20.25 95.75 18.9069 95.75 17.25V9.75C95.75 8.09315 97.0931 6.75 98.75 6.75H101.75Z" fill="white"/>
<path d="M99.1514 21.75C99.6701 22.6467 100.64 23.25 101.75 23.25H109.25C110.907 23.25 112.25 21.9069 112.25 20.25V12.75C112.25 11.6396 111.647 10.6701 110.75 10.1514V17.25C110.75 19.7353 108.735 21.75 106.25 21.75H99.1514Z" fill="white"/>
</svg>
