<svg width="116" height="24" viewBox="0 0 116 24" fill="none" xmlns="http://www.w3.org/2000/svg">
<path fill-rule="evenodd" clip-rule="evenodd" d="M3.42976 6.52374C5.56943 6.17905 7.76407 6 10 6C12.2359 6 14.4306 6.17905 16.5702 6.52374C18.0066 6.75513 19 8.01325 19 9.42588V14.5741C19 15.9867 18.0066 17.2449 16.5702 17.4763C14.8747 17.7494 13.1447 17.9185 11.3869 17.977C11.1832 17.9837 10.9953 18.0654 10.8594 18.2013L7.28033 21.7803C7.06583 21.9948 6.74324 22.059 6.46299 21.9429C6.18273 21.8268 6 21.5533 6 21.25V17.8073C5.13517 17.7236 4.27814 17.6129 3.42976 17.4763C1.99339 17.2449 1 15.9868 1 14.5741V9.42588C1 8.01325 1.99339 6.75513 3.42976 6.52374Z" fill="white"/>
<path d="M46.25 12.7593C46.25 14.3604 47.3734 15.754 48.9575 15.987C50.0436 16.1467 51.1415 16.27 52.25 16.3556V21L56.326 16.924C56.6017 16.6483 56.9738 16.4919 57.3635 16.481C59.2869 16.4274 61.1821 16.2606 63.0425 15.9871C64.6266 15.7542 65.75 14.3606 65.75 12.7595V6.74056C65.75 5.13946 64.6266 3.74583 63.0425 3.51293C60.744 3.17501 58.3926 3 56.0003 3C53.6078 3 51.2561 3.17504 48.9575 3.51302C47.3734 3.74593 46.25 5.13956 46.25 6.74064V12.7593Z" stroke="white" stroke-width="1.5" stroke-linecap="round" stroke-linejoin="round"/>
<path fill-rule="evenodd" clip-rule="evenodd" d="M96.8484 2.771C99.183 2.42773 101.571 2.25 104 2.25C106.429 2.25 108.817 2.4277 111.152 2.77091C113.13 3.06177 114.5 4.79445 114.5 6.74056V12.7595C114.5 14.7056 113.13 16.4382 111.152 16.7291C109.212 17.0142 107.236 17.1851 105.23 17.2348C105.127 17.2374 105.032 17.2788 104.964 17.3468L100.78 21.5303C100.566 21.7448 100.243 21.809 99.963 21.6929C99.6827 21.5768 99.5 21.3033 99.5 21V17.045C98.609 16.9634 97.7249 16.8579 96.8484 16.729C94.87 16.4381 93.5 14.7054 93.5 12.7593V6.74064C93.5 4.79455 94.87 3.06188 96.8484 2.771Z" fill="white"/>
</svg>
