<svg width="116" height="24" viewBox="0 0 116 24" fill="none" xmlns="http://www.w3.org/2000/svg">
<path fill-rule="evenodd" clip-rule="evenodd" d="M6 9V10H4.66704C3.7593 10 3.00225 10.6941 2.92362 11.5984L2.09753 21.0984C2.00862 22.1209 2.81463 23 3.84095 23H16.1595C17.1858 23 17.9918 22.1209 17.9029 21.0984L17.0768 11.5984C16.9982 10.6941 16.2411 10 15.3334 10H14V9C14 6.79086 12.2091 5 10 5C7.79086 5 6 6.79086 6 9ZM10 6.5C8.61929 6.5 7.5 7.61929 7.5 9V10H12.5V9C12.5 7.61929 11.3807 6.5 10 6.5ZM7.5 14C7.5 15.3807 8.61929 16.5 10 16.5C11.3807 16.5 12.5 15.3807 12.5 14V12.75C12.5 12.3358 12.8358 12 13.25 12C13.6642 12 14 12.3358 14 12.75V14C14 16.2091 12.2091 18 10 18C7.79086 18 6 16.2091 6 14V12.75C6 12.3358 6.33579 12 6.75 12C7.16421 12 7.5 12.3358 7.5 12.75V14Z" fill="white"/>
<path d="M59.75 10.5V6C59.75 3.92893 58.0711 2.25 56 2.25C53.9289 2.25 52.25 3.92893 52.25 6V10.5M63.606 8.50723L64.8692 20.5072C64.9391 21.1715 64.4183 21.75 63.7504 21.75H48.2496C47.5817 21.75 47.0609 21.1715 47.1308 20.5072L48.394 8.50723C48.4542 7.93466 48.9371 7.5 49.5128 7.5H62.4872C63.0629 7.5 63.5458 7.93466 63.606 8.50723ZM52.625 10.5C52.625 10.7071 52.4571 10.875 52.25 10.875C52.0429 10.875 51.875 10.7071 51.875 10.5C51.875 10.2929 52.0429 10.125 52.25 10.125C52.4571 10.125 52.625 10.2929 52.625 10.5ZM60.125 10.5C60.125 10.7071 59.9571 10.875 59.75 10.875C59.5429 10.875 59.375 10.7071 59.375 10.5C59.375 10.2929 59.5429 10.125 59.75 10.125C59.9571 10.125 60.125 10.2929 60.125 10.5Z" stroke="white" stroke-width="1.5" stroke-linecap="round" stroke-linejoin="round"/>
<path fill-rule="evenodd" clip-rule="evenodd" d="M99.5 6V6.75H97.5129C96.5533 6.75 95.7486 7.47444 95.6482 8.42872L94.385 20.4287C94.2685 21.5358 95.1365 22.5 96.2497 22.5H111.75C112.864 22.5 113.732 21.5358 113.615 20.4287L112.352 8.42872C112.252 7.47444 111.447 6.75 110.487 6.75H108.5V6C108.5 3.51472 106.485 1.5 104 1.5C101.515 1.5 99.5 3.51472 99.5 6ZM104 3C102.343 3 101 4.34315 101 6V6.75H107V6C107 4.34315 105.657 3 104 3ZM101 11.25C101 12.9069 102.343 14.25 104 14.25C105.657 14.25 107 12.9069 107 11.25V10.5C107 10.0858 107.336 9.75 107.75 9.75C108.164 9.75 108.5 10.0858 108.5 10.5V11.25C108.5 13.7353 106.485 15.75 104 15.75C101.515 15.75 99.5 13.7353 99.5 11.25V10.5C99.5 10.0858 99.8358 9.75 100.25 9.75C100.664 9.75 101 10.0858 101 10.5V11.25Z" fill="white"/>
</svg>
