<svg width="116" height="24" viewBox="0 0 116 24" fill="none" xmlns="http://www.w3.org/2000/svg">
<path fill-rule="evenodd" clip-rule="evenodd" d="M2 8.75C2 8.33579 2.33579 8 2.75 8H17.25C17.6642 8 18 8.33579 18 8.75C18 9.16421 17.6642 9.5 17.25 9.5H2.75C2.33579 9.5 2 9.16421 2 8.75ZM2 19.25C2 18.8358 2.33579 18.5 2.75 18.5H10.25C10.6642 18.5 11 18.8358 11 19.25C11 19.6642 10.6642 20 10.25 20H2.75C2.33579 20 2 19.6642 2 19.25Z" fill="white"/>
<path fill-rule="evenodd" clip-rule="evenodd" d="M2 14C2 13.5858 2.33579 13.25 2.75 13.25H17.25C17.6642 13.25 18 13.5858 18 14C18 14.4142 17.6642 14.75 17.25 14.75H2.75C2.33579 14.75 2 14.4142 2 14Z" fill="white"/>
<path d="M47.75 6.75H64.25M47.75 12H64.25M47.75 17.25H56" stroke="white" stroke-width="1.5" stroke-linecap="round" stroke-linejoin="round"/>
<path fill-rule="evenodd" clip-rule="evenodd" d="M95 6.75C95 6.33579 95.3358 6 95.75 6H112.25C112.664 6 113 6.33579 113 6.75C113 7.16421 112.664 7.5 112.25 7.5H95.75C95.3358 7.5 95 7.16421 95 6.75ZM95 12C95 11.5858 95.3358 11.25 95.75 11.25H112.25C112.664 11.25 113 11.5858 113 12C113 12.4142 112.664 12.75 112.25 12.75H95.75C95.3358 12.75 95 12.4142 95 12ZM95 17.25C95 16.8358 95.3358 16.5 95.75 16.5H104C104.414 16.5 104.75 16.8358 104.75 17.25C104.75 17.6642 104.414 18 104 18H95.75C95.3358 18 95 17.6642 95 17.25Z" fill="white"/>
</svg>
