<svg width="116" height="24" viewBox="0 0 116 24" fill="none" xmlns="http://www.w3.org/2000/svg">
<path d="M3.5 6.75C3.5 6.33579 3.16421 6 2.75 6C2.33579 6 2 6.33579 2 6.75V21.25C2 21.6642 2.33579 22 2.75 22C3.16421 22 3.5 21.6642 3.5 21.25V16.8585L5.15742 16.5096C6.60458 16.2049 8.11248 16.407 9.42842 17.0818C11.2723 18.0274 13.4125 18.2155 15.393 17.6061L17.4706 16.9668C17.7853 16.87 18 16.5793 18 16.25V7.75C18 7.52398 17.8981 7.31001 17.7226 7.1676C17.547 7.02519 17.3167 6.96952 17.0955 7.01609L14.7157 7.51709C13.3151 7.81195 11.8585 7.68564 10.5296 7.15406L10.0275 6.95322C8.42359 6.31166 6.66566 6.15921 4.97524 6.51509L3.5 6.82566V6.75Z" fill="white"/>
<path d="M47 3V4.5M47 21V15M47 15L49.7701 14.3075C51.8543 13.7864 54.0562 14.0281 55.9778 14.9889L56.0856 15.0428C57.9687 15.9844 60.1224 16.2359 62.1718 15.7537L65.2861 15.0209C65.097 13.2899 65 11.5313 65 9.75C65 7.98343 65.0954 6.23914 65.2814 4.52202L62.1718 5.25369C60.1224 5.73591 57.9687 5.48435 56.0856 4.54278L55.9778 4.48892C54.0562 3.52812 51.8543 3.28641 49.7701 3.80748L47 4.5M47 15V4.5" stroke="white" stroke-width="1.5" stroke-linecap="round" stroke-linejoin="round"/>
<path fill-rule="evenodd" clip-rule="evenodd" d="M95 2.25C95.4142 2.25 95.75 2.58579 95.75 3V3.53942L97.5882 3.07987C99.8461 2.51539 102.232 2.77724 104.313 3.8181L104.421 3.87196C106.147 4.73507 108.121 4.96567 110 4.52363L113.11 3.79196C113.347 3.73622 113.596 3.79888 113.778 3.96005C113.96 4.12121 114.053 4.36083 114.027 4.60278C113.844 6.29313 113.75 8.01046 113.75 9.75C113.75 11.504 113.846 13.2355 114.032 14.9395C114.073 15.3161 113.827 15.6642 113.458 15.751L110.344 16.4837C108.123 17.0062 105.79 16.7336 103.75 15.7136L103.642 15.6597C101.881 14.779 99.8626 14.5574 97.952 15.0351L95.75 15.5856V21C95.75 21.4142 95.4142 21.75 95 21.75C94.5858 21.75 94.25 21.4142 94.25 21V3C94.25 2.58579 94.5858 2.25 95 2.25Z" fill="white"/>
</svg>
