<svg width="116" height="24" viewBox="0 0 116 24" fill="none" xmlns="http://www.w3.org/2000/svg">
<path fill-rule="evenodd" clip-rule="evenodd" d="M10.868 6.88376C10.5469 6.11174 9.45329 6.11174 9.13219 6.88376L7.3014 11.2855L2.54932 11.6665C1.71586 11.7333 1.37791 12.7734 2.01291 13.3174L5.63349 16.4188L4.52735 21.056C4.33334 21.8693 5.21812 22.5122 5.93167 22.0763L10.0001 19.5913L14.0686 22.0763C14.7821 22.5122 15.6669 21.8693 15.4729 21.056L14.3667 16.4188L17.9873 13.3174C18.6223 12.7734 18.2844 11.7333 17.4509 11.6665L12.6988 11.2855L10.868 6.88376Z" fill="white"/>
<path d="M55.4806 3.4987C55.6728 3.03673 56.3272 3.03673 56.5193 3.4987L58.6453 8.61016C58.7263 8.80492 58.9095 8.93799 59.1197 8.95485L64.638 9.39724C65.1367 9.43722 65.339 10.0596 64.959 10.3851L60.7546 13.9866C60.5945 14.1238 60.5245 14.3391 60.5734 14.5443L61.8579 19.9292C61.974 20.4159 61.4446 20.8005 61.0176 20.5397L56.2932 17.6541C56.1132 17.5441 55.8868 17.5441 55.7068 17.6541L50.9824 20.5397C50.5554 20.8005 50.0259 20.4159 50.142 19.9292L51.4265 14.5443C51.4755 14.3391 51.4055 14.1238 51.2453 13.9866L47.041 10.3851C46.661 10.0596 46.8632 9.43722 47.362 9.39724L52.8802 8.95485C53.0905 8.93799 53.2736 8.80492 53.3546 8.61016L55.4806 3.4987Z" stroke="white" stroke-width="1.5" stroke-linecap="round" stroke-linejoin="round"/>
<path fill-rule="evenodd" clip-rule="evenodd" d="M102.788 3.21068C103.236 2.13274 104.764 2.13273 105.212 3.21068L107.294 8.2164L112.698 8.64964C113.862 8.74293 114.334 10.1952 113.447 10.9547L109.33 14.4817L110.587 19.7551C110.858 20.8908 109.623 21.7883 108.627 21.1798L104 18.3538L99.3733 21.1798C98.377 21.7883 97.1416 20.8908 97.4125 19.7551L98.6704 14.4817L94.5531 10.9547C93.6665 10.1952 94.1383 8.74293 95.3021 8.64964L100.706 8.2164L102.788 3.21068Z" fill="white"/>
</svg>
