<svg width="116" height="24" viewBox="0 0 116 24" fill="none" xmlns="http://www.w3.org/2000/svg">
<path d="M13.9202 7.84494C11.9859 8.84176 9.86368 9.52434 7.62054 9.82553C6.76376 9.94057 5.88902 10 5 10C2.79086 10 1 11.7909 1 14C1 16.0384 2.52477 17.7207 4.49597 17.9686C4.78782 19.1063 5.20979 20.2269 5.76704 21.3098C6.1636 22.0805 7.10902 22.3086 7.81763 21.8995L8.68366 21.3995C9.41014 20.9801 9.62418 20.0784 9.27228 19.3782C9.10619 19.0477 8.95684 18.7129 8.82394 18.3747C10.6243 18.7325 12.3353 19.3383 13.9201 20.1551C14.6189 18.2348 15 16.1619 15 14C15 11.8381 14.6189 9.76526 13.9202 7.84494Z" fill="white"/>
<path d="M15.2428 7.09656C16.0553 9.24255 16.5 11.5693 16.5 14C16.5 16.4307 16.0553 18.7575 15.2428 20.9035C15.2427 20.9034 15.2428 20.9035 15.2428 20.9035L15.2135 20.9807C15.0652 21.3674 15.2585 21.8012 15.6452 21.9495C16.032 22.0979 16.4657 21.9046 16.6141 21.5178C16.7002 21.2933 16.7825 21.067 16.8611 20.8389C17.4152 19.2293 17.7791 17.5316 17.9262 15.7729C18.5645 15.4388 19 14.7707 19 14C19 13.2293 18.5645 12.5612 17.9262 12.2272C17.7791 10.4684 17.4152 8.77069 16.8611 7.16114C16.7825 6.93301 16.7002 6.70667 16.6141 6.48219C16.4657 6.09544 16.032 5.90216 15.6452 6.05048C15.2585 6.19881 15.0652 6.63257 15.2135 7.01932L15.2428 7.09656C15.2428 7.09652 15.2427 7.09659 15.2428 7.09656Z" fill="white"/>
<path d="M54.3404 15.8398C53.6515 15.7803 52.9543 15.75 52.25 15.75H51.5C49.0147 15.75 47 13.7353 47 11.25C47 8.76472 49.0147 6.75 51.5 6.75H52.25C52.9543 6.75 53.6515 6.71966 54.3404 6.66022M54.3404 15.8398C54.5933 16.8015 54.9237 17.7317 55.3246 18.6234C55.5721 19.1738 55.3842 19.8328 54.8616 20.1345L54.2053 20.5134C53.6539 20.8318 52.9456 20.6306 52.6784 20.0527C52.0518 18.6973 51.5654 17.2639 51.2379 15.771M54.3404 15.8398C53.9552 14.3745 53.75 12.8362 53.75 11.25C53.75 9.66379 53.9552 8.1255 54.3404 6.66022M54.3404 15.8398C57.5 16.1124 60.4845 16.9972 63.1747 18.3749M54.3404 6.66022C57.5 6.3876 60.4845 5.50283 63.1747 4.12509M63.1747 4.12509C63.057 3.74595 62.9302 3.37083 62.7944 3M63.1747 4.12509C63.7097 5.84827 64.0557 7.65462 64.1886 9.51991M63.1747 18.3749C63.057 18.7541 62.9302 19.1292 62.7944 19.5M63.1747 18.3749C63.7097 16.6517 64.0557 14.8454 64.1886 12.9801M64.1886 9.51991C64.6844 9.93264 65 10.5545 65 11.25C65 11.9455 64.6844 12.5674 64.1886 12.9801M64.1886 9.51991C64.2293 10.0913 64.25 10.6682 64.25 11.25C64.25 11.8318 64.2293 12.4087 64.1886 12.9801" stroke="white" stroke-width="1.5" stroke-linecap="round" stroke-linejoin="round"/>
<path d="M108.881 4.34543C106.81 5.17401 104.592 5.7132 102.276 5.91302C101.608 5.97061 100.933 6.00002 100.25 6.00002H99.5C96.6005 6.00002 94.25 8.35052 94.25 11.25C94.25 13.8496 96.1394 16.0079 98.62 16.4266C98.9542 17.7956 99.4181 19.1138 99.9976 20.3674C100.462 21.3712 101.672 21.6875 102.58 21.163L103.237 20.784C104.117 20.2759 104.402 19.1913 104.009 18.3159C103.774 17.7935 103.564 17.2574 103.381 16.709C105.299 16.9671 107.142 17.4588 108.881 18.1546C109.607 15.9852 110 13.6635 110 11.25C110 8.83648 109.607 6.51478 108.881 4.34543Z" fill="white"/>
<path d="M110.261 3.74072C111.064 6.09642 111.5 8.6223 111.5 11.25C111.5 13.8777 111.064 16.4036 110.261 18.7593C110.205 18.9211 110.149 19.0821 110.09 19.2422C109.948 19.6312 110.148 20.0619 110.537 20.2043C110.926 20.3467 111.356 20.1468 111.499 19.7578C111.639 19.3753 111.77 18.9884 111.891 18.5973C112.415 16.9106 112.763 15.1469 112.914 13.3278C113.431 12.7893 113.75 12.0567 113.75 11.25C113.75 10.4434 113.431 9.71073 112.914 9.17228C112.763 7.35319 112.415 5.58948 111.891 3.90274C111.77 3.51165 111.639 3.12472 111.499 2.74221C111.356 2.35324 110.926 2.15334 110.537 2.29572C110.148 2.43811 109.948 2.86885 110.09 3.25783C110.149 3.41795 110.205 3.57898 110.261 3.74072Z" fill="white"/>
</svg>
