<svg width="116" height="24" viewBox="0 0 116 24" fill="none" xmlns="http://www.w3.org/2000/svg">
<path fill-rule="evenodd" clip-rule="evenodd" d="M3.28033 6.21967C2.98744 5.92678 2.51256 5.92678 2.21967 6.21967C1.92678 6.51256 1.92678 6.98744 2.21967 7.28033L16.7197 21.7803C17.0126 22.0732 17.4874 22.0732 17.7803 21.7803C18.0732 21.4874 18.0732 21.0126 17.7803 20.7197L16.0352 18.9745C17.5064 17.8594 18.6595 16.3465 19.3344 14.5959C19.4814 14.2144 19.4816 13.7913 19.3347 13.4096C17.892 9.66051 14.256 7 9.99859 7C8.28207 7 6.66657 7.43249 5.2551 8.19444L3.28033 6.21967ZM7.75194 10.6913L8.84367 11.783C9.18951 11.6022 9.58291 11.5 10.0002 11.5C11.3809 11.5 12.5002 12.6193 12.5002 14C12.5002 14.4173 12.398 14.8107 12.2172 15.1565L13.3091 16.2484C13.7454 15.6077 14.0004 14.8336 14.0004 14C14.0004 11.7909 12.2095 10 10.0004 10C9.16675 10 8.39268 10.255 7.75194 10.6913Z" fill="white"/>
<path d="M10.7484 17.9302L13.2711 20.4529C12.2462 20.8074 11.1458 21 10.0004 21C5.74298 21 2.10698 18.3395 0.664255 14.5904C0.517392 14.2087 0.517518 13.7856 0.66461 13.4041C1.15603 12.1293 1.90108 10.9806 2.83791 10.0197L6.0702 13.252C6.02436 13.4943 6.00037 13.7443 6.00037 14C6.00037 16.2091 7.79123 18 10.0004 18C10.256 18 10.5061 17.976 10.7484 17.9302Z" fill="white"/>
<path d="M47.9799 8.22257C47.0568 9.31382 46.3524 10.596 45.9344 12.0015C47.2257 16.338 51.2431 19.5 55.9991 19.5C56.9917 19.5 57.9521 19.3623 58.8622 19.1049M50.2276 6.22763C51.8839 5.13558 53.8677 4.5 56 4.5C60.756 4.5 64.7734 7.66205 66.0647 11.9985C65.3528 14.3919 63.8106 16.4277 61.772 17.772M50.2276 6.22763L47 3M50.2276 6.22763L53.8787 9.87868M61.772 17.772L65 21M61.772 17.772L58.1213 14.1213M58.1213 14.1213C58.6642 13.5784 59 12.8284 59 12C59 10.3431 57.6569 9 56 9C55.1716 9 54.4216 9.33579 53.8787 9.87868M58.1213 14.1213L53.8787 9.87868" stroke="white" stroke-width="1.5" stroke-linecap="round" stroke-linejoin="round"/>
<path d="M95.5303 2.46967C95.2374 2.17678 94.7626 2.17678 94.4697 2.46967C94.1768 2.76256 94.1768 3.23744 94.4697 3.53033L112.47 21.5303C112.763 21.8232 113.237 21.8232 113.53 21.5303C113.823 21.2374 113.823 20.7626 113.53 20.4697L95.5303 2.46967Z" fill="white"/>
<path d="M114.676 12.5533C114.132 14.1887 113.223 15.6575 112.045 16.8627L108.946 13.7642C109.143 13.2129 109.25 12.6189 109.25 12C109.25 9.1005 106.899 6.75 104 6.75C103.381 6.75 102.787 6.8571 102.236 7.05379L99.759 4.577C101.068 4.04381 102.5 3.75 104.001 3.75C108.971 3.75 113.186 6.97271 114.676 11.4405C114.796 11.8015 114.796 12.1922 114.676 12.5533Z" fill="white"/>
<path d="M107.75 12C107.75 12.1802 107.737 12.3574 107.713 12.5308L103.469 8.28727C103.643 8.2627 103.82 8.25 104 8.25C106.071 8.25 107.75 9.92893 107.75 12Z" fill="white"/>
<path d="M104.531 15.7127L100.287 11.4692C100.263 11.6426 100.25 11.8198 100.25 12C100.25 14.0711 101.929 15.75 104 15.75C104.18 15.75 104.357 15.7373 104.531 15.7127Z" fill="white"/>
<path d="M98.75 12C98.75 11.3811 98.8571 10.7871 99.0538 10.2358L95.9549 7.1369C94.7769 8.34222 93.8675 9.81114 93.3234 11.4467C93.2033 11.8078 93.2034 12.1985 93.3237 12.5595C94.8128 17.0273 99.0285 20.25 103.999 20.25C105.5 20.25 106.932 19.9561 108.241 19.4228L105.764 16.9462C105.213 17.1429 104.619 17.25 104 17.25C101.101 17.25 98.75 14.8995 98.75 12Z" fill="white"/>
</svg>
