<svg width="116" height="24" viewBox="0 0 116 24" fill="none" xmlns="http://www.w3.org/2000/svg">
<path fill-rule="evenodd" clip-rule="evenodd" d="M10 22C9.58579 22 9.25 21.6642 9.25 21.25L9.25 8.6599L7.2996 10.7603C7.01775 11.0639 6.5432 11.0814 6.23966 10.7996C5.93613 10.5177 5.91856 10.0432 6.20041 9.73966L9.45041 6.23966C9.59232 6.08684 9.79145 6 10 6C10.2086 6 10.4077 6.08684 10.5496 6.23966L13.7996 9.73966C14.0815 10.0432 14.0639 10.5177 13.7603 10.7996C13.4568 11.0814 12.9823 11.0639 12.7004 10.7603L10.75 8.6599L10.75 21.25C10.75 21.6642 10.4142 22 10 22Z" fill="white"/>
<path d="M52.25 6.75L56 3M56 3L59.75 6.75M56 3V21" stroke="white" stroke-width="1.5" stroke-linecap="round" stroke-linejoin="round"/>
<path fill-rule="evenodd" clip-rule="evenodd" d="M103.47 2.46967C103.763 2.17678 104.237 2.17678 104.53 2.46967L108.28 6.21967C108.573 6.51256 108.573 6.98744 108.28 7.28033C107.987 7.57322 107.513 7.57322 107.22 7.28033L104.75 4.81066V21C104.75 21.4142 104.414 21.75 104 21.75C103.586 21.75 103.25 21.4142 103.25 21V4.81066L100.78 7.28033C100.487 7.57322 100.013 7.57322 99.7197 7.28033C99.4268 6.98744 99.4268 6.51256 99.7197 6.21967L103.47 2.46967Z" fill="white"/>
</svg>
