<svg width="116" height="24" viewBox="0 0 116 24" fill="none" xmlns="http://www.w3.org/2000/svg">
<path d="M15.5 6C14.6716 6 14 6.67157 14 7.5V20.5C14 21.3284 14.6716 22 15.5 22H16.5C17.3284 22 18 21.3284 18 20.5V7.5C18 6.67157 17.3284 6 16.5 6H15.5Z" fill="white"/>
<path d="M9.5 10C8.67157 10 8 10.6716 8 11.5V20.5C8 21.3284 8.67157 22 9.5 22H10.5C11.3284 22 12 21.3284 12 20.5V11.5C12 10.6716 11.3284 10 10.5 10H9.5Z" fill="white"/>
<path d="M3.5 14C2.67157 14 2 14.6716 2 15.5V20.5C2 21.3284 2.67157 22 3.5 22H4.5C5.32843 22 6 21.3284 6 20.5V15.5C6 14.6716 5.32843 14 4.5 14H3.5Z" fill="white"/>
<path d="M47 13.125C47 12.5037 47.5037 12 48.125 12H50.375C50.9963 12 51.5 12.5037 51.5 13.125V19.875C51.5 20.4963 50.9963 21 50.375 21H48.125C47.5037 21 47 20.4963 47 19.875V13.125Z" stroke="white" stroke-width="1.5" stroke-linecap="round" stroke-linejoin="round"/>
<path d="M53.75 8.625C53.75 8.00368 54.2537 7.5 54.875 7.5H57.125C57.7463 7.5 58.25 8.00368 58.25 8.625V19.875C58.25 20.4963 57.7463 21 57.125 21H54.875C54.2537 21 53.75 20.4963 53.75 19.875V8.625Z" stroke="white" stroke-width="1.5" stroke-linecap="round" stroke-linejoin="round"/>
<path d="M60.5 4.125C60.5 3.50368 61.0037 3 61.625 3H63.875C64.4963 3 65 3.50368 65 4.125V19.875C65 20.4963 64.4963 21 63.875 21H61.625C61.0037 21 60.5 20.4963 60.5 19.875V4.125Z" stroke="white" stroke-width="1.5" stroke-linecap="round" stroke-linejoin="round"/>
<path d="M110.375 2.25C109.339 2.25 108.5 3.08947 108.5 4.125V19.875C108.5 20.9105 109.339 21.75 110.375 21.75H111.125C112.161 21.75 113 20.9105 113 19.875V4.125C113 3.08947 112.161 2.25 111.125 2.25H110.375Z" fill="white"/>
<path d="M101.75 8.625C101.75 7.58947 102.589 6.75 103.625 6.75H104.375C105.411 6.75 106.25 7.58947 106.25 8.625V19.875C106.25 20.9105 105.411 21.75 104.375 21.75H103.625C102.589 21.75 101.75 20.9105 101.75 19.875V8.625Z" fill="white"/>
<path d="M95 13.125C95 12.0895 95.8395 11.25 96.875 11.25H97.625C98.6605 11.25 99.5 12.0895 99.5 13.125V19.875C99.5 20.9105 98.6605 21.75 97.625 21.75H96.875C95.8395 21.75 95 20.9105 95 19.875V13.125Z" fill="white"/>
</svg>
