<svg width="116" height="24" viewBox="0 0 116 24" fill="none" xmlns="http://www.w3.org/2000/svg">
<g clip-path="url(#clip0_501_2034)">
<path fill-rule="evenodd" clip-rule="evenodd" d="M10 22C14.4183 22 18 18.4183 18 14C18 9.58172 14.4183 6 10 6C5.58172 6 2 9.58172 2 14C2 18.4183 5.58172 22 10 22ZM13.25 14.75C13.6642 14.75 14 14.4142 14 14C14 13.5858 13.6642 13.25 13.25 13.25H8.6599L10.7603 11.2996C11.0639 11.0177 11.0814 10.5432 10.7996 10.2397C10.5177 9.93613 10.0432 9.91855 9.73966 10.2004L6.23966 13.4504C6.08684 13.5923 6 13.7914 6 14C6 14.2086 6.08684 14.4077 6.23966 14.5496L9.73966 17.7996C10.0432 18.0814 10.5177 18.0639 10.7996 17.7603C11.0814 17.4568 11.0639 16.9823 10.7603 16.7004L8.6599 14.75H13.25Z" fill="white"/>
</g>
<path d="M55.25 9L52.25 12M52.25 12L55.25 15M52.25 12H59.75M65 12C65 16.9706 60.9706 21 56 21C51.0294 21 47 16.9706 47 12C47 7.02944 51.0294 3 56 3C60.9706 3 65 7.02944 65 12Z" stroke="white" stroke-width="1.5" stroke-linecap="round" stroke-linejoin="round"/>
<path fill-rule="evenodd" clip-rule="evenodd" d="M104 2.25C98.6152 2.25 94.25 6.61522 94.25 12C94.25 17.3848 98.6152 21.75 104 21.75C109.385 21.75 113.75 17.3848 113.75 12C113.75 6.61522 109.385 2.25 104 2.25ZM99.7197 11.4697C99.579 11.6103 99.5 11.8011 99.5 12C99.5 12.1989 99.579 12.3897 99.7197 12.5303L102.72 15.5303C103.013 15.8232 103.487 15.8232 103.78 15.5303C104.073 15.2374 104.073 14.7626 103.78 14.4697L102.061 12.75H107.75C108.164 12.75 108.5 12.4142 108.5 12C108.5 11.5858 108.164 11.25 107.75 11.25L102.061 11.25L103.78 9.53033C104.073 9.23744 104.073 8.76256 103.78 8.46967C103.487 8.17678 103.013 8.17678 102.72 8.46967L99.7197 11.4697Z" fill="white"/>
<defs>
<clipPath id="clip0_501_2034">
<rect width="20" height="20" fill="white" transform="translate(0 4)"/>
</clipPath>
</defs>
</svg>
