<svg width="116" height="24" viewBox="0 0 116 24" fill="none" xmlns="http://www.w3.org/2000/svg">
<path fill-rule="evenodd" clip-rule="evenodd" d="M7.20938 18.7698C6.92228 18.4713 6.93159 17.9965 7.23017 17.7094L11.1679 14L7.23017 10.2906C6.93159 10.0035 6.92228 9.52875 7.20938 9.23017C7.49647 8.93159 7.97125 8.92228 8.26983 9.20937L12.7698 13.4594C12.9169 13.6008 13 13.796 13 14C13 14.204 12.9169 14.3992 12.7698 14.5406L8.26983 18.7906C7.97125 19.0777 7.49647 19.0684 7.20938 18.7698Z" fill="white"/>
<path d="M52.25 4.5L59.75 12L52.25 19.5" stroke="white" stroke-width="1.5" stroke-linecap="round" stroke-linejoin="round"/>
<path fill-rule="evenodd" clip-rule="evenodd" d="M108.28 11.4697C108.573 11.7626 108.573 12.2374 108.28 12.5303L100.78 20.0303C100.487 20.3232 100.013 20.3232 99.7197 20.0303C99.4268 19.7374 99.4268 19.2626 99.7197 18.9697L106.689 12L99.7197 5.03033C99.4268 4.73744 99.4268 4.26256 99.7197 3.96967C100.013 3.67678 100.487 3.67678 100.78 3.96967L108.28 11.4697Z" fill="white"/>
</svg>
