<svg width="116" height="24" viewBox="0 0 116 24" fill="none" xmlns="http://www.w3.org/2000/svg">
<path d="M4.75 7C3.7835 7 3 7.7835 3 8.75V11.5016C3.03443 11.5005 3.06902 11.5 3.10378 11.5H16.8959C16.9307 11.5 16.9654 11.5005 17 11.5016V10.75C17 9.7835 16.2165 9 15.25 9H11.4142C11.3479 9 11.2843 8.97366 11.2374 8.92678L9.82322 7.51256C9.49504 7.18437 9.04992 7 8.58579 7H4.75Z" fill="white"/>
<path d="M3.10373 13C1.92632 13 1.08486 14.1393 1.43112 15.2647L2.81573 19.7647C3.04167 20.4989 3.72009 21 4.48835 21H15.5112C16.2795 21 16.9579 20.4989 17.1838 19.7647L18.5684 15.2647C18.9147 14.1393 18.0732 13 16.8958 13H3.10373Z" fill="white"/>
<path d="M47.75 9.77602C47.862 9.7589 47.977 9.75 48.0943 9.75H63.9057C64.023 9.75 64.138 9.7589 64.25 9.77602M47.75 9.77602C46.554 9.9588 45.6898 11.0788 45.8669 12.3182L46.724 18.3182C46.8824 19.4267 47.8317 20.25 48.9514 20.25H63.0486C64.1683 20.25 65.1176 19.4267 65.276 18.3182L66.1331 12.3182C66.3102 11.0788 65.446 9.9588 64.25 9.77602M47.75 9.77602V6C47.75 4.75736 48.7574 3.75 50 3.75H53.8787C54.2765 3.75 54.658 3.90804 54.9393 4.18934L57.0607 6.31066C57.342 6.59197 57.7235 6.75 58.1213 6.75H62C63.2426 6.75 64.25 7.75736 64.25 9V9.77602" stroke="white" stroke-width="1.5" stroke-linecap="round" stroke-linejoin="round"/>
<path d="M111.906 9C112.288 9 112.655 9.05664 113 9.16156V9C113 7.34315 111.657 6 110 6H106.121C105.922 6 105.732 5.92098 105.591 5.78033L103.47 3.65901C103.048 3.23705 102.475 3 101.879 3H98C96.3431 3 95 4.34315 95 6V9.16152C95.3451 9.05663 95.7122 9 96.0942 9H111.906Z" fill="white"/>
<path d="M96.0943 10.5C94.7251 10.5 93.6733 11.7127 93.8669 13.0682L94.7241 19.0682C94.8824 20.1767 95.8317 21 96.9514 21H111.049C112.168 21 113.118 20.1767 113.276 19.0682L114.133 13.0682C114.327 11.7127 113.275 10.5 111.906 10.5H96.0943Z" fill="white"/>
</svg>
