<svg width="116" height="24" viewBox="0 0 116 24" fill="none" xmlns="http://www.w3.org/2000/svg">
<path d="M10 7.75002C10 7.4508 9.82215 7.18021 9.54747 7.06153C9.2728 6.94286 8.95387 6.99879 8.73598 7.20387L4.70257 11H3.16724C2.85725 11 2.5792 11.1907 2.46756 11.4799C2.16534 12.2629 2 13.113 2 14C2 14.887 2.16534 15.7372 2.46756 16.5201C2.5792 16.8093 2.85725 17 3.16724 17H4.70257L8.73598 20.7962C8.95387 21.0012 9.2728 21.0572 9.54747 20.9385C9.82215 20.8198 10 20.5492 10 20.25V7.75002Z" fill="white"/>
<path d="M15.9498 9.05029C15.6569 8.7574 15.182 8.7574 14.8891 9.05029C14.5962 9.34318 14.5962 9.81806 14.8891 10.1109C17.037 12.2588 17.037 15.7412 14.8891 17.8891C14.5962 18.182 14.5962 18.6569 14.8891 18.9498C15.182 19.2427 15.6569 19.2427 15.9498 18.9498C18.6834 16.2161 18.6834 11.784 15.9498 9.05029Z" fill="white"/>
<path d="M13.8287 11.1716C13.5358 10.8787 13.0609 10.8787 12.768 11.1716C12.4751 11.4645 12.4751 11.9394 12.768 12.2323C13.7443 13.2086 13.7443 14.7915 12.768 15.7678C12.4751 16.0607 12.4751 16.5356 12.768 16.8285C13.0609 17.1213 13.5358 17.1213 13.8287 16.8285C15.3908 15.2664 15.3908 12.7337 13.8287 11.1716Z" fill="white"/>
<path d="M63.114 5.63597C66.6287 9.15069 66.6287 14.8492 63.114 18.3639M60.4626 8.28771C62.5129 10.338 62.5129 13.6621 60.4626 15.7123M50.75 8.24999L55.4697 3.53032C55.9421 3.05784 56.75 3.39247 56.75 4.06065V19.9393C56.75 20.6075 55.9421 20.9421 55.4697 20.4697L50.75 15.75H48.5091C47.6297 15.75 46.8059 15.2435 46.5724 14.3957C46.3622 13.6329 46.25 12.8296 46.25 12C46.25 11.1704 46.3622 10.367 46.5724 9.60423C46.8059 8.75646 47.6297 8.24999 48.5091 8.24999H50.75Z" stroke="white" stroke-width="1.5" stroke-linecap="round" stroke-linejoin="round"/>
<path d="M105.5 4.06069C105.5 2.72433 103.884 2.05508 102.939 3.00003L98.4393 7.50003H96.5091C95.3677 7.50003 94.1911 8.16447 93.8493 9.40508C93.6215 10.2322 93.5 11.1025 93.5 12C93.5 12.8975 93.6215 13.7679 93.8493 14.595C94.1911 15.8356 95.3677 16.5 96.5091 16.5H98.4393L102.939 21C103.884 21.945 105.5 21.2757 105.5 19.9394V4.06069Z" fill="white"/>
<path d="M110.584 5.10567C110.877 4.81278 111.351 4.81278 111.644 5.10567C115.452 8.91328 115.452 15.0866 111.644 18.8943C111.351 19.1871 110.877 19.1871 110.584 18.8943C110.291 18.6014 110.291 18.1265 110.584 17.8336C113.806 14.6118 113.806 9.38816 110.584 6.16633C110.291 5.87344 110.291 5.39856 110.584 5.10567Z" fill="white"/>
<path d="M107.932 7.7574C108.225 7.46451 108.7 7.46451 108.993 7.7574C111.336 10.1005 111.336 13.8995 108.993 16.2427C108.7 16.5356 108.225 16.5356 107.932 16.2427C107.639 15.9498 107.639 15.4749 107.932 15.182C109.69 13.4247 109.69 10.5754 107.932 8.81806C107.639 8.52517 107.639 8.0503 107.932 7.7574Z" fill="white"/>
</svg>
