<svg width="116" height="24" viewBox="0 0 116 24" fill="none" xmlns="http://www.w3.org/2000/svg">
<path d="M3.25 8C2.00736 8 1 9.00736 1 10.25V17.75C1 18.9926 2.00736 20 3.25 20H10.75C11.9926 20 13 18.9926 13 17.75V10.25C13 9.00736 11.9926 8 10.75 8H3.25Z" fill="white"/>
<path d="M19 8.75002C19 8.44668 18.8173 8.1732 18.537 8.05711C18.2568 7.94103 17.9342 8.00519 17.7197 8.21969L14.7197 11.2197C14.579 11.3603 14.5 11.5511 14.5 11.75V16.25C14.5 16.4489 14.579 16.6397 14.7197 16.7804L17.7197 19.7804C17.9342 19.9949 18.2568 20.059 18.537 19.9429C18.8173 19.8268 19 19.5534 19 19.25V8.75002Z" fill="white"/>
<path d="M59.75 10.5L64.4697 5.78033C64.9421 5.30786 65.75 5.64248 65.75 6.31066V17.6893C65.75 18.3575 64.9421 18.6921 64.4697 18.2197L59.75 13.5M48.5 18.75H57.5C58.7426 18.75 59.75 17.7426 59.75 16.5V7.5C59.75 6.25736 58.7426 5.25 57.5 5.25H48.5C47.2574 5.25 46.25 6.25736 46.25 7.5V16.5C46.25 17.7426 47.2574 18.75 48.5 18.75Z" stroke="white" stroke-width="1.5" stroke-linecap="round" stroke-linejoin="round"/>
<path d="M96.5 4.5C94.8431 4.5 93.5 5.84315 93.5 7.5V16.5C93.5 18.1569 94.8431 19.5 96.5 19.5H104.75C106.407 19.5 107.75 18.1569 107.75 16.5V7.5C107.75 5.84315 106.407 4.5 104.75 4.5H96.5Z" fill="white"/>
<path d="M111.939 18.75L109.25 16.0606V7.93931L111.939 5.24996C112.884 4.30501 114.5 4.97427 114.5 6.31063V17.6893C114.5 19.0257 112.884 19.6949 111.939 18.75Z" fill="white"/>
</svg>
