<svg width="116" height="24" viewBox="0 0 116 24" fill="none" xmlns="http://www.w3.org/2000/svg">
<path d="M3.28033 6.21967C2.98744 5.92678 2.51256 5.92678 2.21967 6.21967C1.92678 6.51256 1.92678 6.98744 2.21967 7.28033L5.43934 10.5H2.75C2.33579 10.5 2 10.8358 2 11.25C2 11.6642 2.33579 12 2.75 12H7.25C7.66421 12 8 11.6642 8 11.25V6.75C8 6.33579 7.66421 6 7.25 6C6.83579 6 6.5 6.33579 6.5 6.75V9.43934L3.28033 6.21967Z" fill="white"/>
<path d="M13.5 6.75C13.5 6.33579 13.1642 6 12.75 6C12.3358 6 12 6.33579 12 6.75V11.25C12 11.6642 12.3358 12 12.75 12H17.25C17.6642 12 18 11.6642 18 11.25C18 10.8358 17.6642 10.5 17.25 10.5H14.5607L17.7803 7.28033C18.0732 6.98744 18.0732 6.51256 17.7803 6.21967C17.4874 5.92678 17.0126 5.92678 16.7197 6.21967L13.5 9.43934V6.75Z" fill="white"/>
<path d="M3.28033 21.7803L6.5 18.5607V21.25C6.5 21.6642 6.83579 22 7.25 22C7.66421 22 8 21.6642 8 21.25V16.75C8 16.3358 7.66421 16 7.25 16H2.75C2.33579 16 2 16.3358 2 16.75C2 17.1642 2.33579 17.5 2.75 17.5H5.43934L2.21967 20.7197C1.92678 21.0126 1.92678 21.4874 2.21967 21.7803C2.51256 22.0732 2.98744 22.0732 3.28033 21.7803Z" fill="white"/>
<path d="M13.5 18.5607L16.7197 21.7803C17.0126 22.0732 17.4874 22.0732 17.7803 21.7803C18.0732 21.4874 18.0732 21.0126 17.7803 20.7197L14.5607 17.5H17.25C17.6642 17.5 18 17.1642 18 16.75C18 16.3358 17.6642 16 17.25 16H12.75C12.3358 16 12 16.3358 12 16.75V21.25C12 21.6642 12.3358 22 12.75 22C13.1642 22 13.5 21.6642 13.5 21.25V18.5607Z" fill="white"/>
<path d="M53 9L53 4.5M53 9L48.5 9M53 9L47.75 3.75M53 15L53 19.5M53 15L48.5 15M53 15L47.75 20.25M59 9H63.5M59 9V4.5M59 9L64.25 3.75M59 15H63.5M59 15L59 19.5M59 15L64.25 20.25" stroke="white" stroke-width="1.5" stroke-linecap="round" stroke-linejoin="round"/>
<path fill-rule="evenodd" clip-rule="evenodd" d="M95.2197 3.21967C95.5126 2.92678 95.9874 2.92678 96.2803 3.21967L100.25 7.18934L100.25 4.5C100.25 4.08579 100.586 3.75 101 3.75C101.414 3.75 101.75 4.08579 101.75 4.5L101.75 9C101.75 9.41421 101.414 9.75 101 9.75H96.5C96.0858 9.75 95.75 9.41421 95.75 9C95.75 8.58579 96.0858 8.25 96.5 8.25L99.1893 8.25L95.2197 4.28033C94.9268 3.98744 94.9268 3.51256 95.2197 3.21967ZM112.78 3.21967C113.073 3.51256 113.073 3.98744 112.78 4.28033L108.811 8.25H111.5C111.914 8.25 112.25 8.58579 112.25 9C112.25 9.41421 111.914 9.75 111.5 9.75H107C106.586 9.75 106.25 9.41421 106.25 9V4.5C106.25 4.08579 106.586 3.75 107 3.75C107.414 3.75 107.75 4.08579 107.75 4.5V7.18934L111.72 3.21967C112.013 2.92678 112.487 2.92678 112.78 3.21967ZM95.75 15C95.75 14.5858 96.0858 14.25 96.5 14.25L101 14.25C101.414 14.25 101.75 14.5858 101.75 15V19.5C101.75 19.9142 101.414 20.25 101 20.25C100.586 20.25 100.25 19.9142 100.25 19.5L100.25 16.8107L96.2803 20.7803C95.9874 21.0732 95.5126 21.0732 95.2197 20.7803C94.9268 20.4874 94.9268 20.0126 95.2197 19.7197L99.1893 15.75H96.5C96.0858 15.75 95.75 15.4142 95.75 15ZM106.25 15C106.25 14.5858 106.586 14.25 107 14.25H111.5C111.914 14.25 112.25 14.5858 112.25 15C112.25 15.4142 111.914 15.75 111.5 15.75H108.811L112.78 19.7197C113.073 20.0126 113.073 20.4874 112.78 20.7803C112.487 21.0732 112.013 21.0732 111.72 20.7803L107.75 16.8107V19.5C107.75 19.9142 107.414 20.25 107 20.25C106.586 20.25 106.25 19.9142 106.25 19.5L106.25 15Z" fill="white"/>
</svg>
