<svg width="116" height="24" viewBox="0 0 116 24" fill="none" xmlns="http://www.w3.org/2000/svg">
<path d="M3 8C1.89543 8 1 8.89543 1 10V11.1615L9.44098 15.382C9.79289 15.5579 10.2071 15.5579 10.559 15.382L19 11.1615V10C19 8.89543 18.1046 8 17 8H3Z" fill="white"/>
<path d="M19 12.8385L11.2298 16.7236C10.4556 17.1107 9.54436 17.1107 8.77016 16.7236L1 12.8385V18C1 19.1046 1.89543 20 3 20H17C18.1046 20 19 19.1046 19 18V12.8385Z" fill="white"/>
<path d="M65.75 6.75V17.25C65.75 18.4926 64.7426 19.5 63.5 19.5H48.5C47.2574 19.5 46.25 18.4926 46.25 17.25V6.75M65.75 6.75C65.75 5.50736 64.7426 4.5 63.5 4.5H48.5C47.2574 4.5 46.25 5.50736 46.25 6.75M65.75 6.75V6.99271C65.75 7.77405 65.3447 8.49945 64.6792 8.90894L57.1792 13.5243C56.4561 13.9694 55.5439 13.9694 54.8208 13.5243L47.3208 8.90894C46.6553 8.49945 46.25 7.77405 46.25 6.99271V6.75" stroke="white" stroke-width="1.5" stroke-linecap="round" stroke-linejoin="round"/>
<path d="M93.5 8.6691V17.25C93.5 18.9069 94.8431 20.25 96.5 20.25H111.5C113.157 20.25 114.5 18.9069 114.5 17.25V8.6691L105.572 14.1631C104.608 14.7564 103.392 14.7564 102.428 14.1631L93.5 8.6691Z" fill="white"/>
<path d="M114.5 6.90783V6.75C114.5 5.09315 113.157 3.75 111.5 3.75H96.5C94.8431 3.75 93.5 5.09315 93.5 6.75V6.90783L103.214 12.8856C103.696 13.1823 104.304 13.1823 104.786 12.8856L114.5 6.90783Z" fill="white"/>
</svg>
