<svg width="116" height="24" viewBox="0 0 116 24" fill="none" xmlns="http://www.w3.org/2000/svg">
<path fill-rule="evenodd" clip-rule="evenodd" d="M10 21C9.58579 21 9.25 20.6642 9.25 20.25L9.25 9.61208L5.29062 13.7698C5.00353 14.0684 4.52875 14.0777 4.23017 13.7906C3.93159 13.5035 3.92228 13.0287 4.20937 12.7302L9.45937 7.23017C9.60078 7.08311 9.79598 7 10 7C10.204 7 10.3992 7.08311 10.5406 7.23017L15.7906 12.7302C16.0777 13.0287 16.0684 13.5035 15.7698 13.7906C15.4713 14.0777 14.9965 14.0684 14.7094 13.7698L10.75 9.61208L10.75 20.25C10.75 20.6642 10.4142 21 10 21Z" fill="white"/>
<path d="M48.5 10.5L56 3M56 3L63.5 10.5M56 3V21" stroke="white" stroke-width="1.5" stroke-linecap="round" stroke-linejoin="round"/>
<path fill-rule="evenodd" clip-rule="evenodd" d="M103.47 2.46967C103.763 2.17678 104.237 2.17678 104.53 2.46967L112.03 9.96967C112.323 10.2626 112.323 10.7374 112.03 11.0303C111.737 11.3232 111.263 11.3232 110.97 11.0303L104.75 4.81066V21C104.75 21.4142 104.414 21.75 104 21.75C103.586 21.75 103.25 21.4142 103.25 21V4.81066L97.0303 11.0303C96.7374 11.3232 96.2626 11.3232 95.9697 11.0303C95.6768 10.7374 95.6768 10.2626 95.9697 9.96967L103.47 2.46967Z" fill="white"/>
</svg>
