<svg width="116" height="24" viewBox="0 0 116 24" fill="none" xmlns="http://www.w3.org/2000/svg">
<path fill-rule="evenodd" clip-rule="evenodd" d="M9.29289 6.29289C9.68342 5.90237 10.3166 5.90237 10.7071 6.29289L17.7071 13.2929C17.9931 13.5789 18.0787 14.009 17.9239 14.3827C17.7691 14.7564 17.4045 15 17 15H16V21C16 21.5523 15.5523 22 15 22H13C12.4477 22 12 21.5523 12 21V18C12 17.4477 11.5523 17 11 17H9C8.44771 17 8 17.4477 8 18V21C8 21.5523 7.55228 22 7 22H5C4.44771 22 4 21.5523 4 21V15H3C2.59554 15 2.2309 14.7564 2.07612 14.3827C1.92134 14.009 2.00689 13.5789 2.29289 13.2929L9.29289 6.29289Z" fill="white"/>
<path d="M46.25 12.0001L55.2045 3.04557C55.6438 2.60623 56.3562 2.60623 56.7955 3.04557L65.75 12.0001M48.5 9.75007V19.8751C48.5 20.4964 49.0037 21.0001 49.625 21.0001H53.75V16.1251C53.75 15.5038 54.2537 15.0001 54.875 15.0001H57.125C57.7463 15.0001 58.25 15.5038 58.25 16.1251V21.0001H62.375C62.9963 21.0001 63.5 20.4964 63.5 19.8751V9.75007M52.25 21.0001H60.5" stroke="white" stroke-width="1.5" stroke-linecap="round" stroke-linejoin="round"/>
<path d="M103.47 3.84101C103.763 3.54811 104.237 3.54811 104.53 3.84101L113.22 12.5303C113.513 12.8232 113.987 12.8232 114.28 12.5303C114.573 12.2375 114.573 11.7626 114.28 11.4697L105.591 2.78035C104.712 1.90167 103.288 1.90167 102.409 2.78035L93.7197 11.4697C93.4268 11.7626 93.4268 12.2375 93.7197 12.5303C94.0126 12.8232 94.4874 12.8232 94.7803 12.5303L103.47 3.84101Z" fill="white"/>
<path d="M104 5.432L112.159 13.591C112.189 13.6207 112.219 13.6494 112.25 13.6772V19.875C112.25 20.9105 111.411 21.75 110.375 21.75H107C106.586 21.75 106.25 21.4142 106.25 21V16.5C106.25 16.0858 105.914 15.75 105.5 15.75H102.5C102.086 15.75 101.75 16.0858 101.75 16.5V21C101.75 21.4142 101.414 21.75 101 21.75H97.625C96.5895 21.75 95.75 20.9106 95.75 19.875V13.6772C95.7809 13.6494 95.8113 13.6207 95.841 13.591L104 5.432Z" fill="white"/>
</svg>
