<svg width="116" height="24" viewBox="0 0 116 24" fill="none" xmlns="http://www.w3.org/2000/svg">
<path fill-rule="evenodd" clip-rule="evenodd" d="M12.577 8.87834C12.6842 8.47824 13.0955 8.2408 13.4956 8.34801L18.2766 9.6291C18.4688 9.68058 18.6326 9.80628 18.732 9.97854C18.8315 10.1508 18.8585 10.3555 18.807 10.5477L17.5259 15.3287C17.4187 15.7288 17.0074 15.9663 16.6073 15.8591C16.2072 15.7519 15.9698 15.3406 16.077 14.9405L16.8865 11.9195C14.6303 13.3097 12.7541 15.0901 11.2935 17.1222C11.1651 17.3009 10.9646 17.4142 10.7452 17.432C10.5259 17.4499 10.3098 17.3704 10.1542 17.2148L7 14.0607L2.28033 18.7803C1.98744 19.0732 1.51256 19.0732 1.21967 18.7803C0.926777 18.4874 0.926777 18.0126 1.21967 17.7197L6.46967 12.4697C6.76256 12.1768 7.23744 12.1768 7.53033 12.4697L10.6039 15.5433C12.1049 13.6305 13.9633 11.9506 16.1492 10.612L13.1073 9.7969C12.7072 9.68969 12.4698 9.27844 12.577 8.87834Z" fill="white"/>
<path d="M46.25 18L53 11.25L57.3064 15.5564C58.5101 13.1881 60.5042 11.2023 63.1203 10.0375L65.8609 8.81732M65.8609 8.81732L59.9196 6.53668M65.8609 8.81732L63.5802 14.7586" stroke="white" stroke-width="1.5" stroke-linecap="round" stroke-linejoin="round"/>
<path fill-rule="evenodd" clip-rule="evenodd" d="M107.219 6.26793C107.368 5.88122 107.802 5.68808 108.188 5.83652L114.13 8.11716C114.315 8.18844 114.465 8.33057 114.546 8.51229C114.627 8.694 114.632 8.90042 114.561 9.08612L112.28 15.0274C112.132 15.4141 111.698 15.6072 111.311 15.4588C110.925 15.3104 110.732 14.8765 110.88 14.4898L112.512 10.239L111.425 10.7227C108.972 11.815 107.104 13.6758 105.975 15.8962C105.866 16.1104 105.661 16.2594 105.424 16.2971C105.187 16.3348 104.946 16.2566 104.776 16.0868L101 12.3107L94.7803 18.5303C94.4874 18.8232 94.0126 18.8232 93.7197 18.5303C93.4268 18.2374 93.4268 17.7626 93.7197 17.4697L100.47 10.7197C100.61 10.579 100.801 10.5 101 10.5C101.199 10.5 101.39 10.579 101.53 10.7197L105.136 14.3257C106.437 12.2046 108.371 10.4406 110.815 9.35239L111.902 8.86864L107.651 7.23689C107.264 7.08845 107.071 6.65463 107.219 6.26793Z" fill="white"/>
</svg>
