<svg width="116" height="24" viewBox="0 0 116 24" fill="none" xmlns="http://www.w3.org/2000/svg">
<path fill-rule="evenodd" clip-rule="evenodd" d="M8.49999 7.52795V12.1716C8.49999 12.9009 8.21026 13.6004 7.69453 14.1161L6.47812 15.3325C7.68604 15.2911 8.89515 15.5003 10.0275 15.9532L10.5296 16.1541C11.8561 16.6847 13.3098 16.8115 14.708 16.5187L12.3054 14.1161C11.7897 13.6004 11.5 12.9009 11.5 12.1716V7.52795C11.0023 7.50937 10.5023 7.5 9.99999 7.5C9.49771 7.5 8.99766 7.50937 8.49999 7.52795ZM13 7.61218C13.0635 7.61695 13.1269 7.62186 13.1903 7.62693C13.6032 7.65992 13.9646 7.35194 13.9976 6.93905C14.0306 6.52615 13.7226 6.16468 13.3097 6.13169C12.9714 6.10466 12.6319 6.08173 12.2913 6.06296C11.5327 6.02117 10.7688 6 9.99999 6C9.23118 6 8.46724 6.02117 7.70873 6.06296C7.36812 6.08173 7.02862 6.10466 6.69025 6.13169C6.27736 6.16468 5.96938 6.52615 6.00237 6.93905C6.03536 7.35194 6.39683 7.65992 6.80973 7.62693C6.8731 7.62186 6.93653 7.61695 6.99999 7.61218V12.1716C6.99999 12.5031 6.86829 12.821 6.63387 13.0555L2.60034 17.089C1.10385 18.5855 1.78334 21.2391 4.00336 21.5645C5.9611 21.8515 7.96343 22 9.99999 22C12.0366 22 14.0389 21.8515 15.9966 21.5645C18.2166 21.2391 18.8961 18.5855 17.3996 17.089L13.3661 13.0555C13.1317 12.821 13 12.5031 13 12.1716V7.61218Z" fill="white"/>
<path d="M53.75 3.10408V8.81802C53.75 9.41476 53.513 9.98705 53.091 10.409L49 14.5M53.75 3.10408C53.4989 3.12743 53.2488 3.15465 53 3.18568M53.75 3.10408C54.4908 3.03521 55.2413 3 56 3C56.7587 3 57.5093 3.03521 58.25 3.10408M58.25 3.10408V8.81802C58.25 9.41476 58.4871 9.98705 58.909 10.409L63.8 15.3M58.25 3.10408C58.5011 3.12743 58.7512 3.15465 59 3.18568M63.8 15.3L62.2299 15.6925C60.1457 16.2136 57.9216 15.9608 56 15C54.0784 14.0392 51.8544 13.7864 49.7701 14.3075L49 14.5M63.8 15.3L65.2022 16.7022C66.4341 17.9341 65.8527 20.0202 64.1354 20.3134C61.4911 20.7649 58.773 21 56 21C53.227 21 50.5089 20.7649 47.8646 20.3134C46.1473 20.0202 45.5659 17.9341 46.7978 16.7022L49 14.5" stroke="white" stroke-width="1.5" stroke-linecap="round" stroke-linejoin="round"/>
<path fill-rule="evenodd" clip-rule="evenodd" d="M102.5 3.79758V8.81802C102.5 9.61367 102.184 10.3767 101.621 10.9393L99.2443 13.3164C100.992 13.192 102.758 13.5404 104.335 14.3292C106.099 15.2109 108.14 15.442 110.048 14.9649L110.333 14.8937L106.379 10.9393C105.816 10.3767 105.5 9.61367 105.5 8.81802V3.79758C105.004 3.76602 104.504 3.75 104 3.75C103.496 3.75 102.996 3.76602 102.5 3.79758ZM107 3.93576C107.373 3.93623 107.697 3.65833 107.744 3.27849C107.795 2.86746 107.504 2.4927 107.093 2.44144C106.836 2.40945 106.578 2.38138 106.319 2.3573C105.556 2.28628 104.782 2.25 104 2.25C103.218 2.25 102.444 2.28628 101.681 2.3573C101.422 2.38138 101.164 2.40945 100.907 2.44144C100.496 2.4927 100.204 2.86746 100.256 3.27849C100.303 3.65833 100.627 3.93623 101 3.93576V8.81802C101 9.21584 100.842 9.59737 100.561 9.87868L94.2675 16.1719C92.6463 17.793 93.3645 20.6474 95.7384 21.0527C98.4242 21.5112 101.185 21.75 104 21.75C106.815 21.75 109.576 21.5112 112.262 21.0527C114.636 20.6474 115.354 17.793 113.733 16.1719L107.439 9.87868C107.158 9.59737 107 9.21584 107 8.81802V3.93576Z" fill="white"/>
</svg>
