<svg width="116" height="24" viewBox="0 0 116 24" fill="none" xmlns="http://www.w3.org/2000/svg">
<path fill-rule="evenodd" clip-rule="evenodd" d="M3 8.25C3 7.00736 4.00736 6 5.25 6H10.75C11.9926 6 13 7.00736 13 8.25V10.25C13 10.6642 12.6642 11 12.25 11C11.8358 11 11.5 10.6642 11.5 10.25V8.25C11.5 7.83579 11.1642 7.5 10.75 7.5H5.25C4.83579 7.5 4.5 7.83579 4.5 8.25V19.75C4.5 20.1642 4.83579 20.5 5.25 20.5H10.75C11.1642 20.5 11.5 20.1642 11.5 19.75V17.75C11.5 17.3358 11.8358 17 12.25 17C12.6642 17 13 17.3358 13 17.75V19.75C13 20.9926 11.9926 22 10.75 22H5.25C4.00736 22 3 20.9926 3 19.75V8.25Z" fill="white"/>
<path fill-rule="evenodd" clip-rule="evenodd" d="M19 14C19 13.5858 18.6642 13.25 18.25 13.25H8.70447L9.75172 12.3075C10.0596 12.0304 10.0846 11.5562 9.80747 11.2483C9.53038 10.9404 9.05616 10.9154 8.74828 11.1925L6.24828 13.4425C6.09024 13.5848 6 13.7874 6 14C6 14.2126 6.09024 14.4152 6.24828 14.5575L8.74828 16.8075C9.05616 17.0846 9.53038 17.0596 9.80747 16.7517C10.0846 16.4438 10.0596 15.9696 9.75172 15.6925L8.70447 14.75H18.25C18.6642 14.75 19 14.4142 19 14Z" fill="white"/>
<path d="M59.75 9V5.25C59.75 4.00736 58.7426 3 57.5 3L51.5 3C50.2574 3 49.25 4.00736 49.25 5.25L49.25 18.75C49.25 19.9926 50.2574 21 51.5 21H57.5C58.7426 21 59.75 19.9926 59.75 18.75V15M56 9L53 12M53 12L56 15M53 12L65.75 12" stroke="white" stroke-width="1.5" stroke-linecap="round" stroke-linejoin="round"/>
<path fill-rule="evenodd" clip-rule="evenodd" d="M99.5 3.75C98.6716 3.75 98 4.42157 98 5.25L98 18.75C98 19.5784 98.6716 20.25 99.5 20.25H105.5C106.328 20.25 107 19.5784 107 18.75V15C107 14.5858 107.336 14.25 107.75 14.25C108.164 14.25 108.5 14.5858 108.5 15V18.75C108.5 20.4069 107.157 21.75 105.5 21.75H99.5C97.8431 21.75 96.5 20.4069 96.5 18.75L96.5 5.25C96.5 3.59315 97.8431 2.25 99.5 2.25L105.5 2.25C107.157 2.25 108.5 3.59315 108.5 5.25V9C108.5 9.41421 108.164 9.75 107.75 9.75C107.336 9.75 107 9.41421 107 9V5.25C107 4.42157 106.328 3.75 105.5 3.75L99.5 3.75ZM104.53 8.46967C104.823 8.76256 104.823 9.23744 104.53 9.53033L102.811 11.25L113.75 11.25C114.164 11.25 114.5 11.5858 114.5 12C114.5 12.4142 114.164 12.75 113.75 12.75L102.811 12.75L104.53 14.4697C104.823 14.7626 104.823 15.2374 104.53 15.5303C104.237 15.8232 103.763 15.8232 103.47 15.5303L100.47 12.5303C100.177 12.2374 100.177 11.7626 100.47 11.4697L103.47 8.46967C103.763 8.17678 104.237 8.17678 104.53 8.46967Z" fill="white"/>
</svg>
