<svg width="116" height="24" viewBox="0 0 116 24" fill="none" xmlns="http://www.w3.org/2000/svg">
<path d="M3.19569 16.8694L2.37071 17.353C2.14108 17.4876 2 17.7338 2 18C2 18.2662 2.14108 18.5124 2.37071 18.647L9.62071 22.897C9.85493 23.0343 10.1451 23.0343 10.3793 22.897L17.6293 18.647C17.8589 18.5124 18 18.2662 18 18C18 17.7338 17.8589 17.4876 17.6293 17.353L16.8043 16.8694L11.1379 20.1911C10.4352 20.603 9.56479 20.603 8.86213 20.1911L3.19569 16.8694Z" fill="white"/>
<path d="M3.19569 12.8694L2.37071 13.353C2.14108 13.4876 2 13.7338 2 14C2 14.2662 2.14108 14.5124 2.37071 14.647L9.62071 18.897C9.85493 19.0343 10.1451 19.0343 10.3793 18.897L17.6293 14.647C17.8589 14.5124 18 14.2662 18 14C18 13.7338 17.8589 13.4876 17.6293 13.353L16.8043 12.8694L11.1379 16.1911C10.4352 16.603 9.56479 16.603 8.86213 16.1911L3.19569 12.8694Z" fill="white"/>
<path d="M10.3793 5.10298C10.1451 4.96567 9.85493 4.96567 9.62071 5.10298L2.37071 9.35298C2.14108 9.48759 2 9.73382 2 10C2 10.2662 2.14108 10.5124 2.37071 10.647L9.62071 14.897C9.85493 15.0343 10.1451 15.0343 10.3793 14.897L17.6293 10.647C17.8589 10.5124 18 10.2662 18 10C18 9.73382 17.8589 9.48759 17.6293 9.35298L10.3793 5.10298Z" fill="white"/>
<path d="M50.4286 9.75L46.25 12L50.4286 14.25M50.4286 9.75L56 12.75L61.5714 9.75M50.4286 9.75L46.25 7.5L56 2.25L65.75 7.5L61.5714 9.75M61.5714 9.75L65.75 12L61.5714 14.25M61.5714 14.25L65.75 16.5L56 21.75L46.25 16.5L50.4286 14.25M61.5714 14.25L56 17.25L50.4286 14.25" stroke="white" stroke-width="1.5" stroke-linecap="round" stroke-linejoin="round"/>
<path d="M103.644 1.58965C103.866 1.47012 104.134 1.47012 104.356 1.58965L114.106 6.83965C114.349 6.97046 114.5 7.22409 114.5 7.5C114.5 7.77591 114.349 8.02954 114.106 8.16035L104.356 13.4104C104.134 13.5299 103.866 13.5299 103.644 13.4104L93.8944 8.16035C93.6515 8.02954 93.5 7.77591 93.5 7.5C93.5 7.22409 93.6515 6.97046 93.8944 6.83965L103.644 1.58965Z" fill="white"/>
<path d="M95.2647 10.6018L102.933 14.731C103.599 15.0896 104.401 15.0896 105.067 14.7311L112.735 10.6018L114.106 11.3396C114.349 11.4704 114.5 11.7241 114.5 12C114.5 12.2759 114.349 12.5295 114.106 12.6603L104.356 17.9103C104.134 18.0299 103.866 18.0299 103.644 17.9103L93.8944 12.6603C93.6515 12.5295 93.5 12.2759 93.5 12C93.5 11.7241 93.6515 11.4704 93.8944 11.3396L95.2647 10.6018Z" fill="white"/>
<path d="M102.933 19.231L95.2647 15.1018L93.8944 15.8396C93.6515 15.9704 93.5 16.2241 93.5 16.5C93.5 16.7759 93.6515 17.0295 93.8944 17.1603L103.644 22.4103C103.866 22.5299 104.134 22.5299 104.356 22.4103L114.106 17.1603C114.349 17.0295 114.5 16.7759 114.5 16.5C114.5 16.2241 114.349 15.9704 114.106 15.8396L112.735 15.1018L105.067 19.2311C104.401 19.5896 103.599 19.5896 102.933 19.231Z" fill="white"/>
</svg>
