<svg width="116" height="24" viewBox="0 0 116 24" fill="none" xmlns="http://www.w3.org/2000/svg">
<path d="M7.75009 6.75C7.75009 6.33579 7.4143 6 7.00009 6C6.58587 6 6.25009 6.33579 6.25009 6.75V8.00842C5.03323 8.03578 3.8325 8.12954 2.65142 8.28627C2.24081 8.34076 1.95211 8.7178 2.0066 9.12841C2.06109 9.53902 2.43813 9.82772 2.84875 9.77323C4.20658 9.59304 5.59228 9.5 7.00009 9.5C7.57065 9.5 8.13758 9.51528 8.70048 9.54546C8.2826 10.9569 7.70916 12.3017 6.99996 13.56C6.62755 12.8993 6.29259 12.2147 5.99793 11.5091C5.8383 11.1269 5.39905 10.9465 5.01683 11.1061C4.63461 11.2657 4.45416 11.705 4.61379 12.0872C5.03667 13.0998 5.5365 14.072 6.10593 14.9967C5.03656 16.5598 3.74539 17.9596 2.27753 19.1506C1.95588 19.4116 1.9067 19.8839 2.16769 20.2055C2.42867 20.5272 2.90099 20.5764 3.22264 20.3154C4.64811 19.1588 5.91919 17.8189 6.99996 16.3314C7.0954 16.4628 7.19233 16.593 7.29071 16.722C7.54187 17.0514 8.01249 17.1148 8.34187 16.8637C8.67125 16.6125 8.73467 16.1419 8.48351 15.8125C8.2802 15.5459 8.08361 15.2739 7.894 14.9967C8.90466 13.3555 9.69602 11.5646 10.227 9.66453C10.5365 9.69627 10.8447 9.73253 11.1514 9.77323C11.562 9.82772 11.9391 9.53902 11.9936 9.12841C12.0481 8.7178 11.7594 8.34076 11.3487 8.28627C10.8114 8.21496 10.27 8.15669 9.72489 8.11178C9.07179 8.05797 8.41333 8.02333 7.75009 8.00842V6.75Z" fill="white"/>
<path fill-rule="evenodd" clip-rule="evenodd" d="M13.0002 12C13.2842 12 13.5439 12.1605 13.671 12.4146L17.921 20.9146C18.1062 21.2851 17.9561 21.7356 17.5856 21.9208C17.2151 22.1061 16.7646 21.9559 16.5793 21.5854L15.7866 20H10.2137L9.42098 21.5854C9.23574 21.9559 8.78524 22.1061 8.41475 21.9208C8.04427 21.7356 7.8941 21.2851 8.07934 20.9146L12.3293 12.4146C12.4564 12.1605 12.7161 12 13.0002 12ZM15.0366 18.5L13.0002 14.4271L10.9637 18.5H15.0366Z" fill="white"/>
<path d="M54.5 21L59.75 9.75L65 21M56 18H63.5M47 5.62136C48.9656 5.37626 50.968 5.25 53 5.25M53 5.25C54.1208 5.25 55.2326 5.28841 56.3343 5.364M53 5.25V3M56.3343 5.364C55.1763 10.6578 51.6887 15.0801 47 17.5023M56.3343 5.364C57.2298 5.42545 58.1186 5.51146 59 5.62136M54.4113 14.1162C52.7855 12.4619 51.477 10.4949 50.5843 8.31366" stroke="white" stroke-width="1.5" stroke-linecap="round" stroke-linejoin="round"/>
<path fill-rule="evenodd" clip-rule="evenodd" d="M101 2.25C101.414 2.25 101.75 2.58579 101.75 3V4.50565C102.634 4.519 103.513 4.55589 104.386 4.61576C105.295 4.67816 106.198 4.7655 107.093 4.87713C107.504 4.92838 107.795 5.30314 107.744 5.71417C107.693 6.1252 107.318 6.41685 106.907 6.3656C106.248 6.28336 105.584 6.21471 104.916 6.15993C104.325 8.46971 103.306 10.6074 101.948 12.4834C102.265 12.8666 102.598 13.236 102.946 13.5905C103.237 13.8859 103.232 14.3607 102.937 14.6511C102.642 14.9414 102.167 14.9373 101.876 14.6419C101.573 14.3337 101.281 14.015 101 13.6866C99.4289 15.522 97.5094 17.0501 95.3442 18.1686C94.9762 18.3587 94.5238 18.2145 94.3337 17.8465C94.1436 17.4785 94.2878 17.026 94.6558 16.8359C96.7376 15.7605 98.5721 14.2737 100.052 12.4834C99.186 11.2869 98.4576 9.984 97.8902 8.59774C97.7333 8.21439 97.9169 7.77643 98.3002 7.61954C98.6836 7.46265 99.1216 7.64622 99.2784 8.02957C99.7408 9.15919 100.32 10.229 101 11.2242C102.065 9.66674 102.881 7.92604 103.391 6.05944C102.599 6.01997 101.802 6 101 6C98.9991 6 97.0277 6.12433 95.0928 6.3656C94.6818 6.41685 94.307 6.1252 94.2558 5.71417C94.2045 5.30314 94.4962 4.92838 94.9072 4.87713C96.6611 4.65841 98.4438 4.5329 100.25 4.50565V3C100.25 2.58579 100.586 2.25 101 2.25ZM107.75 9C108.041 9 108.306 9.16878 108.43 9.43284L113.68 20.6828C113.855 21.0582 113.693 21.5045 113.317 21.6796C112.942 21.8548 112.496 21.6925 112.32 21.3172L111.122 18.75H104.378L103.18 21.3172C103.004 21.6925 102.558 21.8548 102.183 21.6796C101.807 21.5045 101.645 21.0582 101.82 20.6828L107.07 9.43284C107.194 9.16878 107.459 9 107.75 9ZM105.078 17.25H110.422L107.75 11.5235L105.078 17.25Z" fill="white"/>
</svg>
