<svg width="116" height="24" viewBox="0 0 116 24" fill="none" xmlns="http://www.w3.org/2000/svg">
<path fill-rule="evenodd" clip-rule="evenodd" d="M1.21967 9.22211C1.51256 8.92922 1.98744 8.92922 2.28033 9.22211L7 13.9418L10.7685 10.1733C10.9187 10.0231 11.1256 9.94359 11.3378 9.95463C11.55 9.96568 11.7475 10.0662 11.8813 10.2312C13.5732 12.3174 14.888 14.7612 15.6939 17.4849L17.2685 14.7576C17.4756 14.3989 17.9343 14.276 18.293 14.4831C18.6517 14.6902 18.7747 15.1489 18.5675 15.5076L16.0927 19.7942C15.8856 20.153 15.4269 20.2759 15.0682 20.0688L10.7815 17.5939C10.4228 17.3868 10.2999 16.9281 10.507 16.5694C10.7141 16.2106 11.1728 16.0877 11.5315 16.2949L14.2401 17.8586C13.5741 15.6301 12.5419 13.6065 11.2278 11.8353L7.53033 15.5328C7.38968 15.6734 7.19891 15.7524 7 15.7524C6.80109 15.7524 6.61032 15.6734 6.46967 15.5328L1.21967 10.2828C0.926777 9.98988 0.926777 9.515 1.21967 9.22211Z" fill="white"/>
<path d="M46.25 6L53 12.75L57.2862 8.46383C59.3217 10.0166 60.8781 12.23 61.5919 14.8941L62.3684 17.7919M62.3684 17.7919L65.5504 12.2806M62.3684 17.7919L56.857 14.6099" stroke="white" stroke-width="1.5" stroke-linecap="round" stroke-linejoin="round"/>
<path fill-rule="evenodd" clip-rule="evenodd" d="M93.7197 5.46967C94.0126 5.17678 94.4874 5.17678 94.7803 5.46967L101 11.6893L104.756 7.9335C105.021 7.66793 105.442 7.63974 105.741 7.86752C107.904 9.51731 109.558 11.8701 110.316 14.7L110.624 15.8488L112.901 11.9056C113.108 11.5468 113.567 11.4239 113.925 11.631C114.284 11.8381 114.407 12.2968 114.2 12.6556L111.018 18.1669C110.918 18.3392 110.755 18.4649 110.563 18.5164C110.37 18.5678 110.166 18.5409 109.993 18.4414L104.482 15.2595C104.123 15.0523 104 14.5937 104.208 14.2349C104.415 13.8762 104.873 13.7533 105.232 13.9604L109.175 16.2371L108.867 15.0882C108.259 12.8165 106.998 10.8956 105.339 9.47141L101.53 13.2803C101.237 13.5732 100.763 13.5732 100.47 13.2803L93.7197 6.53033C93.4268 6.23744 93.4268 5.76256 93.7197 5.46967Z" fill="white"/>
</svg>
