<svg width="116" height="24" viewBox="0 0 116 24" fill="none" xmlns="http://www.w3.org/2000/svg">
<path d="M10 6C10.4142 6 10.75 6.33579 10.75 6.75V8.25C10.75 8.66421 10.4142 9 10 9C9.58579 9 9.25 8.66421 9.25 8.25V6.75C9.25 6.33579 9.58579 6 10 6Z" fill="white"/>
<path d="M10 19C10.4142 19 10.75 19.3358 10.75 19.75V21.25C10.75 21.6642 10.4142 22 10 22C9.58579 22 9.25 21.6642 9.25 21.25V19.75C9.25 19.3358 9.58579 19 10 19Z" fill="white"/>
<path d="M10 11C8.34315 11 7 12.3431 7 14C7 15.6569 8.34315 17 10 17C11.6569 17 13 15.6569 13 14C13 12.3431 11.6569 11 10 11Z" fill="white"/>
<path d="M15.6568 9.40386C15.9497 9.11096 15.9497 8.63609 15.6568 8.3432C15.3639 8.0503 14.889 8.0503 14.5961 8.3432L13.5355 9.40386C13.2426 9.69675 13.2426 10.1716 13.5355 10.4645C13.8284 10.7574 14.3032 10.7574 14.5961 10.4645L15.6568 9.40386Z" fill="white"/>
<path d="M6.46441 18.5962C6.7573 18.3034 6.7573 17.8285 6.46441 17.5356C6.17151 17.2427 5.69664 17.2427 5.40375 17.5356L4.34309 18.5962C4.05019 18.8891 4.05019 19.364 4.34309 19.6569C4.63598 19.9498 5.11085 19.9498 5.40375 19.6569L6.46441 18.5962Z" fill="white"/>
<path d="M18 14C18 14.4142 17.6642 14.75 17.25 14.75H15.75C15.3358 14.75 15 14.4142 15 14C15 13.5858 15.3358 13.25 15.75 13.25H17.25C17.6642 13.25 18 13.5858 18 14Z" fill="white"/>
<path d="M5 14C5 14.4142 4.66421 14.75 4.25 14.75H2.75C2.33579 14.75 2 14.4142 2 14C2 13.5858 2.33579 13.25 2.75 13.25H4.25C4.66421 13.25 5 13.5858 5 14Z" fill="white"/>
<path d="M14.596 19.6568C14.8889 19.9497 15.3638 19.9497 15.6567 19.6568C15.9496 19.3639 15.9496 18.889 15.6567 18.5961L14.596 17.5355C14.3031 17.2426 13.8283 17.2426 13.5354 17.5355C13.2425 17.8284 13.2425 18.3032 13.5354 18.5961L14.596 19.6568Z" fill="white"/>
<path d="M5.40363 10.4644C5.69653 10.7573 6.1714 10.7573 6.46429 10.4644C6.75719 10.1715 6.75719 9.69664 6.46429 9.40375L5.40363 8.34309C5.11074 8.05019 4.63587 8.05019 4.34297 8.34309C4.05008 8.63598 4.05008 9.11085 4.34297 9.40375L5.40363 10.4644Z" fill="white"/>
<path d="M56 3V5.25M62.364 5.63604L60.773 7.22703M65 12H62.75M62.364 18.364L60.773 16.773M56 18.75V21M51.227 16.773L49.636 18.364M49.25 12H47M51.227 7.22703L49.636 5.63604M59.75 12C59.75 14.0711 58.0711 15.75 56 15.75C53.9289 15.75 52.25 14.0711 52.25 12C52.25 9.92893 53.9289 8.25 56 8.25C58.0711 8.25 59.75 9.92893 59.75 12Z" stroke="white" stroke-width="1.5" stroke-linecap="round" stroke-linejoin="round"/>
<path d="M104 2.25C104.414 2.25 104.75 2.58579 104.75 3V5.25C104.75 5.66421 104.414 6 104 6C103.586 6 103.25 5.66421 103.25 5.25V3C103.25 2.58579 103.586 2.25 104 2.25Z" fill="white"/>
<path d="M99.5 12C99.5 9.51472 101.515 7.5 104 7.5C106.485 7.5 108.5 9.51472 108.5 12C108.5 14.4853 106.485 16.5 104 16.5C101.515 16.5 99.5 14.4853 99.5 12Z" fill="white"/>
<path d="M110.894 6.16634C111.187 5.87344 111.187 5.39857 110.894 5.10568C110.601 4.81278 110.127 4.81278 109.834 5.10568L108.243 6.69667C107.95 6.98956 107.95 7.46444 108.243 7.75733C108.536 8.05022 109.01 8.05022 109.303 7.75733L110.894 6.16634Z" fill="white"/>
<path d="M113.75 12C113.75 12.4142 113.414 12.75 113 12.75H110.75C110.336 12.75 110 12.4142 110 12C110 11.5858 110.336 11.25 110.75 11.25H113C113.414 11.25 113.75 11.5858 113.75 12Z" fill="white"/>
<path d="M109.834 18.8943C110.126 19.1871 110.601 19.1871 110.894 18.8943C111.187 18.6014 111.187 18.1265 110.894 17.8336L109.303 16.2426C109.01 15.9497 108.535 15.9497 108.243 16.2426C107.95 16.5355 107.95 17.0104 108.243 17.3033L109.834 18.8943Z" fill="white"/>
<path d="M104 18C104.414 18 104.75 18.3358 104.75 18.75V21C104.75 21.4142 104.414 21.75 104 21.75C103.586 21.75 103.25 21.4142 103.25 21V18.75C103.25 18.3358 103.586 18 104 18Z" fill="white"/>
<path d="M99.7575 17.3033C100.05 17.0104 100.05 16.5355 99.7575 16.2426C99.4646 15.9497 98.9897 15.9497 98.6968 16.2426L97.1059 17.8336C96.813 18.1265 96.813 18.6014 97.1059 18.8943C97.3987 19.1872 97.8736 19.1872 98.1665 18.8943L99.7575 17.3033Z" fill="white"/>
<path d="M98 12C98 12.4142 97.6642 12.75 97.25 12.75H95C94.5858 12.75 94.25 12.4142 94.25 12C94.25 11.5858 94.5858 11.25 95 11.25H97.25C97.6642 11.25 98 11.5858 98 12Z" fill="white"/>
<path d="M98.6967 7.75732C98.9896 8.05021 99.4645 8.05021 99.7574 7.75732C100.05 7.46443 100.05 6.98955 99.7574 6.69666L98.1664 5.10567C97.8735 4.81278 97.3986 4.81278 97.1057 5.10567C96.8128 5.39856 96.8128 5.87344 97.1057 6.16633L98.6967 7.75732Z" fill="white"/>
</svg>
