<svg width="116" height="24" viewBox="0 0 116 24" fill="none" xmlns="http://www.w3.org/2000/svg">
<path fill-rule="evenodd" clip-rule="evenodd" d="M10.3623 5.09332C10.1368 4.96889 9.86321 4.96889 9.63769 5.09332L2.52344 9.01842L10 13.1434L17.4766 9.01842L10.3623 5.09332ZM18 10.4428L10.75 14.4428V22.6928L17.6123 18.9067C17.8515 18.7747 18 18.5232 18 18.25V10.4428ZM9.25 22.6928V14.4428L2 10.4428V18.25C2 18.5232 2.14852 18.7747 2.38769 18.9067L9.25 22.6928Z" fill="white"/>
<path d="M65 7.5L56 2.25L47 7.5M65 7.5L56 12.75M65 7.5V16.5L56 21.75M47 7.5L56 12.75M47 7.5V16.5L56 21.75M56 12.75V21.75" stroke="white" stroke-width="1.5" stroke-linecap="round" stroke-linejoin="round"/>
<path d="M104.378 1.60217C104.144 1.46594 103.856 1.46594 103.622 1.60217L95 6.63172L104 11.8817L113 6.63172L104.378 1.60217Z" fill="white"/>
<path d="M113.75 7.93078L104.75 13.1808V22.1808L113.378 17.1478C113.608 17.0134 113.75 16.7668 113.75 16.5V7.93078Z" fill="white"/>
<path d="M103.25 22.1808V13.1808L94.25 7.93078V16.5C94.25 16.7668 94.3917 17.0134 94.6221 17.1478L103.25 22.1808Z" fill="white"/>
</svg>
