<svg width="116" height="24" viewBox="0 0 116 24" fill="none" xmlns="http://www.w3.org/2000/svg">
<path fill-rule="evenodd" clip-rule="evenodd" d="M2.21967 6.21967C2.51256 5.92678 2.98744 5.92678 3.28033 6.21967L17.7803 20.7197C18.0732 21.0126 18.0732 21.4874 17.7803 21.7803C17.4874 22.0732 17.0126 22.0732 16.7197 21.7803L2.21967 7.28033C1.92678 6.98744 1.92678 6.51256 2.21967 6.21967Z" fill="white"/>
<path d="M4.73016 11.9121L2.19108 14.7499C1.99385 14.9704 1.9446 15.2861 2.06533 15.5562C2.18607 15.8262 2.45423 16 2.75001 16H8.81805L4.73016 11.9121Z" fill="white"/>
<path d="M9.23329 16.4153L8.01666 22.0929C7.9454 22.4255 8.10685 22.7644 8.41002 22.9185C8.71318 23.0727 9.08215 23.0036 9.30894 22.7501L12.2647 19.4467L9.23329 16.4153Z" fill="white"/>
<path d="M15.2699 16.0879L17.8089 13.2501C18.0062 13.0297 18.0554 12.7139 17.9347 12.4439C17.814 12.1739 17.5458 12 17.25 12H11.182L15.2699 16.0879Z" fill="white"/>
<path d="M10.7667 11.5848L11.9834 5.90718C12.0546 5.57461 11.8932 5.23571 11.59 5.08152C11.2868 4.92734 10.9179 4.99646 10.6911 5.24994L7.73537 8.55339L10.7667 11.5848Z" fill="white"/>
<path d="M55.4123 15.6549L53.75 21.75L57.4949 17.7376M53.2574 13.5H47.75L50.4087 10.6514M52.4569 8.4569L58.25 2.25L56 10.5H64.25L59.5431 15.5431M52.4569 8.4569L47 3M52.4569 8.4569L59.5431 15.5431M59.5431 15.5431L65 21" stroke="white" stroke-width="1.5" stroke-linecap="round" stroke-linejoin="round"/>
<path d="M112.798 11.0118L109.61 14.4279L101.462 6.28042L105.702 1.73829C105.937 1.48615 106.314 1.42701 106.615 1.59495C106.916 1.76289 107.064 2.11463 106.974 2.44736L104.982 9.75003H112.25C112.549 9.75003 112.819 9.92721 112.938 10.2011C113.057 10.475 113.002 10.7934 112.798 11.0118Z" fill="white"/>
<path d="M95.2017 12.9883L98.3901 9.57212L106.538 17.7196L102.298 22.2618C102.063 22.5139 101.686 22.573 101.385 22.4051C101.084 22.2372 100.936 21.8854 101.026 21.5527L103.018 14.25H95.75C95.4514 14.25 95.1812 14.0728 95.0622 13.7989C94.9431 13.525 94.998 13.2066 95.2017 12.9883Z" fill="white"/>
<path d="M95.5303 2.46967C95.2374 2.17678 94.7626 2.17678 94.4697 2.46967C94.1768 2.76256 94.1768 3.23744 94.4697 3.53033L112.47 21.5303C112.763 21.8232 113.237 21.8232 113.53 21.5303C113.823 21.2374 113.823 20.7626 113.53 20.4697L95.5303 2.46967Z" fill="white"/>
</svg>
