<svg width="116" height="24" viewBox="0 0 116 24" fill="none" xmlns="http://www.w3.org/2000/svg">
<path fill-rule="evenodd" clip-rule="evenodd" d="M10 5C10.4142 5 10.75 5.33579 10.75 5.75V7.25C10.75 7.66421 10.4142 8 10 8C9.58579 8 9.25 7.66421 9.25 7.25V5.75C9.25 5.33579 9.58579 5 10 5ZM5.05025 7.05025C5.34315 6.75736 5.81802 6.75736 6.11091 7.05025L7.17157 8.11091C7.46447 8.40381 7.46447 8.87868 7.17157 9.17157C6.87868 9.46447 6.40381 9.46447 6.11091 9.17157L5.05025 8.11091C4.75736 7.81802 4.75736 7.34315 5.05025 7.05025ZM14.9497 7.05025C15.2426 7.34315 15.2426 7.81802 14.9497 8.11091L13.8891 9.17157C13.5962 9.46447 13.1213 9.46447 12.8284 9.17157C12.5355 8.87868 12.5355 8.40381 12.8284 8.11091L13.8891 7.05025C14.182 6.75736 14.6569 6.75736 14.9497 7.05025ZM3 12C3 11.5858 3.33579 11.25 3.75 11.25H5.25C5.66421 11.25 6 11.5858 6 12C6 12.4142 5.66421 12.75 5.25 12.75H3.75C3.33579 12.75 3 12.4142 3 12ZM14 12C14 11.5858 14.3358 11.25 14.75 11.25H16.25C16.6642 11.25 17 11.5858 17 12C17 12.4142 16.6642 12.75 16.25 12.75H14.75C14.3358 12.75 14 12.4142 14 12ZM7.17157 14.8284C7.46447 15.1213 7.46447 15.5962 7.17157 15.8891L6.11091 16.9497C5.81802 17.2426 5.34315 17.2426 5.05025 16.9497C4.75736 16.6569 4.75736 16.182 5.05025 15.8891L6.11091 14.8284C6.40381 14.5355 6.87868 14.5355 7.17157 14.8284ZM10.7657 11.5106C10.5871 11.2449 10.2596 11.1218 9.95029 11.2042C9.64094 11.2865 9.41795 11.5561 9.3951 11.8754L8.90409 18.7363C8.88303 19.0306 9.0365 19.3099 9.29622 19.4499C9.55594 19.59 9.87365 19.5647 10.108 19.3854L11.1508 18.5873L12.1363 22.2653C12.2435 22.6654 12.6548 22.9028 13.0549 22.7956C13.455 22.6884 13.6924 22.2771 13.5852 21.877L12.6083 18.2312L13.9005 18.4349C14.1951 18.4814 14.4893 18.3489 14.6497 18.0974C14.81 17.846 14.8062 17.5233 14.6398 17.2758L10.7657 11.5106Z" fill="white"/>
<path d="M59.0423 21.6718L57.6835 16.6007M57.6835 16.6007L55.1741 18.826L55.7425 9.35623L60.9697 17.2731L57.6835 16.6007ZM56 2.25V4.5M61.8336 4.66637L60.2426 6.25736M64.25 10.5H62M51.7574 14.7426L50.1664 16.3336M50 10.5H47.75M51.7574 6.25736L50.1664 4.66637" stroke="white" stroke-width="1.5" stroke-linecap="round" stroke-linejoin="round"/>
<path fill-rule="evenodd" clip-rule="evenodd" d="M104 1.5C104.414 1.5 104.75 1.83579 104.75 2.25V4.5C104.75 4.91421 104.414 5.25 104 5.25C103.586 5.25 103.25 4.91421 103.25 4.5V2.25C103.25 1.83579 103.586 1.5 104 1.5ZM97.636 4.13604C97.9289 3.84315 98.4038 3.84315 98.6967 4.13604L100.288 5.72703C100.581 6.01992 100.581 6.4948 100.288 6.78769C99.9948 7.08058 99.5199 7.08058 99.227 6.78769L97.636 5.1967C97.3431 4.90381 97.3431 4.42893 97.636 4.13604ZM110.364 4.13604C110.657 4.42893 110.657 4.90381 110.364 5.1967L108.773 6.78769C108.48 7.08058 108.005 7.08058 107.712 6.78769C107.419 6.4948 107.419 6.01992 107.712 5.72703L109.303 4.13604C109.596 3.84315 110.071 3.84315 110.364 4.13604ZM103.548 8.63179C103.86 8.54824 104.191 8.67359 104.368 8.94299L109.596 16.8599C109.763 17.113 109.761 17.4419 109.591 17.6932C109.421 17.9445 109.116 18.0687 108.819 18.0079L106.722 17.5787L107.767 21.4777C107.874 21.8778 107.637 22.289 107.236 22.3963C106.836 22.5035 106.425 22.266 106.318 21.8659L105.273 17.967L103.672 19.3872C103.445 19.5884 103.119 19.6332 102.846 19.5005C102.573 19.3678 102.407 19.0839 102.425 18.7811L102.994 9.3113C103.013 8.98905 103.237 8.71534 103.548 8.63179ZM95 10.5C95 10.0858 95.3358 9.75 95.75 9.75H98C98.4142 9.75 98.75 10.0858 98.75 10.5C98.75 10.9142 98.4142 11.25 98 11.25H95.75C95.3358 11.25 95 10.9142 95 10.5ZM109.25 10.5C109.25 10.0858 109.586 9.75 110 9.75H112.25C112.664 9.75 113 10.0858 113 10.5C113 10.9142 112.664 11.25 112.25 11.25H110C109.586 11.25 109.25 10.9142 109.25 10.5ZM100.288 14.2123C100.581 14.5052 100.581 14.9801 100.288 15.273L98.6967 16.864C98.4038 17.1569 97.9289 17.1569 97.636 16.864C97.3431 16.5711 97.3431 16.0962 97.636 15.8033L99.227 14.2123C99.5199 13.9194 99.9948 13.9194 100.288 14.2123Z" fill="white"/>
</svg>
