<svg width="116" height="24" viewBox="0 0 116 24" fill="none" xmlns="http://www.w3.org/2000/svg">
<path fill-rule="evenodd" clip-rule="evenodd" d="M1 6.75C1 6.33579 1.33579 6 1.75 6H18.25C18.6642 6 19 6.33579 19 6.75C19 7.16421 18.6642 7.5 18.25 7.5H18V16.25C18 17.7688 16.7688 19 15.25 19H14.1775L14.9759 22.0606C15.0805 22.4614 14.8403 22.8711 14.4395 22.9757C14.0387 23.0802 13.629 22.8401 13.5245 22.4393L13.4099 21.9999H6.5905L6.4759 22.4393C6.37134 22.8401 5.96167 23.0802 5.56087 22.9757C5.16007 22.8711 4.91991 22.4614 5.02447 22.0606L5.82289 19H4.75C3.23122 19 2 17.7688 2 16.25V7.5H1.75C1.33579 7.5 1 7.16421 1 6.75ZM7.37309 19L6.9818 20.4999H13.0186L12.6273 19H7.37309ZM14.8625 10.0688C15.1031 10.406 15.0248 10.8744 14.6876 11.1149C13.4276 12.0139 12.2896 13.0571 11.2905 14.2134C11.1542 14.3711 10.9585 14.465 10.7503 14.4726C10.542 14.4801 10.34 14.4007 10.1927 14.2534L8.5 12.5607L6.28033 14.7804C5.98744 15.0733 5.51256 15.0733 5.21967 14.7804C4.92678 14.4875 4.92678 14.0126 5.21967 13.7197L7.96967 10.9697C8.26256 10.6768 8.73744 10.6768 9.03033 10.9697L10.6938 12.6332C11.6347 11.6251 12.679 10.7053 13.8164 9.89386C14.1536 9.65328 14.6219 9.73161 14.8625 10.0688Z" fill="white"/>
<path d="M47.75 3V14.25C47.75 15.4926 48.7574 16.5 50 16.5H52.25M47.75 3H46.25M47.75 3H64.25M64.25 3H65.75M64.25 3V14.25C64.25 15.4926 63.2426 16.5 62 16.5H59.75M52.25 16.5H59.75M52.25 16.5L51.25 19.5M59.75 16.5L60.75 19.5M60.75 19.5L61.25 21M60.75 19.5H51.25M51.25 19.5L50.75 21M51.5 12L54.5 9L56.6476 11.1476C57.6542 9.70301 58.9704 8.49023 60.5 7.60539" stroke="white" stroke-width="1.5" stroke-linecap="round" stroke-linejoin="round"/>
<path fill-rule="evenodd" clip-rule="evenodd" d="M94.25 2.25C93.8358 2.25 93.5 2.58579 93.5 3C93.5 3.41421 93.8358 3.75 94.25 3.75H95V14.25C95 15.9069 96.3431 17.25 98 17.25H99.2094L98.0385 20.7628C97.9075 21.1558 98.1199 21.5805 98.5128 21.7115C98.9058 21.8425 99.3305 21.6301 99.4615 21.2372L99.7906 20.25H108.209L108.538 21.2372C108.669 21.6301 109.094 21.8425 109.487 21.7115C109.88 21.5805 110.092 21.1558 109.962 20.7628L108.791 17.25H110C111.657 17.25 113 15.9069 113 14.25V3.75H113.75C114.164 3.75 114.5 3.41421 114.5 3C114.5 2.58579 114.164 2.25 113.75 2.25H94.25ZM100.791 17.25H107.209L107.709 18.75H100.291L100.791 17.25ZM108.876 8.25467C109.234 8.04727 109.357 7.58847 109.149 7.22992C108.942 6.87138 108.483 6.74886 108.124 6.95626C106.758 7.74688 105.552 8.78371 104.567 10.0061L103.03 8.46975C102.737 8.17686 102.263 8.17686 101.97 8.46975L98.9697 11.4698C98.6768 11.7626 98.6768 12.2375 98.9697 12.5304C99.2626 12.8233 99.7374 12.8233 100.03 12.5304L102.5 10.0607L104.117 11.678C104.274 11.835 104.493 11.9143 104.714 11.8947C104.935 11.8751 105.136 11.7586 105.263 11.5765C106.207 10.2217 107.441 9.08428 108.876 8.25467Z" fill="white"/>
</svg>
