<svg width="116" height="24" viewBox="0 0 116 24" fill="none" xmlns="http://www.w3.org/2000/svg">
<path fill-rule="evenodd" clip-rule="evenodd" d="M12.0998 7.66668C12.4737 6.136 13.8542 5 15.5 5C15.5146 5 15.5292 5.00009 15.5438 5.00027C15.9323 5.00503 16.3056 5.07311 16.6538 5.19465C17.1364 5.3626 17.5896 5.6393 17.9754 6.02503C18.892 6.94167 19.193 8.23984 18.8818 9.40523C18.7282 9.98079 18.4253 10.5248 17.9754 10.9748C17.6708 11.2793 17.3231 11.5165 16.9518 11.6856C16.7625 11.7721 16.5641 11.8421 16.3585 11.8939L16 11.99V14C16 14.1989 15.921 14.3897 15.7803 14.5303L15.5303 14.7803C15.2374 15.0732 14.7626 15.0732 14.4697 14.7803L13.625 13.9356L7.21967 20.341C6.79771 20.7629 6.22541 21 5.62868 21H5.12132C4.92241 21 4.73164 21.079 4.59099 21.2196L3.03033 22.7803C2.73744 23.0732 2.26256 23.0732 1.96967 22.7803L1.21967 22.0303C0.926777 21.7374 0.926777 21.2625 1.21967 20.9696L2.78033 19.409C2.92098 19.2683 3 19.0776 3 18.8787V18.3713C3 17.7746 3.23705 17.2023 3.65901 16.7803L10.0643 10.375L9.21967 9.53031C8.92678 9.23741 8.92678 8.76254 9.21967 8.46965L9.46967 8.21965C9.61032 8.07899 9.80109 7.99998 10 7.99998H12.0105L12.0998 7.66668ZM4.71967 17.841L11.125 11.4356L12.5643 12.875L6.15901 19.2803C6.01836 19.421 5.82759 19.5 5.62868 19.5H5.12132C4.86336 19.5 4.60997 19.5443 4.37132 19.6287C4.4557 19.39 4.5 19.1366 4.5 18.8787V18.3713C4.5 18.1724 4.57902 17.9816 4.71967 17.841Z" fill="white"/>
<path d="M59 11.25L60.5 12.75L61.25 12V8.75798L63.5264 8.14802C64.019 8.01652 64.4847 7.75778 64.8712 7.37132C66.0428 6.19975 66.0428 4.30025 64.8712 3.12868C63.6996 1.95711 61.8001 1.95711 60.6286 3.12868C60.2421 3.51509 59.9832 3.98069 59.8517 4.47324L59.2416 6.74998H56L55.25 7.49998L56.75 8.99999M59 11.25L50.5303 19.7197C50.1908 20.0592 49.7302 20.25 49.25 20.25C48.7698 20.25 48.3092 20.4408 47.9697 20.7803L47 21.75L46.25 21L47.2197 20.0303C47.5592 19.6908 47.75 19.2302 47.75 18.75C47.75 18.2698 47.9408 17.8092 48.2803 17.4697L56.75 8.99999M59 11.25L56.75 8.99999" stroke="white" stroke-width="1.5" stroke-linecap="round" stroke-linejoin="round"/>
<path fill-rule="evenodd" clip-rule="evenodd" d="M108.098 2.59835C109.563 1.13388 111.937 1.13388 113.402 2.59835C114.866 4.06282 114.866 6.43718 113.402 7.90165C112.919 8.38401 112.336 8.7081 111.72 8.87264L110 9.33348V12C110 12.1989 109.921 12.3897 109.78 12.5303L109.03 13.2803C108.737 13.5732 108.263 13.5732 107.97 13.2803L107 12.3107L99.0607 20.25C98.5804 20.7302 97.9291 21 97.25 21C96.9687 21 96.6989 21.1117 96.5 21.3107L95.5303 22.2803C95.2374 22.5732 94.7626 22.5732 94.4697 22.2803L93.7197 21.5303C93.4268 21.2374 93.4268 20.7626 93.7197 20.4697L94.6893 19.5C94.8883 19.3011 95 19.0313 95 18.75C95 18.0709 95.2698 17.4196 95.75 16.9393L103.689 8.99999L102.72 8.03031C102.427 7.73742 102.427 7.26255 102.72 6.96966L103.47 6.21966C103.61 6.079 103.801 5.99998 104 5.99998H106.666L107.127 4.27976C107.292 3.66322 107.616 3.08048 108.098 2.59835ZM104.75 10.0607L96.8107 18C96.6117 18.1989 96.5 18.4687 96.5 18.75C96.5 19.0682 96.4408 19.3803 96.3284 19.6716C96.6197 19.5592 96.9318 19.5 97.25 19.5C97.5313 19.5 97.8011 19.3883 98 19.1893L105.939 11.25L104.75 10.0607Z" fill="white"/>
</svg>
