<svg width="116" height="24" viewBox="0 0 116 24" fill="none" xmlns="http://www.w3.org/2000/svg">
<path d="M2 8.5C2 7.11929 3.11929 6 4.5 6H15.5C16.8807 6 18 7.11929 18 8.5C18 9.88071 16.8807 11 15.5 11H4.5C3.11929 11 2 9.88071 2 8.5Z" fill="white"/>
<path d="M2.75 13.0834C2.33579 13.0834 2 13.4192 2 13.8334C2 14.2476 2.33579 14.5834 2.75 14.5834H17.25C17.6642 14.5834 18 14.2476 18 13.8334C18 13.4192 17.6642 13.0834 17.25 13.0834H2.75Z" fill="white"/>
<path d="M2.75 16.6633C2.33579 16.6633 2 16.9991 2 17.4133C2 17.8275 2.33579 18.1633 2.75 18.1633H17.25C17.6642 18.1633 18 17.8275 18 17.4133C18 16.9991 17.6642 16.6633 17.25 16.6633H2.75Z" fill="white"/>
<path d="M2.75 20.25C2.33579 20.25 2 20.5858 2 21C2 21.4143 2.33579 21.75 2.75 21.75H17.25C17.6642 21.75 18 21.4143 18 21C18 20.5858 17.6642 20.25 17.25 20.25H2.75Z" fill="white"/>
<path d="M47.75 12H64.25M47.75 15.75H64.25M47.75 19.5H64.25M49.625 4.5H62.375C63.4105 4.5 64.25 5.33947 64.25 6.375C64.25 7.41053 63.4105 8.25 62.375 8.25H49.625C48.5895 8.25 47.75 7.41053 47.75 6.375C47.75 5.33947 48.5895 4.5 49.625 4.5Z" stroke="white" stroke-width="1.5" stroke-linecap="round" stroke-linejoin="round"/>
<path d="M97.625 3.75C96.1753 3.75 95 4.92525 95 6.375C95 7.82475 96.1753 9 97.625 9H110.375C111.825 9 113 7.82475 113 6.375C113 4.92525 111.825 3.75 110.375 3.75H97.625Z" fill="white"/>
<path d="M95.75 11.25C95.3358 11.25 95 11.5858 95 12C95 12.4142 95.3358 12.75 95.75 12.75H112.25C112.664 12.75 113 12.4142 113 12C113 11.5858 112.664 11.25 112.25 11.25H95.75Z" fill="white"/>
<path d="M95 15.75C95 15.3358 95.3358 15 95.75 15H112.25C112.664 15 113 15.3358 113 15.75C113 16.1642 112.664 16.5 112.25 16.5H95.75C95.3358 16.5 95 16.1642 95 15.75Z" fill="white"/>
<path d="M95.75 18.75C95.3358 18.75 95 19.0858 95 19.5C95 19.9142 95.3358 20.25 95.75 20.25H112.25C112.664 20.25 113 19.9142 113 19.5C113 19.0858 112.664 18.75 112.25 18.75H95.75Z" fill="white"/>
</svg>
