<svg width="116" height="24" viewBox="0 0 116 24" fill="none" xmlns="http://www.w3.org/2000/svg">
<path fill-rule="evenodd" clip-rule="evenodd" d="M10 6C10.4142 6 10.75 6.33579 10.75 6.75V14.25C10.75 14.6642 10.4142 15 10 15C9.58579 15 9.25 14.6642 9.25 14.25V6.75C9.25 6.33579 9.58579 6 10 6ZM5.40381 8.34315C5.6967 8.63604 5.6967 9.11091 5.40381 9.40381C2.8654 11.9422 2.8654 16.0578 5.40381 18.5962C7.94221 21.1346 12.0578 21.1346 14.5962 18.5962C17.1346 16.0578 17.1346 11.9422 14.5962 9.40381C14.3033 9.11091 14.3033 8.63604 14.5962 8.34315C14.8891 8.05025 15.364 8.05025 15.6569 8.34315C18.781 11.4673 18.781 16.5327 15.6569 19.6569C12.5327 22.781 7.46734 22.781 4.34315 19.6569C1.21895 16.5327 1.21895 11.4673 4.34315 8.34315C4.63604 8.05025 5.11091 8.05025 5.40381 8.34315Z" fill="white"/>
<path d="M49.636 5.63604C46.1213 9.15076 46.1213 14.8492 49.636 18.364C53.1508 21.8787 58.8492 21.8787 62.364 18.364C65.8787 14.8492 65.8787 9.15076 62.364 5.63604M56 3V12" stroke="white" stroke-width="1.5" stroke-linecap="round" stroke-linejoin="round"/>
<path fill-rule="evenodd" clip-rule="evenodd" d="M104 2.25C104.414 2.25 104.75 2.58579 104.75 3V12C104.75 12.4142 104.414 12.75 104 12.75C103.586 12.75 103.25 12.4142 103.25 12V3C103.25 2.58579 103.586 2.25 104 2.25ZM98.1664 5.10571C98.4593 5.3986 98.4593 5.87348 98.1664 6.16637C94.9445 9.38819 94.9445 14.6118 98.1664 17.8336C101.388 21.0555 106.612 21.0555 109.834 17.8336C113.055 14.6118 113.055 9.38819 109.834 6.16637C109.541 5.87348 109.541 5.3986 109.834 5.10571C110.127 4.81282 110.601 4.81282 110.894 5.10571C114.702 8.91332 114.702 15.0867 110.894 18.8943C107.087 22.7019 100.913 22.7019 97.1057 18.8943C93.2981 15.0867 93.2981 8.91332 97.1057 5.10571C97.3986 4.81282 97.8735 4.81282 98.1664 5.10571Z" fill="white"/>
</svg>
