<svg width="116" height="24" viewBox="0 0 116 24" fill="none" xmlns="http://www.w3.org/2000/svg">
<path fill-rule="evenodd" clip-rule="evenodd" d="M1 11.25C1 10.0074 2.00736 9 3.25 9H15.75C16.9926 9 18 10.0074 18 11.25V12.3354C18.5826 12.5413 19 13.0969 19 13.75V14.25C19 14.9031 18.5826 15.4587 18 15.6646V16.75C18 17.9926 16.9926 19 15.75 19H3.25C2.00736 19 1 17.9926 1 16.75V11.25ZM3.25 10.5C2.83579 10.5 2.5 10.8358 2.5 11.25V16.75C2.5 17.1642 2.83579 17.5 3.25 17.5H15.75C16.1642 17.5 16.5 17.1642 16.5 16.75V11.25C16.5 10.8358 16.1642 10.5 15.75 10.5H3.25Z" fill="white"/>
<path d="M65 10.5H65.375C65.9963 10.5 66.5 11.0037 66.5 11.625V13.875C66.5 14.4963 65.9963 15 65.375 15H65M47.75 18H62.75C63.9926 18 65 16.9926 65 15.75V9.75C65 8.50736 63.9926 7.5 62.75 7.5H47.75C46.5074 7.5 45.5 8.50736 45.5 9.75V15.75C45.5 16.9926 46.5074 18 47.75 18Z" stroke="white" stroke-width="1.5" stroke-linecap="round" stroke-linejoin="round"/>
<path fill-rule="evenodd" clip-rule="evenodd" d="M92.75 9.75C92.75 8.09315 94.0931 6.75 95.75 6.75H110.75C112.407 6.75 113.75 8.09315 113.75 9.75V9.78751C114.606 9.96123 115.25 10.7179 115.25 11.625V13.875C115.25 14.7821 114.606 15.5388 113.75 15.7125V15.75C113.75 17.4069 112.407 18.75 110.75 18.75H95.75C94.0931 18.75 92.75 17.4069 92.75 15.75V9.75ZM112.25 9.75C112.25 8.92157 111.578 8.25 110.75 8.25H95.75C94.9216 8.25 94.25 8.92157 94.25 9.75V15.75C94.25 16.5784 94.9216 17.25 95.75 17.25H110.75C111.578 17.25 112.25 16.5784 112.25 15.75V9.75Z" fill="white"/>
</svg>
