<svg width="116" height="24" viewBox="0 0 116 24" fill="none" xmlns="http://www.w3.org/2000/svg">
<path fill-rule="evenodd" clip-rule="evenodd" d="M16.7045 8.15347C17.034 8.4045 17.0976 8.87509 16.8466 9.20457L8.84657 19.7046C8.71541 19.8767 8.51627 19.9838 8.30033 19.9983C8.08439 20.0129 7.87271 19.9334 7.71967 19.7804L3.21967 15.2804C2.92678 14.9875 2.92678 14.5126 3.21967 14.2197C3.51256 13.9268 3.98744 13.9268 4.28033 14.2197L8.17351 18.1129L15.6534 8.29551C15.9045 7.96603 16.3751 7.90243 16.7045 8.15347Z" fill="white"/>
<path d="M48.5 12.75L54.5 18.75L63.5 5.25" stroke="white" stroke-width="1.5" stroke-linecap="round" stroke-linejoin="round"/>
<path fill-rule="evenodd" clip-rule="evenodd" d="M111.916 4.62592C112.261 4.85568 112.354 5.32134 112.124 5.66598L103.124 19.166C102.999 19.3529 102.798 19.4742 102.574 19.4963C102.35 19.5184 102.129 19.4392 101.97 19.2803L95.9697 13.2803C95.6768 12.9874 95.6768 12.5125 95.9697 12.2196C96.2626 11.9267 96.7374 11.9267 97.0303 12.2196L102.383 17.5727L110.876 4.83393C111.106 4.48929 111.571 4.39616 111.916 4.62592Z" fill="white"/>
</svg>
