<svg width="116" height="24" viewBox="0 0 116 24" fill="none" xmlns="http://www.w3.org/2000/svg">
<path d="M4.75 12C4.33579 12 4 12.3358 4 12.75V15.25C4 15.6642 4.33579 16 4.75 16H9.5C9.91421 16 10.25 15.6642 10.25 15.25V12.75C10.25 12.3358 9.91421 12 9.5 12H4.75Z" fill="white"/>
<path fill-rule="evenodd" clip-rule="evenodd" d="M3.25 9C2.00736 9 1 10.0074 1 11.25V16.75C1 17.9926 2.00736 19 3.25 19H15.75C16.9926 19 18 17.9926 18 16.75V15.6646C18.5826 15.4587 19 14.9031 19 14.25V13.75C19 13.0969 18.5826 12.5413 18 12.3354V11.25C18 10.0074 16.9926 9 15.75 9H3.25ZM2.5 11.25C2.5 10.8358 2.83579 10.5 3.25 10.5H15.75C16.1642 10.5 16.5 10.8358 16.5 11.25V16.75C16.5 17.1642 16.1642 17.5 15.75 17.5H3.25C2.83579 17.5 2.5 17.1642 2.5 16.75V11.25Z" fill="white"/>
<path d="M65 10.5H65.375C65.9963 10.5 66.5 11.0037 66.5 11.625V13.875C66.5 14.4963 65.9963 15 65.375 15H65M48.5 10.5H55.25V15H48.5V10.5ZM47.75 18H62.75C63.9926 18 65 16.9926 65 15.75V9.75C65 8.50736 63.9926 7.5 62.75 7.5H47.75C46.5074 7.5 45.5 8.50736 45.5 9.75V15.75C45.5 16.9926 46.5074 18 47.75 18Z" stroke="white" stroke-width="1.5" stroke-linecap="round" stroke-linejoin="round"/>
<path d="M96.5 9.75C96.0858 9.75 95.75 10.0858 95.75 10.5V15C95.75 15.4142 96.0858 15.75 96.5 15.75H103.25C103.664 15.75 104 15.4142 104 15V10.5C104 10.0858 103.664 9.75 103.25 9.75H96.5Z" fill="white"/>
<path fill-rule="evenodd" clip-rule="evenodd" d="M95.75 6.75C94.0931 6.75 92.75 8.09315 92.75 9.75V15.75C92.75 17.4069 94.0931 18.75 95.75 18.75H110.75C112.407 18.75 113.75 17.4069 113.75 15.75V15.7125C114.606 15.5388 115.25 14.7821 115.25 13.875V11.625C115.25 10.7179 114.606 9.96123 113.75 9.78751V9.75C113.75 8.09315 112.407 6.75 110.75 6.75H95.75ZM110.75 8.25C111.578 8.25 112.25 8.92157 112.25 9.75V15.75C112.25 16.5784 111.578 17.25 110.75 17.25H95.75C94.9216 17.25 94.25 16.5784 94.25 15.75V9.75C94.25 8.92157 94.9216 8.25 95.75 8.25H110.75Z" fill="white"/>
</svg>
