<svg width="116" height="24" viewBox="0 0 116 24" fill="none" xmlns="http://www.w3.org/2000/svg">
<path fill-rule="evenodd" clip-rule="evenodd" d="M7.21967 7.21967C7.36032 7.07902 7.55109 7 7.75 7H16.75C17.9926 7 19 8.00736 19 9.25V18.75C19 19.9926 17.9926 21 16.75 21H7.75C7.55109 21 7.36032 20.921 7.21967 20.7803L0.96967 14.5303C0.676777 14.2374 0.676777 13.7626 0.96967 13.4697L7.21967 7.21967ZM10.2803 11.2197C9.98744 10.9268 9.51256 10.9268 9.21967 11.2197C8.92678 11.5126 8.92678 11.9874 9.21967 12.2803L10.9393 14L9.21967 15.7197C8.92678 16.0126 8.92678 16.4874 9.21967 16.7803C9.51256 17.0732 9.98744 17.0732 10.2803 16.7803L12 15.0607L13.7197 16.7803C14.0126 17.0732 14.4874 17.0732 14.7803 16.7803C15.0732 16.4874 15.0732 16.0126 14.7803 15.7197L13.0607 14L14.7803 12.2803C15.0732 11.9874 15.0732 11.5126 14.7803 11.2197C14.4874 10.9268 14.0126 10.9268 13.7197 11.2197L12 12.9393L10.2803 11.2197Z" fill="white"/>
<path d="M56 9.75L58.25 12M58.25 12L60.5 14.25M58.25 12L60.5 9.75M58.25 12L56 14.25M53.4205 19.1705L47.0455 12.7955C46.6062 12.3562 46.6062 11.6438 47.0455 11.2045L53.4205 4.82951C53.6315 4.61853 53.9176 4.5 54.216 4.5L63.5 4.5C64.7427 4.5 65.75 5.50736 65.75 6.75V17.25C65.75 18.4926 64.7427 19.5 63.5 19.5H54.216C53.9176 19.5 53.6315 19.3815 53.4205 19.1705Z" stroke="white" stroke-width="1.5" stroke-linecap="round" stroke-linejoin="round"/>
<path fill-rule="evenodd" clip-rule="evenodd" d="M94.515 10.6742C93.7828 11.4064 93.7828 12.5936 94.515 13.3258L100.89 19.7008C101.242 20.0525 101.719 20.25 102.216 20.25H111.5C113.157 20.25 114.5 18.9069 114.5 17.25V6.75C114.5 5.09315 113.157 3.75 111.5 3.75L102.216 3.75C101.719 3.75 101.242 3.94754 100.89 4.29917L94.515 10.6742ZM104.53 9.21967C104.237 8.92678 103.763 8.92678 103.47 9.21967C103.177 9.51256 103.177 9.98744 103.47 10.2803L105.189 12L103.47 13.7197C103.177 14.0126 103.177 14.4874 103.47 14.7803C103.763 15.0732 104.237 15.0732 104.53 14.7803L106.25 13.0607L107.97 14.7803C108.263 15.0732 108.737 15.0732 109.03 14.7803C109.323 14.4874 109.323 14.0126 109.03 13.7197L107.311 12L109.03 10.2803C109.323 9.98744 109.323 9.51256 109.03 9.21967C108.737 8.92678 108.263 8.92678 107.97 9.21967L106.25 10.9393L104.53 9.21967Z" fill="white"/>
</svg>
