<svg width="116" height="24" viewBox="0 0 116 24" fill="none" xmlns="http://www.w3.org/2000/svg">
<path fill-rule="evenodd" clip-rule="evenodd" d="M2 7.75C2 7.33579 2.33579 7 2.75 7H14.25C14.6642 7 15 7.33579 15 7.75C15 8.16421 14.6642 8.5 14.25 8.5H2.75C2.33579 8.5 2 8.16421 2 7.75ZM2 11.5C2 11.0858 2.33579 10.75 2.75 10.75H9.11474C9.52895 10.75 9.86474 11.0858 9.86474 11.5C9.86474 11.9142 9.52895 12.25 9.11474 12.25H2.75C2.33579 12.25 2 11.9142 2 11.5ZM14 11C14.2086 11 14.4077 11.0868 14.5496 11.2397L17.7996 14.7397C18.0814 15.0432 18.0639 15.5177 17.7603 15.7996C17.4568 16.0814 16.9823 16.0639 16.7004 15.7603L14.75 13.6599L14.75 20.25C14.75 20.6642 14.4142 21 14 21C13.5858 21 13.25 20.6642 13.25 20.25L13.25 13.6599L11.2996 15.7603C11.0177 16.0639 10.5432 16.0814 10.2397 15.7996C9.93613 15.5177 9.91855 15.0432 10.2004 14.7397L13.4504 11.2397C13.5923 11.0868 13.7914 11 14 11ZM2 15.25C2 14.8358 2.33579 14.5 2.75 14.5H6.99999C7.4142 14.5 7.74999 14.8358 7.74999 15.25C7.74999 15.6642 7.4142 16 6.99999 16H2.75C2.33579 16 2 15.6642 2 15.25Z" fill="white"/>
<path d="M47 4.5H61.25M47 9H56.75M47 13.5H52.25M57.5 12.75L61.25 9M61.25 9L65 12.75M61.25 9V21" stroke="white" stroke-width="1.5" stroke-linecap="round" stroke-linejoin="round"/>
<path fill-rule="evenodd" clip-rule="evenodd" d="M94.25 4.5C94.25 4.08579 94.5858 3.75 95 3.75H109.25C109.664 3.75 110 4.08579 110 4.5C110 4.91421 109.664 5.25 109.25 5.25H95C94.5858 5.25 94.25 4.91421 94.25 4.5ZM108.72 8.46967C109.013 8.17678 109.487 8.17678 109.78 8.46967L113.53 12.2197C113.823 12.5126 113.823 12.9874 113.53 13.2803C113.237 13.5732 112.763 13.5732 112.47 13.2803L110 10.8107L110 21C110 21.4142 109.664 21.75 109.25 21.75C108.836 21.75 108.5 21.4142 108.5 21L108.5 10.8107L106.03 13.2803C105.737 13.5732 105.263 13.5732 104.97 13.2803C104.677 12.9874 104.677 12.5126 104.97 12.2197L108.72 8.46967ZM94.25 9C94.25 8.58579 94.5858 8.25 95 8.25H104.75C105.164 8.25 105.5 8.58579 105.5 9C105.5 9.41421 105.164 9.75 104.75 9.75H95C94.5858 9.75 94.25 9.41421 94.25 9ZM94.25 13.5C94.25 13.0858 94.5858 12.75 95 12.75H100.25C100.664 12.75 101 13.0858 101 13.5C101 13.9142 100.664 14.25 100.25 14.25H95C94.5858 14.25 94.25 13.9142 94.25 13.5Z" fill="white"/>
</svg>
