<svg width="116" height="24" viewBox="0 0 116 24" fill="none" xmlns="http://www.w3.org/2000/svg">
<path d="M5.43306 17.9168L6.69485 14.7623C6.89603 14.2593 7.19728 13.8025 7.58033 13.4194L14.4995 6.50071C15.3279 5.67229 16.6711 5.67229 17.4995 6.50072C18.3279 7.32914 18.3279 8.67229 17.4995 9.50072L10.5803 16.4194C10.1973 16.8025 9.74042 17.1037 9.23746 17.3049L6.08299 18.5667C5.67484 18.73 5.2698 18.3249 5.43306 17.9168Z" fill="white"/>
<path d="M3.5 9.75C3.5 9.05964 4.05964 8.5 4.75 8.5H10C10.4142 8.5 10.75 8.16421 10.75 7.75C10.75 7.33579 10.4142 7 10 7H4.75C3.23122 7 2 8.23122 2 9.75V19.25C2 20.7688 3.23122 22 4.75 22H14.25C15.7688 22 17 20.7688 17 19.25V14C17 13.5858 16.6642 13.25 16.25 13.25C15.8358 13.25 15.5 13.5858 15.5 14V19.25C15.5 19.9404 14.9404 20.5 14.25 20.5H4.75C4.05964 20.5 3.5 19.9404 3.5 19.25V9.75Z" fill="white"/>
<path d="M60.8617 4.48667L62.5492 2.79917C63.2814 2.06694 64.4686 2.06694 65.2008 2.79917C65.9331 3.53141 65.9331 4.71859 65.2008 5.45083L54.5822 16.0695C54.0535 16.5981 53.4014 16.9868 52.6849 17.2002L50 18L50.7998 15.3151C51.0132 14.5986 51.4018 13.9465 51.9305 13.4178L60.8617 4.48667ZM60.8617 4.48667L63.5 7.12499M62 14V18.75C62 19.9926 60.9926 21 59.75 21H49.25C48.0074 21 47 19.9926 47 18.75V8.24999C47 7.00735 48.0074 5.99999 49.25 5.99999H54" stroke="white" stroke-width="1.5" stroke-linecap="round" stroke-linejoin="round"/>
<path d="M113.731 2.26884C112.706 1.24372 111.044 1.24372 110.019 2.26884L108.862 3.42599L112.574 7.1383L113.731 5.98116C114.756 4.95603 114.756 3.29397 113.731 2.26884Z" fill="white"/>
<path d="M111.513 8.19896L107.801 4.48665L99.4002 12.8875C98.7834 13.5043 98.33 14.265 98.081 15.101L97.2812 17.7859C97.2026 18.0498 97.2749 18.3356 97.4697 18.5303C97.6644 18.725 97.9502 18.7974 98.2141 18.7188L100.899 17.919C101.735 17.67 102.496 17.2166 103.113 16.5998L111.513 8.19896Z" fill="white"/>
<path d="M97.25 5.24999C95.5931 5.24999 94.25 6.59314 94.25 8.24999V18.75C94.25 20.4068 95.5931 21.75 97.25 21.75H107.75C109.407 21.75 110.75 20.4068 110.75 18.75V13.5C110.75 13.0858 110.414 12.75 110 12.75C109.586 12.75 109.25 13.0858 109.25 13.5V18.75C109.25 19.5784 108.578 20.25 107.75 20.25H97.25C96.4216 20.25 95.75 19.5784 95.75 18.75V8.24999C95.75 7.42156 96.4216 6.74999 97.25 6.74999H102.5C102.914 6.74999 103.25 6.41421 103.25 5.99999C103.25 5.58578 102.914 5.24999 102.5 5.24999H97.25Z" fill="white"/>
</svg>
