<svg width="116" height="24" viewBox="0 0 116 24" fill="none" xmlns="http://www.w3.org/2000/svg">
<path d="M6.28033 9.21967C5.98744 8.92678 5.51256 8.92678 5.21967 9.21967C4.92678 9.51256 4.92678 9.98744 5.21967 10.2803L12.4393 17.5H6.75C6.33579 17.5 6 17.8358 6 18.25C6 18.6642 6.33579 19 6.75 19H14.25C14.3517 19 14.4487 18.9798 14.5371 18.9431C14.6235 18.9073 14.7047 18.8547 14.7754 18.7852C14.7787 18.782 14.782 18.7787 14.7852 18.7754C14.8547 18.7047 14.9073 18.6235 14.9431 18.5371C14.9798 18.4487 15 18.3517 15 18.25V10.75C15 10.3358 14.6642 10 14.25 10C13.8358 10 13.5 10.3358 13.5 10.75V16.4393L6.28033 9.21967Z" fill="white"/>
<path d="M48.5 4.5L63.5 19.5M63.5 19.5V8.25M63.5 19.5H52.25" stroke="white" stroke-width="1.5" stroke-linecap="round" stroke-linejoin="round"/>
<path fill-rule="evenodd" clip-rule="evenodd" d="M95.9697 3.96967C96.2626 3.67678 96.7374 3.67678 97.0303 3.96967L110.75 17.6893V8.25C110.75 7.83579 111.086 7.5 111.5 7.5C111.914 7.5 112.25 7.83579 112.25 8.25V19.5C112.25 19.9142 111.914 20.25 111.5 20.25H100.25C99.8358 20.25 99.5 19.9142 99.5 19.5C99.5 19.0858 99.8358 18.75 100.25 18.75H109.689L95.9697 5.03033C95.6768 4.73744 95.6768 4.26256 95.9697 3.96967Z" fill="white"/>
</svg>
