<svg width="116" height="24" viewBox="0 0 116 24" fill="none" xmlns="http://www.w3.org/2000/svg">
<path d="M6.29995 6.84046C5.3011 6.21075 4 6.92857 4 8.10935V19.8905C4 21.0713 5.3011 21.7891 6.29995 21.1594L15.6436 15.2688C16.577 14.6804 16.577 13.3195 15.6436 12.731L6.29995 6.84046Z" fill="white"/>
<path d="M49.25 5.65273C49.25 4.79705 50.1674 4.25462 50.9172 4.66698L62.4577 11.0143C63.2349 11.4417 63.2349 12.5584 62.4577 12.9858L50.9172 19.3331C50.1674 19.7455 49.25 19.203 49.25 18.3474V5.65273Z" stroke="white" stroke-width="1.5" stroke-linecap="round" stroke-linejoin="round"/>
<path fill-rule="evenodd" clip-rule="evenodd" d="M96.5 5.65257C96.5 4.22644 98.029 3.32239 99.2786 4.00967L110.819 10.357C112.114 11.0694 112.114 12.9304 110.819 13.6428L99.2786 19.9901C98.029 20.6774 96.5 19.7733 96.5 18.3472V5.65257Z" fill="white"/>
</svg>
