<svg width="40" height="40" viewBox="0 0 40 40" fill="none" xmlns="http://www.w3.org/2000/svg">
<path d="M36.2024 21.2532C36.2339 20.8397 36.25 20.4218 36.25 20.0002C36.25 17.4599 35.6671 15.0558 34.6278 12.9142C32.566 14.8715 30.1119 16.4194 27.3956 17.4279C27.4648 18.2762 27.5 19.1341 27.5 20.0002C27.5 21.8355 27.3418 23.6339 27.0382 25.3824C30.3604 24.5465 33.4529 23.1323 36.2024 21.2532Z" fill="#333333"/>
<path d="M24.3905 25.9171C24.79 24.0076 25 22.0284 25 20.0002C25 19.3862 24.9808 18.7768 24.9428 18.1723C23.3568 18.5502 21.7017 18.7502 20 18.7502C18.2983 18.7502 16.6432 18.5502 15.0572 18.1723C15.0192 18.7768 15 19.3862 15 20.0002C15 22.0284 15.21 24.0076 15.6095 25.9171C17.041 26.1364 18.5072 26.2502 20 26.2502C21.4928 26.2502 22.959 26.1364 24.3905 25.9171Z" fill="#333333"/>
<path d="M16.2871 28.5319C17.5046 28.6761 18.7437 28.7502 20 28.7502C21.2563 28.7502 22.4954 28.6761 23.7129 28.5319C22.8566 31.2914 21.5959 33.8728 20 36.207C18.4041 33.8728 17.1434 31.2914 16.2871 28.5319Z" fill="#333333"/>
<path d="M12.9618 25.3824C12.6582 23.6339 12.5 21.8355 12.5 20.0002C12.5 19.1341 12.5352 18.2762 12.6044 17.4279C9.88809 16.4194 7.43399 14.8715 5.37222 12.9142C4.33289 15.0558 3.75 17.4599 3.75 20.0002C3.75 20.4218 3.76606 20.8397 3.79759 21.2532C6.54709 23.1323 9.63956 24.5465 12.9618 25.3824Z" fill="#333333"/>
<path d="M35.5934 24.5878C33.9006 30.351 29.0995 34.7845 23.1293 35.9492C24.5733 33.5208 25.6976 30.8801 26.4441 28.0851C29.7105 27.4003 32.7893 26.2055 35.5934 24.5878Z" fill="#333333"/>
<path d="M4.40658 24.5878C7.2107 26.2055 10.2895 27.4003 13.5559 28.0851C14.3024 30.8801 15.4267 33.5208 16.8707 35.9492C10.9005 34.7845 6.0994 30.351 4.40658 24.5878Z" fill="#333333"/>
<path d="M23.1293 4.05125C27.3319 4.87108 30.9552 7.31066 33.3228 10.6936C31.5585 12.4751 29.4395 13.9045 27.0805 14.8673C26.4367 10.9717 25.0725 7.3192 23.1293 4.05125Z" fill="#333333"/>
<path d="M20 3.79346C22.3811 7.27612 24.0162 11.3093 24.6749 15.6627C23.1805 16.0463 21.6141 16.2502 20 16.2502C18.3859 16.2502 16.8195 16.0463 15.3251 15.6627C15.9838 11.3093 17.6189 7.27612 20 3.79346Z" fill="#333333"/>
<path d="M16.8707 4.05125C14.9275 7.3192 13.5633 10.9717 12.9195 14.8673C10.5605 13.9045 8.44148 12.4751 6.67724 10.6936C9.04481 7.31066 12.6681 4.87107 16.8707 4.05125Z" fill="#333333"/>
</svg>
