<svg width="116" height="24" viewBox="0 0 116 24" fill="none" xmlns="http://www.w3.org/2000/svg">
<path fill-rule="evenodd" clip-rule="evenodd" d="M2 8.75C2 7.7835 2.7835 7 3.75 7H8.58579C9.04992 7 9.49503 7.18437 9.82322 7.51256L11.2374 8.92678C11.2843 8.97366 11.3479 9 11.4142 9H16.25C17.2165 9 18 9.7835 18 10.75V19.25C18 20.2165 17.2165 21 16.25 21H3.75C2.7835 21 2 20.2165 2 19.25V8.75ZM12.25 15.75C12.6642 15.75 13 15.4142 13 15C13 14.5858 12.6642 14.25 12.25 14.25H7.75C7.33579 14.25 7 14.5858 7 15C7 15.4142 7.33579 15.75 7.75 15.75H12.25Z" fill="white"/>
<path d="M59 13.5H53M57.0607 6.31066L54.9393 4.18934C54.658 3.90804 54.2765 3.75 53.8787 3.75H48.5C47.2574 3.75 46.25 4.75736 46.25 6V18C46.25 19.2426 47.2574 20.25 48.5 20.25H63.5C64.7426 20.25 65.75 19.2426 65.75 18V9C65.75 7.75736 64.7426 6.75 63.5 6.75H58.1213C57.7235 6.75 57.342 6.59197 57.0607 6.31066Z" stroke="white" stroke-width="1.5" stroke-linecap="round" stroke-linejoin="round"/>
<path fill-rule="evenodd" clip-rule="evenodd" d="M111.5 21C113.157 21 114.5 19.6569 114.5 18V9C114.5 7.34315 113.157 6 111.5 6H106.121C105.922 6 105.732 5.92098 105.591 5.78033L103.47 3.65901C103.048 3.23705 102.475 3 101.879 3H96.5C94.8431 3 93.5 4.34315 93.5 6V18C93.5 19.6569 94.8431 21 96.5 21H111.5ZM101 12.75C100.586 12.75 100.25 13.0858 100.25 13.5C100.25 13.9142 100.586 14.25 101 14.25H107C107.414 14.25 107.75 13.9142 107.75 13.5C107.75 13.0858 107.414 12.75 107 12.75H101Z" fill="white"/>
</svg>
