<svg width="116" height="24" viewBox="0 0 116 24" fill="none" xmlns="http://www.w3.org/2000/svg">
<path d="M13.75 11H10.75V16.2955L12.6925 14.2483C12.9696 13.9404 13.4438 13.9154 13.7517 14.1925C14.0596 14.4696 14.0846 14.9438 13.8075 15.2517L10.5575 18.7517C10.4152 18.9098 10.2126 19 10 19C9.78739 19 9.58477 18.9098 9.44254 18.7517L6.19254 15.2517C5.91544 14.9438 5.9404 14.4696 6.24828 14.1925C6.55617 13.9154 7.03038 13.9404 7.30748 14.2483L9.25001 16.2955V11H10.75L10.75 5.75C10.75 5.33579 10.4142 5 10 5C9.58579 5 9.25 5.33579 9.25 5.75L9.25001 11H6.25C5.00736 11 4 12.0074 4 13.25V20.75C4 21.9926 5.00736 23 6.25 23H13.75C14.9926 23 16 21.9926 16 20.75V13.25C16 12.0074 14.9926 11 13.75 11Z" fill="white"/>
<path d="M53 8.25H51.5C50.2574 8.25 49.25 9.25736 49.25 10.5V19.5C49.25 20.7426 50.2574 21.75 51.5 21.75H60.5C61.7426 21.75 62.75 20.7426 62.75 19.5V10.5C62.75 9.25736 61.7426 8.25 60.5 8.25H59M53 12L56 15M56 15L59 12M56 15L56 2.25" stroke="white" stroke-width="1.5" stroke-linecap="round" stroke-linejoin="round"/>
<path d="M104 1.5C104.414 1.5 104.75 1.83579 104.75 2.25L104.75 7.5H103.25V2.25C103.25 1.83579 103.586 1.5 104 1.5Z" fill="white"/>
<path d="M103.25 7.5L103.25 13.1893L101.53 11.4697C101.237 11.1768 100.763 11.1768 100.47 11.4697C100.177 11.7626 100.177 12.2374 100.47 12.5303L103.47 15.5303C103.61 15.671 103.801 15.75 104 15.75C104.199 15.75 104.39 15.671 104.53 15.5303L107.53 12.5303C107.823 12.2374 107.823 11.7626 107.53 11.4697C107.237 11.1768 106.763 11.1768 106.47 11.4697L104.75 13.1893V7.5H108.5C110.157 7.5 111.5 8.84315 111.5 10.5V19.5C111.5 21.1569 110.157 22.5 108.5 22.5H99.5C97.8431 22.5 96.5 21.1569 96.5 19.5V10.5C96.5 8.84315 97.8431 7.5 99.5 7.5H103.25Z" fill="white"/>
</svg>
