<svg width="116" height="24" viewBox="0 0 116 24" fill="none" xmlns="http://www.w3.org/2000/svg">
<path fill-rule="evenodd" clip-rule="evenodd" d="M13.75 11H10.75L10.75 7.6599L12.7004 9.76034C12.9823 10.0639 13.4568 10.0814 13.7603 9.7996C14.0639 9.51774 14.0814 9.04319 13.7996 8.73966L10.5496 5.23966C10.4077 5.08684 10.2085 5 10 5C9.79145 5 9.59231 5.08684 9.4504 5.23966L6.2004 8.73966C5.91855 9.04319 5.93613 9.51774 6.23966 9.79959C6.54319 10.0814 7.01774 10.0639 7.29959 9.76034L9.25 7.6599L9.25 11H6.25C5.00736 11 4 12.0074 4 13.25V20.75C4 21.9926 5.00736 23 6.25 23H13.75C14.9926 23 16 21.9926 16 20.75V13.25C16 12.0074 14.9926 11 13.75 11ZM10.75 11H9.25L9.25 16.25C9.25 16.6642 9.58579 17 10 17C10.4142 17 10.75 16.6642 10.75 16.25L10.75 11Z" fill="white"/>
<path d="M53 8.25H51.5C50.2574 8.25 49.25 9.25736 49.25 10.5V19.5C49.25 20.7426 50.2574 21.75 51.5 21.75H60.5C61.7426 21.75 62.75 20.7426 62.75 19.5V10.5C62.75 9.25736 61.7426 8.25 60.5 8.25H59M59 5.25L56 2.25M56 2.25L53 5.25M56 2.25L56 15" stroke="white" stroke-width="1.5" stroke-linecap="round" stroke-linejoin="round"/>
<path d="M103.47 1.71967C103.763 1.42678 104.237 1.42678 104.53 1.71967L107.53 4.71967C107.823 5.01256 107.823 5.48744 107.53 5.78033C107.237 6.07322 106.763 6.07322 106.47 5.78033L104.75 4.06066L104.75 7.5H103.25V4.06066L101.53 5.78033C101.237 6.07322 100.763 6.07322 100.47 5.78033C100.177 5.48744 100.177 5.01256 100.47 4.71967L103.47 1.71967Z" fill="white"/>
<path d="M103.25 7.5L103.25 15C103.25 15.4142 103.586 15.75 104 15.75C104.414 15.75 104.75 15.4142 104.75 15V7.5H108.5C110.157 7.5 111.5 8.84315 111.5 10.5V19.5C111.5 21.1569 110.157 22.5 108.5 22.5H99.5C97.8431 22.5 96.5 21.1569 96.5 19.5V10.5C96.5 8.84315 97.8431 7.5 99.5 7.5H103.25Z" fill="white"/>
</svg>
