<svg width="116" height="24" viewBox="0 0 116 24" fill="none" xmlns="http://www.w3.org/2000/svg">
<path d="M13.2803 11.7803L16.5 8.56066V11.25C16.5 11.6642 16.8358 12 17.25 12C17.6642 12 18 11.6642 18 11.25V6.75C18 6.33579 17.6642 6 17.25 6H12.75C12.3358 6 12 6.33579 12 6.75C12 7.16421 12.3358 7.5 12.75 7.5H15.4393L12.2197 10.7197C11.9268 11.0126 11.9268 11.4874 12.2197 11.7803C12.5126 12.0732 12.9874 12.0732 13.2803 11.7803Z" fill="white"/>
<path d="M2 21.25V16.75C2 16.3358 2.33579 16 2.75 16C3.16421 16 3.5 16.3358 3.5 16.75V19.4393L6.71967 16.2197C7.01256 15.9268 7.48744 15.9268 7.78033 16.2197C8.07322 16.5126 8.07322 16.9874 7.78033 17.2803L4.56066 20.5H7.25C7.66421 20.5 8 20.8358 8 21.25C8 21.6642 7.66421 22 7.25 22H2.75C2.55806 22 2.36612 21.9268 2.21967 21.7803C2.14776 21.7084 2.09351 21.6255 2.05691 21.5371C2.02024 21.4487 2 21.3517 2 21.25Z" fill="white"/>
<path d="M12.2197 17.2803L15.4393 20.5H12.75C12.3358 20.5 12 20.8358 12 21.25C12 21.6642 12.3358 22 12.75 22H17.25C17.4419 22 17.6339 21.9268 17.7803 21.7803C17.8522 21.7084 17.9065 21.6255 17.9431 21.5371C17.9798 21.4487 18 21.3517 18 21.25V16.75C18 16.3358 17.6642 16 17.25 16C16.8358 16 16.5 16.3358 16.5 16.75V19.4393L13.2803 16.2197C12.9874 15.9268 12.5126 15.9268 12.2197 16.2197C11.9268 16.5126 11.9268 16.9874 12.2197 17.2803Z" fill="white"/>
<path d="M3.5 8.56066L6.71967 11.7803C7.01256 12.0732 7.48744 12.0732 7.78033 11.7803C8.07322 11.4874 8.07322 11.0126 7.78033 10.7197L4.56066 7.5H7.25C7.66421 7.5 8 7.16421 8 6.75C8 6.33579 7.66421 6 7.25 6H2.75C2.33579 6 2 6.33579 2 6.75V11.25C2 11.6642 2.33579 12 2.75 12C3.16421 12 3.5 11.6642 3.5 11.25V8.56066Z" fill="white"/>
<path d="M47.75 3.75V8.25M47.75 3.75H52.25M47.75 3.75L53 9M47.75 20.25V15.75M47.75 20.25H52.25M47.75 20.25L53 15M64.25 3.75L59.75 3.75M64.25 3.75V8.25M64.25 3.75L59 9M64.25 20.25H59.75M64.25 20.25V15.75M64.25 20.25L59 15" stroke="white" stroke-width="1.5" stroke-linecap="round" stroke-linejoin="round"/>
<path fill-rule="evenodd" clip-rule="evenodd" d="M107 3.75C107 3.33579 107.336 3 107.75 3L112.25 3C112.664 3 113 3.33579 113 3.75V8.25C113 8.66421 112.664 9 112.25 9C111.836 9 111.5 8.66421 111.5 8.25V5.56066L107.53 9.53033C107.237 9.82322 106.763 9.82322 106.47 9.53033C106.177 9.23744 106.177 8.76256 106.47 8.46967L110.439 4.5H107.75C107.336 4.5 107 4.16421 107 3.75ZM95 3.75C95 3.33579 95.3358 3 95.75 3H100.25C100.664 3 101 3.33579 101 3.75C101 4.16421 100.664 4.5 100.25 4.5H97.5607L101.53 8.46967C101.823 8.76256 101.823 9.23744 101.53 9.53033C101.237 9.82322 100.763 9.82322 100.47 9.53033L96.5 5.56066V8.25C96.5 8.66421 96.1642 9 95.75 9C95.3358 9 95 8.66421 95 8.25V3.75ZM106.47 15.5303C106.177 15.2374 106.177 14.7626 106.47 14.4697C106.763 14.1768 107.237 14.1768 107.53 14.4697L111.5 18.4393V15.75C111.5 15.3358 111.836 15 112.25 15C112.664 15 113 15.3358 113 15.75V20.25C113 20.6642 112.664 21 112.25 21H107.75C107.336 21 107 20.6642 107 20.25C107 19.8358 107.336 19.5 107.75 19.5H110.439L106.47 15.5303ZM101.53 14.4697C101.823 14.7626 101.823 15.2374 101.53 15.5303L97.5607 19.5H100.25C100.664 19.5 101 19.8358 101 20.25C101 20.6642 100.664 21 100.25 21H95.75C95.3358 21 95 20.6642 95 20.25V15.75C95 15.3358 95.3358 15 95.75 15C96.1642 15 96.5 15.3358 96.5 15.75V18.4393L100.47 14.4697C100.763 14.1768 101.237 14.1768 101.53 14.4697Z" fill="white"/>
</svg>
