<svg width="116" height="24" viewBox="0 0 116 24" fill="none" xmlns="http://www.w3.org/2000/svg">
<path fill-rule="evenodd" clip-rule="evenodd" d="M2.10557 10.4472C1.428 10.786 1 11.4785 1 12.2361V20C1 21.1046 1.89543 22 3 22H17C18.1046 22 19 21.1046 19 20V12.2361C19 11.4785 18.572 10.786 17.8944 10.4472L10.8944 6.94723C10.3314 6.6657 9.66863 6.6657 9.10557 6.94723L2.10557 10.4472ZM3.58541 14.4542C3.21493 14.269 2.76442 14.4191 2.57918 14.7896C2.39394 15.1601 2.54411 15.6106 2.91459 15.7958L8.77016 18.7236C9.54436 19.1107 10.4556 19.1107 11.2298 18.7236L17.0823 15.7974C17.4528 15.6122 17.6029 15.1617 17.4177 14.7912C17.2325 14.4207 16.7819 14.2705 16.4115 14.4558L10.559 17.382C10.2071 17.5579 9.79289 17.5579 9.44098 17.382L3.58541 14.4542Z" fill="white"/>
<path d="M65.75 8.99997V9.90606C65.75 10.7338 65.2955 11.4947 64.5667 11.8871L58.0893 15.375M46.25 8.99997V9.90606C46.25 10.7338 46.7045 11.4947 47.4333 11.8871L53.9107 15.375M62.75 17.8846L58.0893 15.375M58.0893 15.375L57.0667 14.8244C56.4008 14.4658 55.5992 14.4658 54.9333 14.8244L53.9107 15.375M53.9107 15.375L49.25 17.8846M65.75 19.5C65.75 20.7426 64.7426 21.75 63.5 21.75H48.5C47.2574 21.75 46.25 20.7426 46.25 19.5L46.25 8.84388C46.25 8.01614 46.7045 7.25525 47.4333 6.86282L54.9333 2.82436C55.5992 2.46577 56.4008 2.46577 57.0667 2.82436L64.5667 6.86282C65.2955 7.25525 65.75 8.01615 65.75 8.84388V19.5Z" stroke="white" stroke-width="1.5" stroke-linecap="round" stroke-linejoin="round"/>
<path d="M111.5 22.5C113.157 22.5 114.5 21.1568 114.5 19.5V11.3262L107.621 15.3481L111.106 17.2243C111.47 17.4206 111.607 17.8755 111.41 18.2402C111.214 18.6049 110.759 18.7413 110.394 18.545L104.711 15.4847C104.267 15.2457 103.733 15.2457 103.289 15.4847L97.6056 18.545C97.2409 18.7413 96.786 18.6049 96.5896 18.2402C96.3933 17.8755 96.5297 17.4206 96.8944 17.2243L100.379 15.3481L93.5 11.3262V19.5C93.5 21.1568 94.8431 22.5 96.5 22.5L111.5 22.5Z" fill="white"/>
<path d="M93.5 9.58861V8.84388C93.5 7.74023 94.106 6.72571 95.0777 6.20247L102.578 2.16401C103.466 1.68589 104.534 1.68589 105.422 2.16401L112.922 6.20247C113.894 6.72571 114.5 7.74024 114.5 8.84388V9.58861L106.074 14.515L105.422 14.164C104.534 13.6859 103.466 13.6859 102.578 14.164L101.926 14.515L93.5 9.58861Z" fill="white"/>
</svg>
