<svg width="116" height="24" viewBox="0 0 116 24" fill="none" xmlns="http://www.w3.org/2000/svg">
<path d="M12.2322 8.23223C13.2085 7.25592 14.7915 7.25592 15.7678 8.23223C16.7441 9.20854 16.7441 10.7915 15.7678 11.7678L14.5434 12.9921C14.2505 13.285 14.2505 13.7599 14.5434 14.0528C14.8363 14.3457 15.3112 14.3457 15.6041 14.0528L16.8284 12.8284C18.3905 11.2663 18.3905 8.73367 16.8284 7.17157C15.2663 5.60948 12.7337 5.60948 11.1716 7.17157L8.17157 10.1716C6.60948 11.7337 6.60948 14.2663 8.17157 15.8284C8.24449 15.9013 8.31963 15.9709 8.3968 16.0372C8.71107 16.307 9.18457 16.271 9.45441 15.9567C9.72424 15.6425 9.68822 15.169 9.37395 14.8991C9.32556 14.8576 9.27828 14.8138 9.23223 14.7678C8.25592 13.7915 8.25592 12.2085 9.23223 11.2322L12.2322 8.23223Z" fill="white"/>
<path d="M11.6032 11.9628C11.2889 11.693 10.8154 11.729 10.5456 12.0432C10.2758 12.3575 10.3118 12.831 10.626 13.1008C10.6744 13.1424 10.7217 13.1862 10.7678 13.2322C11.7441 14.2085 11.7441 15.7914 10.7678 16.7678L7.76777 19.7678C6.79146 20.7441 5.20854 20.7441 4.23223 19.7678C3.25592 18.7914 3.25592 17.2085 4.23223 16.2322L5.45657 15.0079C5.74946 14.715 5.74946 14.2401 5.45657 13.9472C5.16367 13.6543 4.6888 13.6543 4.39591 13.9472L3.17157 15.1716C1.60948 16.7337 1.60948 19.2663 3.17157 20.8284C4.73367 22.3905 7.26633 22.3905 8.82843 20.8284L11.8284 17.8284C13.3905 16.2663 13.3905 13.7337 11.8284 12.1716C11.7555 12.0986 11.6804 12.029 11.6032 11.9628Z" fill="white"/>
<path d="M57.1903 8.68842C57.6393 8.90291 58.0601 9.19611 58.432 9.56802C60.1893 11.3254 60.1893 14.1746 58.432 15.932L53.932 20.432C52.1746 22.1893 49.3254 22.1893 47.568 20.432C45.8107 18.6746 45.8107 15.8254 47.568 14.068L49.325 12.311M62.675 11.689L64.432 9.93198C66.1893 8.17462 66.1893 5.32538 64.432 3.56802C62.6746 1.81066 59.8254 1.81066 58.068 3.56802L53.568 8.06802C51.8107 9.82538 51.8107 12.6746 53.568 14.432C53.9399 14.8039 54.3607 15.0971 54.8097 15.3116" stroke="white" stroke-width="1.5" stroke-linecap="round" stroke-linejoin="round"/>
<path fill-rule="evenodd" clip-rule="evenodd" d="M111.902 4.09835C110.437 2.63388 108.063 2.63388 106.598 4.09835L102.098 8.59835C100.634 10.0628 100.634 12.4372 102.098 13.9017C102.409 14.2125 102.76 14.4565 103.133 14.6348C103.507 14.8134 103.665 15.2611 103.486 15.6349C103.308 16.0086 102.86 16.1669 102.486 15.9883C101.962 15.7376 101.471 15.3953 101.038 14.9623C98.9874 12.9121 98.9874 9.58794 101.038 7.53769L105.538 3.03769C107.588 0.987437 110.912 0.987437 112.962 3.03769C115.013 5.08794 115.013 8.41206 112.962 10.4623L111.205 12.2193C110.912 12.5122 110.438 12.5122 110.145 12.2193C109.852 11.9264 109.852 11.4515 110.145 11.1586L111.902 9.40165C113.366 7.93718 113.366 5.56282 111.902 4.09835ZM104.514 8.36513C104.692 7.99138 105.14 7.83313 105.514 8.01167C106.038 8.26236 106.529 8.60475 106.962 9.03769C109.013 11.0879 109.013 14.4121 106.962 16.4623L102.462 20.9623C100.412 23.0126 97.0879 23.0126 95.0377 20.9623C92.9874 18.9121 92.9874 15.5879 95.0377 13.5377L96.7947 11.7807C97.0876 11.4878 97.5624 11.4878 97.8553 11.7807C98.1482 12.0736 98.1482 12.5485 97.8553 12.8414L96.0983 14.5984C94.6339 16.0628 94.6339 18.4372 96.0983 19.9016C97.5628 21.3661 99.9372 21.3661 101.402 19.9016L105.902 15.4016C107.366 13.9372 107.366 11.5628 105.902 10.0983C105.591 9.78748 105.24 9.54347 104.867 9.36517C104.493 9.18662 104.335 8.73889 104.514 8.36513Z" fill="white"/>
</svg>
