<svg width="116" height="24" viewBox="0 0 116 24" fill="none" xmlns="http://www.w3.org/2000/svg">
<path fill-rule="evenodd" clip-rule="evenodd" d="M10 22C14.4183 22 18 18.4183 18 14C18 9.58172 14.4183 6 10 6C5.58172 6 2 9.58172 2 14C2 18.4183 5.58172 22 10 22ZM8.28033 11.2197C7.98744 10.9268 7.51256 10.9268 7.21967 11.2197C6.92678 11.5126 6.92678 11.9874 7.21967 12.2803L8.93934 14L7.21967 15.7197C6.92678 16.0126 6.92678 16.4874 7.21967 16.7803C7.51256 17.0732 7.98744 17.0732 8.28033 16.7803L10 15.0607L11.7197 16.7803C12.0126 17.0732 12.4874 17.0732 12.7803 16.7803C13.0732 16.4874 13.0732 16.0126 12.7803 15.7197L11.0607 14L12.7803 12.2803C13.0732 11.9874 13.0732 11.5126 12.7803 11.2197C12.4874 10.9268 12.0126 10.9268 11.7197 11.2197L10 12.9393L8.28033 11.2197Z" fill="white"/>
<path d="M53.75 9.75L58.25 14.25M58.25 9.75L53.75 14.25M65 12C65 16.9706 60.9706 21 56 21C51.0294 21 47 16.9706 47 12C47 7.02944 51.0294 3 56 3C60.9706 3 65 7.02944 65 12Z" stroke="white" stroke-width="1.5" stroke-linecap="round" stroke-linejoin="round"/>
<path fill-rule="evenodd" clip-rule="evenodd" d="M104 2.25C98.6152 2.25 94.25 6.61522 94.25 12C94.25 17.3848 98.6152 21.75 104 21.75C109.385 21.75 113.75 17.3848 113.75 12C113.75 6.61522 109.385 2.25 104 2.25ZM102.28 9.21967C101.987 8.92678 101.513 8.92678 101.22 9.21967C100.927 9.51256 100.927 9.98744 101.22 10.2803L102.939 12L101.22 13.7197C100.927 14.0126 100.927 14.4874 101.22 14.7803C101.513 15.0732 101.987 15.0732 102.28 14.7803L104 13.0607L105.72 14.7803C106.013 15.0732 106.487 15.0732 106.78 14.7803C107.073 14.4874 107.073 14.0126 106.78 13.7197L105.061 12L106.78 10.2803C107.073 9.98744 107.073 9.51256 106.78 9.21967C106.487 8.92678 106.013 8.92678 105.72 9.21967L104 10.9393L102.28 9.21967Z" fill="white"/>
</svg>
