<svg width="116" height="24" viewBox="0 0 116 24" fill="none" xmlns="http://www.w3.org/2000/svg">
<path fill-rule="evenodd" clip-rule="evenodd" d="M1 8.75C1 7.7835 1.7835 7 2.75 7H17.25C18.2165 7 19 7.7835 19 8.75V19.265C19 20.2315 18.2165 21.015 17.25 21.015H15.75C15.6719 21.015 15.5951 21.0099 15.5197 21H4.48027C4.40492 21.0099 4.32806 21.015 4.25 21.015H2.75C1.7835 21.015 1 20.2315 1 19.265V8.75ZM17.5 16.135V15.01C17.5 14.8719 17.3881 14.76 17.25 14.76H15.75C15.6119 14.76 15.5 14.8719 15.5 15.01V16.135C15.5 16.2731 15.6119 16.385 15.75 16.385H17.25C17.3881 16.385 17.5 16.2731 17.5 16.135ZM17.5 18.14C17.5 18.0019 17.3881 17.89 17.25 17.89H15.75C15.6119 17.89 15.5 18.0019 15.5 18.14V19.265C15.5 19.373 15.5685 19.4651 15.6645 19.5H17.25C17.3881 19.5 17.5 19.3881 17.5 19.25V18.14ZM2.5 19.25V18.14C2.5 18.0019 2.61193 17.89 2.75 17.89H4.25C4.38807 17.89 4.5 18.0019 4.5 18.14V19.265C4.5 19.373 4.43148 19.4651 4.33553 19.5H2.75C2.61193 19.5 2.5 19.3881 2.5 19.25ZM4.5 15.01V16.135C4.5 16.2731 4.38807 16.385 4.25 16.385H2.75C2.61193 16.385 2.5 16.2731 2.5 16.135V15.01C2.5 14.8719 2.61193 14.76 2.75 14.76H4.25C4.38807 14.76 4.5 14.8719 4.5 15.01ZM17.5 13.005V11.88C17.5 11.7419 17.3881 11.63 17.25 11.63H15.75C15.6119 11.63 15.5 11.7419 15.5 11.88V13.005C15.5 13.1431 15.6119 13.255 15.75 13.255H17.25C17.3881 13.255 17.5 13.1431 17.5 13.005ZM4.25 11.63C4.38807 11.63 4.5 11.7419 4.5 11.88V13.005C4.5 13.1431 4.38807 13.255 4.25 13.255H2.75C2.61193 13.255 2.5 13.1431 2.5 13.005V11.88C2.5 11.7419 2.61193 11.63 2.75 11.63H4.25ZM4.25 8.5C4.38807 8.5 4.5 8.61193 4.5 8.75V9.875C4.5 10.0131 4.38807 10.125 4.25 10.125H2.75C2.61193 10.125 2.5 10.0131 2.5 9.875V8.75C2.5 8.61193 2.61193 8.5 2.75 8.5H4.25ZM15.75 10.125C15.6119 10.125 15.5 10.0131 15.5 9.875V8.75C15.5 8.61193 15.6119 8.5 15.75 8.5H17.25C17.3881 8.5 17.5 8.61193 17.5 8.75V9.875C17.5 10.0131 17.3881 10.125 17.25 10.125H15.75ZM6.75 13.25C6.33579 13.25 6 13.5858 6 14C6 14.4142 6.33579 14.75 6.75 14.75H13.25C13.6642 14.75 14 14.4142 14 14C14 13.5858 13.6642 13.25 13.25 13.25H6.75Z" fill="white"/>
<path d="M47.375 19.5H64.625M47.375 19.5C46.7537 19.5 46.25 18.9963 46.25 18.375M47.375 19.5H48.875C49.4963 19.5 50 18.9963 50 18.375M46.25 18.375V5.625M46.25 18.375V16.875C46.25 16.2537 46.7537 15.75 47.375 15.75M65.75 18.375V5.625M65.75 18.375C65.75 18.9963 65.2463 19.5 64.625 19.5M65.75 18.375V16.875C65.75 16.2537 65.2463 15.75 64.625 15.75M64.625 19.5H63.125C62.5037 19.5 62 18.9963 62 18.375M64.625 4.5H47.375M64.625 4.5C65.2463 4.5 65.75 5.00368 65.75 5.625M64.625 4.5H63.125C62.5037 4.5 62 5.00368 62 5.625M65.75 5.625V7.125C65.75 7.74632 65.2463 8.25 64.625 8.25M47.375 4.5C46.7537 4.5 46.25 5.00368 46.25 5.625M47.375 4.5H48.875C49.4963 4.5 50 5.00368 50 5.625M46.25 5.625V7.125C46.25 7.74632 46.7537 8.25 47.375 8.25M47.375 8.25H48.875M47.375 8.25C46.7537 8.25 46.25 8.75368 46.25 9.375V10.875C46.25 11.4963 46.7537 12 47.375 12M48.875 8.25C49.4963 8.25 50 7.74632 50 7.125V5.625M48.875 8.25C49.4963 8.25 50 8.75368 50 9.375V10.875M50 5.625V10.875M50 5.625C50 5.00368 50.5037 4.5 51.125 4.5H60.875C61.4963 4.5 62 5.00368 62 5.625M63.125 8.25H64.625M63.125 8.25C62.5037 8.25 62 7.74632 62 7.125V5.625M63.125 8.25C62.5037 8.25 62 8.75368 62 9.375V10.875M64.625 8.25C65.2463 8.25 65.75 8.75368 65.75 9.375V10.875C65.75 11.4963 65.2463 12 64.625 12M62 5.625V10.875M51.125 12H60.875M51.125 12C50.5037 12 50 11.4963 50 10.875M51.125 12C50.5037 12 50 12.5037 50 13.125M50 10.875C50 11.4963 49.4963 12 48.875 12M62 10.875C62 11.4963 61.4963 12 60.875 12M62 10.875C62 11.4963 62.5037 12 63.125 12M60.875 12C61.4963 12 62 12.5037 62 13.125M50 18.375V13.125M50 18.375C50 18.9963 50.5037 19.5 51.125 19.5H60.875C61.4963 19.5 62 18.9963 62 18.375M50 18.375V16.875C50 16.2537 49.4963 15.75 48.875 15.75M62 18.375V13.125M62 18.375V16.875C62 16.2537 62.5037 15.75 63.125 15.75M62 13.125V14.625C62 15.2463 62.5037 15.75 63.125 15.75M62 13.125C62 12.5037 62.5037 12 63.125 12M50 13.125V14.625C50 15.2463 49.4963 15.75 48.875 15.75M50 13.125C50 12.5037 49.4963 12 48.875 12M47.375 12H48.875M47.375 12C46.7537 12 46.25 12.5037 46.25 13.125V14.625C46.25 15.2463 46.7537 15.75 47.375 15.75M63.125 12H64.625M64.625 12C65.2463 12 65.75 12.5037 65.75 13.125V14.625C65.75 15.2463 65.2463 15.75 64.625 15.75M47.375 15.75H48.875M63.125 15.75H64.625" stroke="white" stroke-width="1.5" stroke-linecap="round" stroke-linejoin="round"/>
<path fill-rule="evenodd" clip-rule="evenodd" d="M93.5 5.625C93.5 4.58947 94.3395 3.75 95.375 3.75H112.625C113.661 3.75 114.5 4.58947 114.5 5.625V18.375C114.5 19.4105 113.661 20.25 112.625 20.25H95.375C94.3395 20.25 93.5 19.4105 93.5 18.375V5.625ZM95 5.625V7.125C95 7.33211 95.1679 7.5 95.375 7.5H96.875C97.0821 7.5 97.25 7.33211 97.25 7.125V5.625C97.25 5.41789 97.0821 5.25 96.875 5.25H95.375C95.1679 5.25 95 5.41789 95 5.625ZM111.125 5.25C110.918 5.25 110.75 5.41789 110.75 5.625V7.125C110.75 7.33211 110.918 7.5 111.125 7.5H112.625C112.832 7.5 113 7.33211 113 7.125V5.625C113 5.41789 112.832 5.25 112.625 5.25H111.125ZM113 9.375C113 9.16789 112.832 9 112.625 9H111.125C110.918 9 110.75 9.16789 110.75 9.375V10.875C110.75 11.0821 110.918 11.25 111.125 11.25H112.625C112.832 11.25 113 11.0821 113 10.875V9.375ZM113 13.125C113 12.9179 112.832 12.75 112.625 12.75H111.125C110.918 12.75 110.75 12.9179 110.75 13.125V14.625C110.75 14.8321 110.918 15 111.125 15H112.625C112.832 15 113 14.8321 113 14.625V13.125ZM113 16.875C113 16.6679 112.832 16.5 112.625 16.5H111.125C110.918 16.5 110.75 16.6679 110.75 16.875V18.375C110.75 18.5821 110.918 18.75 111.125 18.75H112.625C112.832 18.75 113 18.5821 113 18.375V16.875ZM96.875 18.75C97.0821 18.75 97.25 18.5821 97.25 18.375V16.875C97.25 16.6679 97.0821 16.5 96.875 16.5H95.375C95.1679 16.5 95 16.6679 95 16.875V18.375C95 18.5821 95.1679 18.75 95.375 18.75H96.875ZM95.375 15H96.875C97.0821 15 97.25 14.8321 97.25 14.625V13.125C97.25 12.9179 97.0821 12.75 96.875 12.75H95.375C95.1679 12.75 95 12.9179 95 13.125V14.625C95 14.8321 95.1679 15 95.375 15ZM95.375 11.25H96.875C97.0821 11.25 97.25 11.0821 97.25 10.875V9.375C97.25 9.16789 97.0821 9 96.875 9H95.375C95.1679 9 95 9.16789 95 9.375V10.875C95 11.0821 95.1679 11.25 95.375 11.25ZM99.5 11.25C99.0858 11.25 98.75 11.5858 98.75 12C98.75 12.4142 99.0858 12.75 99.5 12.75H108.5C108.914 12.75 109.25 12.4142 109.25 12C109.25 11.5858 108.914 11.25 108.5 11.25H99.5Z" fill="white"/>
</svg>
