<svg width="116" height="24" viewBox="0 0 116 24" fill="none" xmlns="http://www.w3.org/2000/svg">
<path fill-rule="evenodd" clip-rule="evenodd" d="M15.6213 8.37868C14.4497 7.20711 12.5503 7.20711 11.3787 8.37868L4.37868 15.3787C3.20711 16.5503 3.20711 18.4497 4.37868 19.6213C5.54995 20.7926 7.44878 20.7929 8.62042 19.6222C8.62072 19.6219 8.62102 19.6216 8.62132 19.6213L9.11792 19.1214C9.40985 18.8276 9.88472 18.826 10.1786 19.1179C10.4724 19.4098 10.474 19.8847 10.1821 20.1786L9.68373 20.6802L9.68198 20.682C7.92462 22.4393 5.07538 22.4393 3.31802 20.682C1.56066 18.9246 1.56066 16.0754 3.31802 14.318L10.318 7.31802C12.0754 5.56066 14.9246 5.56066 16.682 7.31802C18.438 9.07407 18.4393 11.9204 16.6859 13.6781L13.2312 17.2312C12.2061 18.2564 10.544 18.2563 9.51885 17.2312C8.49372 16.206 8.49372 14.544 9.51885 13.5189L12.9697 10.068C13.2626 9.77515 13.7374 9.77515 14.0303 10.068C14.3232 10.3609 14.3232 10.8358 14.0303 11.1287L10.5795 14.5795C10.1402 15.0189 10.1402 15.7312 10.5795 16.1705C11.0178 16.6088 11.7276 16.6099 12.1672 16.1738L15.6213 12.6213C16.7928 11.4497 16.7929 9.55025 15.6213 8.37868Z" fill="white"/>
<path d="M62.375 12.739L54.682 20.432C52.9246 22.1893 50.0754 22.1893 48.318 20.432C46.5607 18.6746 46.5607 15.8254 48.318 14.068L59.2573 3.12868C60.4289 1.95711 62.3283 1.95711 63.4999 3.12868C64.6715 4.30025 64.6715 6.19975 63.4999 7.37132L52.5516 18.3197M52.5607 18.3107C52.5576 18.3137 52.5546 18.3167 52.5516 18.3197M58.2498 8.37865L50.4393 16.1893C49.8536 16.7751 49.8536 17.7249 50.4393 18.3107C51.0221 18.8934 51.9651 18.8964 52.5516 18.3197" stroke="white" stroke-width="1.5" stroke-linecap="round" stroke-linejoin="round"/>
<path fill-rule="evenodd" clip-rule="evenodd" d="M110.97 3.65901C110.091 2.78033 108.666 2.78033 107.788 3.65901L96.8484 14.5983C95.3839 16.0628 95.3839 18.4372 96.8484 19.9016C98.3128 21.3661 100.687 21.3661 102.152 19.9016L109.845 12.2087C110.138 11.9158 110.612 11.9158 110.905 12.2087C111.198 12.5015 111.198 12.9764 110.905 13.2693L103.212 20.9623C101.162 23.0126 97.8379 23.0126 95.7877 20.9623C93.7374 18.9121 93.7374 15.5879 95.7877 13.5377L106.727 2.59835C108.191 1.13388 110.566 1.13388 112.03 2.59835C113.495 4.06281 113.495 6.43718 112.03 7.90165L101.097 18.8346C101.095 18.8374 101.092 18.8403 101.089 18.8432L101.082 18.85L101.08 18.8522L101.077 18.8544C100.198 19.7196 98.7832 19.7152 97.909 18.841C97.0303 17.9623 97.0303 16.5377 97.909 15.659L105.72 7.84833C106.012 7.55543 106.487 7.55542 106.78 7.84831C107.073 8.1412 107.073 8.61608 106.78 8.90897L98.9697 16.7197C98.6768 17.0125 98.6768 17.4874 98.9697 17.7803C99.2604 18.0711 99.7306 18.0732 100.024 17.7867L110.97 6.84099C111.848 5.96231 111.848 4.53769 110.97 3.65901Z" fill="white"/>
</svg>
