<svg width="116" height="24" viewBox="0 0 116 24" fill="none" xmlns="http://www.w3.org/2000/svg">
<path fill-rule="evenodd" clip-rule="evenodd" d="M9.63769 5.09332C9.86321 4.96889 10.1368 4.96889 10.3623 5.09332L12.3623 6.19676C12.725 6.39686 12.8568 6.85308 12.6567 7.21576C12.4566 7.57843 12.0004 7.71023 11.6377 7.51013L10 6.60658L8.36231 7.51013C7.99963 7.71023 7.54341 7.57843 7.34332 7.21576C7.14322 6.85308 7.27502 6.39686 7.63769 6.19676L9.63769 5.09332ZM5.40258 8.28651C5.60268 8.64918 5.47088 9.1054 5.10821 9.3055L4.30255 9.75L5.10821 10.1945C5.47088 10.3946 5.60268 10.8508 5.40258 11.2135C5.20248 11.5762 4.74627 11.708 4.38359 11.5079L3.5 11.0204V11.75C3.5 12.1642 3.16421 12.5 2.75 12.5C2.33579 12.5 2 12.1642 2 11.75V9.75C2 9.47684 2.14852 9.22528 2.38769 9.09332L4.38359 7.99213C4.74627 7.79203 5.20248 7.92383 5.40258 8.28651ZM14.5974 8.28651C14.7975 7.92383 15.2537 7.79203 15.6164 7.99213L17.6123 9.09332C17.8515 9.22528 18 9.47684 18 9.75V11.75C18 12.1642 17.6642 12.5 17.25 12.5C16.8358 12.5 16.5 12.1642 16.5 11.75V11.0204L15.6164 11.5079C15.2537 11.708 14.7975 11.5762 14.5974 11.2135C14.3973 10.8508 14.5291 10.3946 14.8918 10.1945L15.6975 9.75L14.8918 9.3055C14.5291 9.1054 14.3973 8.64918 14.5974 8.28651ZM7.34332 12.2842C7.54341 11.9216 7.99963 11.7898 8.36231 11.9899L10 12.8934L11.6377 11.9899C12.0004 11.7898 12.4566 11.9216 12.6567 12.2842C12.8568 12.6469 12.725 13.1031 12.3623 13.3032L10.75 14.1928V15.75C10.75 16.1642 10.4142 16.5 10 16.5C9.58579 16.5 9.25 16.1642 9.25 15.75V14.1928L7.63769 13.3032C7.27502 13.1031 7.14322 12.6469 7.34332 12.2842ZM2.75 15.5C3.16421 15.5 3.5 15.8358 3.5 16.25V17.8072L5.10821 18.6945C5.47088 18.8946 5.60268 19.3508 5.40258 19.7135C5.20248 20.0762 4.74627 20.208 4.38359 20.0079L2.38769 18.9067C2.14852 18.7747 2 18.5232 2 18.25V16.25C2 15.8358 2.33579 15.5 2.75 15.5ZM17.25 15.5C17.6642 15.5 18 15.8358 18 16.25V18.25C18 18.5232 17.8515 18.7747 17.6123 18.9067L15.6164 20.0079C15.2537 20.208 14.7975 20.0762 14.5974 19.7135C14.3973 19.3508 14.5291 18.8946 14.8918 18.6945L16.5 17.8072V16.25C16.5 15.8358 16.8358 15.5 17.25 15.5ZM10 19.5C10.4142 19.5 10.75 19.8358 10.75 20.25V20.9796L11.6377 20.4899C12.0004 20.2898 12.4566 20.4216 12.6567 20.7842C12.8568 21.1469 12.725 21.6031 12.3623 21.8032L10.3623 22.9067C10.1368 23.0311 9.86321 23.0311 9.63769 22.9067L7.63769 21.8032C7.27501 21.6031 7.14322 21.1469 7.34332 20.7842C7.54341 20.4216 7.99963 20.2898 8.36231 20.4899L9.25 20.9796V20.25C9.25 19.8358 9.58579 19.5 10 19.5Z" fill="white"/>
<path d="M65 7.5L62.75 6.1875M65 7.5V9.75M65 7.5L62.75 8.8125M47 7.5L49.25 6.1875M47 7.5L49.25 8.8125M47 7.5V9.75M56 12.75L58.25 11.4375M56 12.75L53.75 11.4375M56 12.75V15M56 21.75L58.25 20.4375M56 21.75V19.5M56 21.75L53.75 20.4375M53.75 3.5625L56 2.25L58.25 3.5625M65 14.25V16.5L62.75 17.8125M49.25 17.8125L47 16.5V14.25" stroke="white" stroke-width="1.5" stroke-linecap="round" stroke-linejoin="round"/>
<path fill-rule="evenodd" clip-rule="evenodd" d="M103.622 1.60217C103.856 1.46594 104.144 1.46594 104.378 1.60217L106.628 2.91467C106.986 3.12338 107.107 3.58261 106.898 3.9404C106.689 4.29819 106.23 4.41904 105.872 4.21033L104 3.11828L102.128 4.21033C101.77 4.41904 101.311 4.29819 101.102 3.9404C100.893 3.58261 101.014 3.12338 101.372 2.91467L103.622 1.60217ZM97.8978 5.8096C98.1065 6.16739 97.9857 6.62662 97.6279 6.83533L96.4885 7.5L97.6279 8.16467C97.9857 8.37338 98.1065 8.83261 97.8978 9.1904C97.6891 9.54819 97.2299 9.66904 96.8721 9.46033L95.75 8.80578V9.75C95.75 10.1642 95.4142 10.5 95 10.5C94.5858 10.5 94.25 10.1642 94.25 9.75V7.5C94.25 7.23325 94.3917 6.98657 94.6221 6.85217L96.8721 5.53967C97.2299 5.33096 97.6891 5.45181 97.8978 5.8096ZM110.102 5.8096C110.311 5.45181 110.77 5.33096 111.128 5.53967L113.378 6.85217C113.608 6.98657 113.75 7.23325 113.75 7.5V9.75C113.75 10.1642 113.414 10.5 113 10.5C112.586 10.5 112.25 10.1642 112.25 9.75V8.80578L111.128 9.46033C110.77 9.66904 110.311 9.54819 110.102 9.1904C109.893 8.83261 110.014 8.37338 110.372 8.16467L111.512 7.5L110.372 6.83533C110.014 6.62662 109.893 6.16739 110.102 5.8096ZM101.102 11.0596C101.311 10.7018 101.77 10.581 102.128 10.7897L104 11.8817L105.872 10.7897C106.23 10.581 106.689 10.7018 106.898 11.0596C107.107 11.4174 106.986 11.8766 106.628 12.0853L104.75 13.1808V15C104.75 15.4142 104.414 15.75 104 15.75C103.586 15.75 103.25 15.4142 103.25 15V13.1808L101.372 12.0853C101.014 11.8766 100.893 11.4174 101.102 11.0596ZM95 13.5C95.4142 13.5 95.75 13.8358 95.75 14.25V16.0692L97.6279 17.1647C97.9857 17.3734 98.1065 17.8326 97.8978 18.1904C97.6891 18.5482 97.2299 18.669 96.8721 18.4603L94.6221 17.1478C94.3917 17.0134 94.25 16.7668 94.25 16.5V14.25C94.25 13.8358 94.5858 13.5 95 13.5ZM113 13.5C113.414 13.5 113.75 13.8358 113.75 14.25V16.5C113.75 16.7668 113.608 17.0134 113.378 17.1478L111.128 18.4603C110.77 18.669 110.311 18.5482 110.102 18.1904C109.893 17.8326 110.014 17.3734 110.372 17.1647L112.25 16.0692V14.25C112.25 13.8358 112.586 13.5 113 13.5ZM104 18.75C104.414 18.75 104.75 19.0858 104.75 19.5V20.4442L105.872 19.7897C106.23 19.581 106.689 19.7018 106.898 20.0596C107.107 20.4174 106.986 20.8766 106.628 21.0853L104.378 22.3978C104.144 22.5341 103.856 22.5341 103.622 22.3978L101.372 21.0853C101.014 20.8766 100.893 20.4174 101.102 20.0596C101.311 19.7018 101.77 19.581 102.128 19.7897L103.25 20.4442V19.5C103.25 19.0858 103.586 18.75 104 18.75Z" fill="white"/>
</svg>
