<svg width="116" height="24" viewBox="0 0 116 24" fill="none" xmlns="http://www.w3.org/2000/svg">
<path fill-rule="evenodd" clip-rule="evenodd" d="M15.7906 18.7698C15.5035 19.0684 15.0287 19.0777 14.7302 18.7906L10.2302 14.5406C10.0831 14.3992 10 14.204 10 14C10 13.796 10.0831 13.6008 10.2302 13.4594L14.7302 9.20937C15.0287 8.92228 15.5035 8.93159 15.7906 9.23017C16.0777 9.52875 16.0684 10.0035 15.7698 10.2906L11.8321 14L15.7698 17.7094C16.0684 17.9965 16.0777 18.4713 15.7906 18.7698ZM9.79062 18.7698C9.50353 19.0684 9.02875 19.0777 8.73017 18.7906L4.23017 14.5406C4.08311 14.3992 4 14.204 4 14C4 13.796 4.08311 13.6008 4.23017 13.4594L8.73017 9.20938C9.02875 8.92228 9.50353 8.93159 9.79062 9.23017C10.0777 9.52875 10.0684 10.0035 9.76983 10.2906L5.83208 14L9.76983 17.7094C10.0684 17.9965 10.0777 18.4713 9.79062 18.7698Z" fill="white"/>
<path d="M62.75 19.5L55.25 12L62.75 4.5M56.75 19.5L49.25 12L56.75 4.5" stroke="white" stroke-width="1.5" stroke-linecap="round" stroke-linejoin="round"/>
<path fill-rule="evenodd" clip-rule="evenodd" d="M105.28 3.96967C105.573 4.26256 105.573 4.73744 105.28 5.03033L98.3107 12L105.28 18.9697C105.573 19.2626 105.573 19.7374 105.28 20.0303C104.987 20.3232 104.513 20.3232 104.22 20.0303L96.7197 12.5303C96.4268 12.2374 96.4268 11.7626 96.7197 11.4697L104.22 3.96967C104.513 3.67678 104.987 3.67678 105.28 3.96967ZM111.28 3.96967C111.573 4.26256 111.573 4.73744 111.28 5.03033L104.311 12L111.28 18.9697C111.573 19.2626 111.573 19.7374 111.28 20.0303C110.987 20.3232 110.513 20.3232 110.22 20.0303L102.72 12.5303C102.427 12.2374 102.427 11.7626 102.72 11.4697L110.22 3.96967C110.513 3.67678 110.987 3.67678 111.28 3.96967Z" fill="white"/>
</svg>
