<svg width="30" height="30" viewBox="0 0 30 30" fill="none" xmlns="http://www.w3.org/2000/svg">
<path d="M15.8875 20.3625L15.7 20.2125C15.6303 20.1652 15.5547 20.1274 15.475 20.1L15.4439 20.0862C15.3161 20.0294 15.1777 19.9979 15.0378 20.0014C14.9634 20.0033 14.8928 20.0076 14.7485 20.0176C14.6756 20.0226 14.6027 20.0342 14.5348 20.061C14.3771 20.1234 14.2333 20.2173 14.1125 20.3375C14.0021 20.459 13.9133 20.5985 13.85 20.75C13.7554 20.9778 13.7303 21.2284 13.7778 21.4704C13.8254 21.7124 13.9434 21.9349 14.1171 22.11C14.2908 22.285 14.5125 22.4048 14.7541 22.4542C14.9957 22.5035 15.2465 22.4803 15.475 22.3875C15.6244 22.315 15.7631 22.2225 15.8875 22.1125C16.0609 21.9367 16.1784 21.7135 16.2252 21.471C16.2719 21.2285 16.2457 20.9776 16.15 20.75C16.0877 20.6055 15.9986 20.474 15.8875 20.3625ZM20 2.5H10C9.00544 2.5 8.05161 2.89509 7.34835 3.59835C6.64509 4.30161 6.25 5.25544 6.25 6.25V23.75C6.25 24.7446 6.64509 25.6984 7.34835 26.4017C8.05161 27.1049 9.00544 27.5 10 27.5H20C20.9946 27.5 21.9484 27.1049 22.6517 26.4017C23.3549 25.6984 23.75 24.7446 23.75 23.75V6.25C23.75 5.25544 23.3549 4.30161 22.6517 3.59835C21.9484 2.89509 20.9946 2.5 20 2.5ZM21.25 23.75C21.25 24.0815 21.1183 24.3995 20.8839 24.6339C20.6495 24.8683 20.3315 25 20 25H10C9.66848 25 9.35054 24.8683 9.11612 24.6339C8.8817 24.3995 8.75 24.0815 8.75 23.75V6.25C8.75 5.91848 8.8817 5.60054 9.11612 5.36612C9.35054 5.1317 9.66848 5 10 5H20C20.3315 5 20.6495 5.1317 20.8839 5.36612C21.1183 5.60054 21.25 5.91848 21.25 6.25V23.75Z" fill="#333333"/>
<path d="M11.25 21C11.25 20.4477 11.6977 20 12.25 20H17.75C18.3023 20 18.75 20.4477 18.75 21V21.5C18.75 22.0523 18.3023 22.5 17.75 22.5H12.25C11.6977 22.5 11.25 22.0523 11.25 21.5V21Z" fill="#333333"/>
</svg>
