<svg width="116" height="24" viewBox="0 0 116 24" fill="none" xmlns="http://www.w3.org/2000/svg">
<path d="M5.75 7C5.33579 7 5 7.33579 5 7.75V20.25C5 20.6642 5.33579 21 5.75 21H7.25C7.66421 21 8 20.6642 8 20.25V7.75C8 7.33579 7.66421 7 7.25 7H5.75Z" fill="white"/>
<path d="M12.75 7C12.3358 7 12 7.33579 12 7.75V20.25C12 20.6642 12.3358 21 12.75 21H14.25C14.6642 21 15 20.6642 15 20.25V7.75C15 7.33579 14.6642 7 14.25 7H12.75Z" fill="white"/>
<path d="M59.75 5.25L59.75 18.75M52.25 5.25V18.75" stroke="white" stroke-width="1.5" stroke-linecap="round" stroke-linejoin="round"/>
<path fill-rule="evenodd" clip-rule="evenodd" d="M98.75 5.25C98.75 4.83579 99.0858 4.5 99.5 4.5H101C101.414 4.5 101.75 4.83579 101.75 5.25V18.75C101.75 19.1642 101.414 19.5 101 19.5H99.5C99.3011 19.5 99.1103 19.421 98.9697 19.2803C98.829 19.1397 98.75 18.9489 98.75 18.75L98.75 5.25ZM106.25 5.25C106.25 4.83579 106.586 4.5 107 4.5H108.5C108.699 4.5 108.89 4.57902 109.03 4.71967C109.171 4.86032 109.25 5.05109 109.25 5.25V18.75C109.25 19.1642 108.914 19.5 108.5 19.5H107C106.586 19.5 106.25 19.1642 106.25 18.75V5.25Z" fill="white"/>
</svg>
