<svg width="116" height="24" viewBox="0 0 116 24" fill="none" xmlns="http://www.w3.org/2000/svg">
<path fill-rule="evenodd" clip-rule="evenodd" d="M2 7.5C2 6.67157 2.67157 6 3.5 6H12.5C13.3284 6 14 6.67157 14 7.5V19.25C14 20.7688 15.2312 22 16.75 22H4.75C3.23122 22 2 20.7688 2 19.25V7.5ZM5.75 14.5C5.33579 14.5 5 14.8358 5 15.25C5 15.6642 5.33579 16 5.75 16H10.25C10.6642 16 11 15.6642 11 15.25C11 14.8358 10.6642 14.5 10.25 14.5H5.75ZM5.75 17.5C5.33579 17.5 5 17.8358 5 18.25C5 18.6642 5.33579 19 5.75 19H10.25C10.6642 19 11 18.6642 11 18.25C11 17.8358 10.6642 17.5 10.25 17.5H5.75ZM5 9.75C5 9.33579 5.33579 9 5.75 9H10.25C10.6642 9 11 9.33579 11 9.75V12.25C11 12.6642 10.6642 13 10.25 13H5.75C5.33579 13 5 12.6642 5 12.25V9.75Z" fill="white"/>
<path d="M16.5 10.5H15.5V19.25C15.5 19.9404 16.0596 20.5 16.75 20.5C17.4404 20.5 18 19.9404 18 19.25V12C18 11.1716 17.3284 10.5 16.5 10.5Z" fill="white"/>
<path d="M56 7.5H57.5M56 10.5H57.5M50 13.5H57.5M50 16.5H57.5M60.5 7.5H63.875C64.4963 7.5 65 8.00368 65 8.625V18C65 19.2426 63.9926 20.25 62.75 20.25M60.5 7.5V18C60.5 19.2426 61.5074 20.25 62.75 20.25M60.5 7.5V4.875C60.5 4.25368 59.9963 3.75 59.375 3.75H48.125C47.5037 3.75 47 4.25368 47 4.875V18C47 19.2426 48.0074 20.25 49.25 20.25H62.75M50 7.5H53V10.5H50V7.5Z" stroke="white" stroke-width="1.5" stroke-linecap="round" stroke-linejoin="round"/>
<path fill-rule="evenodd" clip-rule="evenodd" d="M96.125 3C95.0895 3 94.25 3.83947 94.25 4.875V18C94.25 19.6569 95.5931 21 97.25 21H112.25C110.593 21 109.25 19.6569 109.25 18V4.875C109.25 3.83947 108.411 3 107.375 3H96.125ZM104 9.75C103.586 9.75 103.25 10.0858 103.25 10.5C103.25 10.9142 103.586 11.25 104 11.25H105.5C105.914 11.25 106.25 10.9142 106.25 10.5C106.25 10.0858 105.914 9.75 105.5 9.75H104ZM103.25 7.5C103.25 7.08579 103.586 6.75 104 6.75H105.5C105.914 6.75 106.25 7.08579 106.25 7.5C106.25 7.91421 105.914 8.25 105.5 8.25H104C103.586 8.25 103.25 7.91421 103.25 7.5ZM98 12.75C97.5858 12.75 97.25 13.0858 97.25 13.5C97.25 13.9142 97.5858 14.25 98 14.25H105.5C105.914 14.25 106.25 13.9142 106.25 13.5C106.25 13.0858 105.914 12.75 105.5 12.75H98ZM97.25 16.5C97.25 16.0858 97.5858 15.75 98 15.75H105.5C105.914 15.75 106.25 16.0858 106.25 16.5C106.25 16.9142 105.914 17.25 105.5 17.25H98C97.5858 17.25 97.25 16.9142 97.25 16.5ZM98 6.75C97.5858 6.75 97.25 7.08579 97.25 7.5V10.5C97.25 10.9142 97.5858 11.25 98 11.25H101C101.414 11.25 101.75 10.9142 101.75 10.5V7.5C101.75 7.08579 101.414 6.75 101 6.75H98Z" fill="white"/>
<path d="M110.75 6.75H112.625C113.246 6.75 113.75 7.25368 113.75 7.875V18C113.75 18.8284 113.078 19.5 112.25 19.5C111.422 19.5 110.75 18.8284 110.75 18V6.75Z" fill="white"/>
</svg>
