<svg width="116" height="24" viewBox="0 0 116 24" fill="none" xmlns="http://www.w3.org/2000/svg">
<path fill-rule="evenodd" clip-rule="evenodd" d="M8.15686 6.17562C7.78961 6.02365 7.37706 6.02365 7.00981 6.17562L2.92647 7.86528C2.3657 8.09732 2 8.64441 2 9.2513V20.128C2 21.1967 3.08594 21.9226 4.07353 21.514L7.58333 20.0616L11.8431 21.8243C12.2104 21.9763 12.6229 21.9763 12.9902 21.8243L17.0735 20.1347C17.6343 19.9026 18 19.3555 18 18.7486V7.87199C18 6.8032 16.9141 6.07731 15.9265 6.48596L12.4167 7.9383L8.15686 6.17562ZM7.58008 9C7.99429 9 8.33008 9.33579 8.33008 9.75V16.25C8.33008 16.6642 7.99429 17 7.58008 17C7.16586 17 6.83008 16.6642 6.83008 16.25V9.75C6.83008 9.33579 7.16586 9 7.58008 9ZM13.1699 11.75C13.1699 11.3358 12.8341 11 12.4199 11C12.0057 11 11.6699 11.3358 11.6699 11.75V18.25C11.6699 18.6642 12.0057 19 12.4199 19C12.8341 19 13.1699 18.6642 13.1699 18.25V11.75Z" fill="white"/>
<path d="M53 6.75002V15M59 9.00002V17.25M59.5031 20.7485L64.3781 18.311C64.7592 18.1204 65 17.7309 65 17.3047V4.82031C65 3.98401 64.1199 3.44007 63.3719 3.81408L59.5031 5.74847C59.1864 5.90683 58.8136 5.90683 58.4969 5.74847L53.5031 3.25158C53.1864 3.09322 52.8136 3.09322 52.4969 3.25158L47.6219 5.68908C47.2408 5.87965 47 6.26919 47 6.69531V19.1797C47 20.016 47.8801 20.56 48.6281 20.186L52.4969 18.2516C52.8136 18.0932 53.1864 18.0932 53.5031 18.2516L58.4969 20.7485C58.8136 20.9068 59.1864 20.9068 59.5031 20.7485Z" stroke="white" stroke-width="1.5" stroke-linecap="round" stroke-linejoin="round"/>
<path fill-rule="evenodd" clip-rule="evenodd" d="M100.161 2.58076C100.689 2.31683 101.311 2.31683 101.839 2.58076L106.832 5.07765C106.938 5.13043 107.062 5.13043 107.168 5.07765L111.036 3.14326C112.283 2.51992 113.75 3.42647 113.75 4.82031V17.3047C113.75 18.0149 113.349 18.6642 112.714 18.9818L107.839 21.4193C107.311 21.6832 106.689 21.6832 106.161 21.4193L101.168 18.9224C101.062 18.8696 100.938 18.8696 100.832 18.9224L96.9635 20.8568C95.7168 21.4801 94.25 20.5736 94.25 19.1797V6.69531C94.25 5.98512 94.6513 5.33587 95.2865 5.01826L100.161 2.58076ZM101 6.00002C101.414 6.00002 101.75 6.3358 101.75 6.75002V15C101.75 15.4142 101.414 15.75 101 15.75C100.586 15.75 100.25 15.4142 100.25 15V6.75002C100.25 6.3358 100.586 6.00002 101 6.00002ZM107.75 9.00002C107.75 8.5858 107.414 8.25002 107 8.25002C106.586 8.25002 106.25 8.5858 106.25 9.00002V17.25C106.25 17.6642 106.586 18 107 18C107.414 18 107.75 17.6642 107.75 17.25V9.00002Z" fill="white"/>
</svg>
