<svg width="116" height="24" viewBox="0 0 116 24" fill="none" xmlns="http://www.w3.org/2000/svg">
<path fill-rule="evenodd" clip-rule="evenodd" d="M1 6.75C1 6.33579 1.33579 6 1.75 6H18.25C18.6642 6 19 6.33579 19 6.75C19 7.16421 18.6642 7.5 18.25 7.5H18V16.25C18 17.7688 16.7688 19 15.25 19H14.1775L14.9759 22.0606C15.0805 22.4614 14.8403 22.8711 14.4395 22.9757C14.0387 23.0802 13.629 22.8401 13.5245 22.4393L13.4099 21.9999H6.5905L6.4759 22.4393C6.37134 22.8401 5.96167 23.0802 5.56087 22.9757C5.16007 22.8711 4.91991 22.4614 5.02447 22.0606L5.82289 19H4.75C3.23122 19 2 17.7688 2 16.25V7.5H1.75C1.33579 7.5 1 7.16421 1 6.75ZM7.37309 19L6.9818 20.4999H13.0186L12.6273 19H7.37309ZM13.25 9C13.6642 9 14 9.33579 14 9.75V15.25C14 15.6642 13.6642 16 13.25 16C12.8358 16 12.5 15.6642 12.5 15.25V9.75C12.5 9.33579 12.8358 9 13.25 9ZM6.75 13C7.16421 13 7.5 13.3358 7.5 13.75V15.25C7.5 15.6642 7.16421 16 6.75 16C6.33579 16 6 15.6642 6 15.25V13.75C6 13.3358 6.33579 13 6.75 13ZM10.75 11.75C10.75 11.3358 10.4142 11 10 11C9.58579 11 9.25 11.3358 9.25 11.75V15.25C9.25 15.6642 9.58579 16 10 16C10.4142 16 10.75 15.6642 10.75 15.25V11.75Z" fill="white"/>
<path d="M47.75 3V14.25C47.75 15.4926 48.7574 16.5 50 16.5H52.25M47.75 3H46.25M47.75 3H64.25M64.25 3H65.75M64.25 3V14.25C64.25 15.4926 63.2426 16.5 62 16.5H59.75M52.25 16.5H59.75M52.25 16.5L51.25 19.5M59.75 16.5L60.75 19.5M60.75 19.5L61.25 21M60.75 19.5H51.25M51.25 19.5L50.75 21M53 11.25V12.75M56 9V12.75M59 6.75V12.75" stroke="white" stroke-width="1.5" stroke-linecap="round" stroke-linejoin="round"/>
<path fill-rule="evenodd" clip-rule="evenodd" d="M94.25 2.25C93.8358 2.25 93.5 2.58579 93.5 3C93.5 3.41421 93.8358 3.75 94.25 3.75H95V14.25C95 15.9069 96.3431 17.25 98 17.25H99.2094L98.0385 20.7628C97.9075 21.1558 98.1199 21.5805 98.5128 21.7115C98.9058 21.8425 99.3305 21.6301 99.4615 21.2372L99.7906 20.25H108.209L108.538 21.2372C108.669 21.6301 109.094 21.8425 109.487 21.7115C109.88 21.5805 110.092 21.1558 109.962 20.7628L108.791 17.25H110C111.657 17.25 113 15.9069 113 14.25V3.75H113.75C114.164 3.75 114.5 3.41421 114.5 3C114.5 2.58579 114.164 2.25 113.75 2.25H94.25ZM100.291 18.75L100.791 17.25H107.209L107.709 18.75H100.291ZM107.75 6.75C107.75 6.33579 107.414 6 107 6C106.586 6 106.25 6.33579 106.25 6.75V12.75C106.25 13.1642 106.586 13.5 107 13.5C107.414 13.5 107.75 13.1642 107.75 12.75V6.75ZM104.75 9C104.75 8.58579 104.414 8.25 104 8.25C103.586 8.25 103.25 8.58579 103.25 9V12.75C103.25 13.1642 103.586 13.5 104 13.5C104.414 13.5 104.75 13.1642 104.75 12.75V9ZM101.75 11.25C101.75 10.8358 101.414 10.5 101 10.5C100.586 10.5 100.25 10.8358 100.25 11.25V12.75C100.25 13.1642 100.586 13.5 101 13.5C101.414 13.5 101.75 13.1642 101.75 12.75V11.25Z" fill="white"/>
</svg>
