<svg width="116" height="24" viewBox="0 0 116 24" fill="none" xmlns="http://www.w3.org/2000/svg">
<path d="M2 7C1.44772 7 1 7.44772 1 8V9C1 9.55228 1.44772 10 2 10H18C18.5523 10 19 9.55228 19 9V8C19 7.44772 18.5523 7 18 7H2Z" fill="white"/>
<path fill-rule="evenodd" clip-rule="evenodd" d="M2 11.5H18L17.1885 19.2094C17.0813 20.2273 16.223 21 15.1995 21H4.80052C3.77701 21 2.91866 20.2273 2.81151 19.2094L2 11.5ZM7.21967 13.2197C7.51256 12.9268 7.98744 12.9268 8.28033 13.2197L10 14.9393L11.7197 13.2197C12.0126 12.9268 12.4874 12.9268 12.7803 13.2197C13.0732 13.5126 13.0732 13.9874 12.7803 14.2803L11.0607 16L12.7803 17.7197C13.0732 18.0126 13.0732 18.4874 12.7803 18.7803C12.4874 19.0732 12.0126 19.0732 11.7197 18.7803L10 17.0607L8.28033 18.7803C7.98744 19.0732 7.51256 19.0732 7.21967 18.7803C6.92678 18.4874 6.92678 18.0126 7.21967 17.7197L8.93934 16L7.21967 14.2803C6.92678 13.9874 6.92678 13.5126 7.21967 13.2197Z" fill="white"/>
<path d="M64.25 7.5L63.6246 18.1321C63.5546 19.3214 62.5698 20.25 61.3785 20.25H50.6215C49.4302 20.25 48.4454 19.3214 48.3754 18.1321L47.75 7.5M53.75 11.625L56 13.875M56 13.875L58.25 16.125M56 13.875L58.25 11.625M56 13.875L53.75 16.125M47.375 7.5H64.625C65.2463 7.5 65.75 6.99632 65.75 6.375V4.875C65.75 4.25368 65.2463 3.75 64.625 3.75H47.375C46.7537 3.75 46.25 4.25368 46.25 4.875V6.375C46.25 6.99632 46.7537 7.5 47.375 7.5Z" stroke="white" stroke-width="1.5" stroke-linecap="round" stroke-linejoin="round"/>
<path d="M95.375 3C94.3395 3 93.5 3.83947 93.5 4.875V5.625C93.5 6.66053 94.3395 7.5 95.375 7.5H112.625C113.661 7.5 114.5 6.66053 114.5 5.625V4.875C114.5 3.83947 113.661 3 112.625 3H95.375Z" fill="white"/>
<path fill-rule="evenodd" clip-rule="evenodd" d="M95.0868 9L95.6266 18.1762C95.7198 19.7619 97.033 21 98.6214 21H109.378C110.967 21 112.28 19.7619 112.373 18.1762L112.913 9H95.0868ZM101.22 11.8447C101.513 11.5518 101.987 11.5518 102.28 11.8447L104 13.5643L105.72 11.8447C106.013 11.5518 106.487 11.5518 106.78 11.8447C107.073 12.1376 107.073 12.6124 106.78 12.9053L105.061 14.625L106.78 16.3447C107.073 16.6376 107.073 17.1124 106.78 17.4053C106.487 17.6982 106.013 17.6982 105.72 17.4053L104 15.6857L102.28 17.4053C101.987 17.6982 101.513 17.6982 101.22 17.4053C100.927 17.1124 100.927 16.6376 101.22 16.3447L102.939 14.625L101.22 12.9053C100.927 12.6124 100.927 12.1376 101.22 11.8447Z" fill="white"/>
</svg>
