<svg width="116" height="24" viewBox="0 0 116 24" fill="none" xmlns="http://www.w3.org/2000/svg">
<path d="M1 17.75V11.182L9.81802 20H3.25C2.00736 20 1 18.9926 1 17.75Z" fill="white"/>
<path d="M13 10.25V16.818L4.18198 8H10.75C11.9926 8 13 9.00736 13 10.25Z" fill="white"/>
<path d="M19 8.75002C19 8.44668 18.8173 8.1732 18.537 8.05711C18.2568 7.94103 17.9342 8.00519 17.7197 8.21969L14.7197 11.2197C14.579 11.3603 14.5 11.5511 14.5 11.75V16.25C14.5 16.4489 14.579 16.6397 14.7197 16.7804L17.7197 19.7804C17.9342 19.9949 18.2568 20.059 18.537 19.9429C18.8173 19.8268 19 19.5534 19 19.25V8.75002Z" fill="white"/>
<path d="M2.28033 8.21967C1.98744 7.92678 1.51256 7.92678 1.21967 8.21967C0.926777 8.51256 0.926777 8.98744 1.21967 9.28033L11.7197 19.7803C12.0126 20.0732 12.4874 20.0732 12.7803 19.7803C13.0732 19.4874 13.0732 19.0126 12.7803 18.7197L2.28033 8.21967Z" fill="white"/>
<path d="M59.75 10.5L64.4697 5.78033C64.9421 5.30786 65.75 5.64248 65.75 6.31066V17.6893C65.75 18.3575 64.9421 18.6921 64.4697 18.2197L59.75 13.5M56 18.75H48.5C47.2574 18.75 46.25 17.7426 46.25 16.5V9M59.091 18.091L60.5 19.5M59.091 18.091C59.4982 17.6838 59.75 17.1213 59.75 16.5V7.5C59.75 6.25736 58.7426 5.25 57.5 5.25H48.5C47.8787 5.25 47.3162 5.50184 46.909 5.90901M59.091 18.091L46.909 5.90901M45.5 4.5L46.909 5.90901" stroke="white" stroke-width="1.5" stroke-linecap="round" stroke-linejoin="round"/>
<path d="M95.5303 2.46967C95.2374 2.17678 94.7626 2.17678 94.4697 2.46967C94.1768 2.76256 94.1768 3.23744 94.4697 3.53033L112.47 21.5303C112.763 21.8232 113.237 21.8232 113.53 21.5303C113.823 21.2374 113.823 20.7626 113.53 20.4697L95.5303 2.46967Z" fill="white"/>
<path d="M114.5 17.6893C114.5 18.1614 114.298 18.5502 113.996 18.814L109.25 14.068V7.93931L111.939 5.24996C112.884 4.30501 114.5 4.97427 114.5 6.31063V17.6893Z" fill="white"/>
<path d="M107.75 7.5V12.568L99.682 4.5H104.75C106.407 4.5 107.75 5.84315 107.75 7.5Z" fill="white"/>
<path d="M93.5 7.5C93.5 6.71787 93.7993 6.00564 94.2896 5.47161L107.136 18.3183C106.588 19.0366 105.723 19.5 104.75 19.5H96.5C94.8431 19.5 93.5 18.1569 93.5 16.5V7.5Z" fill="white"/>
</svg>
