<svg width="30" height="30" viewBox="0 0 30 30" fill="none" xmlns="http://www.w3.org/2000/svg">
<path d="M28.7568 24.9681C28.6564 25.1901 28.5775 25.4292 28.4555 25.6341C28.2187 26.0099 27.8815 26.2063 27.4941 26.2404C27.4152 26.2489 27.3363 26.2489 27.2502 26.2489C19.0856 26.2489 10.9281 26.2489 2.76349 26.2489C1.93842 26.2489 1.33576 25.6939 1.27119 24.823C1.22814 24.2423 1.26401 23.6531 1.26401 23.0469C1.37163 23.0383 1.4649 23.0298 1.55817 23.0298C10.5335 23.0298 19.5089 23.0298 28.4842 23.0298C28.5703 23.0298 28.6636 23.0469 28.7497 23.0554C28.7568 23.6873 28.7568 24.3277 28.7568 24.9681ZM12.3845 23.397C12.3845 23.619 12.3774 23.8154 12.3845 24.0032C12.4061 24.3533 12.5926 24.5753 12.8868 24.5753C14.3001 24.5839 15.7135 24.5839 17.1197 24.5753C17.4067 24.5753 17.5933 24.3704 17.622 24.0374C17.6363 23.8324 17.622 23.619 17.622 23.397C15.8785 23.397 14.1495 23.397 12.3845 23.397Z" fill="#333333"/>
<path d="M2.56259 22.416C2.56259 22.288 2.56259 22.1855 2.56259 22.083C2.56259 16.8401 2.56259 11.6058 2.56259 6.3629C2.56259 5.19307 3.05046 4.26233 3.86118 3.91224C4.09077 3.80977 4.34905 3.75854 4.59299 3.75854C11.5379 3.75 18.4829 3.75 25.4278 3.75C26.5758 3.75 27.4224 4.78321 27.4582 6.20066C27.4726 6.6703 27.4582 7.13994 27.4582 7.60958C27.4582 12.3999 27.4582 17.1988 27.4582 21.9891C27.4582 22.1257 27.4582 22.2623 27.4582 22.416C19.1573 22.416 10.8779 22.416 2.56259 22.416ZM25.435 20.0508C25.435 15.3885 25.435 10.769 25.435 6.14943C18.4685 6.14943 11.5308 6.14943 4.57864 6.14943C4.57864 10.7946 4.57864 15.4227 4.57864 20.0508C11.5451 20.0508 18.4829 20.0508 25.435 20.0508Z" fill="#333333"/>
</svg>
