<svg width="116" height="24" viewBox="0 0 116 24" fill="none" xmlns="http://www.w3.org/2000/svg">
<path d="M14.9156 6.4039C15.1067 6.77139 14.9637 7.22422 14.5962 7.41532L14 7.72533V20.9999C14 21.5522 13.5523 21.9999 13 21.9999H10.74C10.3258 21.9999 9.99 21.6641 9.99 21.2499V17.7499C9.99 17.3357 9.65421 16.9999 9.24 16.9999H6.75C6.33579 16.9999 6 17.3357 6 17.7499V21.2499C6 21.6641 5.66421 21.9999 5.25 21.9999H1.75C1.33579 21.9999 1 21.6641 1 21.2499C1 20.8357 1.33579 20.4999 1.75 20.4999H2V13.9572C1.65296 14.0803 1.25946 13.9319 1.08474 13.5959C0.893644 13.2284 1.03664 12.7756 1.40414 12.5845L2 12.2747V9.74991C2 9.33569 2.33579 8.99991 2.75 8.99991C3.16421 8.99991 3.5 9.33569 3.5 9.74991V11.4947L13.9041 6.0845C14.2716 5.8934 14.7245 6.0364 14.9156 6.4039Z" fill="white"/>
<path d="M15.8615 12.5691C16.0854 12.4332 16.3642 12.4239 16.5967 12.5448L18.596 13.5845C18.9635 13.7756 19.1065 14.2284 18.9154 14.5959C18.7407 14.9319 18.3473 15.0802 18.0003 14.9572V20.4999H18.25C18.6642 20.4999 19 20.8357 19 21.2499C19 21.6641 18.6642 21.9999 18.25 21.9999H16.25C16.0511 21.9999 15.8603 21.9209 15.7196 21.7802C15.579 21.6396 15.5 21.4488 15.5 21.2499L15.5006 13.2102C15.5007 12.9481 15.6375 12.7051 15.8615 12.5691Z" fill="white"/>
<path d="M52.25 21V16.125C52.25 15.5037 52.7537 15 53.375 15H55.625C56.2463 15 56.75 15.5037 56.75 16.125V21M56.75 21H61.25V3.54545M56.75 21H64.25V10.75M46.25 21H47.75M65.75 21H47.75M46.25 9L50.75 7.36364M62.75 3L61.25 3.54545M61.25 9.75L64.25 10.75M65.75 11.25L64.25 10.75M50.75 7.36364V3H47.75V21M50.75 7.36364L61.25 3.54545" stroke="white" stroke-width="1.5" stroke-linecap="round" stroke-linejoin="round"/>
<path d="M111.006 3.70481C111.395 3.56325 111.596 3.13293 111.455 2.74365C111.313 2.35438 110.883 2.15356 110.494 2.29511L98 6.83822V2.99996C98 2.58575 97.6642 2.24996 97.25 2.24996H95.75C95.3358 2.24996 95 2.58575 95 2.99996V7.92913L93.9935 8.29511C93.6043 8.43667 93.4034 8.86699 93.545 9.25627C93.6865 9.64554 94.1169 9.84636 94.5061 9.7048L111.006 3.70481Z" fill="white"/>
<path fill-rule="evenodd" clip-rule="evenodd" d="M95.019 11.1145L110 5.66684V9.08833L114.006 10.5451C114.395 10.6867 114.596 11.117 114.455 11.5063C114.313 11.8955 113.883 12.0964 113.494 11.9548L113 11.7753V20.25H113.75C114.164 20.25 114.5 20.5857 114.5 21C114.5 21.4142 114.164 21.75 113.75 21.75H94.25C93.8358 21.75 93.5 21.4142 93.5 21C93.5 20.5857 93.8358 20.25 94.25 20.25H95V11.1213L95.019 11.1145ZM110 20.25V10.6844L111.5 11.2298V20.25H110ZM101 14.25C100.586 14.25 100.25 14.5857 100.25 15V19.5C100.25 19.9142 100.586 20.25 101 20.25H104C104.414 20.25 104.75 19.9142 104.75 19.5V15C104.75 14.5857 104.414 14.25 104 14.25H101Z" fill="white"/>
</svg>
