<svg width="152" height="44" viewBox="0 0 152 44" fill="none" xmlns="http://www.w3.org/2000/svg">
<rect x="0.5" y="0.5" width="43" height="43" rx="5.5" fill="#1A1A1A"/>
<rect x="0.5" y="0.5" width="43" height="43" rx="5.5" stroke="#262626"/>
<g clip-path="url(#clip0_288_4892)">
<path d="M32 22C32 16.4771 27.5229 12 22 12C16.4771 12 12 16.4771 12 22C12 26.9912 15.6568 31.1283 20.4375 31.8785V24.8906H17.8984V22H20.4375V19.7969C20.4375 17.2906 21.9305 15.9062 24.2146 15.9062C25.3084 15.9062 26.4531 16.1016 26.4531 16.1016V18.5625H25.1922C23.95 18.5625 23.5625 19.3334 23.5625 20.125V22H26.3359L25.8926 24.8906H23.5625V31.8785C28.3432 31.1283 32 26.9912 32 22Z" fill="white"/>
</g>
<rect x="54.5" y="0.5" width="43" height="43" rx="5.5" fill="#1A1A1A"/>
<rect x="54.5" y="0.5" width="43" height="43" rx="5.5" stroke="#262626"/>
<g clip-path="url(#clip1_288_4892)">
<path d="M72.2918 30.125C79.8371 30.125 83.9652 23.8723 83.9652 18.4516C83.9652 18.2758 83.9613 18.0961 83.9535 17.9203C84.7566 17.3396 85.4496 16.6202 86 15.7961C85.2521 16.1288 84.458 16.3462 83.6449 16.4406C84.5011 15.9274 85.1421 15.1212 85.4492 14.1715C84.6438 14.6488 83.763 14.9855 82.8445 15.1672C82.2257 14.5096 81.4075 14.0743 80.5164 13.9284C79.6253 13.7825 78.711 13.9342 77.9148 14.3601C77.1186 14.786 76.4848 15.4623 76.1115 16.2844C75.7382 17.1066 75.6462 18.0288 75.8496 18.9086C74.2187 18.8267 72.6233 18.4031 71.1667 17.6651C69.71 16.9271 68.4247 15.8912 67.3941 14.6246C66.8703 15.5277 66.71 16.5964 66.9459 17.6134C67.1817 18.6304 67.7959 19.5195 68.6637 20.1C68.0122 20.0793 67.375 19.9039 66.8047 19.5883V19.6391C66.8041 20.5868 67.1317 21.5055 67.7319 22.239C68.3321 22.9725 69.1678 23.4755 70.0969 23.6625C69.4934 23.8276 68.86 23.8517 68.2457 23.7328C68.5079 24.5479 69.018 25.2607 69.7048 25.7719C70.3916 26.2831 71.2209 26.5672 72.077 26.5844C70.6237 27.7259 68.8285 28.3451 66.9805 28.3422C66.6527 28.3417 66.3253 28.3216 66 28.282C67.8774 29.4865 70.0613 30.1262 72.2918 30.125Z" fill="white"/>
</g>
<rect x="108.5" y="0.5" width="43" height="43" rx="5.5" fill="#1A1A1A"/>
<rect x="108.5" y="0.5" width="43" height="43" rx="5.5" stroke="#262626"/>
<g clip-path="url(#clip2_288_4892)">
<path d="M138.52 12H121.477C120.66 12 120 12.6445 120 13.4414V30.5547C120 31.3516 120.66 32 121.477 32H138.52C139.336 32 140 31.3516 140 30.5586V13.4414C140 12.6445 139.336 12 138.52 12ZM125.934 29.043H122.965V19.4961H125.934V29.043ZM124.449 18.1953C123.496 18.1953 122.727 17.4258 122.727 16.4766C122.727 15.5273 123.496 14.7578 124.449 14.7578C125.398 14.7578 126.168 15.5273 126.168 16.4766C126.168 17.4219 125.398 18.1953 124.449 18.1953ZM137.043 29.043H134.078V24.4023C134.078 23.2969 134.059 21.8711 132.535 21.8711C130.992 21.8711 130.758 23.0781 130.758 24.3242V29.043H127.797V19.4961H130.641V20.8008H130.68C131.074 20.0508 132.043 19.2578 133.484 19.2578C136.488 19.2578 137.043 21.2344 137.043 23.8047V29.043Z" fill="white"/>
</g>
<defs>
<clipPath id="clip0_288_4892">
<rect width="20" height="20" fill="white" transform="translate(12 12)"/>
</clipPath>
<clipPath id="clip1_288_4892">
<rect width="20" height="20" fill="white" transform="translate(66 12)"/>
</clipPath>
<clipPath id="clip2_288_4892">
<rect width="20" height="20" fill="white" transform="translate(120 12)"/>
</clipPath>
</defs>
</svg>
