<svg width="116" height="24" viewBox="0 0 116 24" fill="none" xmlns="http://www.w3.org/2000/svg">
<path fill-rule="evenodd" clip-rule="evenodd" d="M9.99998 6C10.4142 6 10.75 6.33579 10.75 6.75V7.00836C12.2309 7.0414 13.6881 7.17204 15.1153 7.39419C15.8921 7.51509 16.66 7.6631 17.4179 7.83721C17.8216 7.92994 18.0737 8.33239 17.9809 8.73608C17.8882 9.13978 17.4858 9.39187 17.0821 9.29913C16.7168 9.21521 16.349 9.13764 15.9789 9.06655L17.6814 16.6123C17.7565 16.9452 17.5974 17.2868 17.2943 17.4435C16.6063 17.7994 15.8255 18 15 18C14.1745 18 13.3936 17.7994 12.7057 17.4435C12.4026 17.2868 12.2435 16.9452 12.3186 16.6123L14.0895 8.76296C12.9932 8.62087 11.8791 8.53512 10.75 8.50875V20.0138C12.0445 20.0616 13.3082 20.2324 14.5295 20.5153C14.933 20.6087 15.1844 21.0116 15.091 21.4151C14.9975 21.8187 14.5946 22.07 14.1911 21.9766C12.8452 21.6649 11.4423 21.5 9.99998 21.5C8.55766 21.5 7.1548 21.6649 5.80887 21.9766C5.40533 22.07 5.00245 21.8187 4.909 21.4151C4.81555 21.0116 5.06693 20.6087 5.47046 20.5153C6.69177 20.2324 7.95547 20.0616 9.24998 20.0138V8.50875C8.1209 8.53512 7.00673 8.62087 5.91045 8.76296L7.68136 16.6123C7.75646 16.9452 7.5974 17.2868 7.29431 17.4435C6.60634 17.7994 5.82549 18 4.99998 18C4.17447 18 3.39363 17.7994 2.70566 17.4435C2.40257 17.2868 2.2435 16.9452 2.3186 16.6123L4.02102 9.06655C3.65096 9.13764 3.28321 9.21521 2.9179 9.29913C2.5142 9.39187 2.11176 9.13978 2.01902 8.73608C1.92628 8.33239 2.17837 7.92994 2.58207 7.83721C3.34 7.6631 4.10785 7.51509 4.88463 7.39419C6.31186 7.17204 7.76906 7.0414 9.24998 7.00836V6.75C9.24998 6.33579 9.58577 6 9.99998 6ZM4.99998 11.5431L3.91991 16.3304C4.25956 16.4404 4.62235 16.5 4.99998 16.5C5.37761 16.5 5.74041 16.4404 6.08006 16.3304L4.99998 11.5431ZM15 11.5431L13.9199 16.3304C14.2596 16.4404 14.6224 16.5 15 16.5C15.3776 16.5 15.7404 16.4404 16.0801 16.3304L15 11.5431Z" fill="white"/>
<path d="M56 3V20.25M56 20.25C54.528 20.25 53.1179 20.515 51.8148 21M56 20.25C57.472 20.25 58.8821 20.515 60.1852 21M62.75 4.97089C60.5446 4.66051 58.291 4.5 56 4.5C53.709 4.5 51.4554 4.66051 49.25 4.97089M62.75 4.97089C63.7604 5.1131 64.7608 5.28677 65.75 5.49087M62.75 4.97089L65.3704 15.6961C65.4922 16.1948 65.2642 16.7237 64.7811 16.8975C64.1468 17.1257 63.4629 17.25 62.75 17.25C62.0371 17.25 61.3532 17.1257 60.7189 16.8975C60.2358 16.7237 60.0078 16.1948 60.1296 15.6961L62.75 4.97089ZM46.25 5.49087C47.2392 5.28677 48.2396 5.1131 49.25 4.97089M49.25 4.97089L51.8704 15.6961C51.9922 16.1948 51.7642 16.7237 51.2811 16.8975C50.6468 17.1257 49.9629 17.25 49.25 17.25C48.5371 17.25 47.8532 17.1257 47.2189 16.8975C46.7358 16.7237 46.5078 16.1948 46.6296 15.6961L49.25 4.97089Z" stroke="white" stroke-width="1.5" stroke-linecap="round" stroke-linejoin="round"/>
<path fill-rule="evenodd" clip-rule="evenodd" d="M104 2.25C104.414 2.25 104.75 2.58579 104.75 3V3.75565C106.818 3.78685 108.856 3.94691 110.855 4.22821C111.881 4.37264 112.897 4.54903 113.902 4.75635C114.278 4.83409 114.535 5.18431 114.496 5.56704C114.457 5.94977 114.135 6.24087 113.75 6.24087H111.832L114.306 16.3654C114.387 16.6979 114.233 17.0431 113.931 17.2046C112.983 17.7124 111.899 18 110.75 18C109.601 18 108.517 17.7124 107.569 17.2046C107.267 17.0431 107.113 16.6979 107.194 16.3654L109.668 6.24087H104.75V19.5217C106.042 19.5968 107.284 19.8645 108.447 20.2971C108.787 20.4237 108.987 20.7757 108.923 21.1329C108.859 21.4901 108.548 21.75 108.185 21.75H99.8146C99.4517 21.75 99.1408 21.4901 99.0765 21.1329C99.0122 20.7757 99.2129 20.4237 99.5531 20.2971C100.715 19.8645 101.957 19.5967 103.25 19.5217V6.24087H98.3324L100.806 16.3654C100.887 16.6979 100.733 17.0431 100.431 17.2046C99.4827 17.7124 98.3988 18 97.25 18C96.1012 18 95.0174 17.7124 94.0688 17.2046C93.767 17.0431 93.6129 16.6979 93.6941 16.3654L96.1677 6.24087H94.25C93.8653 6.24087 93.543 5.94977 93.5039 5.56704C93.4648 5.18431 93.7217 4.83409 94.0985 4.75635C95.1032 4.54903 96.1193 4.37264 97.1455 4.22821C99.1443 3.94691 101.182 3.78686 103.25 3.75565V3C103.25 2.58579 103.586 2.25 104 2.25ZM108.878 15.7934L110.75 8.13096L112.622 15.7934H108.878ZM99.1221 15.7934L97.25 8.13096L95.378 15.7934H99.1221Z" fill="white"/>
</svg>
