<svg width="116" height="24" viewBox="0 0 116 24" fill="none" xmlns="http://www.w3.org/2000/svg">
<path fill-rule="evenodd" clip-rule="evenodd" d="M3.75 7C2.7835 7 2 7.7835 2 8.75V19.25C2 20.2165 2.7835 21 3.75 21H16.25C17.2165 21 18 20.2165 18 19.25V10.75C18 9.7835 17.2165 9 16.25 9H11.4142C11.3479 9 11.2843 8.97366 11.2374 8.92678L9.82322 7.51256C9.49503 7.18437 9.04992 7 8.58579 7H3.75ZM10 12C10.4142 12 10.75 12.3358 10.75 12.75V14.25H12.25C12.6642 14.25 13 14.5858 13 15C13 15.4142 12.6642 15.75 12.25 15.75H10.75V17.25C10.75 17.6642 10.4142 18 10 18C9.58579 18 9.25 17.6642 9.25 17.25V15.75H7.75C7.33579 15.75 7 15.4142 7 15C7 14.5858 7.33579 14.25 7.75 14.25H9.25V12.75C9.25 12.3358 9.58579 12 10 12Z" fill="white"/>
<path d="M56 10.5V16.5M59 13.5H53M57.0607 6.31066L54.9393 4.18934C54.658 3.90804 54.2765 3.75 53.8787 3.75H48.5C47.2574 3.75 46.25 4.75736 46.25 6V18C46.25 19.2426 47.2574 20.25 48.5 20.25H63.5C64.7426 20.25 65.75 19.2426 65.75 18V9C65.75 7.75736 64.7426 6.75 63.5 6.75H58.1213C57.7235 6.75 57.342 6.59197 57.0607 6.31066Z" stroke="white" stroke-width="1.5" stroke-linecap="round" stroke-linejoin="round"/>
<path fill-rule="evenodd" clip-rule="evenodd" d="M111.5 21C113.157 21 114.5 19.6569 114.5 18V9C114.5 7.34315 113.157 6 111.5 6H106.121C105.922 6 105.732 5.92098 105.591 5.78033L103.47 3.65901C103.048 3.23705 102.475 3 101.879 3H96.5C94.8431 3 93.5 4.34315 93.5 6V18C93.5 19.6569 94.8431 21 96.5 21H111.5ZM104.75 10.5C104.75 10.0858 104.414 9.75 104 9.75C103.586 9.75 103.25 10.0858 103.25 10.5V12.75H101C100.586 12.75 100.25 13.0858 100.25 13.5C100.25 13.9142 100.586 14.25 101 14.25H103.25V16.5C103.25 16.9142 103.586 17.25 104 17.25C104.414 17.25 104.75 16.9142 104.75 16.5V14.25H107C107.414 14.25 107.75 13.9142 107.75 13.5C107.75 13.0858 107.414 12.75 107 12.75H104.75V10.5Z" fill="white"/>
</svg>
