<svg width="116" height="24" viewBox="0 0 116 24" fill="none" xmlns="http://www.w3.org/2000/svg">
<path fill-rule="evenodd" clip-rule="evenodd" d="M3 7.5C3 6.67157 3.67157 6 4.5 6H11.3787C11.7765 6 12.158 6.15804 12.4393 6.43934L16.5607 10.5607C16.842 10.842 17 11.2235 17 11.6213V20.5C17 21.3284 16.3284 22 15.5 22H4.5C3.67157 22 3 21.3284 3 20.5V7.5ZM13.8566 13.1911C14.1002 12.8561 14.0261 12.3871 13.6911 12.1434C13.3561 11.8998 12.8871 11.9739 12.6434 12.3089L9.15969 17.099L7.28033 15.2197C6.98744 14.9268 6.51256 14.9268 6.21967 15.2197C5.92678 15.5126 5.92678 15.9874 6.21967 16.2803L8.71967 18.7803C8.87477 18.9354 9.08999 19.0149 9.30867 18.9977C9.52734 18.9805 9.72754 18.8685 9.85655 18.6911L13.8566 13.1911Z" fill="white"/>
<path d="M54.125 2.25H49.625C49.0037 2.25 48.5 2.75368 48.5 3.375V20.625C48.5 21.2463 49.0037 21.75 49.625 21.75H62.375C62.9963 21.75 63.5 21.2463 63.5 20.625V11.625M54.125 2.25H54.5C59.4706 2.25 63.5 6.27944 63.5 11.25V11.625M54.125 2.25C55.989 2.25 57.5 3.76104 57.5 5.625V7.125C57.5 7.74632 58.0037 8.25 58.625 8.25H60.125C61.989 8.25 63.5 9.76104 63.5 11.625M53 15L55.25 17.25L59 12" stroke="white" stroke-width="1.5" stroke-linecap="round" stroke-linejoin="round"/>
<path fill-rule="evenodd" clip-rule="evenodd" d="M101 1.5H97.625C96.5895 1.5 95.75 2.33947 95.75 3.375V20.625C95.75 21.6605 96.5895 22.5 97.625 22.5H110.375C111.411 22.5 112.25 21.6605 112.25 20.625V12.75C112.25 10.6789 110.571 9 108.5 9H106.625C105.589 9 104.75 8.16053 104.75 7.125V5.25C104.75 3.17893 103.071 1.5 101 1.5ZM107.61 12.4359C107.851 12.0989 107.773 11.6305 107.436 11.3897C107.099 11.1489 106.63 11.227 106.39 11.5641L103.154 16.0936L101.53 14.4697C101.237 14.1768 100.763 14.1768 100.47 14.4697C100.177 14.7626 100.177 15.2374 100.47 15.5303L102.72 17.7803C102.876 17.9362 103.092 18.0156 103.312 17.9974C103.532 17.9793 103.732 17.8653 103.86 17.6859L107.61 12.4359Z" fill="white"/>
<path d="M104.971 1.8159C105.768 2.73648 106.25 3.93695 106.25 5.25V7.125C106.25 7.33211 106.418 7.5 106.625 7.5H108.5C109.813 7.5 111.014 7.98204 111.934 8.77881C111.046 5.37988 108.37 2.70377 104.971 1.8159Z" fill="white"/>
</svg>
