<svg width="116" height="24" viewBox="0 0 116 24" fill="none" xmlns="http://www.w3.org/2000/svg">
<path fill-rule="evenodd" clip-rule="evenodd" d="M2 8.75C2 7.7835 2.7835 7 3.75 7H8.58579C9.04992 7 9.49503 7.18437 9.82322 7.51256L11.2374 8.92678C11.2843 8.97366 11.3479 9 11.4142 9H16.25C17.2165 9 18 9.7835 18 10.75V19.25C18 20.2165 17.2165 21 16.25 21H3.75C2.7835 21 2 20.2165 2 19.25V8.75ZM10.75 12.75C10.75 12.3358 10.4142 12 10 12C9.58579 12 9.25 12.3358 9.25 12.75V15.2955L8.30747 14.2483C8.03038 13.9404 7.55616 13.9154 7.24828 14.1925C6.94039 14.4696 6.91544 14.9438 7.19253 15.2517L9.44253 17.7517C9.58476 17.9098 9.78738 18 10 18C10.2126 18 10.4152 17.9098 10.5575 17.7517L12.8075 15.2517C13.0846 14.9438 13.0596 14.4696 12.7517 14.1925C12.4438 13.9154 11.9696 13.9404 11.6925 14.2483L10.75 15.2955V12.75Z" fill="white"/>
<path d="M53 13.5L56 16.5M56 16.5L59 13.5M56 16.5L56 10.5M57.0607 6.31066L54.9393 4.18934C54.658 3.90804 54.2765 3.75 53.8787 3.75H48.5C47.2574 3.75 46.25 4.75736 46.25 6V18C46.25 19.2426 47.2574 20.25 48.5 20.25H63.5C64.7426 20.25 65.75 19.2426 65.75 18V9C65.75 7.75736 64.7426 6.75 63.5 6.75H58.1213C57.7235 6.75 57.342 6.59197 57.0607 6.31066Z" stroke="white" stroke-width="1.5" stroke-linecap="round" stroke-linejoin="round"/>
<path fill-rule="evenodd" clip-rule="evenodd" d="M111.5 21C113.157 21 114.5 19.6569 114.5 18V9C114.5 7.34315 113.157 6 111.5 6H106.121C105.922 6 105.732 5.92098 105.591 5.78033L103.47 3.65901C103.048 3.23705 102.475 3 101.879 3H96.5C94.8431 3 93.5 4.34315 93.5 6V18C93.5 19.6569 94.8431 21 96.5 21H111.5ZM104.75 10.5C104.75 10.0858 104.414 9.75 104 9.75C103.586 9.75 103.25 10.0858 103.25 10.5L103.25 14.6893L101.53 12.9697C101.237 12.6768 100.763 12.6768 100.47 12.9697C100.177 13.2626 100.177 13.7374 100.47 14.0303L103.47 17.0303C103.61 17.171 103.801 17.25 104 17.25C104.199 17.25 104.39 17.171 104.53 17.0303L107.53 14.0303C107.823 13.7374 107.823 13.2626 107.53 12.9697C107.237 12.6768 106.763 12.6768 106.47 12.9697L104.75 14.6893L104.75 10.5Z" fill="white"/>
</svg>
