<svg width="116" height="24" viewBox="0 0 116 24" fill="none" xmlns="http://www.w3.org/2000/svg">
<path fill-rule="evenodd" clip-rule="evenodd" d="M2.23214 16.2075C2.53177 15.9215 3.00651 15.9325 3.29252 16.2321L7.25 20.3781V10.375C7.25 7.40647 9.65647 5 12.625 5C15.5935 5 18 7.40647 18 10.375V13.25C18 13.6642 17.6642 14 17.25 14C16.8358 14 16.5 13.6642 16.5 13.25V10.375C16.5 8.2349 14.7651 6.5 12.625 6.5C10.4849 6.5 8.75 8.2349 8.75 10.375V20.3781L12.7075 16.2321C12.9935 15.9325 13.4682 15.9215 13.7679 16.2075C14.0675 16.4935 14.0785 16.9682 13.7925 17.2679L8.54252 22.7679C8.401 22.9161 8.20496 23 8 23C7.79504 23 7.59901 22.9161 7.45748 22.7679L2.20748 17.2679C1.92148 16.9682 1.93252 16.4935 2.23214 16.2075Z" fill="white"/>
<path d="M59 15L53 21M53 21L47 15M53 21V9C53 5.68629 55.6863 3 59 3C62.3137 3 65 5.68629 65 9V12" stroke="white" stroke-width="1.5" stroke-linecap="round" stroke-linejoin="round"/>
<path fill-rule="evenodd" clip-rule="evenodd" d="M107 3.75C104.101 3.75 101.75 6.10051 101.75 9L101.75 19.1893L106.47 14.4697C106.763 14.1768 107.237 14.1768 107.53 14.4697C107.823 14.7626 107.823 15.2374 107.53 15.5303L101.53 21.5303C101.39 21.671 101.199 21.75 101 21.75C100.801 21.75 100.61 21.671 100.47 21.5303L94.4697 15.5303C94.1768 15.2374 94.1768 14.7626 94.4697 14.4697C94.7626 14.1768 95.2374 14.1768 95.5303 14.4697L100.25 19.1893V9C100.25 5.27208 103.272 2.25 107 2.25C110.728 2.25 113.75 5.27208 113.75 9V12C113.75 12.4142 113.414 12.75 113 12.75C112.586 12.75 112.25 12.4142 112.25 12V9C112.25 6.10051 109.899 3.75 107 3.75Z" fill="white"/>
</svg>
