<svg width="116" height="24" viewBox="0 0 116 24" fill="none" xmlns="http://www.w3.org/2000/svg">
<path fill-rule="evenodd" clip-rule="evenodd" d="M12.2075 6.23214C11.9215 6.53177 11.9325 7.00651 12.2321 7.29252L16.3781 11.25H6.375C3.40647 11.25 1 13.6565 1 16.625C1 19.5935 3.40647 22 6.375 22H9.25C9.66421 22 10 21.6642 10 21.25C10 20.8358 9.66421 20.5 9.25 20.5H6.375C4.2349 20.5 2.5 18.7651 2.5 16.625C2.5 14.4849 4.2349 12.75 6.375 12.75H16.3781L12.2321 16.7075C11.9325 16.9935 11.9215 17.4682 12.2075 17.7679C12.4935 18.0675 12.9682 18.0785 13.2679 17.7925L18.7679 12.5425C18.9161 12.401 19 12.205 19 12C19 11.795 18.9161 11.599 18.7679 11.4575L13.2679 6.20748C12.9682 5.92148 12.4935 5.93252 12.2075 6.23214Z" fill="white"/>
<path d="M59 15L65 9M65 9L59 3M65 9H53C49.6863 9 47 11.6863 47 15C47 18.3137 49.6863 21 53 21H56" stroke="white" stroke-width="1.5" stroke-linecap="round" stroke-linejoin="round"/>
<path fill-rule="evenodd" clip-rule="evenodd" d="M106.47 2.46967C106.763 2.17678 107.237 2.17678 107.53 2.46967L113.53 8.46967C113.823 8.76256 113.823 9.23744 113.53 9.53033L107.53 15.5303C107.237 15.8232 106.763 15.8232 106.47 15.5303C106.177 15.2374 106.177 14.7626 106.47 14.4697L111.189 9.75H101C98.1005 9.75 95.75 12.1005 95.75 15C95.75 17.8995 98.1005 20.25 101 20.25H104C104.414 20.25 104.75 20.5858 104.75 21C104.75 21.4142 104.414 21.75 104 21.75H101C97.2721 21.75 94.25 18.7279 94.25 15C94.25 11.2721 97.2721 8.25 101 8.25H111.189L106.47 3.53033C106.177 3.23744 106.177 2.76256 106.47 2.46967Z" fill="white"/>
</svg>
