<svg width="116" height="24" viewBox="0 0 116 24" fill="none" xmlns="http://www.w3.org/2000/svg">
<path fill-rule="evenodd" clip-rule="evenodd" d="M5.21967 18.7803C5.51256 19.0732 5.98744 19.0732 6.28033 18.7803L13.5 11.5607V17.25C13.5 17.6642 13.8358 18 14.25 18C14.6642 18 15 17.6642 15 17.25V9.75C15 9.33579 14.6642 9 14.25 9H6.75C6.33579 9 6 9.33579 6 9.75C6 10.1642 6.33579 10.5 6.75 10.5H12.4393L5.21967 17.7197C4.92678 18.0126 4.92678 18.4874 5.21967 18.7803Z" fill="white"/>
<path d="M48.5 19.5L63.5 4.5M63.5 4.5L52.25 4.5M63.5 4.5V15.75" stroke="white" stroke-width="1.5" stroke-linecap="round" stroke-linejoin="round"/>
<path fill-rule="evenodd" clip-rule="evenodd" d="M100.25 3.75L111.5 3.75C111.699 3.75 111.89 3.82902 112.03 3.96967C112.171 4.11032 112.25 4.30109 112.25 4.5V15.75C112.25 16.1642 111.914 16.5 111.5 16.5C111.086 16.5 110.75 16.1642 110.75 15.75V6.31066L97.0303 20.0303C96.7374 20.3232 96.2626 20.3232 95.9697 20.0303C95.6768 19.7374 95.6768 19.2626 95.9697 18.9697L109.689 5.25L100.25 5.25C99.8358 5.25 99.5 4.91421 99.5 4.5C99.5 4.08579 99.8358 3.75 100.25 3.75Z" fill="white"/>
</svg>
