<svg width="116" height="24" viewBox="0 0 116 24" fill="none" xmlns="http://www.w3.org/2000/svg">
<path d="M4.23017 17.7094C3.93159 17.9965 3.92228 18.4713 4.20938 18.7698C4.49647 19.0684 4.97125 19.0777 5.26983 18.7906L9.76983 14.5406C9.91689 14.3992 10 14.204 10 14C10 13.796 9.91689 13.6008 9.76983 13.4594L5.26983 9.20938C4.97125 8.92228 4.49647 8.93159 4.20938 9.23017C3.92228 9.52875 3.93159 10.0035 4.23017 10.2906L8.16792 14L4.23017 17.7094Z" fill="white"/>
<path d="M10.2302 17.7094C9.93159 17.9965 9.92228 18.4713 10.2094 18.7698C10.4965 19.0684 10.9713 19.0777 11.2698 18.7906L15.7698 14.5406C15.9169 14.3992 16 14.204 16 14C16 13.796 15.9169 13.6008 15.7698 13.4594L11.2698 9.20938C10.9713 8.92228 10.4965 8.93159 10.2094 9.23017C9.92228 9.52875 9.93159 10.0035 10.2302 10.2906L14.1679 14L10.2302 17.7094Z" fill="white"/>
<path d="M55.25 4.5L62.75 12L55.25 19.5M49.25 4.5L56.75 12L49.25 19.5" stroke="white" stroke-width="1.5" stroke-linecap="round" stroke-linejoin="round"/>
<path fill-rule="evenodd" clip-rule="evenodd" d="M96.7197 3.96967C97.0126 3.67678 97.4874 3.67678 97.7803 3.96967L105.28 11.4697C105.573 11.7626 105.573 12.2374 105.28 12.5303L97.7803 20.0303C97.4874 20.3232 97.0126 20.3232 96.7197 20.0303C96.4268 19.7374 96.4268 19.2626 96.7197 18.9697L103.689 12L96.7197 5.03033C96.4268 4.73744 96.4268 4.26256 96.7197 3.96967ZM102.72 3.96967C103.013 3.67678 103.487 3.67678 103.78 3.96967L111.28 11.4697C111.573 11.7626 111.573 12.2374 111.28 12.5303L103.78 20.0303C103.487 20.3232 103.013 20.3232 102.72 20.0303C102.427 19.7374 102.427 19.2626 102.72 18.9697L109.689 12L102.72 5.03033C102.427 4.73744 102.427 4.26256 102.72 3.96967Z" fill="white"/>
</svg>
