<svg width="116" height="24" viewBox="0 0 116 24" fill="none" xmlns="http://www.w3.org/2000/svg">
<path fill-rule="evenodd" clip-rule="evenodd" d="M9.67411 6.07459C9.88011 5.97514 10.1202 5.97514 10.3262 6.07459L17.5762 9.57459C17.9493 9.75467 18.1057 10.203 17.9256 10.5761C17.7576 10.924 17.3561 11.0835 17.0002 10.9572V20.5H17.2502C17.6644 20.5 18.0002 20.8358 18.0002 21.25C18.0002 21.6642 17.6644 22 17.2502 22H2.75017C2.33596 22 2.00017 21.6642 2.00017 21.25C2.00017 20.8358 2.33596 20.5 2.75017 20.5H3.00017V10.9572C2.6442 11.0835 2.24274 10.924 2.07476 10.5761C1.89468 10.203 2.05109 9.75467 2.42411 9.57459L9.67411 6.07459ZM11 10C11 10.5523 10.5523 11 10 11C9.44772 11 9 10.5523 9 10C9 9.44772 9.44772 9 10 9C10.5523 9 11 9.44772 11 10ZM7.5 13.75C7.5 13.3358 7.16421 13 6.75 13C6.33579 13 6 13.3358 6 13.75V19.25C6 19.6642 6.33579 20 6.75 20C7.16421 20 7.5 19.6642 7.5 19.25V13.75ZM10.75 13.75C10.75 13.3358 10.4142 13 10 13C9.58579 13 9.25 13.3358 9.25 13.75V19.25C9.25 19.6642 9.58579 20 10 20C10.4142 20 10.75 19.6642 10.75 19.25V13.75ZM14 13.75C14 13.3358 13.6642 13 13.25 13C12.8358 13 12.5 13.3358 12.5 13.75V19.25C12.5 19.6642 12.8358 20 13.25 20C13.6642 20 14 19.6642 14 19.25V13.75Z" fill="white"/>
<path d="M56 21V12.75M59.75 21V12.75M52.25 21V12.75M47 9L56 3L65 9M63.5 21V10.3325C61.0563 9.94906 58.5514 9.75 56 9.75C53.4486 9.75 50.9437 9.94906 48.5 10.3325V21M47 21H65M56 6.75H56.0075V6.7575H56V6.75Z" stroke="white" stroke-width="1.5" stroke-linecap="round" stroke-linejoin="round"/>
<path d="M103.584 2.37596C103.836 2.20801 104.164 2.20801 104.416 2.37596L113.416 8.37596C113.761 8.60573 113.854 9.07138 113.624 9.41603C113.394 9.76067 112.929 9.8538 112.584 9.62404L104 3.90139L95.4161 9.62404C95.0715 9.8538 94.6058 9.76067 94.376 9.41603C94.1463 9.07138 94.2394 8.60573 94.5841 8.37596L103.584 2.37596Z" fill="white"/>
<path fill-rule="evenodd" clip-rule="evenodd" d="M112.25 10.3325V20.25H113C113.414 20.25 113.75 20.5858 113.75 21C113.75 21.4142 113.414 21.75 113 21.75H95C94.5858 21.75 94.25 21.4142 94.25 21C94.25 20.5858 94.5858 20.25 95 20.25H95.75V10.3325C95.75 9.96317 96.0189 9.64882 96.3837 9.59157C98.8658 9.20211 101.41 9 104 9C106.59 9 109.134 9.20211 111.616 9.59157C111.981 9.64882 112.25 9.96317 112.25 10.3325ZM104.75 12.75C104.75 12.3358 104.414 12 104 12C103.586 12 103.25 12.3358 103.25 12.75V19.5C103.25 19.9142 103.586 20.25 104 20.25C104.414 20.25 104.75 19.9142 104.75 19.5V12.75ZM107.75 12C108.164 12 108.5 12.3358 108.5 12.75V19.5C108.5 19.9142 108.164 20.25 107.75 20.25C107.336 20.25 107 19.9142 107 19.5V12.75C107 12.3358 107.336 12 107.75 12ZM101 12.75C101 12.3358 100.664 12 100.25 12C99.8358 12 99.5 12.3358 99.5 12.75V19.5C99.5 19.9142 99.8358 20.25 100.25 20.25C100.664 20.25 101 19.9142 101 19.5V12.75Z" fill="white"/>
<path d="M104 7.875C104.621 7.875 105.125 7.37132 105.125 6.75C105.125 6.12868 104.621 5.625 104 5.625C103.379 5.625 102.875 6.12868 102.875 6.75C102.875 7.37132 103.379 7.875 104 7.875Z" fill="white"/>
</svg>
