<svg width="116" height="24" viewBox="0 0 116 24" fill="none" xmlns="http://www.w3.org/2000/svg">
<path d="M9.54747 7.06153C9.82215 7.18021 10 7.4508 10 7.75002V20.25C10 20.5492 9.82215 20.8198 9.54747 20.9385C9.2728 21.0572 8.95387 21.0012 8.73598 20.7962L4.70257 17H3.16724C2.85725 17 2.5792 16.8093 2.46756 16.5201C2.16534 15.7372 2 14.887 2 14C2 13.113 2.16534 12.2629 2.46756 11.4799C2.5792 11.1907 2.85725 11 3.16724 11H4.70257L8.73598 7.20387C8.95387 6.99879 9.2728 6.94286 9.54747 7.06153Z" fill="white"/>
<path d="M13.2803 11.2197C12.9874 10.9268 12.5126 10.9268 12.2197 11.2197C11.9268 11.5126 11.9268 11.9875 12.2197 12.2804L13.9393 14L12.2197 15.7197C11.9268 16.0126 11.9268 16.4875 12.2197 16.7804C12.5126 17.0733 12.9874 17.0733 13.2803 16.7804L15 15.0607L16.7197 16.7804C17.0126 17.0733 17.4874 17.0733 17.7803 16.7804C18.0732 16.4875 18.0732 16.0126 17.7803 15.7197L16.0607 14L17.7803 12.2804C18.0732 11.9875 18.0732 11.5126 17.7803 11.2197C17.4874 10.9268 17.0126 10.9268 16.7197 11.2197L15 12.9394L13.2803 11.2197Z" fill="white"/>
<path d="M61.25 9.74999L63.5 12M63.5 12L65.75 14.25M63.5 12L65.75 9.74999M63.5 12L61.25 14.25M50.75 8.24999L55.4697 3.53032C55.9421 3.05784 56.75 3.39247 56.75 4.06065V19.9393C56.75 20.6075 55.9421 20.9421 55.4697 20.4697L50.75 15.75H48.5091C47.6297 15.75 46.8059 15.2435 46.5724 14.3957C46.3622 13.6329 46.25 12.8296 46.25 12C46.25 11.1704 46.3622 10.367 46.5724 9.60423C46.8059 8.75646 47.6297 8.24999 48.5091 8.24999H50.75Z" stroke="white" stroke-width="1.5" stroke-linecap="round" stroke-linejoin="round"/>
<path d="M105.5 4.06069C105.5 2.72433 103.884 2.05508 102.939 3.00003L98.4393 7.50003H96.5091C95.3677 7.50003 94.1911 8.16447 93.8493 9.40508C93.6215 10.2322 93.5 11.1025 93.5 12C93.5 12.8975 93.6215 13.7679 93.8493 14.595C94.1911 15.8356 95.3677 16.5 96.5091 16.5H98.4393L102.939 21C103.884 21.945 105.5 21.2757 105.5 19.9394V4.06069Z" fill="white"/>
<path d="M109.78 9.21969C109.487 8.92679 109.013 8.92679 108.72 9.21969C108.427 9.51258 108.427 9.98745 108.72 10.2803L110.439 12L108.72 13.7197C108.427 14.0126 108.427 14.4875 108.72 14.7803C109.013 15.0732 109.487 15.0732 109.78 14.7803L111.5 13.0607L113.22 14.7803C113.513 15.0732 113.987 15.0732 114.28 14.7803C114.573 14.4875 114.573 14.0126 114.28 13.7197L112.561 12L114.28 10.2803C114.573 9.98745 114.573 9.51258 114.28 9.21969C113.987 8.92679 113.513 8.92679 113.22 9.21969L111.5 10.9394L109.78 9.21969Z" fill="white"/>
</svg>
