<svg width="116" height="24" viewBox="0 0 116 24" fill="none" xmlns="http://www.w3.org/2000/svg">
<path fill-rule="evenodd" clip-rule="evenodd" d="M13.2004 6.23966C12.9186 6.5432 12.9361 7.01775 13.2397 7.2996L15.3401 9.25L6.75 9.25C6.33579 9.25 6 9.58579 6 10C6 10.4142 6.33579 10.75 6.75 10.75L15.3401 10.75L13.2397 12.7004C12.9361 12.9823 12.9186 13.4568 13.2004 13.7603C13.4823 14.0639 13.9568 14.0815 14.2603 13.7996L17.7603 10.5496C17.9132 10.4077 18 10.2086 18 10C18 9.79145 17.9132 9.59232 17.7603 9.45041L14.2603 6.20041C13.9568 5.91856 13.4823 5.93613 13.2004 6.23966ZM6.79959 14.2397C6.51774 13.9361 6.04319 13.9186 5.73966 14.2004L2.23966 17.4504C2.08684 17.5923 2 17.7915 2 18C2 18.2086 2.08684 18.4077 2.23966 18.5496L5.73966 21.7996C6.04319 22.0815 6.51774 22.0639 6.79959 21.7603C7.08145 21.4568 7.06387 20.9823 6.76034 20.7004L4.6599 18.75H13.25C13.6642 18.75 14 18.4142 14 18C14 17.5858 13.6642 17.25 13.25 17.25H4.6599L6.76034 15.2996C7.06387 15.0177 7.08145 14.5432 6.79959 14.2397Z" fill="white"/>
<path d="M51.5 21L47 16.5M47 16.5L51.5 12M47 16.5H60.5M60.5 3L65 7.5M65 7.5L60.5 12M65 7.5L51.5 7.5" stroke="white" stroke-width="1.5" stroke-linecap="round" stroke-linejoin="round"/>
<path fill-rule="evenodd" clip-rule="evenodd" d="M107.97 2.46967C108.263 2.17678 108.737 2.17678 109.03 2.46967L113.53 6.96967C113.671 7.11032 113.75 7.30109 113.75 7.5C113.75 7.69891 113.671 7.88968 113.53 8.03033L109.03 12.5303C108.737 12.8232 108.263 12.8232 107.97 12.5303C107.677 12.2374 107.677 11.7626 107.97 11.4697L111.189 8.25L99.5 8.25C99.0858 8.25 98.75 7.91421 98.75 7.5C98.75 7.08579 99.0858 6.75 99.5 6.75L111.189 6.75L107.97 3.53033C107.677 3.23744 107.677 2.76256 107.97 2.46967ZM100.03 11.4697C100.323 11.7626 100.323 12.2374 100.03 12.5303L96.8107 15.75H108.5C108.914 15.75 109.25 16.0858 109.25 16.5C109.25 16.9142 108.914 17.25 108.5 17.25H96.8107L100.03 20.4697C100.323 20.7626 100.323 21.2374 100.03 21.5303C99.7374 21.8232 99.2626 21.8232 98.9697 21.5303L94.4697 17.0303C94.1768 16.7374 94.1768 16.2626 94.4697 15.9697L98.9697 11.4697C99.2626 11.1768 99.7374 11.1768 100.03 11.4697Z" fill="white"/>
</svg>
