<svg width="116" height="24" viewBox="0 0 116 24" fill="none" xmlns="http://www.w3.org/2000/svg">
<path fill-rule="evenodd" clip-rule="evenodd" d="M1.04461 10.9538C1.08721 10.7201 1.16003 10.4923 1.26175 10.2761L2.53096 7.57906C2.98454 6.6152 3.95396 6 5.01921 6H14.9808C16.046 6 17.0155 6.6152 17.469 7.57906L18.7383 10.2761C18.84 10.4923 18.9128 10.7201 18.9554 10.9538C18.9844 11.0474 19 11.1469 19 11.25V12.75C19 14.2688 17.7688 15.5 16.25 15.5H3.75C2.23122 15.5 1 14.2688 1 12.75V11.25C1 11.1469 1.01562 11.0474 1.04461 10.9538ZM3.88819 8.21775C4.09436 7.77964 4.53501 7.5 5.01921 7.5H14.9808C15.465 7.5 15.9056 7.77964 16.1118 8.21775L17.0682 10.25H14C13.6471 10.25 13.3203 10.436 13.1401 10.7395L12.5339 11.7605C12.3537 12.064 12.0269 12.25 11.674 12.25H8.23607C7.8573 12.25 7.51103 12.036 7.34164 11.6972L6.89443 10.8028C6.72504 10.464 6.37877 10.25 6 10.25H2.93184L3.88819 8.21775Z" fill="white"/>
<path d="M1 18C1 17.4477 1.44772 17 2 17H6C6.37877 17 6.72504 17.214 6.89443 17.5528L7.34164 18.4472C7.51103 18.786 7.8573 19 8.23607 19H11.674C12.0269 19 12.3537 18.814 12.5339 18.5105L13.1401 17.4895C13.3203 17.186 13.6471 17 14 17H18C18.5523 17 19 17.4477 19 18V20C19 21.1046 18.1046 22 17 22H3C1.89543 22 1 21.1046 1 20V18Z" fill="white"/>
<path d="M51.875 14.25L53.0891 16.1925C53.5002 16.8504 54.2213 17.25 54.9971 17.25H57.0029C57.7787 17.25 58.4998 16.8504 58.9109 16.1925L60.125 14.25M46.4096 9H51.0458C51.7981 9 52.5007 9.37598 52.9179 10.0019L53.0821 10.2481C53.4993 10.874 54.2019 11.25 54.9542 11.25H57.0458C57.7981 11.25 58.5007 10.874 58.9179 10.2481L59.0821 10.0019C59.4993 9.37598 60.2019 9 60.9542 9H65.5904M46.4096 9C46.305 9.2628 46.25 9.54503 46.25 9.83233V12C46.25 13.2426 47.2574 14.25 48.5 14.25H63.5C64.7426 14.25 65.75 13.2426 65.75 12V9.83233C65.75 9.54503 65.695 9.2628 65.5904 9M46.4096 9C46.5006 8.77151 46.6291 8.55771 46.7917 8.36805L50.0765 4.53572C50.504 4.03702 51.128 3.75 51.7849 3.75H60.2151C60.872 3.75 61.496 4.03702 61.9235 4.53572L65.2083 8.36805C65.3709 8.55771 65.4994 8.77151 65.5904 9M48.5 20.25H63.5C64.7426 20.25 65.75 19.2426 65.75 18V15.375C65.75 14.7537 65.2463 14.25 64.625 14.25H47.375C46.7537 14.25 46.25 14.7537 46.25 15.375V18C46.25 19.2426 47.2574 20.25 48.5 20.25Z" stroke="white" stroke-width="1.5" stroke-linecap="round" stroke-linejoin="round"/>
<path fill-rule="evenodd" clip-rule="evenodd" d="M93.5 9.83233V11.625C93.5 12.6605 94.3395 13.5 95.375 13.5H112.625C113.661 13.5 114.5 12.6605 114.5 11.625V9.83233C114.5 9.11619 114.244 8.42368 113.778 7.87995L110.493 4.04763C109.923 3.38269 109.091 3 108.215 3H99.7849C98.9091 3 98.077 3.38269 97.5071 4.04763L94.2222 7.87995C93.7562 8.42368 93.5 9.1162 93.5 9.83233ZM99.7849 4.5C99.347 4.5 98.9309 4.69134 98.646 5.02381L95.8807 8.25H99.0458C100.049 8.25 100.986 8.7513 101.542 9.5859L101.706 9.83205C101.984 10.2493 102.453 10.5 102.954 10.5H105.046C105.547 10.5 106.016 10.2493 106.294 9.83205L106.458 9.5859C107.014 8.7513 107.951 8.25 108.954 8.25H112.119L109.354 5.02381C109.069 4.69134 108.653 4.5 108.215 4.5H99.7849Z" fill="white"/>
<path d="M94.8125 15C94.0876 15 93.5 15.5876 93.5 16.3125V18C93.5 19.6569 94.8431 21 96.5 21H111.5C113.157 21 114.5 19.6569 114.5 18V16.3125C114.5 15.5876 113.912 15 113.188 15H108.954C107.951 15 107.014 15.5013 106.458 16.3359L106.294 16.5821C106.016 16.9993 105.547 17.25 105.046 17.25H102.954C102.453 17.25 101.984 16.9993 101.706 16.5821L101.542 16.3359C100.986 15.5013 100.049 15 99.0458 15H94.8125Z" fill="white"/>
</svg>
