<svg width="116" height="24" viewBox="0 0 116 24" fill="none" xmlns="http://www.w3.org/2000/svg">
<path fill-rule="evenodd" clip-rule="evenodd" d="M2 7.75C2 7.33579 2.33579 7 2.75 7H14.25C14.6642 7 15 7.33579 15 7.75C15 8.16421 14.6642 8.5 14.25 8.5H2.75C2.33579 8.5 2 8.16421 2 7.75ZM2 11.5C2 11.0858 2.33579 10.75 2.75 10.75H10.2582C10.6724 10.75 11.0082 11.0858 11.0082 11.5C11.0082 11.9142 10.6724 12.25 10.2582 12.25H2.75C2.33579 12.25 2 11.9142 2 11.5ZM14 11C14.4142 11 14.75 11.3358 14.75 11.75L14.75 18.3401L16.7004 16.2397C16.9823 15.9361 17.4568 15.9186 17.7603 16.2004C18.0639 16.4823 18.0814 16.9568 17.7996 17.2603L14.5496 20.7603C14.4077 20.9132 14.2085 21 14 21C13.7914 21 13.5923 20.9132 13.4504 20.7603L10.2004 17.2603C9.91855 16.9568 9.93613 16.4823 10.2397 16.2004C10.5432 15.9186 11.0177 15.9361 11.2996 16.2397L13.25 18.3401L13.25 11.75C13.25 11.3358 13.5858 11 14 11ZM2 15.25C2 14.8358 2.33579 14.5 2.75 14.5H7.31205C7.72626 14.5 8.06205 14.8358 8.06205 15.25C8.06205 15.6642 7.72626 16 7.31205 16H2.75C2.33579 16 2 15.6642 2 15.25Z" fill="white"/>
<path d="M47 4.5H61.25M47 9H56.75M47 13.5H56.75M61.25 9V21M61.25 21L57.5 17.25M61.25 21L65 17.25" stroke="white" stroke-width="1.5" stroke-linecap="round" stroke-linejoin="round"/>
<path fill-rule="evenodd" clip-rule="evenodd" d="M94.25 4.5C94.25 4.08579 94.5858 3.75 95 3.75H109.25C109.664 3.75 110 4.08579 110 4.5C110 4.91421 109.664 5.25 109.25 5.25H95C94.5858 5.25 94.25 4.91421 94.25 4.5ZM94.25 9C94.25 8.58579 94.5858 8.25 95 8.25H104.75C105.164 8.25 105.5 8.58579 105.5 9C105.5 9.41421 105.164 9.75 104.75 9.75H95C94.5858 9.75 94.25 9.41421 94.25 9ZM109.25 8.25C109.664 8.25 110 8.58579 110 9V19.1893L112.47 16.7197C112.763 16.4268 113.237 16.4268 113.53 16.7197C113.823 17.0126 113.823 17.4874 113.53 17.7803L109.78 21.5303C109.487 21.8232 109.013 21.8232 108.72 21.5303L104.97 17.7803C104.677 17.4874 104.677 17.0126 104.97 16.7197C105.263 16.4268 105.737 16.4268 106.03 16.7197L108.5 19.1893V9C108.5 8.58579 108.836 8.25 109.25 8.25ZM94.25 13.5C94.25 13.0858 94.5858 12.75 95 12.75H104.75C105.164 12.75 105.5 13.0858 105.5 13.5C105.5 13.9142 105.164 14.25 104.75 14.25H95C94.5858 14.25 94.25 13.9142 94.25 13.5Z" fill="white"/>
</svg>
