<svg width="116" height="24" viewBox="0 0 116 24" fill="none" xmlns="http://www.w3.org/2000/svg">
<path fill-rule="evenodd" clip-rule="evenodd" d="M10 7C10.2086 7 10.4077 7.08684 10.5496 7.23966L13.7996 10.7397C14.0815 11.0432 14.0639 11.5177 13.7603 11.7996C13.4568 12.0814 12.9823 12.0639 12.7004 11.7603L10 8.85221L7.2996 11.7603C7.01775 12.0639 6.5432 12.0814 6.23966 11.7996C5.93613 11.5177 5.91856 11.0432 6.20041 10.7397L9.45041 7.23966C9.59232 7.08684 9.79145 7 10 7ZM6.23967 16.2004C6.5432 15.9186 7.01775 15.9361 7.2996 16.2397L10 19.1478L12.7004 16.2397C12.9823 15.9361 13.4568 15.9186 13.7603 16.2004C14.0639 16.4823 14.0815 16.9568 13.7996 17.2603L10.5496 20.7603C10.4077 20.9132 10.2086 21 10 21C9.79145 21 9.59232 20.9132 9.45041 20.7603L6.20041 17.2603C5.91856 16.9568 5.93613 16.4823 6.23967 16.2004Z" fill="white"/>
<path d="M52.25 15L56 18.75L59.75 15M52.25 9L56 5.25L59.75 9" stroke="white" stroke-width="1.5" stroke-linecap="round" stroke-linejoin="round"/>
<path fill-rule="evenodd" clip-rule="evenodd" d="M103.47 4.71967C103.763 4.42678 104.237 4.42678 104.53 4.71967L108.28 8.46967C108.573 8.76256 108.573 9.23744 108.28 9.53033C107.987 9.82322 107.513 9.82322 107.22 9.53033L104 6.31066L100.78 9.53033C100.487 9.82322 100.013 9.82322 99.7197 9.53033C99.4268 9.23744 99.4268 8.76256 99.7197 8.46967L103.47 4.71967ZM99.7197 14.4697C100.013 14.1768 100.487 14.1768 100.78 14.4697L104 17.6893L107.22 14.4697C107.513 14.1768 107.987 14.1768 108.28 14.4697C108.573 14.7626 108.573 15.2374 108.28 15.5303L104.53 19.2803C104.237 19.5732 103.763 19.5732 103.47 19.2803L99.7197 15.5303C99.4268 15.2374 99.4268 14.7626 99.7197 14.4697Z" fill="white"/>
</svg>
