<svg width="98" height="34" viewBox="0 0 98 34" fill="none" xmlns="http://www.w3.org/2000/svg">
<path d="M29.75 29.75L22.388 22.388M22.388 22.388C24.3108 20.4653 25.5 17.809 25.5 14.875C25.5 9.00697 20.743 4.25 14.875 4.25C9.00697 4.25 4.25 9.00697 4.25 14.875C4.25 20.743 9.00697 25.5 14.875 25.5C17.809 25.5 20.4653 24.3108 22.388 22.388Z" stroke="white" stroke-width="2" stroke-linecap="round" stroke-linejoin="round"/>
<path d="M85.0484 24.1991C87.7324 23.8807 90.3205 23.2497 92.7753 22.3435C90.7399 20.0841 89.5009 17.093 89.5009 13.8125V12.8197C89.5011 12.7965 89.5012 12.7732 89.5012 12.75C89.5012 8.05558 85.6956 4.25 81.0012 4.25C76.3068 4.25 72.5012 8.05558 72.5012 12.75L72.5009 13.8125C72.5009 17.093 71.262 20.0841 69.2266 22.3435C71.6815 23.2498 74.2698 23.8808 76.954 24.1992M85.0484 24.1991C83.7212 24.3565 82.3705 24.4375 81.0009 24.4375C79.6315 24.4375 78.2811 24.3565 76.954 24.1992M85.0484 24.1991C85.1801 24.6091 85.2512 25.0462 85.2512 25.5C85.2512 27.8472 83.3484 29.75 81.0012 29.75C78.654 29.75 76.7512 27.8472 76.7512 25.5C76.7512 25.0463 76.8223 24.6091 76.954 24.1992" stroke="white" stroke-width="2" stroke-linecap="round" stroke-linejoin="round"/>
</svg>
