<svg width="116" height="24" viewBox="0 0 116 24" fill="none" xmlns="http://www.w3.org/2000/svg">
<path fill-rule="evenodd" clip-rule="evenodd" d="M7.17111 8.1457L9.11848 10.6124C9.69601 10.4625 10.304 10.4625 10.8815 10.6124L12.8289 8.1457C11.0472 7.28477 8.95276 7.28477 7.17111 8.1457ZM15.8543 11.1711L13.3876 13.1185C13.5375 13.696 13.5375 14.304 13.3876 14.8815L15.8543 16.8289C16.7152 15.0472 16.7152 12.9528 15.8543 11.1711ZM12.8289 19.8543L10.8815 17.3876C10.304 17.5375 9.69601 17.5375 9.11848 17.3876L7.17111 19.8543C8.95276 20.7152 11.0472 20.7152 12.8289 19.8543ZM4.1457 16.8289L6.61237 14.8815C6.46254 14.304 6.46254 13.696 6.61237 13.1185L4.1457 11.1711C3.28477 12.9528 3.28477 15.0472 4.1457 16.8289ZM5.63091 7.29667C8.27818 5.56778 11.7218 5.56778 14.3691 7.29667C14.8253 7.59461 15.2573 7.94356 15.6569 8.34315C16.0564 8.74273 16.4054 9.17471 16.7033 9.63091C18.4322 12.2782 18.4322 15.7218 16.7033 18.3691C16.4054 18.8253 16.0564 19.2573 15.6569 19.6569C15.2573 20.0564 14.8253 20.4054 14.3691 20.7033C11.7218 22.4322 8.27818 22.4322 5.63091 20.7033C5.1747 20.4054 4.74273 20.0564 4.34315 19.6569C3.94356 19.2573 3.59461 18.8253 3.29667 18.3691C1.56778 15.7218 1.56778 12.2782 3.29667 9.63091C3.59461 9.17471 3.94356 8.74273 4.34315 8.34315C4.74273 7.94356 5.17471 7.59461 5.63091 7.29667ZM10.8287 12.179C10.3041 11.9403 9.69587 11.9403 9.17126 12.179C8.95999 12.2751 8.76133 12.4102 8.58579 12.5858C8.41024 12.7613 8.27506 12.96 8.17897 13.1713C7.94035 13.6959 7.94035 14.3041 8.17897 14.8287C8.27506 15.04 8.41024 15.2387 8.58579 15.4142C8.76133 15.5898 8.95999 15.7249 9.17126 15.821C9.69587 16.0597 10.3041 16.0597 10.8287 15.821C11.04 15.7249 11.2387 15.5898 11.4142 15.4142C11.5898 15.2387 11.7249 15.04 11.821 14.8287C12.0597 14.3041 12.0597 13.6959 11.821 13.1713C11.7249 12.96 11.5898 12.7613 11.4142 12.5858C11.2387 12.4102 11.04 12.2751 10.8287 12.179Z" fill="white"/>
<path d="M60.7124 4.3299C61.2999 4.69153 61.8548 5.12691 62.364 5.63604C62.8731 6.14517 63.3085 6.70012 63.6701 7.28763M60.7124 4.3299L57.2636 8.46838M60.7124 4.3299C57.8316 2.5567 54.1684 2.5567 51.2876 4.3299M63.6701 7.28763L59.5316 10.7364M63.6701 7.28763C65.4433 10.1684 65.4433 13.8316 63.6701 16.7124M59.5316 10.7364C59.3507 10.2297 59.0574 9.75408 58.6517 9.34835C58.2459 8.94262 57.7703 8.6493 57.2636 8.46838M59.5316 10.7364C59.8228 11.5519 59.8228 12.4481 59.5316 13.2636M57.2636 8.46838C56.4481 8.17721 55.5519 8.17721 54.7364 8.46838M59.5316 13.2636C59.3507 13.7703 59.0574 14.2459 58.6517 14.6517C58.2459 15.0574 57.7703 15.3507 57.2636 15.5316M59.5316 13.2636L63.6701 16.7124M63.6701 16.7124C63.3085 17.2999 62.8731 17.8548 62.364 18.364C61.8548 18.8731 61.2999 19.3085 60.7124 19.6701M60.7124 19.6701L57.2636 15.5316M60.7124 19.6701C57.8316 21.4433 54.1684 21.4433 51.2876 19.6701M57.2636 15.5316C56.4481 15.8228 55.5519 15.8228 54.7364 15.5316M54.7364 15.5316C54.2297 15.3507 53.7541 15.0574 53.3483 14.6517C52.9426 14.2459 52.6493 13.7703 52.4684 13.2636M54.7364 15.5316L51.2876 19.6701M51.2876 19.6701C50.7001 19.3085 50.1452 18.8731 49.636 18.364C49.1269 17.8548 48.6915 17.2999 48.3299 16.7124M48.3299 16.7124L52.4684 13.2636M48.3299 16.7124C46.5567 13.8316 46.5567 10.1684 48.3299 7.28763M52.4684 13.2636C52.1772 12.4481 52.1772 11.5519 52.4684 10.7364M52.4684 10.7364C52.6493 10.2297 52.9426 9.75408 53.3483 9.34835C53.7541 8.94262 54.2297 8.6493 54.7364 8.46838M52.4684 10.7364L48.3299 7.28763M54.7364 8.46838L51.2876 4.3299M51.2876 4.3299C50.7001 4.69153 50.1452 5.12691 49.636 5.63604C49.1269 6.14517 48.6915 6.70013 48.3299 7.28763" stroke="white" stroke-width="1.5" stroke-linecap="round" stroke-linejoin="round"/>
<path fill-rule="evenodd" clip-rule="evenodd" d="M111.449 8.44818L108.388 10.9992C108.537 11.6574 108.537 12.3426 108.388 13.0008L111.449 15.5518C112.517 13.3118 112.517 10.6882 111.449 8.44818ZM107.552 19.449L105.001 16.3878C104.343 16.5374 103.657 16.5374 102.999 16.3878L100.448 19.449C102.688 20.517 105.312 20.517 107.552 19.449ZM96.551 15.5518L99.6122 13.0008C99.4626 12.3426 99.4626 11.6574 99.6122 10.9992L96.551 8.44818C95.483 10.6882 95.483 13.3118 96.551 15.5518ZM100.448 4.55102L102.999 7.6122C103.657 7.4626 104.343 7.4626 105.001 7.6122L107.552 4.55102C105.312 3.48299 102.688 3.48299 100.448 4.55102ZM109.106 3.6912C109.742 4.08325 110.344 4.55493 110.894 5.10571C111.445 5.65649 111.917 6.25755 112.309 6.89448C114.23 10.0163 114.23 13.9837 112.309 17.1055C111.917 17.7424 111.445 18.3435 110.894 18.8943C110.344 19.4451 109.742 19.9167 109.106 20.3088C105.984 22.2304 102.016 22.2304 98.8945 20.3088C98.2576 19.9167 97.6565 19.4451 97.1057 18.8943C96.5549 18.3435 96.0833 17.7424 95.6912 17.1055C93.7696 13.9837 93.7696 10.0163 95.6912 6.89448C96.0833 6.25755 96.5549 5.65649 97.1057 5.10571C97.6565 4.55493 98.2576 4.08325 98.8945 3.6912C102.016 1.7696 105.984 1.7696 109.106 3.6912ZM106.121 9.87868C105.796 9.55313 105.416 9.31907 105.011 9.17471C104.359 8.94176 103.641 8.94176 102.989 9.17471C102.584 9.31907 102.204 9.55313 101.879 9.87868C101.553 10.2042 101.319 10.5842 101.175 10.9885C100.942 11.641 100.942 12.359 101.175 13.0114C101.319 13.4158 101.553 13.7958 101.879 14.1213C102.204 14.4469 102.584 14.6809 102.989 14.8253C103.641 15.0582 104.359 15.0582 105.011 14.8253C105.416 14.6809 105.796 14.4469 106.121 14.1213C106.447 13.7958 106.681 13.4158 106.825 13.0115C107.058 12.359 107.058 11.641 106.825 10.9885C106.681 10.5842 106.447 10.2042 106.121 9.87868Z" fill="white"/>
</svg>
