<svg width="30" height="25" viewBox="0 0 30 25" fill="none" xmlns="http://www.w3.org/2000/svg">
<path d="M9.43444 24.3768C20.7552 24.3768 26.9473 14.9974 26.9473 6.86395C26.9473 6.59762 26.9473 6.33228 26.9293 6.06828C28.134 5.19694 29.1737 4.11826 30 2.88224C28.8767 3.37992 27.685 3.70659 26.4646 3.85059C27.7496 3.08124 28.7113 1.87156 29.1707 0.446215C27.9623 1.16322 26.6406 1.66856 25.2623 1.94023C22.9313 -0.538463 19.0322 -0.65813 16.5535 1.6729C14.9548 3.17625 14.2768 5.41627 14.7728 7.55396C9.82444 7.30563 5.21339 4.96827 2.08802 1.12289C0.454338 3.93525 1.28868 7.53329 3.99371 9.33931C3.01403 9.31032 2.05602 9.04598 1.20001 8.56897C1.20001 8.59431 1.20001 8.62064 1.20001 8.64697C1.20068 11.577 3.26604 14.1004 6.13807 14.6807C5.23206 14.9277 4.28105 14.964 3.3587 14.7864C4.16505 17.2937 6.47574 19.0114 9.1091 19.0608C6.92941 20.7738 4.23705 21.7035 1.46502 21.7008C0.975344 21.6998 0.486339 21.6701 0 21.6118C2.8147 23.4181 6.09007 24.3762 9.43444 24.3718" fill="#1DA1F2"/>
</svg>
