<svg width="116" height="24" viewBox="0 0 116 24" fill="none" xmlns="http://www.w3.org/2000/svg">
<path d="M10 6C10.4142 6 10.75 6.33579 10.75 6.75V12.3401L12.7004 10.2397C12.9823 9.93613 13.4568 9.91855 13.7603 10.2004C14.0639 10.4823 14.0814 10.9568 13.7996 11.2603L10.5496 14.7603C10.4077 14.9132 10.2086 15 10 15C9.79145 15 9.59231 14.9132 9.45041 14.7603L6.20041 11.2603C5.91855 10.9568 5.93613 10.4823 6.23966 10.2004C6.54319 9.91855 7.01774 9.93613 7.29959 10.2397L9.25 12.3401V6.75C9.25 6.33579 9.58579 6 10 6Z" fill="white"/>
<path d="M5.27298 8.5C4.71065 8.5 4.21753 8.8755 4.06799 9.41759L2.54501 14.9384C2.53938 14.9588 2.53427 14.9794 2.52969 15H6C6.37877 15 6.72504 15.214 6.89443 15.5528L7.34164 16.4472C7.51103 16.786 7.8573 17 8.23607 17H11.674C12.0269 17 12.3537 16.814 12.5339 16.5105L13.1401 15.4895C13.3203 15.186 13.6471 15 14 15H17.4703C17.4657 14.9794 17.4606 14.9588 17.455 14.9384L15.932 9.41759C15.7825 8.8755 15.2894 8.5 14.727 8.5H13.75C13.3358 8.5 13 8.16421 13 7.75C13 7.33579 13.3358 7 13.75 7H14.727C15.9642 7 17.049 7.8261 17.378 9.0187L18.901 14.5395C18.9667 14.7777 19 15.0237 19 15.2708V19C19 20.1046 18.1046 21 17 21H3C1.89543 21 1 20.1046 1 19V15.2708C1 15.0237 1.03331 14.7777 1.09902 14.5395L2.622 9.0187C2.95099 7.82611 4.03584 7 5.27298 7H6.25C6.66421 7 7 7.33579 7 7.75C7 8.16421 6.66421 8.5 6.25 8.5H5.27298Z" fill="white"/>
<path d="M53 3.75H50.9118C49.924 3.75 49.0518 4.39423 48.7613 5.33831L46.3495 13.1766C46.2835 13.391 46.25 13.614 46.25 13.8383V18C46.25 19.2426 47.2574 20.25 48.5 20.25H63.5C64.7426 20.25 65.75 19.2426 65.75 18V13.8383C65.75 13.614 65.7165 13.391 65.6505 13.1766L63.2387 5.33831C62.9482 4.39423 62.076 3.75 61.0882 3.75H59M46.25 13.5H50.1094C50.9617 13.5 51.7408 13.9815 52.1219 14.7438L52.3781 15.2562C52.7592 16.0185 53.5383 16.5 54.3906 16.5H57.6094C58.4617 16.5 59.2408 16.0185 59.6219 15.2562L59.8781 14.7438C60.2592 13.9815 61.0383 13.5 61.8906 13.5H65.75M56 3V11.25M56 11.25L53 8.25M56 11.25L59 8.25" stroke="white" stroke-width="1.5" stroke-linecap="round" stroke-linejoin="round"/>
<path fill-rule="evenodd" clip-rule="evenodd" d="M97.4781 5.55887C97.6718 4.92948 98.2533 4.5 98.9118 4.5H101C101.414 4.5 101.75 4.16421 101.75 3.75C101.75 3.33579 101.414 3 101 3H98.9118C97.5948 3 96.4318 3.85897 96.0445 5.11774L93.6327 12.9561C93.5447 13.2419 93.5 13.5393 93.5 13.8383V18C93.5 19.6569 94.8431 21 96.5 21H111.5C113.157 21 114.5 19.6569 114.5 18V13.8383C114.5 13.5393 114.455 13.2419 114.367 12.9561L111.956 5.11774C111.568 3.85897 110.405 3 109.088 3H107C106.586 3 106.25 3.33579 106.25 3.75C106.25 4.16421 106.586 4.5 107 4.5H109.088C109.747 4.5 110.328 4.92948 110.522 5.55887L112.735 12.75H109.891C108.754 12.75 107.715 13.392 107.207 14.4084L106.951 14.9208C106.697 15.429 106.178 15.75 105.609 15.75H102.391C101.822 15.75 101.303 15.429 101.049 14.9208L100.793 14.4084C100.285 13.392 99.2457 12.75 98.1094 12.75H95.2655L97.4781 5.55887Z" fill="white"/>
<path fill-rule="evenodd" clip-rule="evenodd" d="M104 2.25C104.414 2.25 104.75 2.58579 104.75 3V9.43934L106.47 7.71967C106.763 7.42678 107.237 7.42678 107.53 7.71967C107.823 8.01256 107.823 8.48744 107.53 8.78033L104.53 11.7803C104.237 12.0732 103.763 12.0732 103.47 11.7803L100.47 8.78033C100.177 8.48744 100.177 8.01256 100.47 7.71967C100.763 7.42678 101.237 7.42678 101.53 7.71967L103.25 9.43934V3C103.25 2.58579 103.586 2.25 104 2.25Z" fill="white"/>
</svg>
