<svg width="116" height="24" viewBox="0 0 116 24" fill="none" xmlns="http://www.w3.org/2000/svg">
<path fill-rule="evenodd" clip-rule="evenodd" d="M17.721 5.59876C17.8974 5.74114 18 5.9557 18 6.18244V17.4721C18 18.5315 17.261 19.4474 16.2255 19.6713L14.1848 20.1125C12.804 20.4111 11.5 19.3589 11.5 17.9462C11.5 16.903 12.2275 16.001 13.247 15.7801L15.9088 15.2033C16.2538 15.1285 16.5 14.8233 16.5 14.4703V10.1119L8.5 11.8417V19.5262C8.5 20.5856 7.76097 21.5015 6.7255 21.7253L4.68397 22.1668C3.30357 22.4652 2 21.4134 2 20.0011C2 18.9572 2.72854 18.055 3.74894 17.8351L6.408 17.2621C6.7534 17.1876 7 16.8822 7 16.5289V8.23649C7 7.88336 7.24634 7.57806 7.5915 7.50343L17.0915 5.44938C17.3131 5.40146 17.5445 5.45637 17.721 5.59876Z" fill="white"/>
<path d="M53 9L63.5 6M63.5 12.5528V16.3028C63.5 17.3074 62.834 18.1903 61.8681 18.4663L60.5481 18.8434C59.3964 19.1724 58.25 18.3077 58.25 17.1099C58.25 16.305 58.7836 15.5975 59.5576 15.3764L61.8681 14.7163C62.834 14.4403 63.5 13.5574 63.5 12.5528ZM63.5 12.5528V2.25L53 5.25V15.5528M53 15.5528V19.3028C53 20.3074 52.3341 21.1903 51.3681 21.4663L50.0481 21.8434C48.8964 22.1724 47.75 21.3077 47.75 20.1099C47.75 19.305 48.2836 18.5975 49.0576 18.3764L51.3681 17.7163C52.3341 17.4403 53 16.5574 53 15.5528Z" stroke="white" stroke-width="1.5" stroke-linecap="round" stroke-linejoin="round"/>
<path fill-rule="evenodd" clip-rule="evenodd" d="M111.952 1.65124C112.14 1.79297 112.25 2.01466 112.25 2.25001V5.98344C112.25 5.99476 112.25 6.00606 112.25 6.01732V16.3028C112.25 17.6423 111.362 18.8194 110.074 19.1874L108.754 19.5645C107.123 20.0305 105.5 18.806 105.5 17.1099C105.5 15.9701 106.256 14.9684 107.352 14.6553L109.662 13.9951C110.306 13.8111 110.75 13.2225 110.75 12.5528V6.9943L101.75 9.56573V19.3028C101.75 20.6423 100.862 21.8194 99.5742 22.1874L98.2542 22.5645C96.6234 23.0305 95 21.806 95 20.1099C95 18.9701 95.7556 17.9684 96.8515 17.6553L99.1621 16.9951C99.806 16.8111 100.25 16.2225 100.25 15.5528V9.01659C100.25 9.00526 100.25 8.99395 100.25 8.98268V5.25001C100.25 4.91515 100.472 4.62086 100.794 4.52886L111.294 1.52886C111.52 1.46421 111.764 1.50952 111.952 1.65124Z" fill="white"/>
</svg>
