<svg width="116" height="24" viewBox="0 0 116 24" fill="none" xmlns="http://www.w3.org/2000/svg">
<path fill-rule="evenodd" clip-rule="evenodd" d="M0.98999 9.23999C0.98999 7.99735 2.00736 7 3.25 7H16.75C17.9926 7 19 8.00736 19 9.25L19.01 18.75C19.01 19.9926 18.0027 21 16.76 21C12.9267 21 7.09334 21 3.26001 21C2.01737 21 1 19.9826 1 18.74L0.98999 9.23999ZM9.25 18.76V18.135C9.25 17.7208 8.91421 17.385 8.5 17.385H3.25C2.83579 17.385 2.5 17.7208 2.5 18.135V18.75C2.5 19.1642 2.83579 19.5 3.25 19.5H8.62283C8.97861 19.4414 9.25 19.1324 9.25 18.76ZM10.75 18.76C10.75 19.1324 11.0214 19.4414 11.3772 19.5H16.75C17.1642 19.5 17.5 19.1642 17.5 18.75V18.135C17.5 17.7208 17.1642 17.385 16.75 17.385H11.5C11.0858 17.385 10.75 17.7208 10.75 18.135V18.76ZM17.5 15.13V14.505C17.5 14.0908 17.1642 13.755 16.75 13.755H11.5C11.0858 13.755 10.75 14.0908 10.75 14.505V15.13C10.75 15.5442 11.0858 15.88 11.5 15.88H16.75C17.1642 15.88 17.5 15.5442 17.5 15.13ZM9.25 15.13V14.505C9.25 14.0908 8.91421 13.755 8.5 13.755H3.25C2.83579 13.755 2.5 14.0908 2.5 14.505V15.13C2.5 15.5442 2.83579 15.88 3.25 15.88H8.5C8.91421 15.88 9.25 15.5442 9.25 15.13ZM17.5 11.5V10.875C17.5 10.4608 17.1642 10.125 16.75 10.125H11.5C11.0858 10.125 10.75 10.4608 10.75 10.875V11.5C10.75 11.9142 11.0858 12.25 11.5 12.25H16.75C17.1642 12.25 17.5 11.9142 17.5 11.5ZM9.25 11.5V10.875C9.25 10.4608 8.91421 10.125 8.5 10.125H3.25C2.83579 10.125 2.5 10.4608 2.5 10.875V11.5C2.5 11.9142 2.83579 12.25 3.25 12.25H8.5C8.91421 12.25 9.25 11.9142 9.25 11.5Z" fill="white"/>
<path d="M47.375 19.5H64.625M47.375 19.5C46.7537 19.5 46.25 18.9963 46.25 18.375M47.375 19.5H54.875C55.4963 19.5 56 18.9963 56 18.375M46.25 18.375V5.625M46.25 18.375V16.875C46.25 16.2537 46.7537 15.75 47.375 15.75M65.75 18.375V5.625M65.75 18.375C65.75 18.9963 65.2463 19.5 64.625 19.5M65.75 18.375V16.875C65.75 16.2537 65.2463 15.75 64.625 15.75M64.625 19.5H57.125C56.5037 19.5 56 18.9963 56 18.375M65.75 5.625C65.75 5.00368 65.2463 4.5 64.625 4.5H47.375C46.7537 4.5 46.25 5.00368 46.25 5.625M65.75 5.625V7.125C65.75 7.74632 65.2463 8.25 64.625 8.25M46.25 5.625V7.125C46.25 7.74632 46.7537 8.25 47.375 8.25M47.375 8.25H64.625M47.375 8.25H54.875C55.4963 8.25 56 8.75368 56 9.375M47.375 8.25C46.7537 8.25 46.25 8.75368 46.25 9.375V10.875C46.25 11.4963 46.7537 12 47.375 12M64.625 8.25H57.125C56.5037 8.25 56 8.75368 56 9.375M64.625 8.25C65.2463 8.25 65.75 8.75368 65.75 9.375V10.875C65.75 11.4963 65.2463 12 64.625 12M47.375 12H54.875M47.375 12C46.7537 12 46.25 12.5037 46.25 13.125V14.625C46.25 15.2463 46.7537 15.75 47.375 15.75M56 10.875V9.375M56 10.875C56 11.4963 55.4963 12 54.875 12M56 10.875C56 11.4963 56.5037 12 57.125 12M54.875 12C55.4963 12 56 12.5037 56 13.125M57.125 12H64.625M57.125 12C56.5037 12 56 12.5037 56 13.125M64.625 12C65.2463 12 65.75 12.5037 65.75 13.125V14.625C65.75 15.2463 65.2463 15.75 64.625 15.75M47.375 15.75H54.875M56 14.625V13.125M56 14.625C56 15.2463 55.4963 15.75 54.875 15.75M56 14.625C56 15.2463 56.5037 15.75 57.125 15.75M54.875 15.75C55.4963 15.75 56 16.2537 56 16.875M56 18.375V16.875M56 16.875C56 16.2537 56.5037 15.75 57.125 15.75M57.125 15.75H64.625" stroke="white" stroke-width="1.5" stroke-linecap="round" stroke-linejoin="round"/>
<path fill-rule="evenodd" clip-rule="evenodd" d="M93.5 5.625C93.5 4.58947 94.3395 3.75 95.375 3.75H112.625C113.661 3.75 114.5 4.58947 114.5 5.625V18.375C114.5 19.4105 113.661 20.25 112.625 20.25H95.375C94.3395 20.25 93.5 19.4105 93.5 18.375V5.625ZM113 9.375C113 9.16789 112.832 9 112.625 9H105.125C104.918 9 104.75 9.16789 104.75 9.375V10.875C104.75 11.0821 104.918 11.25 105.125 11.25H112.625C112.832 11.25 113 11.0821 113 10.875V9.375ZM113 13.125C113 12.9179 112.832 12.75 112.625 12.75H105.125C104.918 12.75 104.75 12.9179 104.75 13.125V14.625C104.75 14.8321 104.918 15 105.125 15H112.625C112.832 15 113 14.8321 113 14.625V13.125ZM113 16.875C113 16.6679 112.832 16.5 112.625 16.5H105.125C104.918 16.5 104.75 16.6679 104.75 16.875V18.375C104.75 18.5821 104.918 18.75 105.125 18.75H112.625C112.832 18.75 113 18.5821 113 18.375V16.875ZM102.875 18.75C103.082 18.75 103.25 18.5821 103.25 18.375V16.875C103.25 16.6679 103.082 16.5 102.875 16.5H95.375C95.1679 16.5 95 16.6679 95 16.875V18.375C95 18.5821 95.1679 18.75 95.375 18.75H102.875ZM95.375 15H102.875C103.082 15 103.25 14.8321 103.25 14.625V13.125C103.25 12.9179 103.082 12.75 102.875 12.75H95.375C95.1679 12.75 95 12.9179 95 13.125V14.625C95 14.8321 95.1679 15 95.375 15ZM95.375 11.25H102.875C103.082 11.25 103.25 11.0821 103.25 10.875V9.375C103.25 9.16789 103.082 9 102.875 9H95.375C95.1679 9 95 9.16789 95 9.375V10.875C95 11.0821 95.1679 11.25 95.375 11.25Z" fill="white"/>
</svg>
