<svg width="116" height="24" viewBox="0 0 116 24" fill="none" xmlns="http://www.w3.org/2000/svg">
<path d="M15.9932 5.38468C16.3195 5.13518 16.7188 5 17.1295 5C18.1626 5 19.0002 5.83751 19.0002 6.87063C19.0002 7.28136 18.865 7.68067 18.6155 8.00694L14.5856 13.2767C13.4464 14.7666 11.9978 15.9799 10.349 16.839C9.93563 15.2868 8.71335 14.0645 7.16113 13.6512C8.02023 12.0024 9.23359 10.5538 10.7234 9.41453L15.9932 5.38468Z" fill="white"/>
<path d="M5.99977 15C4.34292 15 2.99977 16.3431 2.99977 18C2.99977 18.2761 2.77591 18.5 2.49977 18.5C2.41931 18.5 2.3453 18.4815 2.2798 18.4493C2.00461 18.314 1.67475 18.3598 1.44686 18.565C1.21898 18.7702 1.139 19.0935 1.2449 19.3813C1.80692 20.9087 3.27495 22 4.99977 22C7.20742 22 8.99735 20.2113 8.99977 18.0042L8.99977 18C8.99977 17.52 8.88647 17.0642 8.68446 16.6601C8.39396 16.0789 7.92089 15.6058 7.33969 15.3153C6.93554 15.1133 6.47981 15 5.99977 15Z" fill="white"/>
<path d="M53.5309 16.1224C53.0852 15.0243 52.008 14.25 50.75 14.25C49.0931 14.25 47.75 15.5931 47.75 17.25C47.75 18.4926 46.7426 19.5 45.5 19.5C45.4493 19.5 45.399 19.4983 45.3491 19.495C46.1265 20.8428 47.5823 21.75 49.25 21.75C51.7282 21.75 53.7385 19.7467 53.7499 17.2711C53.75 17.2641 53.75 17.2571 53.75 17.25C53.75 16.8512 53.6722 16.4705 53.5309 16.1224ZM53.5309 16.1224C54.7252 15.7153 55.8612 15.1705 56.9175 14.5028M51.875 14.4769C52.2823 13.2797 52.8281 12.1411 53.4972 11.0825M56.9175 14.5028C58.798 13.3141 60.4259 11.7362 61.6806 9.85406L65.5566 4.04006C65.6827 3.85093 65.75 3.6287 65.75 3.40139C65.75 2.76549 65.2345 2.25 64.5986 2.25C64.3713 2.25 64.1491 2.31729 63.9599 2.44338L58.1459 6.31937C56.2638 7.57413 54.6859 9.20204 53.4972 11.0825M56.9175 14.5028C56.2396 12.9833 55.0167 11.7604 53.4972 11.0825" stroke="white" stroke-width="1.5" stroke-linecap="round" stroke-linejoin="round"/>
<path fill-rule="evenodd" clip-rule="evenodd" d="M112.599 1.5C112.223 1.5 111.856 1.61111 111.544 1.81934L106.465 5.20533C105.185 6.05835 104.02 7.0624 102.993 8.19218C105.106 9.18391 106.816 10.8935 107.808 13.007C108.938 11.9797 109.942 10.8146 110.795 9.53508L114.181 4.45609C114.389 4.14375 114.5 3.77677 114.5 3.40139C114.5 2.35128 113.649 1.5 112.599 1.5ZM104.299 15.5249C104.957 15.1597 105.59 14.7563 106.195 14.3175C105.384 12.258 103.742 10.6164 101.682 9.80456C101.244 10.4102 100.84 11.0432 100.475 11.7005L100.197 12.2018C101.933 12.6985 103.301 14.0669 103.798 15.8034L104.299 15.5249ZM98.75 13.5C96.6789 13.5 95 15.1789 95 17.25C95 18.0784 94.3284 18.75 93.5 18.75C93.466 18.75 93.4322 18.7489 93.3986 18.7466C93.1224 18.7284 92.8587 18.8637 92.7124 19.0986C92.5662 19.3336 92.5612 19.63 92.6994 19.8697C93.6052 21.4402 95.3034 22.5 97.25 22.5C100.149 22.5 102.5 20.1495 102.5 17.25C102.5 15.1789 100.821 13.5 98.75 13.5Z" fill="white"/>
</svg>
