<svg width="116" height="24" viewBox="0 0 116 24" fill="none" xmlns="http://www.w3.org/2000/svg">
<path fill-rule="evenodd" clip-rule="evenodd" d="M4.25 6C3.00736 6 2 7.00736 2 8.25V19.75C2 20.9926 3.00736 22 4.25 22H15.75C16.9926 22 18 20.9926 18 19.75V8.25C18 7.00736 16.9926 6 15.75 6H4.25ZM15 9.75C15 9.33579 14.6642 9 14.25 9C13.8358 9 13.5 9.33579 13.5 9.75V18.25C13.5 18.6642 13.8358 19 14.25 19C14.6642 19 15 18.6642 15 18.25V9.75ZM6.5 15.75C6.5 15.3358 6.16421 15 5.75 15C5.33579 15 5 15.3358 5 15.75V18.25C5 18.6642 5.33579 19 5.75 19C6.16421 19 6.5 18.6642 6.5 18.25V15.75ZM8.5835 13C8.99771 13 9.3335 13.3358 9.3335 13.75V18.25C9.3335 18.6642 8.99771 19 8.5835 19C8.16928 19 7.8335 18.6642 7.8335 18.25V13.75C7.8335 13.3358 8.16928 13 8.5835 13ZM12.1636 11.75C12.1636 11.3358 11.8278 11 11.4136 11C10.9994 11 10.6636 11.3358 10.6636 11.75V18.25C10.6636 18.6642 10.9994 19 11.4136 19C11.8278 19 12.1636 18.6642 12.1636 18.25V11.75Z" fill="white"/>
<path d="M51.5 14.25V16.5M54.5 12V16.5M57.5 9.75V16.5M60.5 7.5V16.5M50 20.25H62C63.2426 20.25 64.25 19.2426 64.25 18V6C64.25 4.75736 63.2426 3.75 62 3.75H50C48.7574 3.75 47.75 4.75736 47.75 6V18C47.75 19.2426 48.7574 20.25 50 20.25Z" stroke="white" stroke-width="1.5" stroke-linecap="round" stroke-linejoin="round"/>
<path fill-rule="evenodd" clip-rule="evenodd" d="M95 6C95 4.34315 96.3431 3 98 3H110C111.657 3 113 4.34315 113 6V18C113 19.6569 111.657 21 110 21H98C96.3431 21 95 19.6569 95 18V6ZM99.5 13.5C99.9142 13.5 100.25 13.8358 100.25 14.25V16.5C100.25 16.9142 99.9142 17.25 99.5 17.25C99.0858 17.25 98.75 16.9142 98.75 16.5V14.25C98.75 13.8358 99.0858 13.5 99.5 13.5ZM103.25 12C103.25 11.5858 102.914 11.25 102.5 11.25C102.086 11.25 101.75 11.5858 101.75 12V16.5C101.75 16.9142 102.086 17.25 102.5 17.25C102.914 17.25 103.25 16.9142 103.25 16.5V12ZM105.5 9C105.914 9 106.25 9.33579 106.25 9.75V16.5C106.25 16.9142 105.914 17.25 105.5 17.25C105.086 17.25 104.75 16.9142 104.75 16.5V9.75C104.75 9.33579 105.086 9 105.5 9ZM109.25 7.5C109.25 7.08579 108.914 6.75 108.5 6.75C108.086 6.75 107.75 7.08579 107.75 7.5V16.5C107.75 16.9142 108.086 17.25 108.5 17.25C108.914 17.25 109.25 16.9142 109.25 16.5V7.5Z" fill="white"/>
</svg>
