<svg width="116" height="24" viewBox="0 0 116 24" fill="none" xmlns="http://www.w3.org/2000/svg">
<path fill-rule="evenodd" clip-rule="evenodd" d="M3.25 7C2.00736 7 1 8.00736 1 9.25V18.75C1 19.9926 2.00736 21 3.25 21H16.75C17.9926 21 19 19.9926 19 18.75V9.25C19 8.00736 17.9926 7 16.75 7H3.25ZM4.19253 15.7517C3.91544 15.4438 3.94039 14.9696 4.24828 14.6925L6.12886 13L4.24828 11.3075C3.94039 11.0304 3.91543 10.5562 4.19253 10.2483C4.46962 9.94039 4.94384 9.91544 5.25172 10.1925L7.75172 12.4425C7.90976 12.5848 8 12.7874 8 13C8 13.2126 7.90976 13.4152 7.75172 13.5575L5.25172 15.8075C4.94384 16.0846 4.46962 16.0596 4.19253 15.7517ZM9.75 14.25C9.33579 14.25 9 14.5858 9 15C9 15.4142 9.33579 15.75 9.75 15.75H12.25C12.6642 15.75 13 15.4142 13 15C13 14.5858 12.6642 14.25 12.25 14.25H9.75Z" fill="white"/>
<path d="M50.75 7.5L53.75 9.75L50.75 12M55.25 12H58.25M49.25 20.25H62.75C63.9926 20.25 65 19.2426 65 18V6C65 4.75736 63.9926 3.75 62.75 3.75H49.25C48.0074 3.75 47 4.75736 47 6V18C47 19.2426 48.0074 20.25 49.25 20.25Z" stroke="white" stroke-width="1.5" stroke-linecap="round" stroke-linejoin="round"/>
<path fill-rule="evenodd" clip-rule="evenodd" d="M94.25 6C94.25 4.34315 95.5931 3 97.25 3H110.75C112.407 3 113.75 4.34315 113.75 6V18C113.75 19.6569 112.407 21 110.75 21H97.25C95.5931 21 94.25 19.6569 94.25 18V6ZM98.2197 6.96967C98.5126 6.67678 98.9874 6.67678 99.2803 6.96967L101.53 9.21967C101.823 9.51256 101.823 9.98744 101.53 10.2803L99.2803 12.5303C98.9874 12.8232 98.5126 12.8232 98.2197 12.5303C97.9268 12.2374 97.9268 11.7626 98.2197 11.4697L99.9393 9.75L98.2197 8.03033C97.9268 7.73744 97.9268 7.26256 98.2197 6.96967ZM102.5 11.25C102.086 11.25 101.75 11.5858 101.75 12C101.75 12.4142 102.086 12.75 102.5 12.75H105.5C105.914 12.75 106.25 12.4142 106.25 12C106.25 11.5858 105.914 11.25 105.5 11.25H102.5Z" fill="white"/>
</svg>
