<svg width="116" height="24" viewBox="0 0 116 24" fill="none" xmlns="http://www.w3.org/2000/svg">
<path fill-rule="evenodd" clip-rule="evenodd" d="M4.5 6C3.67157 6 3 6.67157 3 7.5V20.5C3 21.3284 3.67157 22 4.5 22H15.5C16.3284 22 17 21.3284 17 20.5V11.6213C17 11.2235 16.842 10.842 16.5607 10.5607L12.4393 6.43934C12.158 6.15804 11.7765 6 11.3787 6H4.5ZM12.25 15.75C12.6642 15.75 13 15.4142 13 15C13 14.5858 12.6642 14.25 12.25 14.25H7.75C7.33579 14.25 7 14.5858 7 15C7 15.4142 7.33579 15.75 7.75 15.75H12.25Z" fill="white"/>
<path d="M63.5 14.25V11.625C63.5 9.76104 61.989 8.25 60.125 8.25H58.625C58.0037 8.25 57.5 7.74632 57.5 7.125V5.625C57.5 3.76104 55.989 2.25 54.125 2.25H52.25M59 14.25H53M54.5 2.25H49.625C49.0037 2.25 48.5 2.75368 48.5 3.375V20.625C48.5 21.2463 49.0037 21.75 49.625 21.75H62.375C62.9963 21.75 63.5 21.2463 63.5 20.625V11.25C63.5 6.27944 59.4706 2.25 54.5 2.25Z" stroke="white" stroke-width="1.5" stroke-linecap="round" stroke-linejoin="round"/>
<path fill-rule="evenodd" clip-rule="evenodd" d="M97.625 1.5H101C103.071 1.5 104.75 3.17893 104.75 5.25V7.125C104.75 8.16053 105.589 9 106.625 9H108.5C110.571 9 112.25 10.6789 112.25 12.75V20.625C112.25 21.6605 111.411 22.5 110.375 22.5H97.625C96.5895 22.5 95.75 21.6605 95.75 20.625V3.375C95.75 2.33947 96.5895 1.5 97.625 1.5ZM101.75 14.25C101.336 14.25 101 14.5858 101 15C101 15.4142 101.336 15.75 101.75 15.75H107C107.414 15.75 107.75 15.4142 107.75 15C107.75 14.5858 107.414 14.25 107 14.25H101.75Z" fill="white"/>
<path d="M106.25 5.25C106.25 3.93695 105.768 2.73648 104.971 1.8159C108.37 2.70377 111.046 5.37988 111.934 8.77881C111.014 7.98204 109.813 7.5 108.5 7.5H106.625C106.418 7.5 106.25 7.33211 106.25 7.125V5.25Z" fill="white"/>
</svg>
