<svg width="116" height="24" viewBox="0 0 116 24" fill="none" xmlns="http://www.w3.org/2000/svg">
<path d="M12.75 8C12.3358 8 12 8.33579 12 8.75V19.25C12 19.6642 12.3358 20 12.75 20H13.25C13.6642 20 14 19.6642 14 19.25V8.75C14 8.33579 13.6642 8 13.25 8H12.75Z" fill="white"/>
<path d="M17.75 8C17.3358 8 17 8.33579 17 8.75V19.25C17 19.6642 17.3358 20 17.75 20H18.25C18.6642 20 19 19.6642 19 19.25V8.75C19 8.33579 18.6642 8 18.25 8H17.75Z" fill="white"/>
<path d="M3.28824 8.81859C2.28891 8.20135 1 8.9202 1 10.0948V17.9053C1 19.0798 2.2889 19.7987 3.28824 19.1815L9.61101 15.2762C10.56 14.6901 10.56 13.31 9.61101 12.7238L3.28824 8.81859Z" fill="white"/>
<path d="M65 7.5L65 18M59 7.5V18M47 16.8114V8.68858C47 7.82478 47.9332 7.28324 48.6832 7.7118L55.7906 11.7732C56.5464 12.2051 56.5464 13.2949 55.7906 13.7268L48.6832 17.7882C47.9332 18.2168 47 17.6752 47 16.8114Z" stroke="white" stroke-width="1.5" stroke-linecap="round" stroke-linejoin="round"/>
<path d="M107 6.75C106.586 6.75 106.25 7.08579 106.25 7.5V18C106.25 18.1989 106.329 18.3897 106.47 18.5303C106.61 18.671 106.801 18.75 107 18.75H107.75C108.164 18.75 108.5 18.4142 108.5 18V7.5C108.5 7.08579 108.164 6.75 107.75 6.75H107Z" fill="white"/>
<path d="M112.25 6.75C111.836 6.75 111.5 7.08579 111.5 7.5V18C111.5 18.4142 111.836 18.75 112.25 18.75H113C113.414 18.75 113.75 18.4142 113.75 18L113.75 7.5C113.75 7.30109 113.671 7.11032 113.53 6.96967C113.39 6.82902 113.199 6.75 113 6.75H112.25Z" fill="white"/>
<path d="M97.0553 7.06061C95.8053 6.34633 94.25 7.24889 94.25 8.68856V16.8114C94.25 18.2511 95.8053 19.1536 97.0553 18.4394L104.163 14.3779C105.422 13.6581 105.422 11.8418 104.163 11.122L97.0553 7.06061Z" fill="white"/>
</svg>
