<svg width="116" height="24" viewBox="0 0 116 24" fill="none" xmlns="http://www.w3.org/2000/svg">
<path fill-rule="evenodd" clip-rule="evenodd" d="M17 14C17 14.4142 16.6642 14.75 16.25 14.75L5.61208 14.75L9.76983 18.7094C10.0684 18.9965 10.0777 19.4713 9.79062 19.7698C9.50353 20.0684 9.02875 20.0777 8.73017 19.7906L3.23017 14.5406C3.08311 14.3992 3 14.204 3 14C3 13.796 3.08311 13.6008 3.23017 13.4594L8.73017 8.20938C9.02875 7.92228 9.50353 7.93159 9.79062 8.23017C10.0777 8.52875 10.0684 9.00353 9.76983 9.29063L5.61208 13.25L16.25 13.25C16.6642 13.25 17 13.5858 17 14Z" fill="white"/>
<path d="M54.5 19.5L47 12M47 12L54.5 4.5M47 12H65" stroke="white" stroke-width="1.5" stroke-linecap="round" stroke-linejoin="round"/>
<path fill-rule="evenodd" clip-rule="evenodd" d="M103.03 3.96967C103.323 4.26256 103.323 4.73744 103.03 5.03033L96.8107 11.25H113C113.414 11.25 113.75 11.5858 113.75 12C113.75 12.4142 113.414 12.75 113 12.75H96.8107L103.03 18.9697C103.323 19.2626 103.323 19.7374 103.03 20.0303C102.737 20.3232 102.263 20.3232 101.97 20.0303L94.4697 12.5303C94.1768 12.2374 94.1768 11.7626 94.4697 11.4697L101.97 3.96967C102.263 3.67678 102.737 3.67678 103.03 3.96967Z" fill="white"/>
</svg>
