<svg width="116" height="24" viewBox="0 0 116 24" fill="none" xmlns="http://www.w3.org/2000/svg">
<path fill-rule="evenodd" clip-rule="evenodd" d="M14.7698 8.20938C15.0684 8.49647 15.0777 8.97125 14.7906 9.26983L10.5406 13.7698C10.3992 13.9169 10.204 14 10 14C9.79599 14 9.60078 13.9169 9.45937 13.7698L5.20937 9.26983C4.92228 8.97125 4.93159 8.49647 5.23017 8.20938C5.52875 7.92228 6.00353 7.93159 6.29062 8.23017L10 12.1679L13.7094 8.23017C13.9965 7.93159 14.4713 7.92228 14.7698 8.20938ZM14.7698 14.2094C15.0684 14.4965 15.0777 14.9713 14.7906 15.2698L10.5406 19.7698C10.3992 19.9169 10.204 20 10 20C9.79599 20 9.60078 19.9169 9.45937 19.7698L5.20937 15.2698C4.92228 14.9713 4.93159 14.4965 5.23017 14.2094C5.52875 13.9223 6.00353 13.9316 6.29062 14.2302L10 18.1679L13.7094 14.2302C13.9965 13.9316 14.4713 13.9223 14.7698 14.2094Z" fill="white"/>
<path d="M63.5 5.25L56 12.75L48.5 5.25M63.5 11.25L56 18.75L48.5 11.25" stroke="white" stroke-width="1.5" stroke-linecap="round" stroke-linejoin="round"/>
<path fill-rule="evenodd" clip-rule="evenodd" d="M112.03 4.71967C112.323 5.01256 112.323 5.48744 112.03 5.78033L104.53 13.2803C104.237 13.5732 103.763 13.5732 103.47 13.2803L95.9697 5.78033C95.6768 5.48744 95.6768 5.01256 95.9697 4.71967C96.2626 4.42678 96.7374 4.42678 97.0303 4.71967L104 11.6893L110.97 4.71967C111.263 4.42678 111.737 4.42678 112.03 4.71967ZM112.03 10.7197C112.323 11.0126 112.323 11.4874 112.03 11.7803L104.53 19.2803C104.237 19.5732 103.763 19.5732 103.47 19.2803L95.9697 11.7803C95.6768 11.4874 95.6768 11.0126 95.9697 10.7197C96.2626 10.4268 96.7374 10.4268 97.0303 10.7197L104 17.6893L110.97 10.7197C111.263 10.4268 111.737 10.4268 112.03 10.7197Z" fill="white"/>
</svg>
