<svg width="116" height="24" viewBox="0 0 116 24" fill="none" xmlns="http://www.w3.org/2000/svg">
<path fill-rule="evenodd" clip-rule="evenodd" d="M15.3124 15.4236C14.5262 18.3576 11.5104 20.0988 8.5763 19.3127C7.60728 19.053 6.77024 18.5514 6.11052 17.8904L5.79898 17.5789L8.23221 17.5785C8.64642 17.5784 8.98215 17.2425 8.98208 16.8283C8.982 16.4141 8.64616 16.0784 8.23194 16.0785L3.98851 16.0792C3.78959 16.0792 3.59884 16.1583 3.45821 16.299C3.31758 16.4397 3.2386 16.6305 3.23864 16.8294L3.23954 21.0712C3.23962 21.4854 3.57548 21.8211 3.98969 21.821C4.40391 21.821 4.73962 21.4851 4.73954 21.0709L4.73903 18.6403L5.04888 18.9501C5.88991 19.7926 6.95759 20.4318 8.18808 20.7615C11.9223 21.7621 15.7607 19.5461 16.7613 15.8118C16.8685 15.4117 16.6311 15.0005 16.231 14.8932C15.8309 14.786 15.4196 15.0235 15.3124 15.4236ZM16.5413 11.7012C16.682 11.5605 16.761 11.3697 16.7609 11.1708L16.7603 6.92883C16.7602 6.51462 16.4243 6.17889 16.0101 6.17896C15.5959 6.17902 15.2602 6.51487 15.2603 6.92908L15.2606 9.35995L14.9508 9.05013C14.1098 8.20771 13.0419 7.56827 11.8115 7.23859C8.07728 6.238 4.23892 8.45407 3.23833 12.1883C3.13112 12.5884 3.36856 12.9997 3.76866 13.1069C4.16876 13.2141 4.58001 12.9767 4.68722 12.5766C5.4734 9.6425 8.48925 7.9013 11.4233 8.68748C12.3924 8.94714 13.2294 9.44881 13.8892 10.1098L14.2003 10.4209L11.7683 10.4209C11.3541 10.4209 11.0183 10.7567 11.0183 11.1709C11.0183 11.5851 11.3541 11.9209 11.7683 11.9209H16.0109C16.2099 11.9209 16.4007 11.8419 16.5413 11.7012Z" fill="white"/>
<path d="M60.0228 9.34841H65.0154V9.34663M46.9841 19.6444V14.6517M46.9841 14.6517L51.9768 14.6517M46.9841 14.6517L50.165 17.8347C51.1555 18.8271 52.4126 19.58 53.8644 19.969C58.2654 21.1483 62.7892 18.5364 63.9685 14.1353M48.0307 9.86484C49.21 5.46374 53.7338 2.85194 58.1349 4.03121C59.5866 4.4202 60.8437 5.17312 61.8342 6.1655L65.0154 9.34663M65.0154 4.3558V9.34663" stroke="white" stroke-width="1.5" stroke-linecap="round" stroke-linejoin="round"/>
<path fill-rule="evenodd" clip-rule="evenodd" d="M96.7552 10.0589C97.8272 6.0579 101.94 3.68353 105.941 4.75559C107.262 5.10955 108.404 5.79374 109.303 6.69528L111.206 8.59835H108.023C107.609 8.59835 107.273 8.93414 107.273 9.34835C107.273 9.76256 107.609 10.0984 108.023 10.0984H113.015C113.214 10.0984 113.405 10.0193 113.546 9.87864C113.686 9.73797 113.765 9.54717 113.765 9.34824V4.35575C113.765 3.94153 113.43 3.60575 113.015 3.60575C112.601 3.60575 112.265 3.94153 112.265 4.35575V7.53591L110.365 5.63561C109.284 4.55253 107.911 3.73071 106.329 3.3067C101.528 2.02023 96.5928 4.86947 95.3063 9.67067C95.1991 10.0708 95.4365 10.482 95.8366 10.5892C96.2367 10.6964 96.648 10.459 96.7552 10.0589ZM112.163 13.4108C111.763 13.3036 111.351 13.5411 111.244 13.9412C110.172 17.9422 106.059 20.3165 102.058 19.2445C100.737 18.8905 99.5957 18.2063 98.6958 17.3048L96.794 15.4017H99.9768C100.391 15.4017 100.727 15.0659 100.727 14.6517C100.727 14.2375 100.391 13.9017 99.9768 13.9017L94.9841 13.9017C94.5699 13.9017 94.2341 14.2375 94.2341 14.6517V19.6443C94.2341 20.0585 94.5699 20.3943 94.9841 20.3943C95.3983 20.3943 95.7341 20.0585 95.7341 19.6443V16.4632L97.6342 18.3645C98.7154 19.4477 100.088 20.2693 101.67 20.6934C106.471 21.9798 111.406 19.1306 112.693 14.3294C112.8 13.9293 112.563 13.5181 112.163 13.4108Z" fill="white"/>
</svg>
