<svg width="116" height="24" viewBox="0 0 116 24" fill="none" xmlns="http://www.w3.org/2000/svg">
<path d="M2 7C1.44772 7 1 7.44772 1 8V9C1 9.55228 1.44772 10 2 10H18C18.5523 10 19 9.55228 19 9V8C19 7.44772 18.5523 7 18 7H2Z" fill="white"/>
<path fill-rule="evenodd" clip-rule="evenodd" d="M2 11.5H18L17.1885 19.2094C17.0813 20.2273 16.223 21 15.1995 21H4.80052C3.77701 21 2.91866 20.2273 2.81151 19.2094L2 11.5ZM7 15C7 14.4477 7.44772 14 8 14H12C12.5523 14 13 14.4477 13 15C13 15.5523 12.5523 16 12 16H8C7.44772 16 7 15.5523 7 15Z" fill="white"/>
<path d="M64.25 7.5L63.6246 18.1321C63.5546 19.3214 62.5698 20.25 61.3785 20.25H50.6215C49.4302 20.25 48.4454 19.3214 48.3754 18.1321L47.75 7.5M53.9998 11.25H57.9998M47.375 7.5H64.625C65.2463 7.5 65.75 6.99632 65.75 6.375V4.875C65.75 4.25368 65.2463 3.75 64.625 3.75H47.375C46.7537 3.75 46.25 4.25368 46.25 4.875V6.375C46.25 6.99632 46.7537 7.5 47.375 7.5Z" stroke="white" stroke-width="1.5" stroke-linecap="round" stroke-linejoin="round"/>
<path d="M95.375 3C94.3395 3 93.5 3.83947 93.5 4.875V5.625C93.5 6.66053 94.3395 7.5 95.375 7.5H112.625C113.661 7.5 114.5 6.66053 114.5 5.625V4.875C114.5 3.83947 113.661 3 112.625 3H95.375Z" fill="white"/>
<path fill-rule="evenodd" clip-rule="evenodd" d="M95.0868 9L95.6266 18.1762C95.7198 19.7619 97.033 21 98.6214 21H109.378C110.967 21 112.28 19.7619 112.373 18.1762L112.913 9H95.0868ZM101.25 12.75C101.25 12.3358 101.586 12 102 12H106C106.414 12 106.75 12.3358 106.75 12.75C106.75 13.1642 106.414 13.5 106 13.5H102C101.586 13.5 101.25 13.1642 101.25 12.75Z" fill="white"/>
</svg>
