<svg width="116" height="24" viewBox="0 0 116 24" fill="none" xmlns="http://www.w3.org/2000/svg">
<path fill-rule="evenodd" clip-rule="evenodd" d="M1 15.2708C1 15.0237 1.03331 14.7777 1.09902 14.5395L2.622 9.0187C2.95099 7.82611 4.03584 7 5.27298 7H14.727C15.9642 7 17.049 7.8261 17.378 9.0187L18.901 14.5395C18.9667 14.7777 19 15.0237 19 15.2708V19C19 20.1046 18.1046 21 17 21H3C1.89543 21 1 20.1046 1 19V15.2708ZM4.06799 9.41759C4.21753 8.8755 4.71065 8.5 5.27298 8.5H14.727C15.2894 8.5 15.7825 8.8755 15.932 9.41759L17.455 14.9384C17.4606 14.9588 17.4657 14.9794 17.4703 15H14C13.6471 15 13.3203 15.186 13.1401 15.4895L12.5339 16.5105C12.3537 16.814 12.0269 17 11.674 17H8.23607C7.8573 17 7.51103 16.786 7.34164 16.4472L6.89443 15.5528C6.72504 15.214 6.37877 15 6 15H2.52969C2.53427 14.9794 2.53938 14.9588 2.54501 14.9384L4.06799 9.41759Z" fill="white"/>
<path d="M46.25 13.5H50.1094C50.9617 13.5 51.7408 13.9815 52.1219 14.7438L52.3781 15.2562C52.7592 16.0185 53.5383 16.5 54.3906 16.5H57.6094C58.4617 16.5 59.2408 16.0185 59.6219 15.2562L59.8781 14.7438C60.2592 13.9815 61.0383 13.5 61.8906 13.5H65.75M46.25 13.8383V18C46.25 19.2426 47.2574 20.25 48.5 20.25H63.5C64.7426 20.25 65.75 19.2426 65.75 18V13.8383C65.75 13.614 65.7165 13.391 65.6505 13.1766L63.2387 5.33831C62.9482 4.39423 62.076 3.75 61.0882 3.75H50.9118C49.924 3.75 49.0518 4.39423 48.7613 5.33831L46.3495 13.1766C46.2835 13.391 46.25 13.614 46.25 13.8383Z" stroke="white" stroke-width="1.5" stroke-linecap="round" stroke-linejoin="round"/>
<path fill-rule="evenodd" clip-rule="evenodd" d="M98.9118 3C97.5948 3 96.4318 3.85897 96.0445 5.11774L93.6327 12.9561C93.5447 13.2419 93.5 13.5393 93.5 13.8383V18C93.5 19.6569 94.8431 21 96.5 21H111.5C113.157 21 114.5 19.6569 114.5 18V13.8383C114.5 13.5393 114.455 13.2419 114.367 12.9561L111.956 5.11774C111.568 3.85897 110.405 3 109.088 3H98.9118ZM112.735 12.75L110.522 5.55887C110.328 4.92948 109.747 4.5 109.088 4.5H98.9118C98.2533 4.5 97.6718 4.92948 97.4781 5.55887L95.2655 12.75H98.1094C99.2457 12.75 100.285 13.392 100.793 14.4084L101.049 14.9208C101.303 15.429 101.822 15.75 102.391 15.75H105.609C106.178 15.75 106.697 15.429 106.951 14.9208L107.207 14.4084C107.715 13.392 108.754 12.75 109.891 12.75H112.735Z" fill="white"/>
</svg>
