<svg width="116" height="24" viewBox="0 0 116 24" fill="none" xmlns="http://www.w3.org/2000/svg">
<path fill-rule="evenodd" clip-rule="evenodd" d="M2 10.75C2 10.3358 2.33579 10 2.75 10H17.25C17.6642 10 18 10.3358 18 10.75C18 11.1642 17.6642 11.5 17.25 11.5H2.75C2.33579 11.5 2 11.1642 2 10.75ZM2 17.25C2 16.8358 2.33579 16.5 2.75 16.5H17.25C17.6642 16.5 18 16.8358 18 17.25C18 17.6642 17.6642 18 17.25 18H2.75C2.33579 18 2 17.6642 2 17.25Z" fill="white"/>
<path d="M47.75 9H64.25M47.75 15.75H64.25" stroke="white" stroke-width="1.5" stroke-linecap="round" stroke-linejoin="round"/>
<path fill-rule="evenodd" clip-rule="evenodd" d="M95 9C95 8.58579 95.3358 8.25 95.75 8.25H112.25C112.664 8.25 113 8.58579 113 9C113 9.41421 112.664 9.75 112.25 9.75H95.75C95.3358 9.75 95 9.41421 95 9ZM95 15.75C95 15.3358 95.3358 15 95.75 15H112.25C112.664 15 113 15.3358 113 15.75C113 16.1642 112.664 16.5 112.25 16.5H95.75C95.3358 16.5 95 16.1642 95 15.75Z" fill="white"/>
</svg>
