<svg width="116" height="24" viewBox="0 0 116 24" fill="none" xmlns="http://www.w3.org/2000/svg">
<path d="M9.25 17.25C9.25 17.6642 9.58578 18 10 18C10.4142 18 10.75 17.6642 10.75 17.25L10.75 8.63642L13.7047 11.765C13.9891 12.0661 14.4638 12.0797 14.765 11.7953C15.0661 11.5109 15.0797 11.0362 14.7953 10.735L10.5453 6.23503C10.4036 6.08501 10.2063 6 10 6C9.79365 6 9.59642 6.08501 9.45474 6.23503L5.20474 10.735C4.92033 11.0362 4.93389 11.5108 5.23503 11.7953C5.53617 12.0797 6.01085 12.0661 6.29526 11.765L9.25 8.63642L9.25 17.25Z" fill="white"/>
<path d="M3.5 16.75C3.5 16.3358 3.16421 16 2.75 16C2.33579 16 2 16.3358 2 16.75V19.25C2 20.7688 3.23122 22 4.75 22H15.25C16.7688 22 18 20.7688 18 19.25V16.75C18 16.3358 17.6642 16 17.25 16C16.8358 16 16.5 16.3358 16.5 16.75V19.25C16.5 19.9404 15.9404 20.5 15.25 20.5H4.75C4.05964 20.5 3.5 19.9404 3.5 19.25V16.75Z" fill="white"/>
<path d="M47 16.5V18.75C47 19.9926 48.0074 21 49.25 21H62.75C63.9926 21 65 19.9926 65 18.75V16.5M51.5 7.5L56 3M56 3L60.5 7.5M56 3L56 16.5" stroke="white" stroke-width="1.5" stroke-linecap="round" stroke-linejoin="round"/>
<path fill-rule="evenodd" clip-rule="evenodd" d="M103.47 2.46967C103.763 2.17678 104.237 2.17678 104.53 2.46967L109.03 6.96967C109.323 7.26256 109.323 7.73744 109.03 8.03033C108.737 8.32322 108.263 8.32322 107.97 8.03033L104.75 4.81066L104.75 16.5C104.75 16.9142 104.414 17.25 104 17.25C103.586 17.25 103.25 16.9142 103.25 16.5L103.25 4.81066L100.03 8.03033C99.7374 8.32322 99.2626 8.32322 98.9697 8.03033C98.6768 7.73744 98.6768 7.26256 98.9697 6.96967L103.47 2.46967ZM95 15.75C95.4142 15.75 95.75 16.0858 95.75 16.5V18.75C95.75 19.5784 96.4216 20.25 97.25 20.25H110.75C111.578 20.25 112.25 19.5784 112.25 18.75V16.5C112.25 16.0858 112.586 15.75 113 15.75C113.414 15.75 113.75 16.0858 113.75 16.5V18.75C113.75 20.4069 112.407 21.75 110.75 21.75H97.25C95.5931 21.75 94.25 20.4069 94.25 18.75V16.5C94.25 16.0858 94.5858 15.75 95 15.75Z" fill="white"/>
</svg>
