<svg width="116" height="24" viewBox="0 0 116 24" fill="none" xmlns="http://www.w3.org/2000/svg">
<path fill-rule="evenodd" clip-rule="evenodd" d="M4.25 9.5C3.83579 9.5 3.5 9.83579 3.5 10.25V18.75C3.5 19.1642 3.83579 19.5 4.25 19.5H12.75C13.1642 19.5 13.5 19.1642 13.5 18.75V14.75C13.5 14.3358 13.8358 14 14.25 14C14.6642 14 15 14.3358 15 14.75V18.75C15 19.9926 13.9926 21 12.75 21H4.25C3.00736 21 2 19.9926 2 18.75V10.25C2 9.00736 3.00736 8 4.25 8H9.25C9.66421 8 10 8.33579 10 8.75C10 9.16421 9.66421 9.5 9.25 9.5H4.25Z" fill="white"/>
<path fill-rule="evenodd" clip-rule="evenodd" d="M6.19385 16.7532C6.47175 17.0603 6.94603 17.0841 7.25319 16.8062L16.5 8.43999V11.25C16.5 11.6642 16.8358 12 17.25 12C17.6642 12 18 11.6642 18 11.25V6.75C18 6.33579 17.6642 6 17.25 6H12.75C12.3358 6 12 6.33579 12 6.75C12 7.16421 12.3358 7.5 12.75 7.5H15.3032L6.24682 15.6938C5.93966 15.9717 5.91595 16.446 6.19385 16.7532Z" fill="white"/>
<path d="M57.5 6H49.25C48.0074 6 47 7.00736 47 8.25V18.75C47 19.9926 48.0074 21 49.25 21H59.75C60.9926 21 62 19.9926 62 18.75V10.5M51.5 16.5L65 3M65 3L59.75 3M65 3V8.25" stroke="white" stroke-width="1.5" stroke-linecap="round" stroke-linejoin="round"/>
<path fill-rule="evenodd" clip-rule="evenodd" d="M107.75 2.25L113 2.25C113.199 2.25 113.39 2.32902 113.53 2.46967C113.671 2.61032 113.75 2.80109 113.75 3V8.25C113.75 8.66421 113.414 9 113 9C112.586 9 112.25 8.66421 112.25 8.25V4.81066L100.03 17.0303C99.7374 17.3232 99.2626 17.3232 98.9697 17.0303C98.6768 16.7374 98.6768 16.2626 98.9697 15.9697L111.189 3.75L107.75 3.75C107.336 3.75 107 3.41421 107 3C107 2.58579 107.336 2.25 107.75 2.25ZM97.25 6.75C96.4216 6.75 95.75 7.42157 95.75 8.25V18.75C95.75 19.5784 96.4216 20.25 97.25 20.25H107.75C108.578 20.25 109.25 19.5784 109.25 18.75V10.5C109.25 10.0858 109.586 9.75 110 9.75C110.414 9.75 110.75 10.0858 110.75 10.5V18.75C110.75 20.4069 109.407 21.75 107.75 21.75H97.25C95.5931 21.75 94.25 20.4069 94.25 18.75V8.25C94.25 6.59315 95.5931 5.25 97.25 5.25H105.5C105.914 5.25 106.25 5.58579 106.25 6C106.25 6.41421 105.914 6.75 105.5 6.75H97.25Z" fill="white"/>
</svg>
