<svg width="116" height="24" viewBox="0 0 116 24" fill="none" xmlns="http://www.w3.org/2000/svg">
<path fill-rule="evenodd" clip-rule="evenodd" d="M10 22C14.4183 22 18 18.4183 18 14C18 9.58172 14.4183 6 10 6C5.58172 6 2 9.58172 2 14C2 18.4183 5.58172 22 10 22ZM7.34581 9.29439C7.09419 8.96536 6.62349 8.9026 6.29445 9.15421C5.96542 9.40582 5.90266 9.87653 6.15427 10.2056L9.05588 14H6.75004C6.33583 14 6.00004 14.3358 6.00004 14.75C6.00004 15.1642 6.33583 15.5 6.75004 15.5H9.25004V16.5H6.75004C6.33583 16.5 6.00004 16.8358 6.00004 17.25C6.00004 17.6642 6.33583 18 6.75004 18H9.25004V19.25C9.25004 19.6642 9.58583 20 10 20C10.4143 20 10.75 19.6642 10.75 19.25V18H13.25C13.6643 18 14 17.6642 14 17.25C14 16.8358 13.6643 16.5 13.25 16.5H10.75V15.5H13.25C13.6643 15.5 14 15.1642 14 14.75C14 14.3358 13.6643 14 13.25 14H10.9442L13.8458 10.2056C14.0974 9.87653 14.0347 9.40582 13.7056 9.15421C13.3766 8.9026 12.9059 8.96536 12.6543 9.29439L10 12.7653L7.34581 9.29439Z" fill="white"/>
<path d="M53 7.5L56 12M56 12L59 7.5M56 12V17.25M59 12H53M59 15H53M65 12C65 16.9706 60.9706 21 56 21C51.0294 21 47 16.9706 47 12C47 7.02944 51.0294 3 56 3C60.9706 3 65 7.02944 65 12Z" stroke="white" stroke-width="1.5" stroke-linecap="round" stroke-linejoin="round"/>
<path fill-rule="evenodd" clip-rule="evenodd" d="M104 2.25C98.6152 2.25 94.25 6.61522 94.25 12C94.25 17.3848 98.6152 21.75 104 21.75C109.385 21.75 113.75 17.3848 113.75 12C113.75 6.61522 109.385 2.25 104 2.25ZM101.624 7.08397C101.394 6.73933 100.929 6.6462 100.584 6.87596C100.239 7.10573 100.146 7.57138 100.376 7.91603L102.599 11.25H101C100.586 11.25 100.25 11.5858 100.25 12C100.25 12.4142 100.586 12.75 101 12.75H103.25V14.25H101C100.586 14.25 100.25 14.5858 100.25 15C100.25 15.4142 100.586 15.75 101 15.75H103.25V17.25C103.25 17.6642 103.586 18 104 18C104.414 18 104.75 17.6642 104.75 17.25V15.75H107C107.414 15.75 107.75 15.4142 107.75 15C107.75 14.5858 107.414 14.25 107 14.25H104.75V12.75H107C107.414 12.75 107.75 12.4142 107.75 12C107.75 11.5858 107.414 11.25 107 11.25H105.401L107.624 7.91603C107.854 7.57138 107.761 7.10573 107.416 6.87596C107.071 6.6462 106.606 6.73933 106.376 7.08397L104 10.6479L101.624 7.08397Z" fill="white"/>
</svg>
