<svg width="298" height="45" viewBox="0 0 298 45" fill="none" xmlns="http://www.w3.org/2000/svg">
<path d="M0 44.1995V2.77772H17.735C21.8946 2.77772 25.2071 4.03941 27.6725 6.56279C30.1557 9.10401 31.3996 12.3407 31.3996 16.2684C31.3996 20.1962 30.1557 23.6068 27.6725 26.148C25.109 28.7115 21.8009 29.991 17.735 29.991H8.0873V44.204H0V44.1995ZM8.0873 22.7374H16.2593C20.8424 22.7374 23.134 20.5796 23.134 16.2684C23.134 14.3024 22.5366 12.7553 21.3417 11.6185C20.089 10.5396 18.3948 10.0001 16.2593 10.0001H8.0873V22.7374Z" fill="#333333"/>
<path d="M37.3199 44.1996V13.4375H43.9939L44.6003 18.1187H44.8321C46.4103 14.6903 49.0764 12.9783 52.8347 12.9783H55.0594V20.3167H52.2863C49.919 20.3167 48.0866 21.079 46.7982 22.5993C45.4874 24.1419 44.8321 26.3175 44.8321 29.1262V44.2041H37.3244L37.3199 44.1996Z" fill="#333333"/>
<path d="M73.2229 44.7166C68.408 44.7166 64.721 43.2632 62.1619 40.3564C59.5628 37.4674 58.2609 33.6467 58.2609 28.8897C58.2609 24.1327 59.5628 20.2808 62.1619 17.3339C64.7611 14.3869 68.4481 12.9157 73.2229 12.9157C77.9977 12.9157 81.6267 14.3869 84.2259 17.3339C86.8251 20.2808 88.1269 24.1327 88.1269 28.8897C88.1269 33.6467 86.8474 37.3916 84.2839 40.2984C81.6847 43.2453 77.9977 44.7166 73.2229 44.7166ZM73.2229 37.7572C77.7882 37.7572 80.0663 34.8014 80.0663 28.8897C80.0663 22.978 77.7837 19.8795 73.2229 19.8795C68.6621 19.8795 66.3482 22.8844 66.3482 28.8897C66.3482 34.895 68.6398 37.7572 73.2229 37.7572Z" fill="#333333"/>
<path d="M104.56 44.7159C100.668 44.7159 97.5872 43.2625 95.3179 40.3557C93.0442 37.5247 91.9073 33.6817 91.9073 28.8311C91.9073 23.9805 93.0219 20.2623 95.2599 17.3332C97.5114 14.3863 100.614 12.9151 104.56 12.9151C108.22 12.9151 111.038 14.1946 113.022 16.7581H113.254V0.409611H121.167V44.1988H114.092L113.254 40.8773H113.022C111.038 43.4364 108.216 44.7204 104.56 44.7204V44.7159ZM106.753 37.7565C109.045 37.7565 110.757 36.9273 111.894 35.2733C112.99 33.6772 113.539 31.5283 113.539 28.8311C113.539 26.1338 113.008 23.9983 111.952 22.3621C110.815 20.7081 109.081 19.8789 106.753 19.8789C104.426 19.8789 102.683 20.6858 101.582 22.3042C100.485 23.9002 99.9367 26.0803 99.9367 28.8311C99.9367 31.5818 100.485 33.6728 101.582 35.2733C102.719 36.9318 104.44 37.7565 106.753 37.7565Z" fill="#333333"/>
<path d="M147.02 13.4379H154.934V32.2429C154.934 35.7872 153.77 38.7519 151.439 41.1416C149.165 43.5312 145.794 44.7216 141.327 44.7216H141.269C136.802 44.7216 133.432 43.5267 131.158 41.1416C128.826 38.7519 127.663 35.7872 127.663 32.2429V13.4379H135.576V30.999C135.576 35.2165 137.493 37.3253 141.323 37.3253C145.152 37.3253 147.012 35.2165 147.012 30.999V13.4379H147.02Z" fill="#333333"/>
<path d="M175.326 44.7165C170.627 44.7165 166.94 43.2631 164.265 40.3563C161.626 37.4896 160.306 33.6466 160.306 28.8317C160.306 24.0167 161.608 20.1068 164.207 17.2223C166.788 14.3557 170.435 12.9201 175.152 12.9201C179.427 12.9201 182.74 14.0391 185.089 16.2727C187.421 18.6044 188.701 21.5692 188.932 25.167H180.93C180.756 23.5888 180.167 22.3003 179.169 21.2972C178.166 20.3521 176.828 19.8839 175.152 19.8839C170.645 19.8839 168.393 22.871 168.393 28.8361C168.393 34.8013 170.645 37.7616 175.152 37.7616C176.864 37.7616 178.224 37.289 179.227 36.3483C180.23 35.4611 180.814 34.2217 180.988 32.6212H188.99C188.759 36.2413 187.479 39.157 185.147 41.3728C182.798 43.6064 179.526 44.7254 175.326 44.7254V44.7165Z" fill="#333333"/>
<path d="M207.617 44.7166C202.994 44.7166 199.365 43.223 196.73 40.2405C194.091 37.3158 192.771 33.5308 192.771 28.8897C192.771 24.2486 194.051 20.419 196.614 17.3918C199.137 14.4092 202.758 12.9157 207.474 12.9157C212.191 12.9157 215.477 14.329 218.018 17.16C220.542 19.9731 221.803 23.5621 221.803 27.9356V30.9985H200.863C200.921 33.232 201.518 34.9752 202.655 36.228C203.77 37.5165 205.428 38.1629 207.622 38.1629C210.858 38.1629 212.86 36.977 213.631 34.6097H221.402C220.996 37.4585 219.552 39.866 217.069 41.8321C214.643 43.758 211.496 44.721 207.622 44.721L207.617 44.7166ZM200.916 25.7377H213.712C213.654 23.9098 213.096 22.4074 212.035 21.2304C210.956 20.0935 209.436 19.5273 207.47 19.5273C205.37 19.5273 203.783 20.0935 202.704 21.2304C201.567 22.3672 200.97 23.8697 200.912 25.7377H200.916Z" fill="#333333"/>
<path d="M228.415 30.4186V23.3121H246.525V30.4186H228.415Z" fill="#333333"/>
<path d="M274.081 13.4379H281.995V32.2429C281.995 35.7872 280.831 38.7519 278.5 41.1416C276.226 43.5312 272.855 44.7216 268.388 44.7216H268.33C263.863 44.7216 260.493 43.5267 258.219 41.1416C255.887 38.7519 254.724 35.7872 254.724 32.2429V13.4379H262.637V30.999C262.637 35.2165 264.554 37.3253 268.384 37.3253C272.213 37.3253 274.073 35.2165 274.073 30.999V13.4379H274.081Z" fill="#333333"/>
<path d="M293.087 9.5942C291.451 9.5942 290.229 9.16175 289.418 8.29238C288.589 7.46315 288.174 6.2817 288.174 4.73914C288.174 3.29466 288.589 2.13105 289.418 1.24386C290.247 0.41462 291.469 0 293.087 0C294.607 0 295.811 0.41462 296.698 1.24386C297.563 2.10876 298 3.27683 298 4.73914C298 6.29954 297.568 7.48544 296.698 8.29238C295.833 9.15729 294.63 9.5942 293.087 9.5942ZM289.07 44.1993V13.4372H296.984V44.1993H289.07Z" fill="#333333"/>
</svg>
