<svg width="116" height="24" viewBox="0 0 116 24" fill="none" xmlns="http://www.w3.org/2000/svg">
<path d="M2.69509 18.7623L1.4333 21.9168C1.27004 22.3249 1.67508 22.73 2.08324 22.5667L5.2377 21.3049C5.74067 21.1037 6.19753 20.8025 6.58057 20.4194L17.4998 9.50072C18.3282 8.67229 18.3282 7.32914 17.4998 6.50072C16.6713 5.67229 15.3282 5.67229 14.4998 6.50071L3.58057 17.4194C3.19752 17.8025 2.89627 18.2593 2.69509 18.7623Z" fill="white"/>
<path d="M60.8617 4.48667L62.5492 2.79917C63.2814 2.06694 64.4686 2.06694 65.2008 2.79917C65.9331 3.53141 65.9331 4.71859 65.2008 5.45083L50.8322 19.8195C50.3035 20.3481 49.6514 20.7368 48.9349 20.9502L46.25 21.75L47.0498 19.0651C47.2632 18.3486 47.6518 17.6965 48.1805 17.1678L60.8617 4.48667ZM60.8617 4.48667L63.5 7.12499" stroke="white" stroke-width="1.5" stroke-linecap="round" stroke-linejoin="round"/>
<path d="M113.731 2.26884C112.706 1.24372 111.044 1.24372 110.019 2.26884L108.862 3.426L112.574 7.13831L113.731 5.98116C114.756 4.95603 114.756 3.29397 113.731 2.26884Z" fill="white"/>
<path d="M111.513 8.19897L107.801 4.48666L95.6502 16.6375C95.0334 17.2543 94.58 18.015 94.331 18.851L93.5312 21.5359C93.4526 21.7998 93.525 22.0856 93.7197 22.2803C93.9144 22.4751 94.2002 22.5474 94.4641 22.4688L97.149 21.669C97.985 21.42 98.7457 20.9666 99.3625 20.3498L111.513 8.19897Z" fill="white"/>
</svg>
