<svg width="116" height="24" viewBox="0 0 116 24" fill="none" xmlns="http://www.w3.org/2000/svg">
<path fill-rule="evenodd" clip-rule="evenodd" d="M11 6C11 5.44772 10.5523 5 10 5C9.44772 5 9 5.44772 9 6V12V12.5C9 12.7761 8.77614 13 8.5 13C8.22386 13 8 12.7761 8 12.5V12V7C8 6.44772 7.55229 6 7 6C6.44771 6 6 6.44772 6 7V12V12.5C6 12.7761 5.77614 13 5.5 13C5.22386 13 5 12.7761 5 12.5V12V9C5 8.44772 4.55229 8 4 8C3.44771 8 3 8.44772 3 9V15V16C3 19.866 6.13401 23 10 23C13.866 23 17 19.866 17 16V15V12C17 11.4477 16.5523 11 16 11C15.4477 11 15 11.4477 15 12V15V15.5C15 15.7761 14.7761 16 14.5 16C14.2239 16 14 15.7761 14 15.5V15V14V12V7C14 6.44772 13.5523 6 13 6C12.4477 6 12 6.44772 12 7V12V12.5C12 12.7761 11.7761 13 11.5 13C11.2239 13 11 12.7761 11 12.5V12V6Z" fill="white"/>
<path d="M54.05 4.575C54.05 3.70515 53.3449 3 52.475 3C51.6052 3 50.9 3.70515 50.9 4.575L50.9 7.575M54.05 4.575L54.05 3.075C54.05 2.20515 54.7552 1.5 55.625 1.5C56.4949 1.5 57.2 2.20515 57.2 3.075L57.2 4.575M54.05 4.575L54.125 10.5M57.2 11.25V4.575M57.2 4.575C57.2 3.70515 57.9052 3 58.775 3C59.6449 3 60.35 3.70515 60.35 4.575V15M50.9 7.575C50.9 6.70515 50.1948 6 49.325 6C48.4552 6 47.75 6.70515 47.75 7.575V15.75C47.75 19.4779 50.7721 22.5 54.5 22.5H56.5179C57.9103 22.5 59.2456 21.9469 60.2302 20.9623L61.9623 19.2302C62.9469 18.2456 63.5 16.9103 63.5 15.5179L63.5031 13.494C63.5046 13.3209 63.5701 13.1533 63.7007 13.0227C64.3158 12.4076 64.3158 11.4104 63.7007 10.7953C63.0857 10.1802 62.0884 10.1802 61.4733 10.7953C60.7315 11.5371 60.3578 12.5111 60.3531 13.4815M50.9 7.575V12M57.17 16.318C57.5599 15.9281 58.0035 15.6248 58.477 15.4079C59.0701 15.1362 59.71 15.0003 60.35 15M60.3519 15H60.35" stroke="white" stroke-width="1.5" stroke-linecap="round" stroke-linejoin="round"/>
<path d="M102.5 1.875C102.5 1.25368 103.004 0.75 103.625 0.75C104.246 0.75 104.75 1.25368 104.75 1.875V10.0938C105.267 10.2561 105.771 10.4757 106.25 10.7527V3.375C106.25 2.75368 106.754 2.25 107.375 2.25C107.996 2.25 108.5 2.75368 108.5 3.375V14.3122C107.082 14.5501 105.889 15.451 105.251 16.6852C106.455 16.0866 107.813 15.75 109.25 15.75C109.664 15.75 110 15.4142 110 15V12.75L110 12.7336C110.004 11.8771 110.334 11.0181 110.989 10.3635C111.428 9.92417 112.14 9.92417 112.579 10.3635C113.019 10.8028 113.019 11.5152 112.579 11.9545C112.361 12.173 112.251 12.4567 112.25 12.7445L112.25 12.75L112.25 15.75H112.245C112.186 17.2558 111.562 18.6877 110.493 19.7574L108.757 21.4926C107.632 22.6179 106.106 23.25 104.515 23.25H102.5C98.3579 23.25 95 19.8921 95 15.75V6.375C95 5.75368 95.5037 5.25 96.125 5.25C96.7463 5.25 97.25 5.75368 97.25 6.375V11.8939C97.7108 11.4421 98.2154 11.0617 98.75 10.7527V3.375C98.75 2.75368 99.2537 2.25 99.875 2.25C100.496 2.25 101 2.75368 101 3.375V9.90069C101.495 9.80023 101.997 9.75 102.5 9.75V1.875Z" fill="white"/>
</svg>
