<svg width="116" height="24" viewBox="0 0 116 24" fill="none" xmlns="http://www.w3.org/2000/svg">
<path fill-rule="evenodd" clip-rule="evenodd" d="M5.5 21C3.01472 21 1 18.9853 1 16.5C1 14.5184 2.28084 12.836 4.05979 12.2354C4.02046 11.9961 4 11.7504 4 11.5C4 9.01472 6.01472 7 8.5 7C10.1404 7 11.5758 7.87771 12.3621 9.18913C12.7189 9.06655 13.1017 9 13.5 9C15.433 9 17 10.567 17 12.5C17 12.8333 16.9534 13.1558 16.8664 13.4612C18.1353 14.1318 19 15.4649 19 17C19 19.2091 17.2091 21 15 21H5.5ZM10.75 11.75C10.75 11.3358 10.4142 11 10 11C9.58579 11 9.25 11.3358 9.25 11.75V16.3401L7.29959 14.2397C7.01774 13.9361 6.54319 13.9186 6.23966 14.2004C5.93613 14.4823 5.91855 14.9568 6.20041 15.2603L9.45041 18.7603C9.59231 18.9132 9.79145 19 10 19C10.2086 19 10.4077 18.9132 10.5496 18.7603L13.7996 15.2603C14.0814 14.9568 14.0639 14.4823 13.7603 14.2004C13.4568 13.9186 12.9823 13.9361 12.7004 14.2397L10.75 16.3401V11.75Z" fill="white"/>
<path d="M56 9.75V16.5M56 16.5L53 13.5M56 16.5L59 13.5M50.75 19.5C48.2647 19.5 46.25 17.4853 46.25 15C46.25 13.0071 47.5456 11.3167 49.3404 10.7252C49.281 10.4092 49.25 10.0832 49.25 9.75C49.25 6.85051 51.6005 4.5 54.5 4.5C56.9312 4.5 58.9765 6.1526 59.5737 8.39575C59.8654 8.30113 60.1767 8.25 60.5 8.25C62.1569 8.25 63.5 9.59315 63.5 11.25C63.5 11.5981 63.4407 11.9324 63.3316 12.2433C64.7453 12.7805 65.75 14.1479 65.75 15.75C65.75 17.8211 64.0711 19.5 62 19.5H50.75Z" stroke="white" stroke-width="1.5" stroke-linecap="round" stroke-linejoin="round"/>
<path fill-rule="evenodd" clip-rule="evenodd" d="M102.5 3.75C99.1863 3.75 96.5 6.43629 96.5 9.75C96.5 9.91685 96.5068 10.0822 96.5202 10.2459C94.7363 11.084 93.5 12.8968 93.5 15C93.5 17.8995 95.8505 20.25 98.75 20.25H110C112.485 20.25 114.5 18.2353 114.5 15.75C114.5 14.0653 113.574 12.5981 112.206 11.827C112.235 11.6386 112.25 11.4459 112.25 11.25C112.25 9.17893 110.571 7.5 108.5 7.5C108.356 7.5 108.214 7.50816 108.073 7.52408C107.189 5.31282 105.028 3.75 102.5 3.75ZM104.75 9.75C104.75 9.33579 104.414 9 104 9C103.586 9 103.25 9.33579 103.25 9.75V14.6893L101.53 12.9697C101.237 12.6768 100.763 12.6768 100.47 12.9697C100.177 13.2626 100.177 13.7374 100.47 14.0303L103.47 17.0303C103.763 17.3232 104.237 17.3232 104.53 17.0303L107.53 14.0303C107.823 13.7374 107.823 13.2626 107.53 12.9697C107.237 12.6768 106.763 12.6768 106.47 12.9697L104.75 14.6893V9.75Z" fill="white"/>
</svg>
