<svg width="116" height="24" viewBox="0 0 116 24" fill="none" xmlns="http://www.w3.org/2000/svg">
<path d="M7.71178 8.81846C8.71111 8.20123 10 8.92008 10 10.0947V13.0674C10.1044 12.9363 10.234 12.8194 10.389 12.7237L16.7118 8.81846C17.7111 8.20123 19 8.92008 19 10.0947V17.9051C19 19.0797 17.7111 19.7986 16.7118 19.1813L10.389 15.2761C10.234 15.1804 10.1044 15.0635 10 14.9323V17.9051C10 19.0797 8.71111 19.7986 7.71178 19.1813L1.38901 15.2761C0.439994 14.6899 0.439991 13.3099 1.38901 12.7237L7.71178 8.81846Z" fill="white"/>
<path d="M65 16.8115C65 17.6753 64.0668 18.2169 63.3169 17.7883L56.2094 13.7269C55.4536 13.295 55.4536 12.2052 56.2094 11.7733L63.3169 7.7119C64.0668 7.28334 65 7.82487 65 8.68867V16.8115Z" stroke="white" stroke-width="1.5" stroke-linecap="round" stroke-linejoin="round"/>
<path d="M55.25 16.8115C55.25 17.6753 54.3168 18.2169 53.5669 17.7883L46.4594 13.7269C45.7036 13.295 45.7036 12.2052 46.4594 11.7733L53.5669 7.7119C54.3168 7.28334 55.25 7.82487 55.25 8.68867L55.25 16.8115Z" stroke="white" stroke-width="1.5" stroke-linecap="round" stroke-linejoin="round"/>
<path d="M101.195 18.4394C102.445 19.1536 104 18.2511 104 16.8114V14.4709L110.945 18.4394C112.195 19.1536 113.75 18.2511 113.75 16.8114L113.75 8.68856C113.75 7.24889 112.195 6.34633 110.945 7.06061L104 11.029V8.68856C104 7.24889 102.445 6.34633 101.195 7.06061L94.0873 11.122C92.8276 11.8418 92.8276 13.6581 94.0873 14.3779L101.195 18.4394Z" fill="white"/>
</svg>
