<svg width="116" height="24" viewBox="0 0 116 24" fill="none" xmlns="http://www.w3.org/2000/svg">
<path d="M1 12.25C1 11.5596 1.55964 11 2.25 11C2.94036 11 3.5 11.5596 3.5 12.25V19.75C3.5 20.4404 2.94036 21 2.25 21C1.55964 21 1 20.4404 1 19.75V12.25Z" fill="white"/>
<path d="M11 7V5.70016C11 5.43243 11.1397 5.17406 11.3949 5.09316C11.5858 5.03264 11.7891 5 12 5C13.1046 5 14 5.89543 14 7C14 7.99504 13.8183 8.94764 13.4864 9.82646C13.2823 10.3668 13.6524 11 14.23 11H16.75C17.9926 11 19.0111 12.0096 18.8962 13.2469C18.7031 15.3266 18.2447 17.3294 17.555 19.2209C17.1534 20.3225 16.0723 21 14.8998 21H11.7082C11.2425 21 10.7831 20.8916 10.3666 20.6833L7.63344 19.3167C7.21687 19.1084 6.75753 19 6.2918 19H5V12H5.9632C6.64763 12 7.22105 11.5175 7.57541 10.9319C8.06387 10.1248 8.82963 9.50423 9.74061 9.20229C10.1734 9.05884 10.5942 8.81595 10.7525 8.38836C10.9126 7.95587 11 7.48815 11 7Z" fill="white"/>
<path d="M50.6326 10.25C51.4389 10.25 52.1665 9.80416 52.6641 9.16967C53.4373 8.18384 54.4117 7.3634 55.5255 6.77021C56.2477 6.38563 56.8743 5.81428 57.1781 5.05464C57.3908 4.5231 57.5 3.95587 57.5 3.38338V2.75C57.5 2.33579 57.8358 2 58.25 2C59.4926 2 60.5 3.00736 60.5 4.25C60.5 5.40163 60.2404 6.49263 59.7766 7.46771C59.511 8.02604 59.8836 8.75 60.5019 8.75M60.5019 8.75H63.6277C64.6544 8.75 65.5733 9.44399 65.682 10.4649C65.7269 10.8871 65.75 11.3158 65.75 11.75C65.75 14.5976 64.7581 17.2136 63.101 19.2712C62.7134 19.7525 62.1142 20 61.4962 20H57.4802C56.9966 20 56.5161 19.922 56.0572 19.7691L52.9428 18.7309C52.4839 18.578 52.0034 18.5 51.5198 18.5H49.9042M60.5019 8.75H58.25M49.9042 18.5C49.987 18.7046 50.0771 18.9054 50.1742 19.1022C50.3714 19.5017 50.0962 20 49.6507 20H48.7429C47.8542 20 47.0299 19.482 46.7706 18.632C46.4321 17.5226 46.25 16.3451 46.25 15.125C46.25 13.5725 46.5448 12.0889 47.0815 10.7271C47.3865 9.95303 48.1673 9.5 48.9994 9.5H50.0521C50.524 9.5 50.7973 10.0559 50.5523 10.4593C49.7259 11.8198 49.25 13.4168 49.25 15.125C49.25 16.3185 49.4823 17.4578 49.9042 18.5Z" stroke="white" stroke-width="1.5" stroke-linecap="round" stroke-linejoin="round"/>
<path d="M99.4928 18.5C99.0682 18.5 98.673 18.2635 98.5176 17.8684C98.1835 17.0187 98 16.0933 98 15.125C98 13.3759 98.5987 11.7667 99.6024 10.491C99.7533 10.2993 99.9746 10.1821 100.202 10.094C100.675 9.91091 101.093 9.57968 101.414 9.16967C102.187 8.18384 103.162 7.3634 104.276 6.77021C104.998 6.38563 105.624 5.81428 105.928 5.05464C106.141 4.5231 106.25 3.95587 106.25 3.38338V2.75C106.25 2.33579 106.586 2 107 2C108.243 2 109.25 3.00736 109.25 4.25C109.25 5.40163 108.99 6.49263 108.527 7.46771C108.261 8.02604 108.634 8.75 109.252 8.75H112.378C113.404 8.75 114.323 9.44399 114.432 10.4649C114.477 10.8871 114.5 11.3158 114.5 11.75C114.5 14.5976 113.508 17.2136 111.851 19.2712C111.463 19.7525 110.864 20 110.246 20H106.23C105.747 20 105.266 19.922 104.807 19.7691L101.693 18.7309C101.234 18.578 100.753 18.5 100.27 18.5H99.4928Z" fill="white"/>
<path d="M94.3315 10.7271C93.7948 12.0889 93.5 13.5725 93.5 15.125C93.5 16.3451 93.6821 17.5226 94.0206 18.632C94.2799 19.482 95.1042 20 95.9929 20H96.9007C97.3462 20 97.6214 19.5017 97.4242 19.1022C96.8325 17.9029 96.5 16.5528 96.5 15.125C96.5 13.4168 96.9759 11.8198 97.8023 10.4593C98.0473 10.0559 97.774 9.5 97.3021 9.5H96.2494C95.4173 9.5 94.6365 9.95303 94.3315 10.7271Z" fill="white"/>
</svg>
