<svg width="196" height="56" viewBox="0 0 196 56" fill="none" xmlns="http://www.w3.org/2000/svg">
<rect x="0.5" y="0.5" width="55" height="55" rx="7.5" fill="#1A1A1A"/>
<rect x="0.5" y="0.5" width="55" height="55" rx="7.5" stroke="#262626"/>
<g clip-path="url(#clip0_109_1781)">
<path d="M40 28C40 21.3726 34.6274 16 28 16C21.3726 16 16 21.3726 16 28C16 33.9895 20.3882 38.954 26.125 39.8542V31.4687H23.0781V28H26.125V25.3562C26.125 22.3488 27.9166 20.6875 30.6576 20.6875C31.9701 20.6875 33.3438 20.9219 33.3438 20.9219V23.875H31.8306C30.34 23.875 29.875 24.8001 29.875 25.75V28H33.2031L32.6711 31.4687H29.875V39.8542C35.6118 38.954 40 33.9895 40 28Z" fill="white"/>
</g>
<rect x="70.5" y="0.5" width="55" height="55" rx="7.5" fill="#1A1A1A"/>
<rect x="70.5" y="0.5" width="55" height="55" rx="7.5" stroke="#262626"/>
<g clip-path="url(#clip1_109_1781)">
<path d="M93.5502 37.75C102.605 37.75 107.558 30.2467 107.558 23.7419C107.558 23.5309 107.554 23.3153 107.544 23.1044C108.508 22.4075 109.339 21.5443 110 20.5553C109.103 20.9546 108.15 21.2154 107.174 21.3287C108.201 20.7129 108.971 19.7455 109.339 18.6058C108.373 19.1786 107.316 19.5826 106.213 19.8006C105.471 19.0116 104.489 18.4891 103.42 18.3141C102.35 18.139 101.253 18.3211 100.298 18.8321C99.3423 19.3431 98.5818 20.1547 98.1338 21.1413C97.6859 22.1279 97.5754 23.2346 97.8195 24.2903C95.8625 24.1921 93.9479 23.6837 92.2 22.7981C90.452 21.9125 88.9097 20.6694 87.673 19.1495C87.0444 20.2332 86.8521 21.5156 87.135 22.7361C87.418 23.9565 88.1551 25.0234 89.1964 25.72C88.4146 25.6952 87.65 25.4847 86.9656 25.1059V25.1669C86.9649 26.3041 87.3581 27.4066 88.0783 28.2868C88.7985 29.167 89.8013 29.7706 90.9162 29.995C90.1921 30.1931 89.432 30.222 88.6948 30.0794C89.0095 31.0574 89.6216 31.9129 90.4458 32.5263C91.27 33.1398 92.2651 33.4806 93.2923 33.5012C91.5484 34.8711 89.3942 35.6141 87.1766 35.6106C86.7833 35.61 86.3904 35.5859 86 35.5384C88.2529 36.9837 90.8735 37.7514 93.5502 37.75Z" fill="white"/>
</g>
<rect x="140.5" y="0.5" width="55" height="55" rx="7.5" fill="#1A1A1A"/>
<rect x="140.5" y="0.5" width="55" height="55" rx="7.5" stroke="#262626"/>
<g clip-path="url(#clip2_109_1781)">
<path d="M178.223 16H157.772C156.792 16 156 16.7734 156 17.7297V38.2656C156 39.2219 156.792 40 157.772 40H178.223C179.203 40 180 39.2219 180 38.2703V17.7297C180 16.7734 179.203 16 178.223 16ZM163.12 36.4516H159.558V24.9953H163.12V36.4516ZM161.339 23.4344C160.195 23.4344 159.272 22.5109 159.272 21.3719C159.272 20.2328 160.195 19.3094 161.339 19.3094C162.478 19.3094 163.402 20.2328 163.402 21.3719C163.402 22.5062 162.478 23.4344 161.339 23.4344ZM176.452 36.4516H172.894V30.8828C172.894 29.5562 172.87 27.8453 171.042 27.8453C169.191 27.8453 168.909 29.2937 168.909 30.7891V36.4516H165.356V24.9953H168.769V26.5609H168.816C169.289 25.6609 170.452 24.7094 172.181 24.7094C175.786 24.7094 176.452 27.0813 176.452 30.1656V36.4516Z" fill="white"/>
</g>
<defs>
<clipPath id="clip0_109_1781">
<rect width="24" height="24" fill="white" transform="translate(16 16)"/>
</clipPath>
<clipPath id="clip1_109_1781">
<rect width="24" height="24" fill="white" transform="translate(86 16)"/>
</clipPath>
<clipPath id="clip2_109_1781">
<rect width="24" height="24" fill="white" transform="translate(156 16)"/>
</clipPath>
</defs>
</svg>
