<svg width="50" height="50" viewBox="0 0 50 50" fill="none" xmlns="http://www.w3.org/2000/svg">
<rect width="50" height="50" rx="10" fill="white"/>
<g clip-path="url(#clip0_529_281)">
<path d="M25 40C33.2843 40 40 33.2843 40 25C40 16.7157 33.2843 10 25 10C16.7157 10 10 16.7157 10 25C10 33.2843 16.7157 40 25 40Z" fill="#1769FF"/>
<path d="M20.5972 18.2031C21.244 18.2031 21.8344 18.2607 22.3684 18.3747C22.9024 18.4887 23.3584 18.6759 23.7388 18.9363C24.1192 19.1967 24.4144 19.5423 24.6244 19.9743C24.8344 20.4063 24.9388 20.9391 24.9388 21.5739C24.9388 22.2591 24.7828 22.8303 24.472 23.2875C24.1612 23.7447 23.7004 24.1191 23.092 24.4107C23.9296 24.6519 24.5548 25.0743 24.9676 25.6767C25.3804 26.2791 25.5868 27.0063 25.5868 27.8571C25.5868 28.5423 25.4536 29.1363 25.1872 29.6379C24.9208 30.1395 24.562 30.5487 24.1108 30.8655C23.6596 31.1835 23.146 31.4175 22.5688 31.5699C21.988 31.7223 21.3892 31.7991 20.7892 31.7979H14.2V18.2031H20.5972ZM20.2168 23.7051C20.7496 23.7051 21.1876 23.5779 21.5308 23.3247C21.874 23.0703 22.0456 22.6587 22.0444 22.0875C22.0444 21.7707 21.9868 21.5103 21.8728 21.3075C21.7588 21.1047 21.6064 20.9451 21.4156 20.8311C21.2248 20.7171 21.0064 20.6379 20.7592 20.5935C20.5048 20.5491 20.2468 20.5263 19.9876 20.5275H17.1904V23.7075L20.2168 23.7051ZM20.3884 29.4735C20.6704 29.4747 20.9512 29.4459 21.226 29.3883C21.4924 29.3307 21.7276 29.2359 21.9304 29.1027C22.1332 28.9695 22.2952 28.7883 22.4164 28.5603C22.5364 28.3323 22.5976 28.0395 22.5976 27.6843C22.5976 26.9871 22.4008 26.4879 22.0072 26.1903C21.6136 25.8915 21.0928 25.7427 20.446 25.7427H17.1904V29.4747L20.3884 29.4735ZM29.3476 29.1879C29.7532 29.5815 30.3376 29.7783 31.0996 29.7783C31.6456 29.7783 32.1148 29.6415 32.5084 29.3691C32.902 29.0967 33.1432 28.8075 33.232 28.5027H35.6116C35.2312 29.6835 34.6468 30.5271 33.8596 31.0347C33.0724 31.5423 32.1208 31.7967 31.0036 31.7967C30.2296 31.7967 29.5312 31.6731 28.9096 31.4259C28.288 31.1787 27.7612 30.8259 27.3292 30.3687C26.8972 29.9115 26.5636 29.3667 26.3296 28.7319C26.0956 28.0971 25.978 27.3987 25.978 26.6379C25.978 25.9023 26.098 25.2171 26.3392 24.5823C26.5804 23.9475 26.9236 23.3991 27.3676 22.9359C27.8116 22.4727 28.342 22.1079 28.9576 21.8415C29.5732 21.5751 30.256 21.4419 31.0048 21.4419C31.8424 21.4419 32.572 21.6039 33.1948 21.9279C33.8164 22.2519 34.3276 22.6863 34.7272 23.2323C35.1268 23.7783 35.416 24.3999 35.5936 25.0983C35.7712 25.7967 35.8348 26.5263 35.7844 27.2883H28.6828C28.72 28.1607 28.942 28.7955 29.3476 29.1879ZM32.404 24.0099C32.08 23.6547 31.588 23.4771 30.928 23.4771C30.496 23.4771 30.1372 23.5503 29.8528 23.6955C29.5672 23.8419 29.3392 24.0219 29.1676 24.2379C28.996 24.4539 28.876 24.6819 28.8064 24.9231C28.7368 25.1643 28.6948 25.3803 28.6828 25.5699H33.0808C32.9524 24.8859 32.7268 24.3651 32.404 24.0099ZM28.2196 18.8931H33.7144V20.4171H28.2196V18.8931Z" fill="white"/>
</g>
<defs>
<clipPath id="clip0_529_281">
<rect width="30" height="30" fill="white" transform="translate(10 10)"/>
</clipPath>
</defs>
</svg>
