<svg width="116" height="24" viewBox="0 0 116 24" fill="none" xmlns="http://www.w3.org/2000/svg">
<path fill-rule="evenodd" clip-rule="evenodd" d="M5.75 6C6.16421 6 6.5 6.33579 6.5 6.75V8H13.5V6.75C13.5 6.33579 13.8358 6 14.25 6C14.6642 6 15 6.33579 15 6.75V8H15.25C16.7688 8 18 9.23122 18 10.75V19.25C18 20.7688 16.7688 22 15.25 22H4.75C3.23122 22 2 20.7688 2 19.25V10.75C2 9.23122 3.23122 8 4.75 8H5V6.75C5 6.33579 5.33579 6 5.75 6ZM4.75 11.5C4.05964 11.5 3.5 12.0596 3.5 12.75V19.25C3.5 19.9404 4.05964 20.5 4.75 20.5H15.25C15.9404 20.5 16.5 19.9404 16.5 19.25V12.75C16.5 12.0596 15.9404 11.5 15.25 11.5H4.75Z" fill="white"/>
<path d="M50.75 3V5.25M61.25 3V5.25M47 18.75V7.5C47 6.25736 48.0074 5.25 49.25 5.25H62.75C63.9926 5.25 65 6.25736 65 7.5V18.75M47 18.75C47 19.9926 48.0074 21 49.25 21H62.75C63.9926 21 65 19.9926 65 18.75M47 18.75V11.25C47 10.0074 48.0074 9 49.25 9H62.75C63.9926 9 65 10.0074 65 11.25V18.75" stroke="white" stroke-width="1.5" stroke-linecap="round" stroke-linejoin="round"/>
<path fill-rule="evenodd" clip-rule="evenodd" d="M98.75 2.25C99.1642 2.25 99.5 2.58579 99.5 3V4.5H108.5V3C108.5 2.58579 108.836 2.25 109.25 2.25C109.664 2.25 110 2.58579 110 3V4.5H110.75C112.407 4.5 113.75 5.84315 113.75 7.5V18.75C113.75 20.4069 112.407 21.75 110.75 21.75H97.25C95.5931 21.75 94.25 20.4069 94.25 18.75V7.5C94.25 5.84315 95.5931 4.5 97.25 4.5H98V3C98 2.58579 98.3358 2.25 98.75 2.25ZM112.25 11.25C112.25 10.4216 111.578 9.75 110.75 9.75H97.25C96.4216 9.75 95.75 10.4216 95.75 11.25V18.75C95.75 19.5784 96.4216 20.25 97.25 20.25H110.75C111.578 20.25 112.25 19.5784 112.25 18.75V11.25Z" fill="white"/>
</svg>
