<svg width="116" height="24" viewBox="0 0 116 24" fill="none" xmlns="http://www.w3.org/2000/svg">
<path d="M6.75 12.25C6.33579 12.25 6 12.5858 6 13C6 13.4142 6.33579 13.75 6.75 13.75L11.25 13.75C11.6642 13.75 12 13.4142 12 13C12 12.5858 11.6642 12.25 11.25 12.25L6.75 12.25Z" fill="white"/>
<path fill-rule="evenodd" clip-rule="evenodd" d="M9 6C5.13401 6 2 9.13401 2 13C2 16.866 5.13401 20 9 20C10.6625 20 12.1906 19.4197 13.3911 18.4517L16.7197 21.7803C17.0126 22.0732 17.4874 22.0732 17.7803 21.7803C18.0732 21.4874 18.0732 21.0126 17.7803 20.7197L14.4517 17.3911C15.4197 16.1906 16 14.6625 16 13C16 9.13401 12.866 6 9 6ZM3.5 13C3.5 9.96243 5.96243 7.5 9 7.5C12.0376 7.5 14.5 9.96243 14.5 13C14.5 14.519 13.8852 15.893 12.8891 16.8891C11.893 17.8852 10.519 18.5 9 18.5C5.96243 18.5 3.5 16.0376 3.5 13Z" fill="white"/>
<path d="M65 21L59.8033 15.8033M59.8033 15.8033C61.1605 14.4461 62 12.5711 62 10.5C62 6.35786 58.6421 3 54.5 3C50.3579 3 47 6.35786 47 10.5C47 14.6421 50.3579 18 54.5 18C56.5711 18 58.4461 17.1605 59.8033 15.8033ZM57.5 10.5H51.5" stroke="white" stroke-width="1.5" stroke-linecap="round" stroke-linejoin="round"/>
<path fill-rule="evenodd" clip-rule="evenodd" d="M102.5 3.75C98.7721 3.75 95.75 6.77208 95.75 10.5C95.75 14.2279 98.7721 17.25 102.5 17.25C104.364 17.25 106.051 16.4953 107.273 15.273C108.495 14.0506 109.25 12.3642 109.25 10.5C109.25 6.77208 106.228 3.75 102.5 3.75ZM94.25 10.5C94.25 5.94365 97.9437 2.25 102.5 2.25C107.056 2.25 110.75 5.94365 110.75 10.5C110.75 12.5078 110.032 14.3491 108.84 15.7793L113.53 20.4697C113.823 20.7626 113.823 21.2374 113.53 21.5303C113.237 21.8232 112.763 21.8232 112.47 21.5303L107.779 16.8399C106.349 18.032 104.508 18.75 102.5 18.75C97.9437 18.75 94.25 15.0563 94.25 10.5ZM98.75 10.5C98.75 10.0858 99.0858 9.75 99.5 9.75H105.5C105.914 9.75 106.25 10.0858 106.25 10.5C106.25 10.9142 105.914 11.25 105.5 11.25H99.5C99.0858 11.25 98.75 10.9142 98.75 10.5Z" fill="white"/>
</svg>
