<svg width="116" height="24" viewBox="0 0 116 24" fill="none" xmlns="http://www.w3.org/2000/svg">
<path fill-rule="evenodd" clip-rule="evenodd" d="M5 5C3.34315 5 2 6.34315 2 8V20C2 21.6569 3.34315 23 5 23H15C16.6569 23 18 21.6569 18 20V8C18 6.34315 16.6569 5 15 5H5ZM3.5 8C3.5 7.17157 4.17157 6.5 5 6.5H15C15.8284 6.5 16.5 7.17157 16.5 8V20C16.5 20.8284 15.8284 21.5 15 21.5H5C4.17157 21.5 3.5 20.8284 3.5 20V8ZM8.75 19.5C8.33579 19.5 8 19.8358 8 20.25C8 20.6642 8.33579 21 8.75 21H11.25C11.6642 21 12 20.6642 12 20.25C12 19.8358 11.6642 19.5 11.25 19.5H8.75Z" fill="white"/>
<path d="M54.5 19.5H57.5M50.75 21.75H61.25C62.4926 21.75 63.5 20.7426 63.5 19.5V4.5C63.5 3.25736 62.4926 2.25 61.25 2.25H50.75C49.5074 2.25 48.5 3.25736 48.5 4.5V19.5C48.5 20.7426 49.5074 21.75 50.75 21.75Z" stroke="white" stroke-width="1.5" stroke-linecap="round" stroke-linejoin="round"/>
<path d="M102.5 18C102.086 18 101.75 18.3358 101.75 18.75C101.75 19.1642 102.086 19.5 102.5 19.5H105.5C105.914 19.5 106.25 19.1642 106.25 18.75C106.25 18.3358 105.914 18 105.5 18H102.5Z" fill="white"/>
<path fill-rule="evenodd" clip-rule="evenodd" d="M99.125 1.5C97.261 1.5 95.75 3.01104 95.75 4.875V19.125C95.75 20.989 97.261 22.5 99.125 22.5H108.875C110.739 22.5 112.25 20.989 112.25 19.125V4.875C112.25 3.01104 110.739 1.5 108.875 1.5H99.125ZM98 4.875C98 4.25368 98.5037 3.75 99.125 3.75H108.875C109.496 3.75 110 4.25368 110 4.875V19.125C110 19.7463 109.496 20.25 108.875 20.25H99.125C98.5037 20.25 98 19.7463 98 19.125V4.875Z" fill="white"/>
</svg>
