<svg width="116" height="24" viewBox="0 0 116 24" fill="none" xmlns="http://www.w3.org/2000/svg">
<path d="M6.5 13C6.5 11.6193 7.61929 10.5 9 10.5C10.3807 10.5 11.5 11.6193 11.5 13C11.5 13.6906 11.221 14.3145 10.7678 14.7678C10.3145 15.221 9.69056 15.5 9 15.5C7.61929 15.5 6.5 14.3807 6.5 13Z" fill="white"/>
<path fill-rule="evenodd" clip-rule="evenodd" d="M10 22C14.4183 22 18 18.4183 18 14C18 9.58172 14.4183 6 10 6C5.58172 6 2 9.58172 2 14C2 18.4183 5.58172 22 10 22ZM9 9C6.79086 9 5 10.7909 5 13C5 15.2091 6.79086 17 9 17C9.8332 17 10.6076 16.7447 11.2481 16.3088L12.7197 17.7803C13.0126 18.0732 13.4874 18.0732 13.7803 17.7803C14.0732 17.4874 14.0732 17.0126 13.7803 16.7197L12.3088 15.2481C12.7447 14.6076 13 13.8332 13 13C13 10.7909 11.2091 9 9 9Z" fill="white"/>
<path d="M59.75 15.75L57.2615 13.2615M57.2615 13.2615C57.8722 12.6507 58.25 11.807 58.25 10.875C58.25 9.01104 56.739 7.5 54.875 7.5C53.011 7.5 51.5 9.01104 51.5 10.875C51.5 12.739 53.011 14.25 54.875 14.25C55.807 14.25 56.6507 13.8722 57.2615 13.2615ZM65 12C65 16.9706 60.9706 21 56 21C51.0294 21 47 16.9706 47 12C47 7.02944 51.0294 3 56 3C60.9706 3 65 7.02944 65 12Z" stroke="white" stroke-width="1.5" stroke-linecap="round" stroke-linejoin="round"/>
<path d="M100.25 10.875C100.25 9.42525 101.425 8.25 102.875 8.25C104.325 8.25 105.5 9.42525 105.5 10.875C105.5 11.6001 105.207 12.2553 104.731 12.7312C104.255 13.207 103.6 13.5 102.875 13.5C101.425 13.5 100.25 12.3247 100.25 10.875Z" fill="white"/>
<path fill-rule="evenodd" clip-rule="evenodd" d="M104 2.25C98.6152 2.25 94.25 6.61522 94.25 12C94.25 17.3848 98.6152 21.75 104 21.75C109.385 21.75 113.75 17.3848 113.75 12C113.75 6.61522 109.385 2.25 104 2.25ZM102.875 6.75C100.597 6.75 98.75 8.59683 98.75 10.875C98.75 13.1532 100.597 15 102.875 15C103.743 15 104.549 14.7315 105.213 14.2737L107.22 16.2803C107.513 16.5732 107.987 16.5732 108.28 16.2803C108.573 15.9874 108.573 15.5126 108.28 15.2197L106.274 13.2131C106.731 12.5487 107 11.7428 107 10.875C107 8.59683 105.153 6.75 102.875 6.75Z" fill="white"/>
</svg>
