<svg width="116" height="24" viewBox="0 0 116 24" fill="none" xmlns="http://www.w3.org/2000/svg">
<path fill-rule="evenodd" clip-rule="evenodd" d="M1.46876 7.7501C0.502265 9.42412 1.07583 11.5647 2.74985 12.5312C4.20093 13.369 6.00256 13.0496 7.08619 11.8593L7.9695 12.3693C7.99431 12.4619 8.11599 12.4862 8.17843 12.4134C8.32967 12.2372 8.49725 12.075 8.67914 11.9292C8.96545 11.6998 8.979 11.2201 8.66123 11.0366L7.83619 10.5603C8.32514 9.02673 7.70093 7.30679 6.24985 6.46901C4.57583 5.50251 2.43526 6.07607 1.46876 7.7501ZM3.49985 11.2321C2.54327 10.6799 2.21552 9.45668 2.7678 8.5001C3.32009 7.54351 4.54327 7.21576 5.49985 7.76805C6.45644 8.32033 6.78419 9.54351 6.2319 10.5001C5.67962 11.4567 4.45644 11.7844 3.49985 11.2321Z" fill="white"/>
<path fill-rule="evenodd" clip-rule="evenodd" d="M9.95556 12.3218C9.17367 12.6517 8.58789 13.3241 8.36825 14.1438L7.96977 15.6309L7.08628 16.141C6.00265 14.9507 4.20097 14.6312 2.74985 15.4691C1.07583 16.4355 0.502265 18.5761 1.46876 20.2501C2.43526 21.9242 4.57583 22.4977 6.24985 21.5312C7.70089 20.6935 8.32511 18.9736 7.83623 17.4401L18.5151 11.2746C18.7778 11.1229 18.9233 10.828 18.8837 10.5272C18.8441 10.2264 18.6272 9.97916 18.3342 9.90065L17.631 9.71223C17.0403 9.55395 16.4137 9.59708 15.8503 9.8348L9.95556 12.3218ZM2.7678 19.5001C2.21552 18.5436 2.54327 17.3204 3.49985 16.7681C4.45644 16.2158 5.67962 16.5436 6.2319 17.5001C6.78419 18.4567 6.45644 19.6799 5.49985 20.2322C4.54327 20.7845 3.32009 20.4567 2.7678 19.5001Z" fill="white"/>
<path d="M12.5201 15.8903C12.1624 16.0968 12.1952 16.6235 12.5758 16.784L15.85 18.1654C16.4134 18.4031 17.04 18.4463 17.6307 18.288L18.3339 18.0996C18.6269 18.0211 18.8438 17.7738 18.8834 17.473C18.923 17.1723 18.7775 16.8773 18.5148 16.7256L15.0441 14.7218C14.8894 14.6325 14.6988 14.6325 14.5441 14.7218L12.5201 15.8903Z" fill="white"/>
<path d="M51.8479 8.25007L53.3845 9.13721M51.8479 8.25007C51.0195 9.68494 49.1851 10.1765 47.7502 9.34809C46.3153 8.51966 45.8237 6.68489 46.6521 5.25001C47.4805 3.81513 49.3153 3.32351 50.7502 4.15194C52.1851 4.98036 52.6763 6.81519 51.8479 8.25007ZM53.3845 9.13721C54.043 9.51742 54.4538 10.2153 54.4666 10.9756C54.4725 11.3272 54.5208 11.6706 54.607 12.0001M53.3845 9.13721L55.4609 10.336M51.8479 15.7501L53.3845 14.863M51.8479 15.7501C52.6763 17.185 52.1851 19.0197 50.7502 19.8481C49.3153 20.6765 47.4805 20.1849 46.6521 18.75C45.8237 17.3151 46.3153 15.4804 47.7502 14.6519C49.1851 13.8235 51.0195 14.3153 51.8479 15.7501ZM53.3845 14.863C54.043 14.4828 54.4538 13.7849 54.4666 13.0246C54.4725 12.673 54.5208 12.3296 54.607 12.0001M53.3845 14.863L55.4609 13.6642M55.4609 10.336C55.9882 9.699 56.6991 9.21096 57.5294 8.95702L62.8541 7.32855C63.6607 7.08189 64.5203 7.06684 65.3349 7.28513L66.1373 7.50014L58.3432 12.0001M55.4609 10.336C55.062 10.8178 54.7682 11.3848 54.607 12.0001M58.3432 12.0001L66.1373 16.5001L65.3349 16.7151C64.5203 16.9334 63.6607 16.9183 62.8541 16.6717L57.5294 15.0432C56.6991 14.7892 55.9882 14.3012 55.4609 13.6642M58.3432 12.0001L55.4609 13.6642" stroke="white" stroke-width="1.5" stroke-linecap="round" stroke-linejoin="round"/>
<path fill-rule="evenodd" clip-rule="evenodd" d="M100.128 9.15465C98.9819 10.5304 96.9786 10.9236 95.3749 9.99773C93.5813 8.9622 92.9668 6.66874 94.0023 4.87514C95.0378 3.08154 97.3313 2.46701 99.1249 3.50254C100.663 4.39068 101.334 6.20412 100.841 7.83392L101.977 8.49001C102.164 8.59775 102.295 8.78056 102.337 8.99182C102.38 9.20309 102.329 9.4224 102.199 9.59385L102.193 9.6012C101.948 9.92324 101.491 9.99309 101.161 9.75845C101.125 9.73266 101.087 9.70843 101.048 9.68586L100.128 9.15465ZM95.3013 5.62514C95.9227 4.54898 97.2987 4.18026 98.3749 4.80158C99.3896 5.38742 99.7754 6.6443 99.2952 7.68806C99.2743 7.71504 99.2549 7.74377 99.2373 7.7742C99.2106 7.82057 99.1893 7.8686 99.1734 7.91755C98.5407 8.96089 97.1868 9.31178 96.1249 8.6987C95.0487 8.07737 94.68 6.7013 95.3013 5.62514Z" fill="white"/>
<path fill-rule="evenodd" clip-rule="evenodd" d="M105.348 8.27167C104.374 8.56954 103.54 9.1424 102.921 9.88959C102.454 10.4545 102.109 11.1196 101.92 11.842C101.819 12.2288 101.762 12.6318 101.755 13.0438C101.747 13.5407 101.478 13.9968 101.048 14.2453L100.089 14.799C98.9363 13.4611 96.9603 13.0872 95.3749 14.0025C93.5813 15.0381 92.9668 17.3315 94.0023 19.1251C95.0378 20.9187 97.3313 21.5333 99.1249 20.4977C100.682 19.5989 101.35 17.7523 100.822 16.1075L114.551 8.18151C114.813 8.02983 114.959 7.73485 114.919 7.43409C114.88 7.13334 114.663 6.88606 114.37 6.80754L113.567 6.59253C112.617 6.33787 111.614 6.35542 110.673 6.64319L105.348 8.27167ZM96.1249 15.3016C95.0487 15.9229 94.68 17.299 95.3013 18.3751C95.9227 19.4513 97.2987 19.82 98.3749 19.1987C99.4511 18.5774 99.8198 17.2013 99.1985 16.1251C98.5771 15.049 97.2011 14.6803 96.1249 15.3016ZM104 12.75C104.414 12.75 104.75 12.4142 104.75 12C104.75 11.5858 104.414 11.25 104 11.25C103.586 11.25 103.25 11.5858 103.25 12C103.25 12.4142 103.586 12.75 104 12.75Z" fill="white"/>
<path d="M108.372 12.615C108.604 12.481 108.89 12.481 109.122 12.615L114.551 15.7497C114.814 15.9014 114.959 16.1963 114.92 16.4971C114.88 16.7979 114.663 17.0451 114.37 17.1236L113.568 17.3387C112.618 17.5933 111.615 17.5758 110.674 17.288L105.527 15.714C105.242 15.6267 105.035 15.3783 105.001 15.0816C104.967 14.785 105.113 14.4965 105.371 14.3473L108.372 12.615Z" fill="white"/>
</svg>
