<svg width="116" height="24" viewBox="0 0 116 24" fill="none" xmlns="http://www.w3.org/2000/svg">
<path fill-rule="evenodd" clip-rule="evenodd" d="M6.28033 9.21979C6.57322 9.51269 6.57322 9.98756 6.28033 10.2805L2.56066 14.0001L6.28033 17.7198C6.57322 18.0127 6.57322 18.4876 6.28033 18.7805C5.98744 19.0733 5.51256 19.0733 5.21967 18.7805L0.96967 14.5305C0.676777 14.2376 0.676777 13.7627 0.96967 13.4698L5.21967 9.21979C5.51256 8.9269 5.98744 8.9269 6.28033 9.21979ZM13.7197 9.21979C14.0126 8.9269 14.4874 8.9269 14.7803 9.21979L19.0303 13.4698C19.3232 13.7627 19.3232 14.2376 19.0303 14.5305L14.7803 18.7805C14.4874 19.0733 14.0126 19.0733 13.7197 18.7805C13.4268 18.4876 13.4268 18.0127 13.7197 17.7198L17.4393 14.0001L13.7197 10.2805C13.4268 9.98756 13.4268 9.51269 13.7197 9.21979Z" fill="white"/>
<path fill-rule="evenodd" clip-rule="evenodd" d="M11.3774 6.01103C11.7856 6.0814 12.0595 6.46936 11.9891 6.87755L9.48909 21.3776C9.41872 21.7857 9.03076 22.0596 8.62257 21.9892C8.21438 21.9188 7.94053 21.5309 8.0109 21.1227L10.5109 6.62269C10.5813 6.2145 10.9692 5.94065 11.3774 6.01103Z" fill="white"/>
<path d="M61.25 6.75L66.5 12L61.25 17.25M50.75 17.25L45.5 12L50.75 6.75M58.25 3.75L53.75 20.25" stroke="white" stroke-width="1.5" stroke-linecap="round" stroke-linejoin="round"/>
<path fill-rule="evenodd" clip-rule="evenodd" d="M106.447 3.02662C106.847 3.1356 107.083 3.54791 106.974 3.94753L102.474 20.4475C102.365 20.8471 101.952 21.0827 101.553 20.9738C101.153 20.8648 100.917 20.4525 101.026 20.0529L105.526 3.55285C105.635 3.15323 106.048 2.91763 106.447 3.02662ZM108.72 6.21986C109.013 5.92696 109.487 5.92696 109.78 6.21986L115.03 11.4699C115.323 11.7628 115.323 12.2376 115.03 12.5305L109.78 17.7805C109.487 18.0734 109.013 18.0734 108.72 17.7805C108.427 17.4876 108.427 17.0128 108.72 16.7199L113.439 12.0002L108.72 7.28052C108.427 6.98762 108.427 6.51275 108.72 6.21986ZM99.2803 6.21986C99.5732 6.51275 99.5732 6.98763 99.2803 7.28052L94.5607 12.0002L99.2803 16.7199C99.5732 17.0128 99.5732 17.4876 99.2803 17.7805C98.9874 18.0734 98.5126 18.0734 98.2197 17.7805L92.9697 12.5305C92.6768 12.2376 92.6768 11.7628 92.9697 11.4699L98.2197 6.21986C98.5126 5.92696 98.9874 5.92696 99.2803 6.21986Z" fill="white"/>
</svg>
