<svg width="116" height="24" viewBox="0 0 116 24" fill="none" xmlns="http://www.w3.org/2000/svg">
<path fill-rule="evenodd" clip-rule="evenodd" d="M7.79252 6.23214C8.07852 6.53177 8.06748 7.00651 7.76786 7.29252L3.62192 11.25H13.625C16.5935 11.25 19 13.6565 19 16.625C19 19.5935 16.5935 22 13.625 22H10.75C10.3358 22 10 21.6642 10 21.25C10 20.8358 10.3358 20.5 10.75 20.5H13.625C15.7651 20.5 17.5 18.7651 17.5 16.625C17.5 14.4849 15.7651 12.75 13.625 12.75H3.62192L7.76786 16.7075C8.06748 16.9935 8.07852 17.4682 7.79252 17.7679C7.50651 18.0675 7.03177 18.0785 6.73214 17.7925L1.23214 12.5425C1.08388 12.401 1 12.205 1 12C1 11.795 1.08388 11.599 1.23214 11.4575L6.73214 6.20748C7.03177 5.92148 7.50651 5.93252 7.79252 6.23214Z" fill="white"/>
<path d="M53 15L47 9M47 9L53 3M47 9H59C62.3137 9 65 11.6863 65 15C65 18.3137 62.3137 21 59 21H56" stroke="white" stroke-width="1.5" stroke-linecap="round" stroke-linejoin="round"/>
<path fill-rule="evenodd" clip-rule="evenodd" d="M101.53 2.46967C101.823 2.76256 101.823 3.23744 101.53 3.53033L96.8107 8.25H107C110.728 8.25 113.75 11.2721 113.75 15C113.75 18.7279 110.728 21.75 107 21.75H104C103.586 21.75 103.25 21.4142 103.25 21C103.25 20.5858 103.586 20.25 104 20.25H107C109.899 20.25 112.25 17.8995 112.25 15C112.25 12.1005 109.899 9.75 107 9.75H96.8107L101.53 14.4697C101.823 14.7626 101.823 15.2374 101.53 15.5303C101.237 15.8232 100.763 15.8232 100.47 15.5303L94.4697 9.53033C94.1768 9.23744 94.1768 8.76256 94.4697 8.46967L100.47 2.46967C100.763 2.17678 101.237 2.17678 101.53 2.46967Z" fill="white"/>
</svg>
