<svg width="116" height="24" viewBox="0 0 116 24" fill="none" xmlns="http://www.w3.org/2000/svg">
<path fill-rule="evenodd" clip-rule="evenodd" d="M4.93005 6.31046C6.5916 6.10551 8.28365 6 10 6C11.7163 6 13.4084 6.10551 15.07 6.31046C16.1942 6.44913 17 7.41374 17 8.51661V21.25C17 21.5078 16.8676 21.7475 16.6494 21.8848C16.4312 22.0221 16.1578 22.0377 15.9255 21.9261L13.125 20.5819L10.3245 21.9261C10.1194 22.0246 9.88061 22.0246 9.67545 21.9261L6.875 20.5819L4.07455 21.9261C3.84215 22.0377 3.56875 22.0221 3.35057 21.8848C3.13239 21.7475 3 21.5078 3 21.25V8.51661C3 7.41374 3.80579 6.44913 4.93005 6.31046ZM9.75172 10.3075C10.0596 10.0304 10.0846 9.55616 9.80747 9.24828C9.53038 8.94039 9.05616 8.91544 8.74828 9.19253L6.24828 11.4425C6.09024 11.5848 6 11.7874 6 12C6 12.2126 6.09024 12.4152 6.24828 12.5575L8.74828 14.8075C9.05616 15.0846 9.53038 15.0596 9.80747 14.7517C10.0846 14.4438 10.0596 13.9696 9.75172 13.6925L8.70447 12.75H10.625C11.6605 12.75 12.5 13.5895 12.5 14.625C12.5 15.6605 11.6605 16.5 10.625 16.5C10.2108 16.5 9.875 16.8358 9.875 17.25C9.875 17.6642 10.2108 18 10.625 18C12.489 18 14 16.489 14 14.625C14 12.761 12.489 11.25 10.625 11.25H8.70447L9.75172 10.3075Z" fill="white"/>
<path d="M52.25 9.75H57.125C58.5747 9.75 59.75 10.9253 59.75 12.375C59.75 13.8247 58.5747 15 57.125 15H56M52.25 9.75L54.5 7.5M52.25 9.75L54.5 12M63.5 4.75699V21.75L59.75 20.25L56 21.75L52.25 20.25L48.5 21.75V4.75699C48.5 3.649 49.3061 2.70014 50.4067 2.57241C52.2416 2.35947 54.108 2.25 56 2.25C57.892 2.25 59.7584 2.35947 61.5933 2.57241C62.6939 2.70014 63.5 3.649 63.5 4.75699Z" stroke="white" stroke-width="1.5" stroke-linecap="round" stroke-linejoin="round"/>
<path fill-rule="evenodd" clip-rule="evenodd" d="M104 1.5C102.079 1.5 100.184 1.61114 98.3202 1.82741C96.8228 2.00119 95.75 3.28722 95.75 4.75699V21.75C95.75 21.9989 95.8734 22.2315 96.0795 22.3711C96.2856 22.5106 96.5475 22.5388 96.7785 22.4464L100.25 21.0578L103.721 22.4464C103.9 22.5179 104.1 22.5179 104.279 22.4464L107.75 21.0578L111.221 22.4464C111.453 22.5388 111.714 22.5106 111.92 22.3711C112.127 22.2315 112.25 21.9989 112.25 21.75V4.75699C112.25 3.28722 111.177 2.00119 109.68 1.82741C107.816 1.61114 105.921 1.5 104 1.5ZM103.03 8.03033C103.323 7.73744 103.323 7.26256 103.03 6.96967C102.737 6.67678 102.263 6.67678 101.97 6.96967L99.7197 9.21967C99.4268 9.51256 99.4268 9.98744 99.7197 10.2803L101.97 12.5303C102.263 12.8232 102.737 12.8232 103.03 12.5303C103.323 12.2374 103.323 11.7626 103.03 11.4697L102.061 10.5H105.125C106.161 10.5 107 11.3395 107 12.375C107 13.4105 106.161 14.25 105.125 14.25H104C103.586 14.25 103.25 14.5858 103.25 15C103.25 15.4142 103.586 15.75 104 15.75H105.125C106.989 15.75 108.5 14.239 108.5 12.375C108.5 10.511 106.989 9 105.125 9H102.061L103.03 8.03033Z" fill="white"/>
</svg>
