<svg width="116" height="24" viewBox="0 0 116 24" fill="none" xmlns="http://www.w3.org/2000/svg">
<path fill-rule="evenodd" clip-rule="evenodd" d="M10 7C10.4142 7 10.75 7.33579 10.75 7.75L10.75 18.3879L14.7094 14.2302C14.9965 13.9316 15.4713 13.9223 15.7698 14.2094C16.0684 14.4965 16.0777 14.9713 15.7906 15.2698L10.5406 20.7698C10.3992 20.9169 10.204 21 10 21C9.79599 21 9.60078 20.9169 9.45938 20.7698L4.20938 15.2698C3.92228 14.9713 3.93159 14.4965 4.23017 14.2094C4.52875 13.9223 5.00353 13.9316 5.29063 14.2302L9.25 18.3879L9.25 7.75C9.25 7.33579 9.58579 7 10 7Z" fill="white"/>
<path d="M63.5 13.5L56 21M56 21L48.5 13.5M56 21L56 3" stroke="white" stroke-width="1.5" stroke-linecap="round" stroke-linejoin="round"/>
<path fill-rule="evenodd" clip-rule="evenodd" d="M104 2.25C104.414 2.25 104.75 2.58579 104.75 3L104.75 19.1893L110.97 12.9697C111.263 12.6768 111.737 12.6768 112.03 12.9697C112.323 13.2626 112.323 13.7374 112.03 14.0303L104.53 21.5303C104.237 21.8232 103.763 21.8232 103.47 21.5303L95.9697 14.0303C95.6768 13.7374 95.6768 13.2626 95.9697 12.9697C96.2626 12.6768 96.7374 12.6768 97.0303 12.9697L103.25 19.1893L103.25 3C103.25 2.58579 103.586 2.25 104 2.25Z" fill="white"/>
</svg>
