<svg width="116" height="24" viewBox="0 0 116 24" fill="none" xmlns="http://www.w3.org/2000/svg">
<path d="M13 8.5C13 7.11929 14.1193 6 15.5 6C16.8807 6 18 7.11929 18 8.5C18 9.88071 16.8807 11 15.5 11C14.7943 11 14.1569 10.7076 13.7024 10.2374L6.96884 13.6041C6.98935 13.7331 7 13.8653 7 14C7 14.1347 6.98934 14.267 6.96882 14.3959L13.7023 17.7627C14.1569 17.2924 14.7943 17 15.5 17C16.8807 17 18 18.1193 18 19.5C18 20.8807 16.8807 22 15.5 22C14.1193 22 13 20.8807 13 19.5C13 19.3653 13.0107 19.2331 13.0312 19.1041L6.29764 15.7374C5.84307 16.2076 5.20568 16.5 4.5 16.5C3.11929 16.5 2 15.3807 2 14C2 12.6193 3.11929 11.5 4.5 11.5C5.20571 11.5 5.84312 11.7924 6.29769 12.2627L13.0312 8.89593C13.0107 8.76697 13 8.63473 13 8.5Z" fill="white"/>
<path d="M51.2172 10.9071C50.833 10.2169 50.096 9.75 49.25 9.75C48.0074 9.75 47 10.7574 47 12C47 13.2426 48.0074 14.25 49.25 14.25C50.096 14.25 50.833 13.7831 51.2172 13.0929M51.2172 10.9071C51.3974 11.2307 51.5 11.6034 51.5 12C51.5 12.3966 51.3974 12.7693 51.2172 13.0929M51.2172 10.9071L60.7828 5.5929M51.2172 13.0929L60.7828 18.4071M60.7828 18.4071C60.6026 18.7307 60.5 19.1034 60.5 19.5C60.5 20.7426 61.5074 21.75 62.75 21.75C63.9926 21.75 65 20.7426 65 19.5C65 18.2574 63.9926 17.25 62.75 17.25C61.904 17.25 61.1671 17.7169 60.7828 18.4071ZM60.7828 5.5929C61.1671 6.28309 61.904 6.75 62.75 6.75C63.9926 6.75 65 5.74264 65 4.5C65 3.25736 63.9926 2.25 62.75 2.25C61.5074 2.25 60.5 3.25736 60.5 4.5C60.5 4.89664 60.6026 5.26931 60.7828 5.5929Z" stroke="white" stroke-width="1.5" stroke-linecap="round" stroke-linejoin="round"/>
<path fill-rule="evenodd" clip-rule="evenodd" d="M107.75 4.5C107.75 2.84315 109.093 1.5 110.75 1.5C112.407 1.5 113.75 2.84315 113.75 4.5C113.75 6.15685 112.407 7.5 110.75 7.5C109.893 7.5 109.121 7.14074 108.575 6.56624L100.154 11.2447C100.217 11.4863 100.25 11.7395 100.25 12C100.25 12.2605 100.217 12.5137 100.154 12.7553L108.575 17.4338C109.121 16.8593 109.893 16.5 110.75 16.5C112.407 16.5 113.75 17.8431 113.75 19.5C113.75 21.1569 112.407 22.5 110.75 22.5C109.093 22.5 107.75 21.1569 107.75 19.5C107.75 19.2395 107.783 18.9863 107.846 18.7447L99.4249 14.0662C98.8788 14.6407 98.1067 15 97.25 15C95.5931 15 94.25 13.6569 94.25 12C94.25 10.3431 95.5931 9 97.25 9C98.1067 9 98.8788 9.35926 99.4249 9.93377L107.846 5.25532C107.783 5.01367 107.75 4.76045 107.75 4.5Z" fill="white"/>
</svg>
