<svg width="160" height="48" viewBox="0 0 160 48" fill="none" xmlns="http://www.w3.org/2000/svg">
<rect x="0.5" y="0.5" width="47" height="47" rx="7.5" fill="#0F0F0F"/>
<rect x="0.5" y="0.5" width="47" height="47" rx="7.5" stroke="#262626"/>
<path d="M24 18V30M30 24L18 24" stroke="white" stroke-width="2" stroke-linecap="round" stroke-linejoin="round"/>
<rect x="56.5" y="0.5" width="47" height="47" rx="7.5" fill="#0F0F0F"/>
<rect x="56.5" y="0.5" width="47" height="47" rx="7.5" stroke="#262626"/>
<path d="M74.6326 22.25C75.4389 22.25 76.1665 21.8042 76.6641 21.1697C77.4373 20.1838 78.4117 19.3634 79.5255 18.7702C80.2477 18.3856 80.8743 17.8143 81.1781 17.0546C81.3908 16.5231 81.5 15.9559 81.5 15.3834V14.75C81.5 14.3358 81.8358 14 82.25 14C83.4926 14 84.5 15.0074 84.5 16.25C84.5 17.4016 84.2404 18.4926 83.7766 19.4677C83.511 20.026 83.8836 20.75 84.5019 20.75M84.5019 20.75H87.6277C88.6544 20.75 89.5733 21.444 89.682 22.4649C89.7269 22.8871 89.75 23.3158 89.75 23.75C89.75 26.5976 88.7581 29.2136 87.101 31.2712C86.7134 31.7525 86.1142 32 85.4962 32H81.4802C80.9966 32 80.5161 31.922 80.0572 31.7691L76.9428 30.7309C76.4839 30.578 76.0034 30.5 75.5198 30.5H73.9042M84.5019 20.75H82.25M73.9042 30.5C73.987 30.7046 74.0771 30.9054 74.1742 31.1022C74.3714 31.5017 74.0962 32 73.6507 32H72.7429C71.8542 32 71.0299 31.482 70.7706 30.632C70.4321 29.5226 70.25 28.3451 70.25 27.125C70.25 25.5725 70.5448 24.0889 71.0815 22.7271C71.3865 21.953 72.1673 21.5 72.9994 21.5H74.0521C74.524 21.5 74.7973 22.0559 74.5523 22.4593C73.7259 23.8198 73.25 25.4168 73.25 27.125C73.25 28.3185 73.4823 29.4578 73.9042 30.5Z" stroke="white" stroke-width="2" stroke-linecap="round" stroke-linejoin="round"/>
<rect x="112.5" y="0.5" width="47" height="47" rx="7.5" fill="#0F0F0F"/>
<rect x="112.5" y="0.5" width="47" height="47" rx="7.5" stroke="#262626"/>
<path d="M143.114 17.636C146.629 21.1508 146.629 26.8492 143.114 30.364M140.463 20.2878C142.513 22.338 142.513 25.6621 140.463 27.7124M130.75 20.25L135.47 15.5304C135.942 15.0579 136.75 15.3925 136.75 16.0607V31.9394C136.75 32.6076 135.942 32.9422 135.47 32.4697L130.75 27.75H128.509C127.63 27.75 126.806 27.2436 126.572 26.3958C126.362 25.633 126.25 24.8296 126.25 24C126.25 23.1705 126.362 22.3671 126.572 21.6043C126.806 20.7565 127.63 20.25 128.509 20.25H130.75Z" stroke="white" stroke-width="2" stroke-linecap="round" stroke-linejoin="round"/>
</svg>
