<svg width="116" height="24" viewBox="0 0 116 24" fill="none" xmlns="http://www.w3.org/2000/svg">
<path fill-rule="evenodd" clip-rule="evenodd" d="M2 7.75C2 7.33579 2.33579 7 2.75 7H17.25C17.6642 7 18 7.33579 18 7.75C18 8.16421 17.6642 8.5 17.25 8.5H2.75C2.33579 8.5 2 8.16421 2 7.75ZM2 11.9167C2 11.5025 2.33579 11.1667 2.75 11.1667H17.25C17.6642 11.1667 18 11.5025 18 11.9167C18 12.3309 17.6642 12.6667 17.25 12.6667H2.75C2.33579 12.6667 2 12.3309 2 11.9167ZM2 16.0833C2 15.6691 2.33579 15.3333 2.75 15.3333H17.25C17.6642 15.3333 18 15.6691 18 16.0833C18 16.4975 17.6642 16.8333 17.25 16.8333H2.75C2.33579 16.8333 2 16.4975 2 16.0833ZM2 20.25C2 19.8358 2.33579 19.5 2.75 19.5H17.25C17.6642 19.5 18 19.8358 18 20.25C18 20.6642 17.6642 21 17.25 21H2.75C2.33579 21 2 20.6642 2 20.25Z" fill="white"/>
<path d="M47.75 5.25H64.25M47.75 9.75H64.25M47.75 14.25H64.25M47.75 18.75H64.25" stroke="white" stroke-width="1.5" stroke-linecap="round" stroke-linejoin="round"/>
<path fill-rule="evenodd" clip-rule="evenodd" d="M95 5.25C95 4.83579 95.3358 4.5 95.75 4.5H112.25C112.664 4.5 113 4.83579 113 5.25C113 5.66421 112.664 6 112.25 6H95.75C95.3358 6 95 5.66421 95 5.25ZM95 9.75C95 9.33579 95.3358 9 95.75 9H112.25C112.664 9 113 9.33579 113 9.75C113 10.1642 112.664 10.5 112.25 10.5H95.75C95.3358 10.5 95 10.1642 95 9.75ZM95 14.25C95 13.8358 95.3358 13.5 95.75 13.5H112.25C112.664 13.5 113 13.8358 113 14.25C113 14.6642 112.664 15 112.25 15H95.75C95.3358 15 95 14.6642 95 14.25ZM95 18.75C95 18.3358 95.3358 18 95.75 18H112.25C112.664 18 113 18.3358 113 18.75C113 19.1642 112.664 19.5 112.25 19.5H95.75C95.3358 19.5 95 19.1642 95 18.75Z" fill="white"/>
</svg>
