<svg width="30" height="30" viewBox="0 0 30 30" fill="none" xmlns="http://www.w3.org/2000/svg">
<path fill-rule="evenodd" clip-rule="evenodd" d="M27 15C27 21.6274 21.6274 27 15 27C8.37258 27 3 21.6274 3 15C3 8.37258 8.37258 3 15 3C21.6274 3 27 8.37258 27 15ZM16.5 9C16.5 9.82843 15.8284 10.5 15 10.5C14.1716 10.5 13.5 9.82843 13.5 9C13.5 8.17157 14.1716 7.5 15 7.5C15.8284 7.5 16.5 8.17157 16.5 9ZM13.5 13.5C12.8787 13.5 12.375 14.0037 12.375 14.625C12.375 15.2463 12.8787 15.75 13.5 15.75H13.8801C14.12 15.75 14.2982 15.9722 14.2461 16.2063L13.5574 19.3056C13.1931 20.9449 14.4406 22.5 16.1199 22.5H16.5C17.1213 22.5 17.625 21.9963 17.625 21.375C17.625 20.7537 17.1213 20.25 16.5 20.25H16.1199C15.88 20.25 15.7018 20.0278 15.7539 19.7937L16.4426 16.6944C16.8069 15.0551 15.5594 13.5 13.8801 13.5H13.5Z" fill="#333333"/>
</svg>
