<svg width="116" height="24" viewBox="0 0 116 24" fill="none" xmlns="http://www.w3.org/2000/svg">
<path d="M3.5 6C2.67157 6 2 6.67157 2 7.5V9C2 10.1486 2.14913 11.2634 2.42949 12.3258C3.61908 16.8334 7.16665 20.3809 11.6742 21.5705C12.7366 21.8509 13.8514 22 15 22H16.5C17.3284 22 18 21.3284 18 20.5V19.3516C18 18.6486 17.5117 18.0399 16.8254 17.8873L13.6024 17.1711C12.8276 16.999 12.0528 17.4602 11.8348 18.2233L11.5682 19.1561C11.4509 19.5669 11.0134 19.7989 10.6184 19.636C7.79126 18.47 5.53001 16.2087 4.36396 13.3816C4.20107 12.9866 4.4331 12.5491 4.84388 12.4318L5.77667 12.1653C6.53984 11.9472 7.00105 11.1724 6.82887 10.3976L6.11265 7.1746C5.96014 6.4883 5.35142 6 4.64837 6H3.5Z" fill="white"/>
<path d="M16.7197 6.21967C17.0126 5.92678 17.4874 5.92678 17.7803 6.21967C18.0732 6.51256 18.0732 6.98744 17.7803 7.28033L14.5607 10.5L17.25 10.5C17.6642 10.5 18 10.8358 18 11.25C18 11.6642 17.6642 12 17.25 12L12.75 12C12.3358 12 12 11.6642 12 11.25V6.75C12 6.33579 12.3358 6 12.75 6C13.1642 6 13.5 6.33579 13.5 6.75V9.43934L16.7197 6.21967Z" fill="white"/>
<path d="M58.25 9.75V5.25M58.25 9.75L62.75 9.75M58.25 9.75L64.25 3.75M61.25 21.75C52.9657 21.75 46.25 15.0343 46.25 6.75V4.5C46.25 3.25736 47.2574 2.25 48.5 2.25H49.8716C50.3879 2.25 50.8378 2.60133 50.963 3.10215L52.0688 7.52533C52.1786 7.96445 52.0145 8.4266 51.6524 8.69818L50.3588 9.6684C49.9834 9.94998 49.8173 10.437 49.9788 10.8777C51.1902 14.1846 53.8154 16.8098 57.1223 18.0212C57.563 18.1827 58.05 18.0166 58.3316 17.6412L59.3018 16.3476C59.5734 15.9855 60.0355 15.8214 60.4747 15.9312L64.8979 17.037C65.3987 17.1622 65.75 17.6121 65.75 18.1284V19.5C65.75 20.7426 64.7426 21.75 63.5 21.75H61.25Z" stroke="white" stroke-width="1.5" stroke-linecap="round" stroke-linejoin="round"/>
<path fill-rule="evenodd" clip-rule="evenodd" d="M111.5 9.75C111.5 10.1642 111.164 10.5 110.75 10.5L106.25 10.5C105.836 10.5 105.5 10.1642 105.5 9.75V5.25C105.5 4.83579 105.836 4.5 106.25 4.5C106.664 4.5 107 4.83579 107 5.25V7.93934L111.72 3.21967C112.013 2.92678 112.487 2.92678 112.78 3.21967C113.073 3.51256 113.073 3.98744 112.78 4.28033L108.061 9L110.75 9C111.164 9 111.5 9.33579 111.5 9.75Z" fill="white"/>
<path fill-rule="evenodd" clip-rule="evenodd" d="M93.5 4.5C93.5 2.84315 94.8431 1.5 96.5 1.5H97.8716C98.732 1.5 99.482 2.08556 99.6906 2.92025L100.796 7.34343C100.979 8.0753 100.706 8.84555 100.102 9.29818L98.8088 10.2684C98.6745 10.3691 98.6453 10.5167 98.683 10.6197C99.8185 13.7195 102.281 16.1815 105.38 17.317C105.483 17.3547 105.631 17.3255 105.732 17.1912L106.702 15.8976C107.154 15.2941 107.925 15.0206 108.657 15.2036L113.08 16.3094C113.914 16.518 114.5 17.268 114.5 18.1284V19.5C114.5 21.1569 113.157 22.5 111.5 22.5H109.25C100.552 22.5 93.5 15.4485 93.5 6.75V4.5Z" fill="white"/>
</svg>
