<svg width="116" height="24" viewBox="0 0 116 24" fill="none" xmlns="http://www.w3.org/2000/svg">
<path fill-rule="evenodd" clip-rule="evenodd" d="M2 7C1.44772 7 1 7.44772 1 8V9C1 9.55228 1.44772 10 2 10H18C18.5523 10 19 9.55228 19 9V8C19 7.44772 18.5523 7 18 7H2ZM2 11.5H18L17.1885 19.2094C17.0813 20.2273 16.223 21 15.1995 21H4.80052C3.77701 21 2.91866 20.2273 2.81151 19.2094L2 11.5ZM10 13C10.4142 13 10.75 13.3358 10.75 13.75V16.2955L11.6925 15.2483C11.9696 14.9404 12.4438 14.9154 12.7517 15.1925C13.0596 15.4696 13.0846 15.9438 12.8075 16.2517L10.5575 18.7517C10.4152 18.9098 10.2126 19 10 19C9.78738 19 9.58476 18.9098 9.44253 18.7517L7.19253 16.2517C6.91543 15.9438 6.94039 15.4696 7.24828 15.1925C7.55616 14.9154 8.03038 14.9404 8.30747 15.2483L9.25 16.2955V13.75C9.25 13.3358 9.58579 13 10 13Z" fill="white"/>
<path d="M64.25 7.5L63.6246 18.1321C63.5546 19.3214 62.5698 20.25 61.3785 20.25H50.6215C49.4302 20.25 48.4454 19.3214 48.3754 18.1321L47.75 7.5M56 10.5V17.25M56 17.25L53 14.25M56 17.25L59 14.25M47.375 7.5H64.625C65.2463 7.5 65.75 6.99632 65.75 6.375V4.875C65.75 4.25368 65.2463 3.75 64.625 3.75H47.375C46.7537 3.75 46.25 4.25368 46.25 4.875V6.375C46.25 6.99632 46.7537 7.5 47.375 7.5Z" stroke="white" stroke-width="1.5" stroke-linecap="round" stroke-linejoin="round"/>
<path d="M95.375 3C94.3395 3 93.5 3.83947 93.5 4.875V5.625C93.5 6.66053 94.3395 7.5 95.375 7.5H112.625C113.661 7.5 114.5 6.66053 114.5 5.625V4.875C114.5 3.83947 113.661 3 112.625 3H95.375Z" fill="white"/>
<path fill-rule="evenodd" clip-rule="evenodd" d="M95.0868 9L95.6266 18.1762C95.7198 19.7619 97.033 21 98.6214 21H109.378C110.967 21 112.28 19.7619 112.373 18.1762L112.913 9H95.0868ZM104 10.5C104.414 10.5 104.75 10.8358 104.75 11.25V16.1893L106.47 14.4697C106.763 14.1768 107.237 14.1768 107.53 14.4697C107.823 14.7626 107.823 15.2374 107.53 15.5303L104.53 18.5303C104.237 18.8232 103.763 18.8232 103.47 18.5303L100.47 15.5303C100.177 15.2374 100.177 14.7626 100.47 14.4697C100.763 14.1768 101.237 14.1768 101.53 14.4697L103.25 16.1893V11.25C103.25 10.8358 103.586 10.5 104 10.5Z" fill="white"/>
</svg>
