<svg width="116" height="24" viewBox="0 0 116 24" fill="none" xmlns="http://www.w3.org/2000/svg">
<path fill-rule="evenodd" clip-rule="evenodd" d="M9.49306 6.85257C9.54965 6.44224 9.2629 6.06372 8.85257 6.00713C8.44224 5.95053 8.06372 6.23728 8.00712 6.64761L7.54471 10.0001H4.19831C3.7841 10.0001 3.44831 10.3359 3.44831 10.7501C3.44831 11.1643 3.7841 11.5001 4.19831 11.5001H7.33782L6.64816 16.5001H3.30176C2.88754 16.5001 2.55176 16.8359 2.55176 17.2501C2.55176 17.6643 2.88754 18.0001 3.30176 18.0001H6.44127L6.00713 21.1476C5.95053 21.5579 6.23728 21.9365 6.64761 21.9931C7.05794 22.0497 7.43646 21.7629 7.49306 21.3526L7.95547 18.0001H10.9413L10.5071 21.1476C10.4505 21.5579 10.7373 21.9365 11.1476 21.9931C11.5579 22.0497 11.9365 21.7629 11.9931 21.3526L12.4555 18.0001H15.8018C16.216 18.0001 16.5518 17.6643 16.5518 17.2501C16.5518 16.8359 16.216 16.5001 15.8018 16.5001H12.6624L13.352 11.5001H16.6983C17.1125 11.5001 17.4483 11.1643 17.4483 10.7501C17.4483 10.3359 17.1125 10.0001 16.6983 10.0001H13.5589L13.9931 6.85257C14.0497 6.44224 13.7629 6.06372 13.3526 6.00713C12.9422 5.95053 12.5637 6.23728 12.5071 6.64761L12.0447 10.0001H9.05892L9.49306 6.85257ZM8.85202 11.5001L8.16236 16.5001H11.1482L11.8378 11.5001H8.85202Z" fill="white"/>
<path d="M49.25 8.25H64.25M47.75 15.75H62.75M60.95 2.25L57.05 21.75M54.9503 2.25L51.0503 21.75" stroke="white" stroke-width="1.5" stroke-linecap="round" stroke-linejoin="round"/>
<path fill-rule="evenodd" clip-rule="evenodd" d="M103.097 1.51471C103.504 1.59594 103.767 1.99106 103.686 2.39723L102.665 7.50014H107.135L108.215 2.10306C108.296 1.69689 108.691 1.43348 109.097 1.51471C109.503 1.59594 109.767 1.99106 109.685 2.39723L108.665 7.50014H112.25C112.664 7.50014 113 7.83593 113 8.25014C113 8.66436 112.664 9.00014 112.25 9.00014H108.365L107.165 15.0001H110.75C111.164 15.0001 111.5 15.3359 111.5 15.7501C111.5 16.1644 111.164 16.5001 110.75 16.5001H106.865L105.785 21.8972C105.704 22.3034 105.309 22.5668 104.903 22.4856C104.497 22.4043 104.233 22.0092 104.315 21.6031L105.335 16.5001H100.865L99.7857 21.8972C99.7045 22.3034 99.3094 22.5668 98.9032 22.4856C98.497 22.4043 98.2336 22.0092 98.3149 21.6031L99.3354 16.5001H95.75C95.3358 16.5001 95 16.1644 95 15.7501C95 15.3359 95.3358 15.0001 95.75 15.0001H99.6354L100.835 9.00014H97.25C96.8358 9.00014 96.5 8.66436 96.5 8.25014C96.5 7.83593 96.8358 7.50014 97.25 7.50014H101.135L102.215 2.10306C102.296 1.69689 102.691 1.43348 103.097 1.51471ZM102.365 9.00014L101.165 15.0001H105.635L106.835 9.00014H102.365Z" fill="white"/>
</svg>
