<svg width="116" height="24" viewBox="0 0 116 24" fill="none" xmlns="http://www.w3.org/2000/svg">
<path d="M3.10526 6.28844C2.85362 6.25277 2.60104 6.34697 2.43421 6.5387C2.26738 6.73044 2.209 6.99361 2.27911 7.2379L3.69276 12.1638C3.87733 12.8069 4.4655 13.25 5.13456 13.25H11.25C11.6642 13.25 12 13.5858 12 14C12 14.4142 11.6642 14.75 11.25 14.75H5.13457C4.4655 14.75 3.87733 15.1931 3.69277 15.8362L2.27911 20.7621C2.209 21.0064 2.26738 21.2696 2.43421 21.4613C2.60104 21.6531 2.85362 21.7473 3.10526 21.7116C8.94303 20.8842 14.221 18.3187 18.3983 14.5574C18.5563 14.4151 18.6465 14.2126 18.6465 14C18.6465 13.7875 18.5563 13.5849 18.3983 13.4427C14.221 9.68129 8.94303 7.11585 3.10526 6.28844Z" fill="white"/>
<path d="M49.9997 12L47.2688 3.12451C53.8839 5.04617 60.0276 8.07601 65.4855 11.9997C60.0276 15.9235 53.884 18.9535 47.2689 20.8752L49.9997 12ZM49.9997 12L57.5 12" stroke="white" stroke-width="1.5" stroke-linecap="round" stroke-linejoin="round"/>
<path d="M95.478 2.4043C95.2133 2.3274 94.9277 2.40193 94.7343 2.5984C94.5409 2.79487 94.4709 3.0816 94.552 3.3451L96.9843 11.25H105.5C105.914 11.25 106.25 11.5858 106.25 12C106.25 12.4142 105.914 12.75 105.5 12.75H96.9843L94.5521 20.6546C94.471 20.9181 94.541 21.2049 94.7344 21.4013C94.9278 21.5978 95.2134 21.6723 95.4781 21.5954C102.177 19.6494 108.397 16.5814 113.923 12.6087C114.119 12.4678 114.235 12.2412 114.235 11.9998C114.235 11.7583 114.119 11.5317 113.923 11.3908C108.397 7.41817 102.177 4.35021 95.478 2.4043Z" fill="white"/>
</svg>
