<svg width="116" height="24" viewBox="0 0 116 24" fill="none" xmlns="http://www.w3.org/2000/svg">
<path fill-rule="evenodd" clip-rule="evenodd" d="M14.7698 16.7906C14.4713 17.0777 13.9965 17.0684 13.7094 16.7698L10 12.8321L6.29062 16.7698C6.00353 17.0684 5.52875 17.0777 5.23017 16.7906C4.93159 16.5035 4.92228 16.0287 5.20937 15.7302L9.45937 11.2302C9.60078 11.0831 9.79599 11 10 11C10.204 11 10.3992 11.0831 10.5406 11.2302L14.7906 15.7302C15.0777 16.0287 15.0684 16.5035 14.7698 16.7906Z" fill="white"/>
<path d="M48.5 15.75L56 8.25L63.5 15.75" stroke="white" stroke-width="1.5" stroke-linecap="round" stroke-linejoin="round"/>
<path fill-rule="evenodd" clip-rule="evenodd" d="M103.47 7.71967C103.763 7.42678 104.237 7.42678 104.53 7.71967L112.03 15.2197C112.323 15.5126 112.323 15.9874 112.03 16.2803C111.737 16.5732 111.263 16.5732 110.97 16.2803L104 9.31066L97.0303 16.2803C96.7374 16.5732 96.2626 16.5732 95.9697 16.2803C95.6768 15.9874 95.6768 15.5126 95.9697 15.2197L103.47 7.71967Z" fill="white"/>
</svg>
