<svg width="116" height="24" viewBox="0 0 116 24" fill="none" xmlns="http://www.w3.org/2000/svg">
<path fill-rule="evenodd" clip-rule="evenodd" d="M3 14C3 13.5858 3.33579 13.25 3.75 13.25L14.3879 13.25L10.2302 9.29062C9.93159 9.00353 9.92228 8.52875 10.2094 8.23017C10.4965 7.93159 10.9713 7.92228 11.2698 8.20937L16.7698 13.4594C16.9169 13.6008 17 13.796 17 14C17 14.204 16.9169 14.3992 16.7698 14.5406L11.2698 19.7906C10.9713 20.0777 10.4965 20.0684 10.2094 19.7698C9.92228 19.4713 9.93159 18.9965 10.2302 18.7094L14.3879 14.75L3.75 14.75C3.33579 14.75 3 14.4142 3 14Z" fill="white"/>
<path d="M57.5 4.5L65 12M65 12L57.5 19.5M65 12H47" stroke="white" stroke-width="1.5" stroke-linecap="round" stroke-linejoin="round"/>
<path fill-rule="evenodd" clip-rule="evenodd" d="M104.97 3.96967C105.263 3.67678 105.737 3.67678 106.03 3.96967L113.53 11.4697C113.671 11.6103 113.75 11.8011 113.75 12C113.75 12.1989 113.671 12.3897 113.53 12.5303L106.03 20.0303C105.737 20.3232 105.263 20.3232 104.97 20.0303C104.677 19.7374 104.677 19.2626 104.97 18.9697L111.189 12.75H95C94.5858 12.75 94.25 12.4142 94.25 12C94.25 11.5858 94.5858 11.25 95 11.25H111.189L104.97 5.03033C104.677 4.73744 104.677 4.26256 104.97 3.96967Z" fill="white"/>
</svg>
