<svg width="116" height="24" viewBox="0 0 116 24" fill="none" xmlns="http://www.w3.org/2000/svg">
<path d="M17 8.51661V17.818L5.43349 6.25151C6.93301 6.0853 8.45668 6 10 6C11.7163 6 13.4084 6.10551 15.07 6.31046C16.1942 6.44913 17 7.41374 17 8.51661Z" fill="white"/>
<path d="M3 21.25V10.182L13.6537 20.8357L10 19.0819L4.07455 21.9261C3.84215 22.0377 3.56875 22.0221 3.35057 21.8848C3.13239 21.7475 3 21.5078 3 21.25Z" fill="white"/>
<path d="M3.28033 6.21967C2.98744 5.92678 2.51256 5.92678 2.21967 6.21967C1.92678 6.51256 1.92678 6.98744 2.21967 7.28033L16.7197 21.7803C17.0126 22.0732 17.4874 22.0732 17.7803 21.7803C18.0732 21.4874 18.0732 21.0126 17.7803 20.7197L3.28033 6.21967Z" fill="white"/>
<path d="M47 3L48.6637 4.66365M65 21L63.5 19.5M58.0153 18.2576L56 17.25L48.5 21V8.74237M48.6637 4.66365C48.9529 3.94962 49.6009 3.41593 50.4067 3.32241C52.2416 3.10947 54.108 3 56 3C57.892 3 59.7584 3.10947 61.5933 3.32241C62.6939 3.45014 63.5 4.399 63.5 5.50699V19.5M48.6637 4.66365L63.5 19.5" stroke="white" stroke-width="1.5" stroke-linecap="round" stroke-linejoin="round"/>
<path d="M95.5303 2.46967C95.2374 2.17678 94.7626 2.17678 94.4697 2.46967C94.1768 2.76256 94.1768 3.23744 94.4697 3.53033L112.47 21.5303C112.763 21.8232 113.237 21.8232 113.53 21.5303C113.823 21.2374 113.823 20.7626 113.53 20.4697L95.5303 2.46967Z" fill="white"/>
<path d="M112.25 5.50699V17.068L97.8528 2.67086C98.0032 2.62762 98.1593 2.59609 98.3202 2.57741C100.184 2.36114 102.079 2.25 104 2.25C105.921 2.25 107.816 2.36114 109.68 2.57741C111.177 2.75119 112.25 4.03722 112.25 5.50699Z" fill="white"/>
<path d="M95.75 21V6.93198L109.813 20.9951L104 18.0885L96.8354 21.6708C96.6029 21.7871 96.3268 21.7746 96.1057 21.638C95.8846 21.5013 95.75 21.2599 95.75 21Z" fill="white"/>
</svg>
