<svg width="116" height="24" viewBox="0 0 116 24" fill="none" xmlns="http://www.w3.org/2000/svg">
<path fill-rule="evenodd" clip-rule="evenodd" d="M4 14C4 13.5858 4.33579 13.25 4.75 13.25L15.25 13.25C15.6642 13.25 16 13.5858 16 14C16 14.4142 15.6642 14.75 15.25 14.75L4.75 14.75C4.33579 14.75 4 14.4142 4 14Z" fill="white"/>
<path d="M49 12H63" stroke="white" stroke-width="1.5" stroke-linecap="round" stroke-linejoin="round"/>
<path fill-rule="evenodd" clip-rule="evenodd" d="M96.25 12C96.25 11.5858 96.5858 11.25 97 11.25H111C111.414 11.25 111.75 11.5858 111.75 12C111.75 12.4142 111.414 12.75 111 12.75H97C96.5858 12.75 96.25 12.4142 96.25 12Z" fill="white"/>
</svg>
