<svg width="116" height="24" viewBox="0 0 116 24" fill="none" xmlns="http://www.w3.org/2000/svg">
<path fill-rule="evenodd" clip-rule="evenodd" d="M17.9999 9.25C17.9999 8.08761 17.1185 7.1311 15.9875 7.0124C15.8688 5.88145 14.9123 5 13.7499 5H12.2499C11.0875 5 10.131 5.88145 10.0123 7.0124C9.13721 7.10424 8.4115 7.69769 8.12793 8.5H10.9999C12.3806 8.5 13.4999 9.61929 13.4999 11V18H15.7499C16.9925 18 17.9999 16.9926 17.9999 15.75V9.25ZM12.2499 6.5C11.8357 6.5 11.4999 6.83579 11.4999 7.25V7.5H14.4999V7.25C14.4999 6.83579 14.1641 6.5 13.7499 6.5H12.2499Z" fill="white"/>
<path fill-rule="evenodd" clip-rule="evenodd" d="M3 10C2.44772 10 2 10.4477 2 11V21C2 21.5523 2.44772 22 3 22H11C11.5523 22 12 21.5523 12 21V11C12 10.4477 11.5523 10 11 10H3ZM9.87404 14.166C10.1038 13.8214 10.0107 13.3557 9.66603 13.126C9.32138 12.8962 8.85573 12.9893 8.62596 13.334L6.13343 17.0728L5.28033 16.2197C4.98744 15.9268 4.51256 15.9268 4.21967 16.2197C3.92678 16.5126 3.92678 16.9874 4.21967 17.2803L5.71967 18.7803C5.87855 18.9392 6.1003 19.0185 6.3239 18.9963C6.5475 18.9742 6.7494 18.853 6.87404 18.666L9.87404 14.166Z" fill="white"/>
<path d="M55.3495 3.83619C55.2848 4.04602 55.25 4.26894 55.25 4.5C55.25 4.91421 55.5858 5.25 56 5.25H60.5C60.9142 5.25 61.25 4.91421 61.25 4.5C61.25 4.26894 61.2152 4.04602 61.1505 3.83619M55.3495 3.83619C55.6328 2.91757 56.4884 2.25 57.5 2.25H59C60.0116 2.25 60.8672 2.91757 61.1505 3.83619M55.3495 3.83619C54.9739 3.85858 54.5994 3.88529 54.2261 3.91627C53.095 4.01015 52.25 4.97324 52.25 6.10822V8.25M61.1505 3.83619C61.5261 3.85858 61.9006 3.88529 62.2739 3.91627C63.405 4.01015 64.25 4.97324 64.25 6.10822V16.5C64.25 17.7426 63.2426 18.75 62 18.75H59.75M52.25 8.25H48.875C48.2537 8.25 47.75 8.75368 47.75 9.375V20.625C47.75 21.2463 48.2537 21.75 48.875 21.75H58.625C59.2463 21.75 59.75 21.2463 59.75 20.625V18.75M52.25 8.25H58.625C59.2463 8.25 59.75 8.75368 59.75 9.375V18.75M51.5 15.75L53 17.25L56 13.5" stroke="white" stroke-width="1.5" stroke-linecap="round" stroke-linejoin="round"/>
<path fill-rule="evenodd" clip-rule="evenodd" d="M99.5018 6H103.248L103.25 6H106.63C108.492 6.00268 110 7.51269 110 9.375V18.75C111.657 18.75 113 17.4068 113 15.75V6.10821C113 4.60282 111.875 3.2966 110.336 3.16884C110.112 3.15027 109.888 3.13321 109.663 3.11767C109.163 2.15647 108.158 1.5 107 1.5H105.5C104.342 1.5 103.337 2.15647 102.837 3.11765C102.612 3.13319 102.388 3.15026 102.164 3.16884C100.662 3.29353 99.5542 4.54069 99.5018 6ZM105.5 3C104.672 3 104 3.67157 104 4.5H108.5C108.5 3.67157 107.828 3 107 3H105.5Z" fill="white"/>
<path fill-rule="evenodd" clip-rule="evenodd" d="M95 9.375C95 8.33947 95.8395 7.5 96.875 7.5H106.625C107.661 7.5 108.5 8.33947 108.5 9.375V20.625C108.5 21.6605 107.661 22.5 106.625 22.5H96.875C95.8395 22.5 95 21.6605 95 20.625V9.375ZM104.586 13.9685C104.844 13.6451 104.792 13.1731 104.469 12.9143C104.145 12.6556 103.673 12.708 103.414 13.0315L100.938 16.1272L100.03 15.2197C99.7374 14.9268 99.2626 14.9268 98.9697 15.2197C98.6768 15.5126 98.6768 15.9874 98.9697 16.2803L100.47 17.7803C100.621 17.9312 100.828 18.0107 101.041 17.9989C101.254 17.9871 101.452 17.8851 101.586 17.7185L104.586 13.9685Z" fill="white"/>
</svg>
