<svg width="116" height="24" viewBox="0 0 116 24" fill="none" xmlns="http://www.w3.org/2000/svg">
<path fill-rule="evenodd" clip-rule="evenodd" d="M2 7.5C2 6.67157 2.67157 6 3.5 6H4.64837C5.35142 6 5.96014 6.4883 6.11265 7.1746L6.82887 10.3976C7.00105 11.1724 6.53984 11.9472 5.77667 12.1652L4.84388 12.4318C4.4331 12.5491 4.20107 12.9866 4.36396 13.3816C5.53001 16.2087 7.79126 18.47 10.6184 19.636C11.0134 19.7989 11.4509 19.5669 11.5682 19.1561L11.8348 18.2233C12.0528 17.4602 12.8276 16.999 13.6024 17.1711L16.8254 17.8873C17.5117 18.0399 18 18.6486 18 19.3516V20.5C18 21.3284 17.3284 22 16.5 22H15C13.8514 22 12.7366 21.8509 11.6742 21.5705C7.16665 20.3809 3.61908 16.8334 2.42949 12.3258C2.14913 11.2634 2 10.1486 2 9V7.5Z" fill="white"/>
<path d="M46.25 6.75C46.25 15.0343 52.9657 21.75 61.25 21.75H63.5C64.7426 21.75 65.75 20.7426 65.75 19.5V18.1284C65.75 17.6121 65.3987 17.1622 64.8979 17.037L60.4747 15.9312C60.0355 15.8214 59.5734 15.9855 59.3018 16.3476L58.3316 17.6412C58.05 18.0166 57.563 18.1827 57.1223 18.0212C53.8154 16.8098 51.1902 14.1846 49.9788 10.8777C49.8173 10.437 49.9834 9.94998 50.3588 9.6684L51.6524 8.69818C52.0145 8.4266 52.1786 7.96445 52.0688 7.52533L50.963 3.10215C50.8378 2.60133 50.3879 2.25 49.8716 2.25H48.5C47.2574 2.25 46.25 3.25736 46.25 4.5V6.75Z" stroke="white" stroke-width="1.5" stroke-linecap="round" stroke-linejoin="round"/>
<path fill-rule="evenodd" clip-rule="evenodd" d="M93.5 4.5C93.5 2.84315 94.8431 1.5 96.5 1.5H97.8716C98.732 1.5 99.482 2.08556 99.6906 2.92025L100.796 7.34343C100.979 8.0753 100.706 8.84555 100.102 9.29818L98.8088 10.2684C98.6745 10.3691 98.6453 10.5167 98.683 10.6197C99.8185 13.7195 102.281 16.1815 105.38 17.317C105.483 17.3547 105.631 17.3255 105.732 17.1912L106.702 15.8976C107.154 15.2941 107.925 15.0206 108.657 15.2036L113.08 16.3094C113.914 16.518 114.5 17.268 114.5 18.1284V19.5C114.5 21.1569 113.157 22.5 111.5 22.5H109.25C100.552 22.5 93.5 15.4485 93.5 6.75V4.5Z" fill="white"/>
</svg>
