<svg width="30" height="30" viewBox="0 0 30 30" fill="none" xmlns="http://www.w3.org/2000/svg">
<path d="M23.75 3.75H6.25C5.25544 3.75 4.30161 4.14509 3.59835 4.84835C2.89509 5.55161 2.5 6.50544 2.5 7.5V17.5C2.5 18.4946 2.89509 19.4484 3.59835 20.1517C4.30161 20.8549 5.25544 21.25 6.25 21.25H13.75V23.75H8.75C8.41848 23.75 8.10054 23.8817 7.86612 24.1161C7.6317 24.3505 7.5 24.6685 7.5 25C7.5 25.3315 7.6317 25.6495 7.86612 25.8839C8.10054 26.1183 8.41848 26.25 8.75 26.25H21.25C21.5815 26.25 21.8995 26.1183 22.1339 25.8839C22.3683 25.6495 22.5 25.3315 22.5 25C22.5 24.6685 22.3683 24.3505 22.1339 24.1161C21.8995 23.8817 21.5815 23.75 21.25 23.75H16.25V21.25H23.75C24.7446 21.25 25.6984 20.8549 26.4017 20.1517C27.1049 19.4484 27.5 18.4946 27.5 17.5V7.5C27.5 6.50544 27.1049 5.55161 26.4017 4.84835C25.6984 4.14509 24.7446 3.75 23.75 3.75ZM25 17.5C25 17.8315 24.8683 18.1495 24.6339 18.3839C24.3995 18.6183 24.0815 18.75 23.75 18.75H6.25C5.91848 18.75 5.60054 18.6183 5.36612 18.3839C5.1317 18.1495 5 17.8315 5 17.5V7.5C5 7.16848 5.1317 6.85054 5.36612 6.61612C5.60054 6.3817 5.91848 6.25 6.25 6.25H23.75C24.0815 6.25 24.3995 6.3817 24.6339 6.61612C24.8683 6.85054 25 7.16848 25 7.5V17.5Z" fill="#333333"/>
</svg>
