<svg width="116" height="24" viewBox="0 0 116 24" fill="none" xmlns="http://www.w3.org/2000/svg">
<path fill-rule="evenodd" clip-rule="evenodd" d="M18 14C18 14.4142 17.6642 14.75 17.25 14.75L4.6599 14.75L6.76034 16.7004C7.06387 16.9823 7.08145 17.4568 6.79959 17.7603C6.51774 18.0639 6.04319 18.0815 5.73966 17.7996L2.23966 14.5496C2.08684 14.4077 2 14.2086 2 14C2 13.7915 2.08684 13.5923 2.23966 13.4504L5.73966 10.2004C6.04319 9.91856 6.51774 9.93613 6.79959 10.2397C7.08145 10.5432 7.06387 11.0177 6.76034 11.2996L4.6599 13.25L17.25 13.25C17.6642 13.25 18 13.5858 18 14Z" fill="white"/>
<path d="M50.75 15.75L47 12M47 12L50.75 8.25M47 12H65" stroke="white" stroke-width="1.5" stroke-linecap="round" stroke-linejoin="round"/>
<path fill-rule="evenodd" clip-rule="evenodd" d="M99.2803 7.71967C99.5732 8.01256 99.5732 8.48744 99.2803 8.78033L96.8107 11.25H113C113.414 11.25 113.75 11.5858 113.75 12C113.75 12.4142 113.414 12.75 113 12.75H96.8107L99.2803 15.2197C99.5732 15.5126 99.5732 15.9874 99.2803 16.2803C98.9874 16.5732 98.5126 16.5732 98.2197 16.2803L94.4697 12.5303C94.1768 12.2374 94.1768 11.7626 94.4697 11.4697L98.2197 7.71967C98.5126 7.42678 98.9874 7.42678 99.2803 7.71967Z" fill="white"/>
</svg>
