<svg width="116" height="24" viewBox="0 0 116 24" fill="none" xmlns="http://www.w3.org/2000/svg">
<path fill-rule="evenodd" clip-rule="evenodd" d="M2.62803 5.60102C5.02718 5.2056 7.48986 5 10 5C12.5101 5 14.9728 5.2056 17.372 5.60102C17.7342 5.66072 18 5.97389 18 6.34103V8.62868C18 9.22542 17.7629 9.79771 17.341 10.2197L12.659 14.9017C12.2371 15.3236 12 15.8959 12 16.4926V19.5291C12 20.2126 11.6893 20.859 11.1556 21.286L9.21852 22.8357C8.99339 23.0158 8.68496 23.0509 8.42511 22.926C8.16526 22.8011 8 22.5383 8 22.25V16.4926C8 15.8959 7.76295 15.3236 7.34099 14.9017L2.65901 10.2197C2.23705 9.79771 2 9.22542 2 8.62868V6.34103C2 5.97389 2.26578 5.66072 2.62803 5.60102Z" fill="white"/>
<path d="M56.0001 3C58.7548 3 61.4552 3.23205 64.0831 3.67767C64.6159 3.76803 65 4.23355 65 4.77402V5.81802C65 6.41476 64.7629 6.98705 64.341 7.40901L58.909 12.841C58.4871 13.2629 58.25 13.8352 58.25 14.432V17.3594C58.25 18.2117 57.7685 18.9908 57.0062 19.3719L53.75 21V14.432C53.75 13.8352 53.5129 13.2629 53.091 12.841L47.659 7.40901C47.2371 6.98705 47 6.41476 47 5.81802V4.77404C47 4.23357 47.3841 3.76805 47.9169 3.67769C50.5448 3.23206 53.2453 3 56.0001 3Z" stroke="white" stroke-width="1.5" stroke-linecap="round" stroke-linejoin="round"/>
<path fill-rule="evenodd" clip-rule="evenodd" d="M95.7915 2.93825C98.4607 2.48562 101.203 2.25 104 2.25C106.797 2.25 109.539 2.48561 112.208 2.93822C113.111 3.09125 113.75 3.87676 113.75 4.77402V5.81802C113.75 6.61367 113.434 7.37673 112.871 7.93934L106.689 14.1213C106.408 14.4026 106.25 14.7842 106.25 15.182V18.1094C106.25 19.2457 105.608 20.2845 104.592 20.7927L102.835 21.6708C102.603 21.7871 102.327 21.7746 102.106 21.638C101.885 21.5013 101.75 21.2599 101.75 21V15.182C101.75 14.7842 101.592 14.4026 101.311 14.1213L95.1287 7.93934C94.5661 7.37673 94.25 6.61367 94.25 5.81802V4.77404C94.25 3.87678 94.8892 3.09127 95.7915 2.93825Z" fill="white"/>
</svg>
