<svg width="116" height="24" viewBox="0 0 116 24" fill="none" xmlns="http://www.w3.org/2000/svg">
<path d="M3.75 7C2.7835 7 2 7.7835 2 8.75V12.0109C2.50515 11.6875 3.10568 11.5 3.75 11.5H16.25C16.8943 11.5 17.4949 11.6875 18 12.0109V10.75C18 9.7835 17.2165 9 16.25 9H11.4142C11.3479 9 11.2843 8.97366 11.2374 8.92678L9.82322 7.51256C9.49503 7.18437 9.04992 7 8.58579 7H3.75Z" fill="white"/>
<path d="M3.75 13C2.7835 13 2 13.7835 2 14.75V19.25C2 20.2165 2.7835 21 3.75 21H16.25C17.2165 21 18 20.2165 18 19.25V14.75C18 13.7835 17.2165 13 16.25 13H3.75Z" fill="white"/>
<path d="M46.25 12.75V12C46.25 10.7574 47.2574 9.75 48.5 9.75H63.5C64.7426 9.75 65.75 10.7574 65.75 12V12.75M57.0607 6.31066L54.9393 4.18934C54.658 3.90804 54.2765 3.75 53.8787 3.75H48.5C47.2574 3.75 46.25 4.75736 46.25 6V18C46.25 19.2426 47.2574 20.25 48.5 20.25H63.5C64.7426 20.25 65.75 19.2426 65.75 18V9C65.75 7.75736 64.7426 6.75 63.5 6.75H58.1213C57.7235 6.75 57.342 6.59197 57.0607 6.31066Z" stroke="white" stroke-width="1.5" stroke-linecap="round" stroke-linejoin="round"/>
<path d="M111.5 21C113.157 21 114.5 19.6569 114.5 18V13.5C114.5 11.8431 113.157 10.5 111.5 10.5H96.5C94.8431 10.5 93.5 11.8431 93.5 13.5V18C93.5 19.6569 94.8431 21 96.5 21H111.5Z" fill="white"/>
<path d="M93.5 10.1458V6C93.5 4.34315 94.8431 3 96.5 3H101.879C102.475 3 103.048 3.23705 103.47 3.65901L105.591 5.78033C105.732 5.92098 105.922 6 106.121 6H111.5C113.157 6 114.5 7.34315 114.5 9V10.1458C113.704 9.43328 112.653 9 111.5 9H96.5C95.3475 9 94.2961 9.43328 93.5 10.1458Z" fill="white"/>
</svg>
