<svg width="116" height="24" viewBox="0 0 116 24" fill="none" xmlns="http://www.w3.org/2000/svg">
<path d="M3.99997 12C3.99997 11.7394 4.01658 11.4826 4.04881 11.2308L11.7713 18.9533C11.1847 18.9843 10.5942 19 9.99997 19C9.34517 19 8.69477 18.9809 8.0493 18.9433C8.25097 19.8345 9.04777 20.5 10 20.5C10.8982 20.5 11.6581 19.9079 11.9107 19.0927L13.045 20.227C12.4432 21.2858 11.305 22 10 22C8.17421 22 6.67494 20.602 6.51426 18.818C5.41181 18.7023 4.32537 18.5322 3.25769 18.3105C3.02851 18.2629 2.83469 18.1111 2.73365 17.9C2.6326 17.6888 2.63591 17.4426 2.7426 17.2343C3.54624 15.6651 3.99997 13.8866 3.99997 12Z" fill="white"/>
<path d="M17.2663 17.9C17.2467 17.9408 17.2237 17.9795 17.1976 18.0156L6.38945 7.20747C7.39404 6.44946 8.64452 6 9.99997 6C13.3137 6 16 8.68629 16 12C16 13.8866 16.4537 15.6651 17.2573 17.2343C17.364 17.4426 17.3673 17.6888 17.2663 17.9Z" fill="white"/>
<path d="M3.28033 6.21967C2.98744 5.92678 2.51256 5.92678 2.21967 6.21967C1.92678 6.51256 1.92678 6.98744 2.21967 7.28033L16.7197 21.7803C17.0126 22.0732 17.4874 22.0732 17.7803 21.7803C18.0732 21.4874 18.0732 21.0126 17.7803 20.7197L3.28033 6.21967Z" fill="white"/>
<path d="M53.1431 17.0818C54.0799 17.1929 55.0332 17.25 55.9998 17.25C56.3306 17.25 56.6599 17.2433 56.9874 17.2301M53.1431 17.0818C51.2484 16.857 49.4214 16.4116 47.6885 15.7719C49.0254 14.2879 49.8755 12.3567 49.9872 10.2299M53.1431 17.0818C53.0502 17.3712 53 17.6797 53 18C53 19.6569 54.3431 21 56 21C57.2864 21 58.3837 20.1903 58.8101 19.0527M60.7749 16.7749L65 21M60.7749 16.7749C61.9894 16.5298 63.1706 16.1929 64.3111 15.7719C62.8743 14.177 61.9998 12.0656 61.9998 9.75V9.04919L62 9C62 5.68629 59.3137 3 56 3C53.5667 3 51.4717 4.44849 50.5303 6.53026M60.7749 16.7749L50.5303 6.53026M47 3L50.5303 6.53026" stroke="white" stroke-width="1.5" stroke-linecap="round" stroke-linejoin="round"/>
<path d="M95.5303 2.46967C95.2374 2.17678 94.7626 2.17678 94.4697 2.46967C94.1768 2.76256 94.1768 3.23744 94.4697 3.53033L112.47 21.5303C112.763 21.8232 113.237 21.8232 113.53 21.5303C113.823 21.2374 113.823 20.7626 113.53 20.4697L95.5303 2.46967Z" fill="white"/>
<path d="M112.571 16.4755C112.347 16.558 112.122 16.6374 111.896 16.7136L99.3189 4.13691C100.532 2.96847 102.182 2.25 104 2.25C107.728 2.25 110.75 5.27208 110.75 9L110.75 9.04919V9.75C110.75 11.8731 111.551 13.8074 112.868 15.2699C113.035 15.4547 113.099 15.71 113.039 15.9516C112.98 16.1931 112.804 16.3893 112.571 16.4755Z" fill="white"/>
<path fill-rule="evenodd" clip-rule="evenodd" d="M97.25 8.9998C97.25 8.81598 97.2574 8.63388 97.2718 8.45377L107.656 18.838C107.275 20.5056 105.783 21.75 104 21.75C101.929 21.75 100.25 20.0711 100.25 18C100.25 17.9056 100.254 17.812 100.26 17.7192C98.5893 17.4659 96.9729 17.0455 95.4288 16.4755C95.1954 16.3893 95.0199 16.1931 94.9603 15.9516C94.9007 15.71 94.9648 15.4547 95.1313 15.2699C96.4488 13.8074 97.2498 11.8731 97.2498 9.75L97.25 8.9998ZM101.752 17.8993C101.751 17.9326 101.75 17.9662 101.75 18C101.75 19.2426 102.757 20.25 104 20.25C105.243 20.25 106.25 19.2426 106.25 18C106.25 17.9662 106.249 17.9326 106.248 17.8992C105.507 17.9659 104.757 18 104 18C103.242 18 102.493 17.966 101.752 17.8993Z" fill="white"/>
</svg>
