<svg width="116" height="24" viewBox="0 0 116 24" fill="none" xmlns="http://www.w3.org/2000/svg">
<path fill-rule="evenodd" clip-rule="evenodd" d="M3 8.25C3 7.00736 4.00736 6 5.25 6H10.75C11.9926 6 13 7.00736 13 8.25V10.25C13 10.6642 12.6642 11 12.25 11C11.8358 11 11.5 10.6642 11.5 10.25V8.25C11.5 7.83579 11.1642 7.5 10.75 7.5H5.25C4.83579 7.5 4.5 7.83579 4.5 8.25V19.75C4.5 20.1642 4.83579 20.5 5.25 20.5H10.75C11.1642 20.5 11.5 20.1642 11.5 19.75V17.75C11.5 17.3358 11.8358 17 12.25 17C12.6642 17 13 17.3358 13 17.75V19.75C13 20.9926 11.9926 22 10.75 22H5.25C4.00736 22 3 20.9926 3 19.75V8.25Z" fill="white"/>
<path fill-rule="evenodd" clip-rule="evenodd" d="M6 14C6 13.5858 6.33579 13.25 6.75 13.25H16.2955L15.2483 12.3075C14.9404 12.0304 14.9154 11.5562 15.1925 11.2483C15.4696 10.9404 15.9438 10.9154 16.2517 11.1925L18.7517 13.4425C18.9098 13.5848 19 13.7874 19 14C19 14.2126 18.9098 14.4152 18.7517 14.5575L16.2517 16.8075C15.9438 17.0846 15.4696 17.0596 15.1925 16.7517C14.9154 16.4438 14.9404 15.9696 15.2483 15.6925L16.2955 14.75H6.75C6.33579 14.75 6 14.4142 6 14Z" fill="white"/>
<path d="M59.75 9V5.25C59.75 4.00736 58.7426 3 57.5 3L51.5 3C50.2574 3 49.25 4.00736 49.25 5.25L49.25 18.75C49.25 19.9926 50.2574 21 51.5 21H57.5C58.7426 21 59.75 19.9926 59.75 18.75V15M62.75 15L65.75 12M65.75 12L62.75 9M65.75 12L53 12" stroke="white" stroke-width="1.5" stroke-linecap="round" stroke-linejoin="round"/>
<path fill-rule="evenodd" clip-rule="evenodd" d="M99.5 3.75C98.6716 3.75 98 4.42157 98 5.25L98 18.75C98 19.5784 98.6716 20.25 99.5 20.25H105.5C106.328 20.25 107 19.5784 107 18.75V15C107 14.5858 107.336 14.25 107.75 14.25C108.164 14.25 108.5 14.5858 108.5 15V18.75C108.5 20.4069 107.157 21.75 105.5 21.75H99.5C97.8431 21.75 96.5 20.4069 96.5 18.75L96.5 5.25C96.5 3.59315 97.8431 2.25 99.5 2.25L105.5 2.25C107.157 2.25 108.5 3.59315 108.5 5.25V9C108.5 9.41421 108.164 9.75 107.75 9.75C107.336 9.75 107 9.41421 107 9V5.25C107 4.42157 106.328 3.75 105.5 3.75L99.5 3.75ZM110.22 8.46967C110.513 8.17678 110.987 8.17678 111.28 8.46967L114.28 11.4697C114.573 11.7626 114.573 12.2374 114.28 12.5303L111.28 15.5303C110.987 15.8232 110.513 15.8232 110.22 15.5303C109.927 15.2374 109.927 14.7626 110.22 14.4697L111.939 12.75L101 12.75C100.586 12.75 100.25 12.4142 100.25 12C100.25 11.5858 100.586 11.25 101 11.25L111.939 11.25L110.22 9.53033C109.927 9.23744 109.927 8.76256 110.22 8.46967Z" fill="white"/>
</svg>
