<svg width="116" height="24" viewBox="0 0 116 24" fill="none" xmlns="http://www.w3.org/2000/svg">
<path fill-rule="evenodd" clip-rule="evenodd" d="M10 8.5C11.215 8.5 12.4171 8.55484 13.6038 8.66214C13.9249 8.69118 14.1802 8.93931 14.2185 9.25934C14.3426 10.297 14.4265 11.3472 14.4685 12.4082L12.7804 10.7197C12.4875 10.4268 12.0126 10.4268 11.7197 10.7196C11.4268 11.0125 11.4267 11.4873 11.7196 11.7803L14.7189 14.7802C15.0117 15.0731 15.4866 15.0732 15.7795 14.7803L18.7803 11.7804C19.0732 11.4876 19.0733 11.0127 18.7804 10.7197C18.4875 10.4268 18.0127 10.4267 17.7197 10.7196L15.9719 12.467C15.9299 11.326 15.8413 10.1968 15.7079 9.08123C15.5855 8.05775 14.7654 7.26106 13.7389 7.16824C12.5073 7.05688 11.2602 7 10 7C8.73981 7 7.49271 7.05688 6.26115 7.16824C5.23465 7.26105 4.41449 8.05775 4.2921 9.08123C4.22831 9.61464 4.17477 10.1512 4.13167 10.6906C4.09868 11.1035 4.40666 11.465 4.81956 11.498C5.23245 11.5309 5.59391 11.223 5.6269 10.8101C5.66843 10.2902 5.72003 9.77326 5.78148 9.25934C5.81975 8.93931 6.07514 8.69118 6.39623 8.66214C7.58294 8.55484 8.78497 8.5 10 8.5ZM5.28113 13.22C4.98828 12.9271 4.51345 12.927 4.22052 13.2199L1.21976 16.2196C0.926819 16.5124 0.926735 16.9873 1.21958 17.2802C1.51242 17.5732 1.98729 17.5733 2.28024 17.2804L4.02814 15.5331C4.0701 16.6741 4.15869 17.8032 4.2921 18.9188C4.41449 19.9422 5.23465 20.7389 6.26115 20.8318C7.49271 20.9431 8.73981 21 10 21C11.2602 21 12.5073 20.9431 13.7389 20.8318C14.7654 20.7389 15.5855 19.9423 15.7079 18.9188C15.7717 18.3849 15.8253 17.848 15.8684 17.3081C15.9014 16.8952 15.5934 16.5338 15.1805 16.5008C14.7676 16.4678 14.4062 16.7758 14.3732 17.1887C14.3316 17.709 14.28 18.2263 14.2185 18.7407C14.1802 19.0607 13.9249 19.3088 13.6038 19.3379C12.4171 19.4452 11.215 19.5 10 19.5C8.78497 19.5 7.58294 19.4452 6.39623 19.3379C6.07514 19.3088 5.81975 19.0607 5.78148 18.7407C5.6574 17.703 5.57352 16.6529 5.53148 15.5919L7.21963 17.2803C7.5125 17.5732 7.98737 17.5732 8.28029 17.2804C8.57321 16.9875 8.57324 16.5126 8.28037 16.2197L5.28113 13.22Z" fill="white"/>
<path d="M63.5 12C63.5 10.7681 63.4536 9.54699 63.3624 8.3384C63.2128 6.35425 61.6458 4.78724 59.6616 4.63757C58.453 4.54641 57.2319 4.5 56 4.5C54.7681 4.5 53.547 4.54641 52.3384 4.63757C50.3542 4.78724 48.7872 6.35425 48.6376 8.3384C48.621 8.55852 48.6059 8.77906 48.5922 9M63.5 12L66.5 9M63.5 12L60.5 9M48.5 12C48.5 13.2319 48.5464 14.453 48.6376 15.6616C48.7872 17.6458 50.3542 19.2128 52.3384 19.3624C53.547 19.4536 54.7681 19.5 56 19.5C57.2319 19.5 58.453 19.4536 59.6616 19.3624C61.6458 19.2128 63.2128 17.6458 63.3624 15.6616C63.379 15.4415 63.3941 15.2209 63.4078 15M48.5 12L51.5 15M48.5 12L45.5 15" stroke="white" stroke-width="1.5" stroke-linecap="round" stroke-linejoin="round"/>
<path fill-rule="evenodd" clip-rule="evenodd" d="M104 5.25C105.213 5.25 106.415 5.2957 107.605 5.38545C109.22 5.50723 110.493 6.78038 110.615 8.39481C110.659 8.97827 110.692 9.56471 110.715 10.1539L109.03 8.46967C108.737 8.17678 108.263 8.17678 107.97 8.46967C107.677 8.76256 107.677 9.23744 107.97 9.53033L110.97 12.5303C111.263 12.8232 111.737 12.8232 112.03 12.5303L115.03 9.53033C115.323 9.23744 115.323 8.76256 115.03 8.46967C114.737 8.17678 114.263 8.17678 113.97 8.46967L112.218 10.2212C112.195 9.57151 112.159 8.92503 112.11 8.28199C111.933 5.92812 110.072 4.06725 107.718 3.8897C106.491 3.79712 105.251 3.75 104 3.75C102.749 3.75 101.509 3.79712 100.282 3.8897C97.9281 4.06725 96.0673 5.92812 95.8897 8.28199C95.8728 8.50552 95.8575 8.72948 95.8436 8.95384C95.8182 9.36727 96.1326 9.72308 96.5461 9.74858C96.9595 9.77407 97.3153 9.45959 97.3408 9.04616C97.3542 8.82864 97.3691 8.61152 97.3854 8.39481C97.5072 6.78038 98.7804 5.50723 100.395 5.38545C101.585 5.2957 102.787 5.25 104 5.25ZM97.0303 11.4697C96.7374 11.1768 96.2626 11.1768 95.9697 11.4697L92.9697 14.4697C92.6768 14.7626 92.6768 15.2374 92.9697 15.5303C93.2626 15.8232 93.7374 15.8232 94.0303 15.5303L95.7819 13.7788C95.8052 14.4285 95.8412 15.075 95.8897 15.718C96.0673 18.0719 97.9281 19.9327 100.282 20.1103C101.509 20.2029 102.749 20.25 104 20.25C105.251 20.25 106.491 20.2029 107.718 20.1103C110.072 19.9327 111.933 18.0719 112.11 15.718C112.127 15.4945 112.143 15.2705 112.156 15.0462C112.182 14.6327 111.867 14.2769 111.454 14.2514C111.041 14.2259 110.685 14.5404 110.659 14.9538C110.646 15.1714 110.631 15.3885 110.615 15.6052C110.493 17.2196 109.22 18.4928 107.605 18.6146C106.415 18.7043 105.213 18.75 104 18.75C102.787 18.75 101.585 18.7043 100.395 18.6146C98.7804 18.4928 97.5072 17.2196 97.3854 15.6052C97.3414 15.0217 97.308 14.4353 97.2854 13.8461L98.9697 15.5303C99.2626 15.8232 99.7374 15.8232 100.03 15.5303C100.323 15.2374 100.323 14.7626 100.03 14.4697L97.0303 11.4697Z" fill="white"/>
</svg>
