<svg width="116" height="24" viewBox="0 0 116 24" fill="none" xmlns="http://www.w3.org/2000/svg">
<path fill-rule="evenodd" clip-rule="evenodd" d="M4.5 6C3.67157 6 3 6.67157 3 7.5V20.5C3 21.3284 3.67157 22 4.5 22H15.5C16.3284 22 17 21.3284 17 20.5V11.6213C17 11.2235 16.842 10.842 16.5607 10.5607L12.4393 6.43934C12.158 6.15804 11.7765 6 11.3787 6H4.5ZM9.25 17.25C9.25 17.6642 9.58579 18 10 18C10.4142 18 10.75 17.6642 10.75 17.25V14.7045L11.6925 15.7517C11.9696 16.0596 12.4438 16.0846 12.7517 15.8075C13.0596 15.5304 13.0846 15.0562 12.8075 14.7483L10.5575 12.2483C10.4152 12.0902 10.2126 12 10 12C9.78739 12 9.58476 12.0902 9.44253 12.2483L7.19253 14.7483C6.91544 15.0562 6.94039 15.5304 7.24828 15.8075C7.55616 16.0846 8.03038 16.0596 8.30747 15.7517L9.25 14.7045V17.25Z" fill="white"/>
<path d="M63.5 14.25V11.625C63.5 9.76104 61.989 8.25 60.125 8.25H58.625C58.0037 8.25 57.5 7.74632 57.5 7.125V5.625C57.5 3.76104 55.989 2.25 54.125 2.25H52.25M59 14.25L56 11.25M56 11.25L53 14.25M56 11.25L56 17.25M54.5 2.25H49.625C49.0037 2.25 48.5 2.75368 48.5 3.375V20.625C48.5 21.2463 49.0037 21.75 49.625 21.75H62.375C62.9963 21.75 63.5 21.2463 63.5 20.625V11.25C63.5 6.27944 59.4706 2.25 54.5 2.25Z" stroke="white" stroke-width="1.5" stroke-linecap="round" stroke-linejoin="round"/>
<path fill-rule="evenodd" clip-rule="evenodd" d="M97.625 1.5H101C103.071 1.5 104.75 3.17893 104.75 5.25V7.125C104.75 8.16053 105.589 9 106.625 9H108.5C110.571 9 112.25 10.6789 112.25 12.75V20.625C112.25 21.6605 111.411 22.5 110.375 22.5H97.625C96.5895 22.5 95.75 21.6605 95.75 20.625V3.375C95.75 2.33947 96.5895 1.5 97.625 1.5ZM104.53 11.4697C104.39 11.329 104.199 11.25 104 11.25C103.801 11.25 103.61 11.329 103.47 11.4697L100.47 14.4697C100.177 14.7626 100.177 15.2374 100.47 15.5303C100.763 15.8232 101.237 15.8232 101.53 15.5303L103.25 13.8107L103.25 18C103.25 18.4142 103.586 18.75 104 18.75C104.414 18.75 104.75 18.4142 104.75 18L104.75 13.8107L106.47 15.5303C106.763 15.8232 107.237 15.8232 107.53 15.5303C107.823 15.2374 107.823 14.7626 107.53 14.4697L104.53 11.4697Z" fill="white"/>
<path d="M106.25 5.25C106.25 3.93695 105.768 2.73648 104.971 1.8159C108.37 2.70377 111.046 5.37988 111.934 8.77881C111.014 7.98204 109.813 7.5 108.5 7.5H106.625C106.418 7.5 106.25 7.33211 106.25 7.125V5.25Z" fill="white"/>
</svg>
