<svg width="116" height="24" viewBox="0 0 116 24" fill="none" xmlns="http://www.w3.org/2000/svg">
<path d="M10.75 6.75C10.75 6.33579 10.4142 6 10 6C9.58579 6 9.25 6.33579 9.25 6.75V15.3636L6.29526 12.235C6.01085 11.9339 5.53617 11.9203 5.23503 12.2047C4.9339 12.4891 4.92033 12.9638 5.20474 13.265L9.45474 17.765C9.59642 17.915 9.79366 18 10 18C10.2063 18 10.4036 17.915 10.5453 17.765L14.7953 13.265C15.0797 12.9638 15.0661 12.4891 14.765 12.2047C14.4638 11.9203 13.9892 11.9339 13.7047 12.235L10.75 15.3636V6.75Z" fill="white"/>
<path d="M3.5 16.75C3.5 16.3358 3.16421 16 2.75 16C2.33579 16 2 16.3358 2 16.75V19.25C2 20.7688 3.23122 22 4.75 22H15.25C16.7688 22 18 20.7688 18 19.25V16.75C18 16.3358 17.6642 16 17.25 16C16.8358 16 16.5 16.3358 16.5 16.75V19.25C16.5 19.9404 15.9404 20.5 15.25 20.5H4.75C4.05964 20.5 3.5 19.9404 3.5 19.25V16.75Z" fill="white"/>
<path d="M47 16.5V18.75C47 19.9926 48.0074 21 49.25 21H62.75C63.9926 21 65 19.9926 65 18.75V16.5M60.5 12L56 16.5M56 16.5L51.5 12M56 16.5V3" stroke="white" stroke-width="1.5" stroke-linecap="round" stroke-linejoin="round"/>
<path fill-rule="evenodd" clip-rule="evenodd" d="M104 2.25C104.414 2.25 104.75 2.58579 104.75 3V14.6893L107.97 11.4697C108.263 11.1768 108.737 11.1768 109.03 11.4697C109.323 11.7626 109.323 12.2374 109.03 12.5303L104.53 17.0303C104.237 17.3232 103.763 17.3232 103.47 17.0303L98.9697 12.5303C98.6768 12.2374 98.6768 11.7626 98.9697 11.4697C99.2626 11.1768 99.7374 11.1768 100.03 11.4697L103.25 14.6893V3C103.25 2.58579 103.586 2.25 104 2.25ZM95 15.75C95.4142 15.75 95.75 16.0858 95.75 16.5V18.75C95.75 19.5784 96.4216 20.25 97.25 20.25H110.75C111.578 20.25 112.25 19.5784 112.25 18.75V16.5C112.25 16.0858 112.586 15.75 113 15.75C113.414 15.75 113.75 16.0858 113.75 16.5V18.75C113.75 20.4069 112.407 21.75 110.75 21.75H97.25C95.5931 21.75 94.25 20.4069 94.25 18.75V16.5C94.25 16.0858 94.5858 15.75 95 15.75Z" fill="white"/>
</svg>
