<svg width="116" height="24" viewBox="0 0 116 24" fill="none" xmlns="http://www.w3.org/2000/svg">
<path fill-rule="evenodd" clip-rule="evenodd" d="M2 8.25C2 7.00736 3.00736 6 4.25 6H15.75C16.9926 6 18 7.00736 18 8.25V16.75C18 17.9926 16.9926 19 15.75 19H12.6448C12.8417 19.6619 13.2292 20.2418 13.7449 20.6767C13.9856 20.8798 14.0738 21.2116 13.9657 21.5074C13.8576 21.8032 13.5762 22 13.2613 22H6.73881C6.42387 22 6.14248 21.8032 6.03437 21.5074C5.92627 21.2116 6.01449 20.8798 6.25522 20.6767C6.77086 20.2418 7.15838 19.6619 7.35525 19H4.25C3.00736 19 2 17.9926 2 16.75V8.25ZM3.5 8.25C3.5 7.83579 3.83579 7.5 4.25 7.5H15.75C16.1642 7.5 16.5 7.83579 16.5 8.25V15.75C16.5 16.1642 16.1642 16.5 15.75 16.5H4.25C3.83579 16.5 3.5 16.1642 3.5 15.75V8.25Z" fill="white"/>
<path d="M53 17.25V18.2574C53 19.053 52.6839 19.8161 52.1213 20.3787L51.5 21H60.5L59.8787 20.3787C59.3161 19.8161 59 19.053 59 18.2574V17.25M65 5.25V15C65 16.2426 63.9926 17.25 62.75 17.25H49.25C48.0074 17.25 47 16.2426 47 15V5.25M65 5.25C65 4.00736 63.9926 3 62.75 3H49.25C48.0074 3 47 4.00736 47 5.25M65 5.25V12C65 13.2426 63.9926 14.25 62.75 14.25H49.25C48.0074 14.25 47 13.2426 47 12V5.25" stroke="white" stroke-width="1.5" stroke-linecap="round" stroke-linejoin="round"/>
<path fill-rule="evenodd" clip-rule="evenodd" d="M94.25 5.25C94.25 3.59315 95.5931 2.25 97.25 2.25H110.75C112.407 2.25 113.75 3.59315 113.75 5.25V15C113.75 16.6569 112.407 18 110.75 18H107.75V18.2574C107.75 18.8541 107.987 19.4264 108.409 19.8483L109.03 20.4697C109.245 20.6842 109.309 21.0068 109.193 21.287C109.077 21.5673 108.803 21.75 108.5 21.75H99.5C99.1967 21.75 98.9232 21.5673 98.8071 21.287C98.691 21.0068 98.7552 20.6842 98.9697 20.4697L99.591 19.8484C100.013 19.4264 100.25 18.8541 100.25 18.2574V18H97.25C95.5931 18 94.25 16.6569 94.25 15V5.25ZM95.75 5.25V12.75C95.75 13.5784 96.4216 14.25 97.25 14.25H110.75C111.578 14.25 112.25 13.5784 112.25 12.75V5.25C112.25 4.42157 111.578 3.75 110.75 3.75H97.25C96.4216 3.75 95.75 4.42157 95.75 5.25Z" fill="white"/>
</svg>
