<svg width="116" height="24" viewBox="0 0 116 24" fill="none" xmlns="http://www.w3.org/2000/svg">
<path d="M3.50491 6.36515C5.30269 6.1243 7.13702 6 9 6C10.863 6 12.6973 6.1243 14.4951 6.36515C15.7418 6.53218 16.6741 7.4733 16.9298 8.6333C16.7425 8.59823 16.5501 8.57486 16.3531 8.5641C15.5739 8.52154 14.7894 8.5 14 8.5C13.2106 8.5 12.4261 8.52154 11.6469 8.5641C9.22913 8.69615 7.5 10.7274 7.5 12.9979V15.2377C7.5 16.6511 8.17008 17.9726 9.26042 18.8002L6.28033 21.7803C6.06583 21.9948 5.74324 22.059 5.46299 21.9429C5.18273 21.8268 5 21.5533 5 21.25V17.8073C4.49897 17.7588 4.00056 17.7013 3.50493 17.6349C2.0334 17.4377 1 16.1622 1 14.7211V9.27886C1 7.83785 2.03337 6.5623 3.50491 6.36515Z" fill="white"/>
<path d="M14 10C13.2379 10 12.4807 10.0208 11.7287 10.0619C10.1572 10.1477 9 11.4721 9 12.9979V15.2377C9 16.7565 10.1467 18.077 11.7102 18.1726C11.9238 18.1857 12.1379 18.1971 12.3524 18.2068C12.5526 18.216 12.7366 18.2973 12.8702 18.4309L15.2197 20.7803C15.4342 20.9948 15.7568 21.059 16.037 20.9429C16.3173 20.8268 16.5 20.5533 16.5 20.25V18.1795C17.9525 17.9847 19 16.7165 19 15.2648V12.9979C19 11.4721 17.8428 10.1477 16.2713 10.0619C15.5193 10.0208 14.7621 10 14 10Z" fill="white"/>
<path d="M64.25 8.51104C65.1341 8.79549 65.75 9.6392 65.75 10.6082V14.8938C65.75 16.0304 64.9026 16.9943 63.7697 17.0867C63.4308 17.1144 63.0909 17.1386 62.75 17.1592V20.25L59.75 17.25C58.3963 17.25 57.0556 17.1948 55.7302 17.0866C55.4319 17.0623 55.1534 16.9775 54.9049 16.8451M64.25 8.51104C64.0986 8.46232 63.9393 8.43 63.7739 8.41628C62.4472 8.30616 61.1051 8.25 59.75 8.25C58.3948 8.25 57.0528 8.30616 55.7261 8.41627C54.595 8.51015 53.75 9.47323 53.75 10.6082V14.8937C53.75 15.731 54.2099 16.4746 54.9049 16.8451M64.25 8.51104V6.63731C64.25 5.01589 63.0983 3.61065 61.4903 3.40191C59.4478 3.13676 57.365 3 55.2503 3C53.1353 3 51.0523 3.13678 49.0096 3.40199C47.4017 3.61074 46.25 5.01598 46.25 6.63738V12.8626C46.25 14.484 47.4017 15.8893 49.0096 16.098C49.5866 16.1729 50.1668 16.2376 50.75 16.2918V21L54.9049 16.8451" stroke="white" stroke-width="1.5" stroke-linecap="round" stroke-linejoin="round"/>
<path d="M96.9131 2.65823C98.9877 2.38888 101.103 2.25 103.25 2.25C105.397 2.25 107.512 2.38885 109.587 2.65815C111.509 2.90769 112.878 4.51937 112.992 6.38495C112.666 6.27614 112.321 6.20396 111.96 6.17399C110.571 6.05874 109.167 6 107.75 6C106.333 6 104.929 6.05874 103.54 6.17398C101.182 6.36971 99.5 8.36467 99.5 10.6082V14.8937C99.5 16.5844 100.455 18.1326 101.933 18.8779L99.2803 21.5303C99.0658 21.7448 98.7432 21.809 98.463 21.6929C98.1827 21.5768 98 21.3033 98 21V16.9705C97.6365 16.9316 97.2742 16.8887 96.9131 16.8418C94.9047 16.581 93.5 14.8333 93.5 12.8626V6.63738C93.5 4.66672 94.9047 2.91899 96.9131 2.65823Z" fill="white"/>
<path d="M107.75 7.5C106.374 7.5 105.011 7.55702 103.664 7.66884C102.125 7.7966 101 9.10282 101 10.6082V14.8937C101 16.4014 102.128 17.7083 103.669 17.8341C104.913 17.9357 106.17 17.9912 107.438 17.999L110.22 20.7803C110.434 20.9948 110.757 21.059 111.037 20.9429C111.317 20.8268 111.5 20.5533 111.5 20.25V17.8601C111.61 17.8518 111.721 17.8432 111.831 17.8342C113.372 17.7085 114.5 16.4015 114.5 14.8938V10.6082C114.5 9.10283 113.375 7.79661 111.836 7.66885C110.489 7.55702 109.126 7.5 107.75 7.5Z" fill="white"/>
</svg>
