<svg width="116" height="24" viewBox="0 0 116 24" fill="none" xmlns="http://www.w3.org/2000/svg">
<path fill-rule="evenodd" clip-rule="evenodd" d="M5.23017 11.2094C5.52875 10.9223 6.00353 10.9316 6.29063 11.2302L10 15.1679L13.7094 11.2302C13.9965 10.9316 14.4713 10.9223 14.7698 11.2094C15.0684 11.4965 15.0777 11.9713 14.7906 12.2698L10.5406 16.7698C10.3992 16.9169 10.204 17 10 17C9.79599 17 9.60078 16.9169 9.45938 16.7698L5.20938 12.2698C4.92228 11.9713 4.93159 11.4965 5.23017 11.2094Z" fill="white"/>
<path d="M63.5 8.25L56 15.75L48.5 8.25" stroke="white" stroke-width="1.5" stroke-linecap="round" stroke-linejoin="round"/>
<path fill-rule="evenodd" clip-rule="evenodd" d="M104.53 16.2803C104.237 16.5732 103.763 16.5732 103.47 16.2803L95.9697 8.78033C95.6768 8.48744 95.6768 8.01256 95.9697 7.71967C96.2626 7.42678 96.7374 7.42678 97.0303 7.71967L104 14.6893L110.97 7.71967C111.263 7.42678 111.737 7.42678 112.03 7.71967C112.323 8.01256 112.323 8.48744 112.03 8.78033L104.53 16.2803Z" fill="white"/>
</svg>
