<svg width="50" height="50" viewBox="0 0 50 50" fill="none" xmlns="http://www.w3.org/2000/svg">
<rect width="50" height="50" rx="10" fill="white"/>
<path d="M16.3 33.7001C16.3 31.2977 18.2476 29.3501 20.65 29.3501H25V33.7001C25 36.1025 23.0524 38.0501 20.65 38.0501C18.2476 38.0501 16.3 36.1025 16.3 33.7001Z" fill="#0ACF83"/>
<path d="M25 25.0001C25 22.5977 26.9476 20.6501 29.35 20.6501C31.7524 20.6501 33.7 22.5977 33.7 25.0001C33.7 27.4026 31.7524 29.3501 29.35 29.3501C26.9476 29.3501 25 27.4026 25 25.0001Z" fill="#1ABCFE"/>
<path d="M16.3 25.0001C16.3 27.4025 18.2476 29.3501 20.65 29.3501H25V20.6501H20.65C18.2476 20.6501 16.3 22.5977 16.3 25.0001Z" fill="#A259FF"/>
<path d="M25 11.9502V20.6502H29.35C31.7524 20.6502 33.7 18.7026 33.7 16.3002C33.7 13.8978 31.7524 11.9502 29.35 11.9502H25Z" fill="#FF7262"/>
<path d="M16.3 16.3001C16.3 18.7026 18.2476 20.6501 20.65 20.6501H25V11.9501L20.65 11.9501C18.2476 11.9501 16.3 13.8977 16.3 16.3001Z" fill="#F24E1E"/>
</svg>
