<svg width="116" height="24" viewBox="0 0 116 24" fill="none" xmlns="http://www.w3.org/2000/svg">
<path fill-rule="evenodd" clip-rule="evenodd" d="M12.7906 9.23017C13.0777 9.52875 13.0684 10.0035 12.7698 10.2906L8.83208 14L12.7698 17.7094C13.0684 17.9965 13.0777 18.4713 12.7906 18.7698C12.5035 19.0684 12.0287 19.0777 11.7302 18.7906L7.23017 14.5406C7.08311 14.3992 7 14.204 7 14C7 13.796 7.08311 13.6008 7.23017 13.4594L11.7302 9.20938C12.0287 8.92228 12.5035 8.93159 12.7906 9.23017Z" fill="white"/>
<path d="M59.75 19.5L52.25 12L59.75 4.5" stroke="white" stroke-width="1.5" stroke-linecap="round" stroke-linejoin="round"/>
<path fill-rule="evenodd" clip-rule="evenodd" d="M99.7197 12.5303C99.4268 12.2374 99.4268 11.7626 99.7197 11.4697L107.22 3.96967C107.513 3.67678 107.987 3.67678 108.28 3.96967C108.573 4.26256 108.573 4.73744 108.28 5.03033L101.311 12L108.28 18.9697C108.573 19.2626 108.573 19.7374 108.28 20.0303C107.987 20.3232 107.513 20.3232 107.22 20.0303L99.7197 12.5303Z" fill="white"/>
</svg>
