<svg width="116" height="24" viewBox="0 0 116 24" fill="none" xmlns="http://www.w3.org/2000/svg">
<path fill-rule="evenodd" clip-rule="evenodd" d="M8.00001 5C8.41422 5 8.75001 5.33579 8.75001 5.75V10H7.25001V5.75C7.25001 5.33579 7.58579 5 8.00001 5ZM7.25001 10V13.2955L6.30748 12.2483C6.03038 11.9404 5.55617 11.9154 5.24828 12.1925C4.9404 12.4696 4.91544 12.9438 5.19254 13.2517L7.44254 15.7517C7.58477 15.9098 7.78739 16 8.00001 16C8.21262 16 8.41525 15.9098 8.55748 15.7517L10.8075 13.2517C11.0846 12.9438 11.0596 12.4696 10.7517 12.1925C10.4438 11.9154 9.96963 11.9404 9.69254 12.2483L8.75001 13.2955V10H10.75C11.9926 10 13 11.0074 13 12.25V16.75C13 17.9926 11.9926 19 10.75 19H5.25C4.00736 19 3 17.9926 3 16.75V12.25C3 11.0074 4.00736 10 5.25 10H7.25001ZM7 20.75V20.5H10.75C12.8211 20.5 14.5 18.8211 14.5 16.75V14H14.75C15.9926 14 17 15.0074 17 16.25V20.75C17 21.9926 15.9926 23 14.75 23H9.25C8.00736 23 7 21.9926 7 20.75Z" fill="white"/>
<path d="M51.5 7.5H50.75C49.5074 7.5 48.5 8.50736 48.5 9.75V17.25C48.5 18.4926 49.5074 19.5 50.75 19.5H58.25C59.4926 19.5 60.5 18.4926 60.5 17.25V9.75C60.5 8.50736 59.4926 7.5 58.25 7.5H57.5M51.5 11.25L54.5 14.25M54.5 14.25L57.5 11.25M54.5 14.25L54.5 1.5M60.5 10.5H61.25C62.4926 10.5 63.5 11.5074 63.5 12.75V20.25C63.5 21.4926 62.4926 22.5 61.25 22.5H53.75C52.5074 22.5 51.5 21.4926 51.5 20.25V19.5" stroke="white" stroke-width="1.5" stroke-linecap="round" stroke-linejoin="round"/>
<path fill-rule="evenodd" clip-rule="evenodd" d="M101.75 6.75H98.75C97.0931 6.75 95.75 8.09315 95.75 9.75V17.25C95.75 18.9069 97.0931 20.25 98.75 20.25H106.25C107.907 20.25 109.25 18.9069 109.25 17.25V9.75C109.25 8.09315 107.907 6.75 106.25 6.75H103.25L103.25 1.5C103.25 1.08579 102.914 0.75 102.5 0.75C102.086 0.75 101.75 1.08579 101.75 1.5V6.75ZM101.75 6.75H103.25V12.4393L104.97 10.7197C105.263 10.4268 105.737 10.4268 106.03 10.7197C106.323 11.0126 106.323 11.4874 106.03 11.7803L103.03 14.7803C102.737 15.0732 102.263 15.0732 101.97 14.7803L98.9697 11.7803C98.6768 11.4874 98.6768 11.0126 98.9697 10.7197C99.2626 10.4268 99.7374 10.4268 100.03 10.7197L101.75 12.4393V6.75Z" fill="white"/>
<path d="M99.1514 21.75C99.6701 22.6467 100.64 23.25 101.75 23.25H109.25C110.907 23.25 112.25 21.9069 112.25 20.25V12.75C112.25 11.6396 111.647 10.6701 110.75 10.1514V17.25C110.75 19.7353 108.735 21.75 106.25 21.75H99.1514Z" fill="white"/>
</svg>
