<svg width="116" height="24" viewBox="0 0 116 24" fill="none" xmlns="http://www.w3.org/2000/svg">
<path fill-rule="evenodd" clip-rule="evenodd" d="M4.93005 6.31046C6.5916 6.10551 8.28365 6 10 6C11.7163 6 13.4084 6.10551 15.07 6.31046C16.1942 6.44913 17 7.41374 17 8.51661V21.25C17 21.5078 16.8676 21.7475 16.6494 21.8848C16.4312 22.0221 16.1578 22.0377 15.9255 21.9261L13.125 20.5819L10.3245 21.9261C10.1194 22.0246 9.88061 22.0246 9.67545 21.9261L6.875 20.5819L4.07455 21.9261C3.84215 22.0377 3.56875 22.0221 3.35057 21.8848C3.13239 21.7475 3 21.5078 3 21.25V8.51661C3 7.41374 3.80579 6.44913 4.93005 6.31046ZM13.7803 11.2803C14.0732 10.9874 14.0732 10.5126 13.7803 10.2197C13.4874 9.92678 13.0126 9.92678 12.7197 10.2197L6.21967 16.7197C5.92678 17.0126 5.92678 17.4874 6.21967 17.7803C6.51256 18.0732 6.98744 18.0732 7.28033 17.7803L13.7803 11.2803ZM9 12C9 12.5523 8.55228 13 8 13C7.44772 13 7 12.5523 7 12C7 11.4477 7.44772 11 8 11C8.55228 11 9 11.4477 9 12ZM12 17C12.5523 17 13 16.5523 13 16C13 15.4477 12.5523 15 12 15C11.4477 15 11 15.4477 11 16C11 16.5523 11.4477 17 12 17Z" fill="white"/>
<path d="M53 14.25L59 8.25M63.5 4.75699V21.75L59.75 20.25L56 21.75L52.25 20.25L48.5 21.75V4.75699C48.5 3.649 49.3061 2.70014 50.4067 2.57241C52.2416 2.35947 54.108 2.25 56 2.25C57.892 2.25 59.7584 2.35947 61.5933 2.57241C62.6939 2.70014 63.5 3.649 63.5 4.75699ZM53.75 9H53.7575V9.0075H53.75V9ZM54.125 9C54.125 9.20711 53.9571 9.375 53.75 9.375C53.5429 9.375 53.375 9.20711 53.375 9C53.375 8.79289 53.5429 8.625 53.75 8.625C53.9571 8.625 54.125 8.79289 54.125 9ZM58.25 13.5H58.2575V13.5075H58.25V13.5ZM58.625 13.5C58.625 13.7071 58.4571 13.875 58.25 13.875C58.0429 13.875 57.875 13.7071 57.875 13.5C57.875 13.2929 58.0429 13.125 58.25 13.125C58.4571 13.125 58.625 13.2929 58.625 13.5Z" stroke="white" stroke-width="1.5" stroke-linecap="round" stroke-linejoin="round"/>
<path fill-rule="evenodd" clip-rule="evenodd" d="M104 1.5C102.079 1.5 100.184 1.61114 98.3202 1.82741C96.8228 2.00119 95.75 3.28722 95.75 4.75699V21.75C95.75 21.9989 95.8734 22.2315 96.0795 22.3711C96.2856 22.5106 96.5475 22.5388 96.7785 22.4464L100.25 21.0578L103.721 22.4464C103.9 22.5179 104.1 22.5179 104.279 22.4464L107.75 21.0578L111.221 22.4464C111.453 22.5388 111.714 22.5106 111.92 22.3711C112.127 22.2315 112.25 21.9989 112.25 21.75V4.75699C112.25 3.28722 111.177 2.00119 109.68 1.82741C107.816 1.61114 105.921 1.5 104 1.5ZM107.53 8.78033C107.823 8.48744 107.823 8.01256 107.53 7.71967C107.237 7.42678 106.763 7.42678 106.47 7.71967L100.47 13.7197C100.177 14.0126 100.177 14.4874 100.47 14.7803C100.763 15.0732 101.237 15.0732 101.53 14.7803L107.53 8.78033ZM100.625 9C100.625 8.37868 101.129 7.875 101.75 7.875C102.371 7.875 102.875 8.37868 102.875 9C102.875 9.62132 102.371 10.125 101.75 10.125C101.129 10.125 100.625 9.62132 100.625 9ZM106.25 12.375C105.629 12.375 105.125 12.8787 105.125 13.5C105.125 14.1213 105.629 14.625 106.25 14.625C106.871 14.625 107.375 14.1213 107.375 13.5C107.375 12.8787 106.871 12.375 106.25 12.375Z" fill="white"/>
</svg>
