<svg width="116" height="24" viewBox="0 0 116 24" fill="none" xmlns="http://www.w3.org/2000/svg">
<path fill-rule="evenodd" clip-rule="evenodd" d="M2.23966 10.7996C2.5432 11.0814 3.01775 11.0639 3.2996 10.7603L5.25 8.6599L5.25 17.25C5.25 17.6642 5.58579 18 6 18C6.41422 18 6.75 17.6642 6.75 17.25V8.6599L8.70041 10.7603C8.98226 11.0639 9.45681 11.0814 9.76034 10.7996C10.0639 10.5177 10.0815 10.0432 9.7996 9.73966L6.5496 6.23966C6.40769 6.08684 6.20855 6 6 6C5.79145 6 5.59232 6.08684 5.45041 6.23966L2.20041 9.73966C1.91856 10.0432 1.93613 10.5177 2.23966 10.7996ZM10.2397 17.2004C9.93613 17.4823 9.91856 17.9568 10.2004 18.2603L13.4504 21.7603C13.5923 21.9132 13.7915 22 14 22C14.2086 22 14.4077 21.9132 14.5496 21.7603L17.7996 18.2603C18.0815 17.9568 18.0639 17.4823 17.7603 17.2004C17.4568 16.9186 16.9823 16.9361 16.7004 17.2397L14.75 19.3401V10.75C14.75 10.3358 14.4142 10 14 10C13.5858 10 13.25 10.3358 13.25 10.75V19.3401L11.2996 17.2397C11.0177 16.9361 10.5432 16.9186 10.2397 17.2004Z" fill="white"/>
<path d="M47 7.5L51.5 3M51.5 3L56 7.5M51.5 3V16.5M65 16.5L60.5 21M60.5 21L56 16.5M60.5 21L60.5 7.5" stroke="white" stroke-width="1.5" stroke-linecap="round" stroke-linejoin="round"/>
<path fill-rule="evenodd" clip-rule="evenodd" d="M98.9697 2.46967C99.2626 2.17678 99.7374 2.17678 100.03 2.46967L104.53 6.96967C104.823 7.26256 104.823 7.73744 104.53 8.03033C104.237 8.32322 103.763 8.32322 103.47 8.03033L100.25 4.81066V16.5C100.25 16.9142 99.9142 17.25 99.5 17.25C99.0858 17.25 98.75 16.9142 98.75 16.5V4.81066L95.5303 8.03033C95.2374 8.32322 94.7626 8.32322 94.4697 8.03033C94.1768 7.73744 94.1768 7.26256 94.4697 6.96967L98.9697 2.46967ZM108.5 6.75C108.914 6.75 109.25 7.08579 109.25 7.5L109.25 19.1893L112.47 15.9697C112.763 15.6768 113.237 15.6768 113.53 15.9697C113.823 16.2626 113.823 16.7374 113.53 17.0303L109.03 21.5303C108.89 21.671 108.699 21.75 108.5 21.75C108.301 21.75 108.11 21.671 107.97 21.5303L103.47 17.0303C103.177 16.7374 103.177 16.2626 103.47 15.9697C103.763 15.6768 104.237 15.6768 104.53 15.9697L107.75 19.1893L107.75 7.5C107.75 7.08579 108.086 6.75 108.5 6.75Z" fill="white"/>
</svg>
