<svg width="30" height="30" viewBox="0 0 30 30" fill="none" xmlns="http://www.w3.org/2000/svg">
<path d="M0 15C0 12.28 0.67002 9.77001 2.01 7.47C3.35001 5.16999 5.17002 3.35001 7.47 2.01C9.77001 0.66999 12.28 0 15 0C17.72 0 20.23 0.66999 22.53 2.01C24.83 3.35001 26.65 5.16999 27.99 7.47C29.33 9.77001 30 12.28 30 15C30 17.72 29.33 20.23 27.99 22.53C26.65 24.83 24.83 26.65 22.53 27.99C20.23 29.33 17.72 30 15 30C12.28 30 9.77001 29.33 7.47 27.99C5.17002 26.65 3.35001 24.83 2.01 22.53C0.67002 20.23 0 17.72 0 15ZM2.49 15C2.49 18.12 3.54 20.87 5.64 23.25C6.6 21.37 8.12001 19.58 10.2 17.88C12.28 16.18 14.31 15.11 16.29 14.67C15.99 13.97 15.7 13.34 15.42 12.78C11.98 13.88 8.26002 14.43 4.26 14.43C3.48 14.43 2.90001 14.42 2.52 14.4C2.52 14.48 2.51502 14.58 2.505 14.7C2.49501 14.82 2.49 14.92 2.49 15ZM2.88 11.91C3.32001 11.95 3.97002 11.97 4.83 11.97C8.17002 11.97 11.34 11.52 14.34 10.62C12.82 7.92 11.15 5.67 9.33 3.87C7.75002 4.67001 6.39501 5.78001 5.265 7.2C4.13502 8.61999 3.34002 10.19 2.88 11.91ZM7.35 24.87C9.61002 26.63 12.16 27.51 15 27.51C16.48 27.51 17.95 27.23 19.41 26.67C19.01 23.25 18.23 19.94 17.07 16.74C15.23 17.14 13.375 18.15 11.505 19.77C9.63501 21.39 8.25 23.09 7.35 24.87ZM11.94 2.91C13.7 4.73001 15.33 6.99999 16.83 9.72C19.55 8.58 21.6 7.13001 22.98 5.37C20.66 3.45 18 2.49 15 2.49C13.98 2.49 12.96 2.63001 11.94 2.91ZM17.91 11.85C18.21 12.49 18.55 13.3 18.93 14.28C20.41 14.14 22.02 14.07 23.76 14.07C25 14.07 26.23 14.1 27.45 14.16C27.29 11.44 26.31 9.02001 24.51 6.9C23.21 8.84001 21.01 10.49 17.91 11.85ZM19.68 16.38C20.7 19.34 21.39 22.38 21.75 25.5C23.33 24.48 24.62 23.17 25.62 21.57C26.62 19.97 27.22 18.24 27.42 16.38C25.96 16.28 24.63 16.23 23.43 16.23C22.33 16.23 21.08 16.28 19.68 16.38Z" fill="#333333"/>
</svg>
