<svg width="116" height="24" viewBox="0 0 116 24" fill="none" xmlns="http://www.w3.org/2000/svg">
<path fill-rule="evenodd" clip-rule="evenodd" d="M4.25 6C3.00736 6 2 7.00736 2 8.25V19.75C2 20.9926 3.00736 22 4.25 22H15.75C16.9926 22 18 20.9926 18 19.75V8.25C18 7.00736 16.9926 6 15.75 6H4.25ZM8.28033 12.2803C8.57322 11.9874 8.57322 11.5126 8.28033 11.2197C7.98744 10.9268 7.51256 10.9268 7.21967 11.2197L4.96967 13.4697C4.67678 13.7626 4.67678 14.2374 4.96967 14.5303L7.21967 16.7803C7.51256 17.0732 7.98744 17.0732 8.28033 16.7803C8.57322 16.4874 8.57322 16.0126 8.28033 15.7197L6.56066 14L8.28033 12.2803ZM12.7803 11.2197C12.4874 10.9268 12.0126 10.9268 11.7197 11.2197C11.4268 11.5126 11.4268 11.9874 11.7197 12.2803L13.4393 14L11.7197 15.7197C11.4268 16.0126 11.4268 16.4874 11.7197 16.7803C12.0126 17.0732 12.4874 17.0732 12.7803 16.7803L15.0303 14.5303C15.3232 14.2374 15.3232 13.7626 15.0303 13.4697L12.7803 11.2197Z" fill="white"/>
<path d="M58.25 9.75L60.5 12L58.25 14.25M53.75 14.25L51.5 12L53.75 9.75M50 20.25H62C63.2426 20.25 64.25 19.2426 64.25 18V6C64.25 4.75736 63.2426 3.75 62 3.75H50C48.7574 3.75 47.75 4.75736 47.75 6V18C47.75 19.2426 48.7574 20.25 50 20.25Z" stroke="white" stroke-width="1.5" stroke-linecap="round" stroke-linejoin="round"/>
<path fill-rule="evenodd" clip-rule="evenodd" d="M95 6C95 4.34315 96.3431 3 98 3H110C111.657 3 113 4.34315 113 6V18C113 19.6569 111.657 21 110 21H98C96.3431 21 95 19.6569 95 18V6ZM109.25 12C109.25 12.1989 109.171 12.3897 109.03 12.5303L106.78 14.7803C106.487 15.0732 106.013 15.0732 105.72 14.7803C105.427 14.4874 105.427 14.0126 105.72 13.7197L107.439 12L105.72 10.2803C105.427 9.98744 105.427 9.51256 105.72 9.21967C106.013 8.92678 106.487 8.92678 106.78 9.21967L109.03 11.4697C109.171 11.6103 109.25 11.8011 109.25 12ZM98.9697 11.4697C98.829 11.6103 98.75 11.8011 98.75 12C98.75 12.1989 98.829 12.3897 98.9697 12.5303L101.22 14.7803C101.513 15.0732 101.987 15.0732 102.28 14.7803C102.573 14.4874 102.573 14.0126 102.28 13.7197L100.561 12L102.28 10.2803C102.573 9.98744 102.573 9.51256 102.28 9.21967C101.987 8.92678 101.513 8.92678 101.22 9.21967L98.9697 11.4697Z" fill="white"/>
</svg>
