<svg width="116" height="24" viewBox="0 0 116 24" fill="none" xmlns="http://www.w3.org/2000/svg">
<path fill-rule="evenodd" clip-rule="evenodd" d="M2 14C2 13.5858 2.33579 13.25 2.75 13.25L15.3401 13.25L13.2397 11.2996C12.9361 11.0177 12.9186 10.5432 13.2004 10.2397C13.4823 9.93613 13.9568 9.91856 14.2603 10.2004L17.7603 13.4504C17.9132 13.5923 18 13.7915 18 14C18 14.2086 17.9132 14.4077 17.7603 14.5496L14.2603 17.7996C13.9568 18.0815 13.4823 18.0639 13.2004 17.7603C12.9186 17.4568 12.9361 16.9823 13.2397 16.7004L15.3401 14.75L2.75 14.75C2.33579 14.75 2 14.4142 2 14Z" fill="white"/>
<path d="M61.25 8.25L65 12M65 12L61.25 15.75M65 12H47" stroke="white" stroke-width="1.5" stroke-linecap="round" stroke-linejoin="round"/>
<path fill-rule="evenodd" clip-rule="evenodd" d="M108.72 7.71967C109.013 7.42678 109.487 7.42678 109.78 7.71967L113.53 11.4697C113.823 11.7626 113.823 12.2374 113.53 12.5303L109.78 16.2803C109.487 16.5732 109.013 16.5732 108.72 16.2803C108.427 15.9874 108.427 15.5126 108.72 15.2197L111.189 12.75H95C94.5858 12.75 94.25 12.4142 94.25 12C94.25 11.5858 94.5858 11.25 95 11.25H111.189L108.72 8.78033C108.427 8.48744 108.427 8.01256 108.72 7.71967Z" fill="white"/>
</svg>
