<svg width="116" height="24" viewBox="0 0 116 24" fill="none" xmlns="http://www.w3.org/2000/svg">
<path fill-rule="evenodd" clip-rule="evenodd" d="M3.99997 12C3.99997 8.68629 6.68626 6 9.99997 6C13.3137 6 16 8.68629 16 12C16 13.8866 16.4537 15.6651 17.2573 17.2343C17.364 17.4426 17.3673 17.6888 17.2663 17.9C17.1652 18.1111 16.9714 18.2629 16.7422 18.3105C15.6746 18.5322 14.5882 18.7023 13.4857 18.818C13.3251 20.602 11.8258 22 10 22C8.17421 22 6.67494 20.602 6.51426 18.818C5.41181 18.7023 4.32537 18.5322 3.25769 18.3105C3.02851 18.2629 2.83469 18.1111 2.73365 17.9C2.6326 17.6888 2.63591 17.4426 2.7426 17.2343C3.54624 15.6651 3.99997 13.8866 3.99997 12ZM9.99997 19C9.34517 19 8.69477 18.9809 8.0493 18.9433C8.25097 19.8345 9.04777 20.5 10 20.5C10.9522 20.5 11.749 19.8345 11.9507 18.9433C11.3052 18.9809 10.6548 19 9.99997 19ZM8.75 10C8.33579 10 8 10.3358 8 10.75C8 11.1642 8.33579 11.5 8.75 11.5H9.79261L8.1397 13.8141C7.97641 14.0427 7.95457 14.3434 8.08312 14.5932C8.21168 14.843 8.46906 15 8.75 15H11.25C11.6642 15 12 14.6642 12 14.25C12 13.8358 11.6642 13.5 11.25 13.5H10.2074L11.8603 11.1859C12.0236 10.9573 12.0454 10.6566 11.9169 10.4068C11.7883 10.157 11.5309 10 11.25 10H8.75Z" fill="white"/>
<path d="M58.8569 17.0817C60.7514 16.857 62.5783 16.4116 64.3111 15.7719C62.8743 14.177 61.9998 12.0656 61.9998 9.75V9.04919C61.9999 9.03281 62 9.01641 62 9C62 5.68629 59.3137 3 56 3C52.6863 3 50 5.68629 50 9L49.9998 9.75C49.9998 12.0656 49.1253 14.177 47.6885 15.7719C49.4214 16.4116 51.2484 16.857 53.1431 17.0818M58.8569 17.0817C57.92 17.1928 56.9666 17.25 55.9998 17.25C55.0332 17.25 54.0799 17.1929 53.1431 17.0818M58.8569 17.0817C58.9498 17.3711 59 17.6797 59 18C59 19.6569 57.6569 21 56 21C54.3431 21 53 19.6569 53 18C53 17.6797 53.0502 17.3712 53.1431 17.0818M54.5 8.25H57.5L54.5 12.75H57.5" stroke="white" stroke-width="1.5" stroke-linecap="round" stroke-linejoin="round"/>
<path fill-rule="evenodd" clip-rule="evenodd" d="M104 2.25C100.272 2.25 97.2501 5.27197 97.25 8.9998L97.2498 9.75C97.2498 11.8731 96.4488 13.8074 95.1313 15.2699C94.9648 15.4547 94.9007 15.71 94.9603 15.9516C95.0199 16.1931 95.1954 16.3893 95.4288 16.4755C96.9729 17.0455 98.5893 17.4659 100.26 17.7192C100.254 17.812 100.25 17.9056 100.25 18C100.25 20.0711 101.929 21.75 104 21.75C106.071 21.75 107.75 20.0711 107.75 18C107.75 17.9056 107.747 17.812 107.74 17.7192C109.411 17.4659 111.027 17.0455 112.571 16.4755C112.804 16.3893 112.98 16.1931 113.039 15.9516C113.099 15.71 113.035 15.4547 112.868 15.2699C111.551 13.8074 110.75 11.8731 110.75 9.75V9.04919L110.75 9C110.75 5.27208 107.728 2.25 104 2.25ZM101.75 18C101.75 17.9662 101.751 17.9326 101.752 17.8993C102.493 17.966 103.242 18 104 18C104.757 18 105.507 17.9659 106.248 17.8992C106.249 17.9326 106.25 17.9662 106.25 18C106.25 19.2426 105.243 20.25 104 20.25C102.757 20.25 101.75 19.2426 101.75 18ZM102.5 7.5C102.086 7.5 101.75 7.83579 101.75 8.25C101.75 8.66421 102.086 9 102.5 9H104.099L101.876 12.334C101.723 12.5641 101.708 12.86 101.839 13.1039C101.969 13.3478 102.223 13.5 102.5 13.5H105.5C105.914 13.5 106.25 13.1642 106.25 12.75C106.25 12.3358 105.914 12 105.5 12H103.901L106.124 8.66603C106.277 8.43588 106.292 8.13997 106.161 7.89611C106.031 7.65224 105.777 7.5 105.5 7.5H102.5Z" fill="white"/>
</svg>
