<svg width="116" height="24" viewBox="0 0 116 24" fill="none" xmlns="http://www.w3.org/2000/svg">
<path d="M3.28824 8.81846C2.28891 8.20123 1 8.92008 1 10.0947V17.9051C1 19.0797 2.2889 19.7986 3.28824 19.1813L9.61101 15.2761C9.76598 15.1804 9.89564 15.0635 10 14.9323V17.9051C10 19.0797 11.2889 19.7986 12.2882 19.1813L18.611 15.2761C19.56 14.6899 19.56 13.3099 18.611 12.7237L12.2882 8.81846C11.2889 8.20123 10 8.92008 10 10.0947V13.0674C9.89564 12.9363 9.76598 12.8194 9.61101 12.7237L3.28824 8.81846Z" fill="white"/>
<path d="M47 8.68867C47 7.82487 47.9332 7.28334 48.6832 7.7119L55.7906 11.7733C56.5464 12.2052 56.5464 13.295 55.7906 13.7269L48.6832 17.7883C47.9332 18.2169 47 17.6753 47 16.8115V8.68867Z" stroke="white" stroke-width="1.5" stroke-linecap="round" stroke-linejoin="round"/>
<path d="M56.75 8.68867C56.75 7.82487 57.6832 7.28334 58.4332 7.7119L65.5406 11.7733C66.2964 12.2052 66.2964 13.295 65.5406 13.7269L58.4332 17.7883C57.6832 18.2169 56.75 17.6753 56.75 16.8115V8.68867Z" stroke="white" stroke-width="1.5" stroke-linecap="round" stroke-linejoin="round"/>
<path d="M97.0553 7.06061C95.8053 6.34633 94.25 7.24889 94.25 8.68856V16.8114C94.25 18.2511 95.8053 19.1536 97.0553 18.4394L104 14.4709V16.8114C104 18.2511 105.555 19.1536 106.805 18.4394L113.913 14.3779C115.172 13.6581 115.172 11.8418 113.913 11.122L106.805 7.06061C105.555 6.34633 104 7.24889 104 8.68856V11.029L97.0553 7.06061Z" fill="white"/>
</svg>
